%TF.GenerationSoftware,KiCad,Pcbnew,10.0.1*%
%TF.CreationDate,2026-07-28T22:25:14+02:00*%
%TF.ProjectId,Makropad,4d616b72-6f70-4616-942e-6b696361645f,rev?*%
%TF.SameCoordinates,Original*%
%TF.FileFunction,Legend,Top*%
%TF.FilePolarity,Positive*%
%FSLAX46Y46*%
G04 Gerber Fmt 4.6, Leading zero omitted, Abs format (unit mm)*
G04 Created by KiCad (PCBNEW 10.0.1) date 2026-07-28 22:25:14*
%MOMM*%
%LPD*%
G01*
G04 APERTURE LIST*
%ADD10C,0.100000*%
%ADD11C,0.150000*%
%ADD12C,0.120000*%
G04 APERTURE END LIST*
D10*
X117378095Y-69057419D02*
X117378095Y-69866942D01*
X117378095Y-69866942D02*
X117425714Y-69962180D01*
X117425714Y-69962180D02*
X117473333Y-70009800D01*
X117473333Y-70009800D02*
X117568571Y-70057419D01*
X117568571Y-70057419D02*
X117759047Y-70057419D01*
X117759047Y-70057419D02*
X117854285Y-70009800D01*
X117854285Y-70009800D02*
X117901904Y-69962180D01*
X117901904Y-69962180D02*
X117949523Y-69866942D01*
X117949523Y-69866942D02*
X117949523Y-69057419D01*
X118330476Y-69057419D02*
X118949523Y-69057419D01*
X118949523Y-69057419D02*
X118616190Y-69438371D01*
X118616190Y-69438371D02*
X118759047Y-69438371D01*
X118759047Y-69438371D02*
X118854285Y-69485990D01*
X118854285Y-69485990D02*
X118901904Y-69533609D01*
X118901904Y-69533609D02*
X118949523Y-69628847D01*
X118949523Y-69628847D02*
X118949523Y-69866942D01*
X118949523Y-69866942D02*
X118901904Y-69962180D01*
X118901904Y-69962180D02*
X118854285Y-70009800D01*
X118854285Y-70009800D02*
X118759047Y-70057419D01*
X118759047Y-70057419D02*
X118473333Y-70057419D01*
X118473333Y-70057419D02*
X118378095Y-70009800D01*
X118378095Y-70009800D02*
X118330476Y-69962180D01*
D11*
X74371905Y-82004819D02*
X74371905Y-81004819D01*
X74371905Y-81004819D02*
X74610000Y-81004819D01*
X74610000Y-81004819D02*
X74752857Y-81052438D01*
X74752857Y-81052438D02*
X74848095Y-81147676D01*
X74848095Y-81147676D02*
X74895714Y-81242914D01*
X74895714Y-81242914D02*
X74943333Y-81433390D01*
X74943333Y-81433390D02*
X74943333Y-81576247D01*
X74943333Y-81576247D02*
X74895714Y-81766723D01*
X74895714Y-81766723D02*
X74848095Y-81861961D01*
X74848095Y-81861961D02*
X74752857Y-81957200D01*
X74752857Y-81957200D02*
X74610000Y-82004819D01*
X74610000Y-82004819D02*
X74371905Y-82004819D01*
X75324286Y-81100057D02*
X75371905Y-81052438D01*
X75371905Y-81052438D02*
X75467143Y-81004819D01*
X75467143Y-81004819D02*
X75705238Y-81004819D01*
X75705238Y-81004819D02*
X75800476Y-81052438D01*
X75800476Y-81052438D02*
X75848095Y-81100057D01*
X75848095Y-81100057D02*
X75895714Y-81195295D01*
X75895714Y-81195295D02*
X75895714Y-81290533D01*
X75895714Y-81290533D02*
X75848095Y-81433390D01*
X75848095Y-81433390D02*
X75276667Y-82004819D01*
X75276667Y-82004819D02*
X75895714Y-82004819D01*
X126158333Y-96349580D02*
X126110714Y-96397200D01*
X126110714Y-96397200D02*
X125967857Y-96444819D01*
X125967857Y-96444819D02*
X125872619Y-96444819D01*
X125872619Y-96444819D02*
X125729762Y-96397200D01*
X125729762Y-96397200D02*
X125634524Y-96301961D01*
X125634524Y-96301961D02*
X125586905Y-96206723D01*
X125586905Y-96206723D02*
X125539286Y-96016247D01*
X125539286Y-96016247D02*
X125539286Y-95873390D01*
X125539286Y-95873390D02*
X125586905Y-95682914D01*
X125586905Y-95682914D02*
X125634524Y-95587676D01*
X125634524Y-95587676D02*
X125729762Y-95492438D01*
X125729762Y-95492438D02*
X125872619Y-95444819D01*
X125872619Y-95444819D02*
X125967857Y-95444819D01*
X125967857Y-95444819D02*
X126110714Y-95492438D01*
X126110714Y-95492438D02*
X126158333Y-95540057D01*
X127063095Y-95444819D02*
X126586905Y-95444819D01*
X126586905Y-95444819D02*
X126539286Y-95921009D01*
X126539286Y-95921009D02*
X126586905Y-95873390D01*
X126586905Y-95873390D02*
X126682143Y-95825771D01*
X126682143Y-95825771D02*
X126920238Y-95825771D01*
X126920238Y-95825771D02*
X127015476Y-95873390D01*
X127015476Y-95873390D02*
X127063095Y-95921009D01*
X127063095Y-95921009D02*
X127110714Y-96016247D01*
X127110714Y-96016247D02*
X127110714Y-96254342D01*
X127110714Y-96254342D02*
X127063095Y-96349580D01*
X127063095Y-96349580D02*
X127015476Y-96397200D01*
X127015476Y-96397200D02*
X126920238Y-96444819D01*
X126920238Y-96444819D02*
X126682143Y-96444819D01*
X126682143Y-96444819D02*
X126586905Y-96397200D01*
X126586905Y-96397200D02*
X126539286Y-96349580D01*
X93441905Y-82064819D02*
X93441905Y-81064819D01*
X93441905Y-81064819D02*
X93680000Y-81064819D01*
X93680000Y-81064819D02*
X93822857Y-81112438D01*
X93822857Y-81112438D02*
X93918095Y-81207676D01*
X93918095Y-81207676D02*
X93965714Y-81302914D01*
X93965714Y-81302914D02*
X94013333Y-81493390D01*
X94013333Y-81493390D02*
X94013333Y-81636247D01*
X94013333Y-81636247D02*
X93965714Y-81826723D01*
X93965714Y-81826723D02*
X93918095Y-81921961D01*
X93918095Y-81921961D02*
X93822857Y-82017200D01*
X93822857Y-82017200D02*
X93680000Y-82064819D01*
X93680000Y-82064819D02*
X93441905Y-82064819D01*
X94346667Y-81064819D02*
X94965714Y-81064819D01*
X94965714Y-81064819D02*
X94632381Y-81445771D01*
X94632381Y-81445771D02*
X94775238Y-81445771D01*
X94775238Y-81445771D02*
X94870476Y-81493390D01*
X94870476Y-81493390D02*
X94918095Y-81541009D01*
X94918095Y-81541009D02*
X94965714Y-81636247D01*
X94965714Y-81636247D02*
X94965714Y-81874342D01*
X94965714Y-81874342D02*
X94918095Y-81969580D01*
X94918095Y-81969580D02*
X94870476Y-82017200D01*
X94870476Y-82017200D02*
X94775238Y-82064819D01*
X94775238Y-82064819D02*
X94489524Y-82064819D01*
X94489524Y-82064819D02*
X94394286Y-82017200D01*
X94394286Y-82017200D02*
X94346667Y-81969580D01*
X57307142Y-154859580D02*
X57259523Y-154907200D01*
X57259523Y-154907200D02*
X57116666Y-154954819D01*
X57116666Y-154954819D02*
X57021428Y-154954819D01*
X57021428Y-154954819D02*
X56878571Y-154907200D01*
X56878571Y-154907200D02*
X56783333Y-154811961D01*
X56783333Y-154811961D02*
X56735714Y-154716723D01*
X56735714Y-154716723D02*
X56688095Y-154526247D01*
X56688095Y-154526247D02*
X56688095Y-154383390D01*
X56688095Y-154383390D02*
X56735714Y-154192914D01*
X56735714Y-154192914D02*
X56783333Y-154097676D01*
X56783333Y-154097676D02*
X56878571Y-154002438D01*
X56878571Y-154002438D02*
X57021428Y-153954819D01*
X57021428Y-153954819D02*
X57116666Y-153954819D01*
X57116666Y-153954819D02*
X57259523Y-154002438D01*
X57259523Y-154002438D02*
X57307142Y-154050057D01*
X58259523Y-154954819D02*
X57688095Y-154954819D01*
X57973809Y-154954819D02*
X57973809Y-153954819D01*
X57973809Y-153954819D02*
X57878571Y-154097676D01*
X57878571Y-154097676D02*
X57783333Y-154192914D01*
X57783333Y-154192914D02*
X57688095Y-154240533D01*
X58592857Y-153954819D02*
X59259523Y-153954819D01*
X59259523Y-153954819D02*
X58830952Y-154954819D01*
X93431905Y-101064819D02*
X93431905Y-100064819D01*
X93431905Y-100064819D02*
X93670000Y-100064819D01*
X93670000Y-100064819D02*
X93812857Y-100112438D01*
X93812857Y-100112438D02*
X93908095Y-100207676D01*
X93908095Y-100207676D02*
X93955714Y-100302914D01*
X93955714Y-100302914D02*
X94003333Y-100493390D01*
X94003333Y-100493390D02*
X94003333Y-100636247D01*
X94003333Y-100636247D02*
X93955714Y-100826723D01*
X93955714Y-100826723D02*
X93908095Y-100921961D01*
X93908095Y-100921961D02*
X93812857Y-101017200D01*
X93812857Y-101017200D02*
X93670000Y-101064819D01*
X93670000Y-101064819D02*
X93431905Y-101064819D01*
X94574762Y-100493390D02*
X94479524Y-100445771D01*
X94479524Y-100445771D02*
X94431905Y-100398152D01*
X94431905Y-100398152D02*
X94384286Y-100302914D01*
X94384286Y-100302914D02*
X94384286Y-100255295D01*
X94384286Y-100255295D02*
X94431905Y-100160057D01*
X94431905Y-100160057D02*
X94479524Y-100112438D01*
X94479524Y-100112438D02*
X94574762Y-100064819D01*
X94574762Y-100064819D02*
X94765238Y-100064819D01*
X94765238Y-100064819D02*
X94860476Y-100112438D01*
X94860476Y-100112438D02*
X94908095Y-100160057D01*
X94908095Y-100160057D02*
X94955714Y-100255295D01*
X94955714Y-100255295D02*
X94955714Y-100302914D01*
X94955714Y-100302914D02*
X94908095Y-100398152D01*
X94908095Y-100398152D02*
X94860476Y-100445771D01*
X94860476Y-100445771D02*
X94765238Y-100493390D01*
X94765238Y-100493390D02*
X94574762Y-100493390D01*
X94574762Y-100493390D02*
X94479524Y-100541009D01*
X94479524Y-100541009D02*
X94431905Y-100588628D01*
X94431905Y-100588628D02*
X94384286Y-100683866D01*
X94384286Y-100683866D02*
X94384286Y-100874342D01*
X94384286Y-100874342D02*
X94431905Y-100969580D01*
X94431905Y-100969580D02*
X94479524Y-101017200D01*
X94479524Y-101017200D02*
X94574762Y-101064819D01*
X94574762Y-101064819D02*
X94765238Y-101064819D01*
X94765238Y-101064819D02*
X94860476Y-101017200D01*
X94860476Y-101017200D02*
X94908095Y-100969580D01*
X94908095Y-100969580D02*
X94955714Y-100874342D01*
X94955714Y-100874342D02*
X94955714Y-100683866D01*
X94955714Y-100683866D02*
X94908095Y-100588628D01*
X94908095Y-100588628D02*
X94860476Y-100541009D01*
X94860476Y-100541009D02*
X94765238Y-100493390D01*
X138545714Y-139644819D02*
X138545714Y-138644819D01*
X138545714Y-138644819D02*
X138783809Y-138644819D01*
X138783809Y-138644819D02*
X138926666Y-138692438D01*
X138926666Y-138692438D02*
X139021904Y-138787676D01*
X139021904Y-138787676D02*
X139069523Y-138882914D01*
X139069523Y-138882914D02*
X139117142Y-139073390D01*
X139117142Y-139073390D02*
X139117142Y-139216247D01*
X139117142Y-139216247D02*
X139069523Y-139406723D01*
X139069523Y-139406723D02*
X139021904Y-139501961D01*
X139021904Y-139501961D02*
X138926666Y-139597200D01*
X138926666Y-139597200D02*
X138783809Y-139644819D01*
X138783809Y-139644819D02*
X138545714Y-139644819D01*
X139450476Y-138644819D02*
X140069523Y-138644819D01*
X140069523Y-138644819D02*
X139736190Y-139025771D01*
X139736190Y-139025771D02*
X139879047Y-139025771D01*
X139879047Y-139025771D02*
X139974285Y-139073390D01*
X139974285Y-139073390D02*
X140021904Y-139121009D01*
X140021904Y-139121009D02*
X140069523Y-139216247D01*
X140069523Y-139216247D02*
X140069523Y-139454342D01*
X140069523Y-139454342D02*
X140021904Y-139549580D01*
X140021904Y-139549580D02*
X139974285Y-139597200D01*
X139974285Y-139597200D02*
X139879047Y-139644819D01*
X139879047Y-139644819D02*
X139593333Y-139644819D01*
X139593333Y-139644819D02*
X139498095Y-139597200D01*
X139498095Y-139597200D02*
X139450476Y-139549580D01*
X140974285Y-138644819D02*
X140498095Y-138644819D01*
X140498095Y-138644819D02*
X140450476Y-139121009D01*
X140450476Y-139121009D02*
X140498095Y-139073390D01*
X140498095Y-139073390D02*
X140593333Y-139025771D01*
X140593333Y-139025771D02*
X140831428Y-139025771D01*
X140831428Y-139025771D02*
X140926666Y-139073390D01*
X140926666Y-139073390D02*
X140974285Y-139121009D01*
X140974285Y-139121009D02*
X141021904Y-139216247D01*
X141021904Y-139216247D02*
X141021904Y-139454342D01*
X141021904Y-139454342D02*
X140974285Y-139549580D01*
X140974285Y-139549580D02*
X140926666Y-139597200D01*
X140926666Y-139597200D02*
X140831428Y-139644819D01*
X140831428Y-139644819D02*
X140593333Y-139644819D01*
X140593333Y-139644819D02*
X140498095Y-139597200D01*
X140498095Y-139597200D02*
X140450476Y-139549580D01*
X100455714Y-101664819D02*
X100455714Y-100664819D01*
X100455714Y-100664819D02*
X100693809Y-100664819D01*
X100693809Y-100664819D02*
X100836666Y-100712438D01*
X100836666Y-100712438D02*
X100931904Y-100807676D01*
X100931904Y-100807676D02*
X100979523Y-100902914D01*
X100979523Y-100902914D02*
X101027142Y-101093390D01*
X101027142Y-101093390D02*
X101027142Y-101236247D01*
X101027142Y-101236247D02*
X100979523Y-101426723D01*
X100979523Y-101426723D02*
X100931904Y-101521961D01*
X100931904Y-101521961D02*
X100836666Y-101617200D01*
X100836666Y-101617200D02*
X100693809Y-101664819D01*
X100693809Y-101664819D02*
X100455714Y-101664819D01*
X101408095Y-100760057D02*
X101455714Y-100712438D01*
X101455714Y-100712438D02*
X101550952Y-100664819D01*
X101550952Y-100664819D02*
X101789047Y-100664819D01*
X101789047Y-100664819D02*
X101884285Y-100712438D01*
X101884285Y-100712438D02*
X101931904Y-100760057D01*
X101931904Y-100760057D02*
X101979523Y-100855295D01*
X101979523Y-100855295D02*
X101979523Y-100950533D01*
X101979523Y-100950533D02*
X101931904Y-101093390D01*
X101931904Y-101093390D02*
X101360476Y-101664819D01*
X101360476Y-101664819D02*
X101979523Y-101664819D01*
X102312857Y-100664819D02*
X102931904Y-100664819D01*
X102931904Y-100664819D02*
X102598571Y-101045771D01*
X102598571Y-101045771D02*
X102741428Y-101045771D01*
X102741428Y-101045771D02*
X102836666Y-101093390D01*
X102836666Y-101093390D02*
X102884285Y-101141009D01*
X102884285Y-101141009D02*
X102931904Y-101236247D01*
X102931904Y-101236247D02*
X102931904Y-101474342D01*
X102931904Y-101474342D02*
X102884285Y-101569580D01*
X102884285Y-101569580D02*
X102836666Y-101617200D01*
X102836666Y-101617200D02*
X102741428Y-101664819D01*
X102741428Y-101664819D02*
X102455714Y-101664819D01*
X102455714Y-101664819D02*
X102360476Y-101617200D01*
X102360476Y-101617200D02*
X102312857Y-101569580D01*
X76833333Y-116849580D02*
X76785714Y-116897200D01*
X76785714Y-116897200D02*
X76642857Y-116944819D01*
X76642857Y-116944819D02*
X76547619Y-116944819D01*
X76547619Y-116944819D02*
X76404762Y-116897200D01*
X76404762Y-116897200D02*
X76309524Y-116801961D01*
X76309524Y-116801961D02*
X76261905Y-116706723D01*
X76261905Y-116706723D02*
X76214286Y-116516247D01*
X76214286Y-116516247D02*
X76214286Y-116373390D01*
X76214286Y-116373390D02*
X76261905Y-116182914D01*
X76261905Y-116182914D02*
X76309524Y-116087676D01*
X76309524Y-116087676D02*
X76404762Y-115992438D01*
X76404762Y-115992438D02*
X76547619Y-115944819D01*
X76547619Y-115944819D02*
X76642857Y-115944819D01*
X76642857Y-115944819D02*
X76785714Y-115992438D01*
X76785714Y-115992438D02*
X76833333Y-116040057D01*
X77404762Y-116373390D02*
X77309524Y-116325771D01*
X77309524Y-116325771D02*
X77261905Y-116278152D01*
X77261905Y-116278152D02*
X77214286Y-116182914D01*
X77214286Y-116182914D02*
X77214286Y-116135295D01*
X77214286Y-116135295D02*
X77261905Y-116040057D01*
X77261905Y-116040057D02*
X77309524Y-115992438D01*
X77309524Y-115992438D02*
X77404762Y-115944819D01*
X77404762Y-115944819D02*
X77595238Y-115944819D01*
X77595238Y-115944819D02*
X77690476Y-115992438D01*
X77690476Y-115992438D02*
X77738095Y-116040057D01*
X77738095Y-116040057D02*
X77785714Y-116135295D01*
X77785714Y-116135295D02*
X77785714Y-116182914D01*
X77785714Y-116182914D02*
X77738095Y-116278152D01*
X77738095Y-116278152D02*
X77690476Y-116325771D01*
X77690476Y-116325771D02*
X77595238Y-116373390D01*
X77595238Y-116373390D02*
X77404762Y-116373390D01*
X77404762Y-116373390D02*
X77309524Y-116421009D01*
X77309524Y-116421009D02*
X77261905Y-116468628D01*
X77261905Y-116468628D02*
X77214286Y-116563866D01*
X77214286Y-116563866D02*
X77214286Y-116754342D01*
X77214286Y-116754342D02*
X77261905Y-116849580D01*
X77261905Y-116849580D02*
X77309524Y-116897200D01*
X77309524Y-116897200D02*
X77404762Y-116944819D01*
X77404762Y-116944819D02*
X77595238Y-116944819D01*
X77595238Y-116944819D02*
X77690476Y-116897200D01*
X77690476Y-116897200D02*
X77738095Y-116849580D01*
X77738095Y-116849580D02*
X77785714Y-116754342D01*
X77785714Y-116754342D02*
X77785714Y-116563866D01*
X77785714Y-116563866D02*
X77738095Y-116468628D01*
X77738095Y-116468628D02*
X77690476Y-116421009D01*
X77690476Y-116421009D02*
X77595238Y-116373390D01*
X100465714Y-139734819D02*
X100465714Y-138734819D01*
X100465714Y-138734819D02*
X100703809Y-138734819D01*
X100703809Y-138734819D02*
X100846666Y-138782438D01*
X100846666Y-138782438D02*
X100941904Y-138877676D01*
X100941904Y-138877676D02*
X100989523Y-138972914D01*
X100989523Y-138972914D02*
X101037142Y-139163390D01*
X101037142Y-139163390D02*
X101037142Y-139306247D01*
X101037142Y-139306247D02*
X100989523Y-139496723D01*
X100989523Y-139496723D02*
X100941904Y-139591961D01*
X100941904Y-139591961D02*
X100846666Y-139687200D01*
X100846666Y-139687200D02*
X100703809Y-139734819D01*
X100703809Y-139734819D02*
X100465714Y-139734819D01*
X101370476Y-138734819D02*
X101989523Y-138734819D01*
X101989523Y-138734819D02*
X101656190Y-139115771D01*
X101656190Y-139115771D02*
X101799047Y-139115771D01*
X101799047Y-139115771D02*
X101894285Y-139163390D01*
X101894285Y-139163390D02*
X101941904Y-139211009D01*
X101941904Y-139211009D02*
X101989523Y-139306247D01*
X101989523Y-139306247D02*
X101989523Y-139544342D01*
X101989523Y-139544342D02*
X101941904Y-139639580D01*
X101941904Y-139639580D02*
X101894285Y-139687200D01*
X101894285Y-139687200D02*
X101799047Y-139734819D01*
X101799047Y-139734819D02*
X101513333Y-139734819D01*
X101513333Y-139734819D02*
X101418095Y-139687200D01*
X101418095Y-139687200D02*
X101370476Y-139639580D01*
X102322857Y-138734819D02*
X102941904Y-138734819D01*
X102941904Y-138734819D02*
X102608571Y-139115771D01*
X102608571Y-139115771D02*
X102751428Y-139115771D01*
X102751428Y-139115771D02*
X102846666Y-139163390D01*
X102846666Y-139163390D02*
X102894285Y-139211009D01*
X102894285Y-139211009D02*
X102941904Y-139306247D01*
X102941904Y-139306247D02*
X102941904Y-139544342D01*
X102941904Y-139544342D02*
X102894285Y-139639580D01*
X102894285Y-139639580D02*
X102846666Y-139687200D01*
X102846666Y-139687200D02*
X102751428Y-139734819D01*
X102751428Y-139734819D02*
X102465714Y-139734819D01*
X102465714Y-139734819D02*
X102370476Y-139687200D01*
X102370476Y-139687200D02*
X102322857Y-139639580D01*
X111995714Y-139154819D02*
X111995714Y-138154819D01*
X111995714Y-138154819D02*
X112233809Y-138154819D01*
X112233809Y-138154819D02*
X112376666Y-138202438D01*
X112376666Y-138202438D02*
X112471904Y-138297676D01*
X112471904Y-138297676D02*
X112519523Y-138392914D01*
X112519523Y-138392914D02*
X112567142Y-138583390D01*
X112567142Y-138583390D02*
X112567142Y-138726247D01*
X112567142Y-138726247D02*
X112519523Y-138916723D01*
X112519523Y-138916723D02*
X112471904Y-139011961D01*
X112471904Y-139011961D02*
X112376666Y-139107200D01*
X112376666Y-139107200D02*
X112233809Y-139154819D01*
X112233809Y-139154819D02*
X111995714Y-139154819D01*
X113519523Y-139154819D02*
X112948095Y-139154819D01*
X113233809Y-139154819D02*
X113233809Y-138154819D01*
X113233809Y-138154819D02*
X113138571Y-138297676D01*
X113138571Y-138297676D02*
X113043333Y-138392914D01*
X113043333Y-138392914D02*
X112948095Y-138440533D01*
X113995714Y-139154819D02*
X114186190Y-139154819D01*
X114186190Y-139154819D02*
X114281428Y-139107200D01*
X114281428Y-139107200D02*
X114329047Y-139059580D01*
X114329047Y-139059580D02*
X114424285Y-138916723D01*
X114424285Y-138916723D02*
X114471904Y-138726247D01*
X114471904Y-138726247D02*
X114471904Y-138345295D01*
X114471904Y-138345295D02*
X114424285Y-138250057D01*
X114424285Y-138250057D02*
X114376666Y-138202438D01*
X114376666Y-138202438D02*
X114281428Y-138154819D01*
X114281428Y-138154819D02*
X114090952Y-138154819D01*
X114090952Y-138154819D02*
X113995714Y-138202438D01*
X113995714Y-138202438D02*
X113948095Y-138250057D01*
X113948095Y-138250057D02*
X113900476Y-138345295D01*
X113900476Y-138345295D02*
X113900476Y-138583390D01*
X113900476Y-138583390D02*
X113948095Y-138678628D01*
X113948095Y-138678628D02*
X113995714Y-138726247D01*
X113995714Y-138726247D02*
X114090952Y-138773866D01*
X114090952Y-138773866D02*
X114281428Y-138773866D01*
X114281428Y-138773866D02*
X114376666Y-138726247D01*
X114376666Y-138726247D02*
X114424285Y-138678628D01*
X114424285Y-138678628D02*
X114471904Y-138583390D01*
X131055714Y-139174819D02*
X131055714Y-138174819D01*
X131055714Y-138174819D02*
X131293809Y-138174819D01*
X131293809Y-138174819D02*
X131436666Y-138222438D01*
X131436666Y-138222438D02*
X131531904Y-138317676D01*
X131531904Y-138317676D02*
X131579523Y-138412914D01*
X131579523Y-138412914D02*
X131627142Y-138603390D01*
X131627142Y-138603390D02*
X131627142Y-138746247D01*
X131627142Y-138746247D02*
X131579523Y-138936723D01*
X131579523Y-138936723D02*
X131531904Y-139031961D01*
X131531904Y-139031961D02*
X131436666Y-139127200D01*
X131436666Y-139127200D02*
X131293809Y-139174819D01*
X131293809Y-139174819D02*
X131055714Y-139174819D01*
X132008095Y-138270057D02*
X132055714Y-138222438D01*
X132055714Y-138222438D02*
X132150952Y-138174819D01*
X132150952Y-138174819D02*
X132389047Y-138174819D01*
X132389047Y-138174819D02*
X132484285Y-138222438D01*
X132484285Y-138222438D02*
X132531904Y-138270057D01*
X132531904Y-138270057D02*
X132579523Y-138365295D01*
X132579523Y-138365295D02*
X132579523Y-138460533D01*
X132579523Y-138460533D02*
X132531904Y-138603390D01*
X132531904Y-138603390D02*
X131960476Y-139174819D01*
X131960476Y-139174819D02*
X132579523Y-139174819D01*
X133198571Y-138174819D02*
X133293809Y-138174819D01*
X133293809Y-138174819D02*
X133389047Y-138222438D01*
X133389047Y-138222438D02*
X133436666Y-138270057D01*
X133436666Y-138270057D02*
X133484285Y-138365295D01*
X133484285Y-138365295D02*
X133531904Y-138555771D01*
X133531904Y-138555771D02*
X133531904Y-138793866D01*
X133531904Y-138793866D02*
X133484285Y-138984342D01*
X133484285Y-138984342D02*
X133436666Y-139079580D01*
X133436666Y-139079580D02*
X133389047Y-139127200D01*
X133389047Y-139127200D02*
X133293809Y-139174819D01*
X133293809Y-139174819D02*
X133198571Y-139174819D01*
X133198571Y-139174819D02*
X133103333Y-139127200D01*
X133103333Y-139127200D02*
X133055714Y-139079580D01*
X133055714Y-139079580D02*
X133008095Y-138984342D01*
X133008095Y-138984342D02*
X132960476Y-138793866D01*
X132960476Y-138793866D02*
X132960476Y-138555771D01*
X132960476Y-138555771D02*
X133008095Y-138365295D01*
X133008095Y-138365295D02*
X133055714Y-138270057D01*
X133055714Y-138270057D02*
X133103333Y-138222438D01*
X133103333Y-138222438D02*
X133198571Y-138174819D01*
X92955714Y-120134819D02*
X92955714Y-119134819D01*
X92955714Y-119134819D02*
X93193809Y-119134819D01*
X93193809Y-119134819D02*
X93336666Y-119182438D01*
X93336666Y-119182438D02*
X93431904Y-119277676D01*
X93431904Y-119277676D02*
X93479523Y-119372914D01*
X93479523Y-119372914D02*
X93527142Y-119563390D01*
X93527142Y-119563390D02*
X93527142Y-119706247D01*
X93527142Y-119706247D02*
X93479523Y-119896723D01*
X93479523Y-119896723D02*
X93431904Y-119991961D01*
X93431904Y-119991961D02*
X93336666Y-120087200D01*
X93336666Y-120087200D02*
X93193809Y-120134819D01*
X93193809Y-120134819D02*
X92955714Y-120134819D01*
X94479523Y-120134819D02*
X93908095Y-120134819D01*
X94193809Y-120134819D02*
X94193809Y-119134819D01*
X94193809Y-119134819D02*
X94098571Y-119277676D01*
X94098571Y-119277676D02*
X94003333Y-119372914D01*
X94003333Y-119372914D02*
X93908095Y-119420533D01*
X94812857Y-119134819D02*
X95431904Y-119134819D01*
X95431904Y-119134819D02*
X95098571Y-119515771D01*
X95098571Y-119515771D02*
X95241428Y-119515771D01*
X95241428Y-119515771D02*
X95336666Y-119563390D01*
X95336666Y-119563390D02*
X95384285Y-119611009D01*
X95384285Y-119611009D02*
X95431904Y-119706247D01*
X95431904Y-119706247D02*
X95431904Y-119944342D01*
X95431904Y-119944342D02*
X95384285Y-120039580D01*
X95384285Y-120039580D02*
X95336666Y-120087200D01*
X95336666Y-120087200D02*
X95241428Y-120134819D01*
X95241428Y-120134819D02*
X94955714Y-120134819D01*
X94955714Y-120134819D02*
X94860476Y-120087200D01*
X94860476Y-120087200D02*
X94812857Y-120039580D01*
X54905714Y-139194819D02*
X54905714Y-138194819D01*
X54905714Y-138194819D02*
X55143809Y-138194819D01*
X55143809Y-138194819D02*
X55286666Y-138242438D01*
X55286666Y-138242438D02*
X55381904Y-138337676D01*
X55381904Y-138337676D02*
X55429523Y-138432914D01*
X55429523Y-138432914D02*
X55477142Y-138623390D01*
X55477142Y-138623390D02*
X55477142Y-138766247D01*
X55477142Y-138766247D02*
X55429523Y-138956723D01*
X55429523Y-138956723D02*
X55381904Y-139051961D01*
X55381904Y-139051961D02*
X55286666Y-139147200D01*
X55286666Y-139147200D02*
X55143809Y-139194819D01*
X55143809Y-139194819D02*
X54905714Y-139194819D01*
X56429523Y-139194819D02*
X55858095Y-139194819D01*
X56143809Y-139194819D02*
X56143809Y-138194819D01*
X56143809Y-138194819D02*
X56048571Y-138337676D01*
X56048571Y-138337676D02*
X55953333Y-138432914D01*
X55953333Y-138432914D02*
X55858095Y-138480533D01*
X57286666Y-138194819D02*
X57096190Y-138194819D01*
X57096190Y-138194819D02*
X57000952Y-138242438D01*
X57000952Y-138242438D02*
X56953333Y-138290057D01*
X56953333Y-138290057D02*
X56858095Y-138432914D01*
X56858095Y-138432914D02*
X56810476Y-138623390D01*
X56810476Y-138623390D02*
X56810476Y-139004342D01*
X56810476Y-139004342D02*
X56858095Y-139099580D01*
X56858095Y-139099580D02*
X56905714Y-139147200D01*
X56905714Y-139147200D02*
X57000952Y-139194819D01*
X57000952Y-139194819D02*
X57191428Y-139194819D01*
X57191428Y-139194819D02*
X57286666Y-139147200D01*
X57286666Y-139147200D02*
X57334285Y-139099580D01*
X57334285Y-139099580D02*
X57381904Y-139004342D01*
X57381904Y-139004342D02*
X57381904Y-138766247D01*
X57381904Y-138766247D02*
X57334285Y-138671009D01*
X57334285Y-138671009D02*
X57286666Y-138623390D01*
X57286666Y-138623390D02*
X57191428Y-138575771D01*
X57191428Y-138575771D02*
X57000952Y-138575771D01*
X57000952Y-138575771D02*
X56905714Y-138623390D01*
X56905714Y-138623390D02*
X56858095Y-138671009D01*
X56858095Y-138671009D02*
X56810476Y-138766247D01*
X112491905Y-101074819D02*
X112491905Y-100074819D01*
X112491905Y-100074819D02*
X112730000Y-100074819D01*
X112730000Y-100074819D02*
X112872857Y-100122438D01*
X112872857Y-100122438D02*
X112968095Y-100217676D01*
X112968095Y-100217676D02*
X113015714Y-100312914D01*
X113015714Y-100312914D02*
X113063333Y-100503390D01*
X113063333Y-100503390D02*
X113063333Y-100646247D01*
X113063333Y-100646247D02*
X113015714Y-100836723D01*
X113015714Y-100836723D02*
X112968095Y-100931961D01*
X112968095Y-100931961D02*
X112872857Y-101027200D01*
X112872857Y-101027200D02*
X112730000Y-101074819D01*
X112730000Y-101074819D02*
X112491905Y-101074819D01*
X113539524Y-101074819D02*
X113730000Y-101074819D01*
X113730000Y-101074819D02*
X113825238Y-101027200D01*
X113825238Y-101027200D02*
X113872857Y-100979580D01*
X113872857Y-100979580D02*
X113968095Y-100836723D01*
X113968095Y-100836723D02*
X114015714Y-100646247D01*
X114015714Y-100646247D02*
X114015714Y-100265295D01*
X114015714Y-100265295D02*
X113968095Y-100170057D01*
X113968095Y-100170057D02*
X113920476Y-100122438D01*
X113920476Y-100122438D02*
X113825238Y-100074819D01*
X113825238Y-100074819D02*
X113634762Y-100074819D01*
X113634762Y-100074819D02*
X113539524Y-100122438D01*
X113539524Y-100122438D02*
X113491905Y-100170057D01*
X113491905Y-100170057D02*
X113444286Y-100265295D01*
X113444286Y-100265295D02*
X113444286Y-100503390D01*
X113444286Y-100503390D02*
X113491905Y-100598628D01*
X113491905Y-100598628D02*
X113539524Y-100646247D01*
X113539524Y-100646247D02*
X113634762Y-100693866D01*
X113634762Y-100693866D02*
X113825238Y-100693866D01*
X113825238Y-100693866D02*
X113920476Y-100646247D01*
X113920476Y-100646247D02*
X113968095Y-100598628D01*
X113968095Y-100598628D02*
X114015714Y-100503390D01*
X114507142Y-116779580D02*
X114459523Y-116827200D01*
X114459523Y-116827200D02*
X114316666Y-116874819D01*
X114316666Y-116874819D02*
X114221428Y-116874819D01*
X114221428Y-116874819D02*
X114078571Y-116827200D01*
X114078571Y-116827200D02*
X113983333Y-116731961D01*
X113983333Y-116731961D02*
X113935714Y-116636723D01*
X113935714Y-116636723D02*
X113888095Y-116446247D01*
X113888095Y-116446247D02*
X113888095Y-116303390D01*
X113888095Y-116303390D02*
X113935714Y-116112914D01*
X113935714Y-116112914D02*
X113983333Y-116017676D01*
X113983333Y-116017676D02*
X114078571Y-115922438D01*
X114078571Y-115922438D02*
X114221428Y-115874819D01*
X114221428Y-115874819D02*
X114316666Y-115874819D01*
X114316666Y-115874819D02*
X114459523Y-115922438D01*
X114459523Y-115922438D02*
X114507142Y-115970057D01*
X115459523Y-116874819D02*
X114888095Y-116874819D01*
X115173809Y-116874819D02*
X115173809Y-115874819D01*
X115173809Y-115874819D02*
X115078571Y-116017676D01*
X115078571Y-116017676D02*
X114983333Y-116112914D01*
X114983333Y-116112914D02*
X114888095Y-116160533D01*
X116078571Y-115874819D02*
X116173809Y-115874819D01*
X116173809Y-115874819D02*
X116269047Y-115922438D01*
X116269047Y-115922438D02*
X116316666Y-115970057D01*
X116316666Y-115970057D02*
X116364285Y-116065295D01*
X116364285Y-116065295D02*
X116411904Y-116255771D01*
X116411904Y-116255771D02*
X116411904Y-116493866D01*
X116411904Y-116493866D02*
X116364285Y-116684342D01*
X116364285Y-116684342D02*
X116316666Y-116779580D01*
X116316666Y-116779580D02*
X116269047Y-116827200D01*
X116269047Y-116827200D02*
X116173809Y-116874819D01*
X116173809Y-116874819D02*
X116078571Y-116874819D01*
X116078571Y-116874819D02*
X115983333Y-116827200D01*
X115983333Y-116827200D02*
X115935714Y-116779580D01*
X115935714Y-116779580D02*
X115888095Y-116684342D01*
X115888095Y-116684342D02*
X115840476Y-116493866D01*
X115840476Y-116493866D02*
X115840476Y-116255771D01*
X115840476Y-116255771D02*
X115888095Y-116065295D01*
X115888095Y-116065295D02*
X115935714Y-115970057D01*
X115935714Y-115970057D02*
X115983333Y-115922438D01*
X115983333Y-115922438D02*
X116078571Y-115874819D01*
X55321905Y-82004819D02*
X55321905Y-81004819D01*
X55321905Y-81004819D02*
X55560000Y-81004819D01*
X55560000Y-81004819D02*
X55702857Y-81052438D01*
X55702857Y-81052438D02*
X55798095Y-81147676D01*
X55798095Y-81147676D02*
X55845714Y-81242914D01*
X55845714Y-81242914D02*
X55893333Y-81433390D01*
X55893333Y-81433390D02*
X55893333Y-81576247D01*
X55893333Y-81576247D02*
X55845714Y-81766723D01*
X55845714Y-81766723D02*
X55798095Y-81861961D01*
X55798095Y-81861961D02*
X55702857Y-81957200D01*
X55702857Y-81957200D02*
X55560000Y-82004819D01*
X55560000Y-82004819D02*
X55321905Y-82004819D01*
X56845714Y-82004819D02*
X56274286Y-82004819D01*
X56560000Y-82004819D02*
X56560000Y-81004819D01*
X56560000Y-81004819D02*
X56464762Y-81147676D01*
X56464762Y-81147676D02*
X56369524Y-81242914D01*
X56369524Y-81242914D02*
X56274286Y-81290533D01*
X93015714Y-139194819D02*
X93015714Y-138194819D01*
X93015714Y-138194819D02*
X93253809Y-138194819D01*
X93253809Y-138194819D02*
X93396666Y-138242438D01*
X93396666Y-138242438D02*
X93491904Y-138337676D01*
X93491904Y-138337676D02*
X93539523Y-138432914D01*
X93539523Y-138432914D02*
X93587142Y-138623390D01*
X93587142Y-138623390D02*
X93587142Y-138766247D01*
X93587142Y-138766247D02*
X93539523Y-138956723D01*
X93539523Y-138956723D02*
X93491904Y-139051961D01*
X93491904Y-139051961D02*
X93396666Y-139147200D01*
X93396666Y-139147200D02*
X93253809Y-139194819D01*
X93253809Y-139194819D02*
X93015714Y-139194819D01*
X94539523Y-139194819D02*
X93968095Y-139194819D01*
X94253809Y-139194819D02*
X94253809Y-138194819D01*
X94253809Y-138194819D02*
X94158571Y-138337676D01*
X94158571Y-138337676D02*
X94063333Y-138432914D01*
X94063333Y-138432914D02*
X93968095Y-138480533D01*
X95110952Y-138623390D02*
X95015714Y-138575771D01*
X95015714Y-138575771D02*
X94968095Y-138528152D01*
X94968095Y-138528152D02*
X94920476Y-138432914D01*
X94920476Y-138432914D02*
X94920476Y-138385295D01*
X94920476Y-138385295D02*
X94968095Y-138290057D01*
X94968095Y-138290057D02*
X95015714Y-138242438D01*
X95015714Y-138242438D02*
X95110952Y-138194819D01*
X95110952Y-138194819D02*
X95301428Y-138194819D01*
X95301428Y-138194819D02*
X95396666Y-138242438D01*
X95396666Y-138242438D02*
X95444285Y-138290057D01*
X95444285Y-138290057D02*
X95491904Y-138385295D01*
X95491904Y-138385295D02*
X95491904Y-138432914D01*
X95491904Y-138432914D02*
X95444285Y-138528152D01*
X95444285Y-138528152D02*
X95396666Y-138575771D01*
X95396666Y-138575771D02*
X95301428Y-138623390D01*
X95301428Y-138623390D02*
X95110952Y-138623390D01*
X95110952Y-138623390D02*
X95015714Y-138671009D01*
X95015714Y-138671009D02*
X94968095Y-138718628D01*
X94968095Y-138718628D02*
X94920476Y-138813866D01*
X94920476Y-138813866D02*
X94920476Y-139004342D01*
X94920476Y-139004342D02*
X94968095Y-139099580D01*
X94968095Y-139099580D02*
X95015714Y-139147200D01*
X95015714Y-139147200D02*
X95110952Y-139194819D01*
X95110952Y-139194819D02*
X95301428Y-139194819D01*
X95301428Y-139194819D02*
X95396666Y-139147200D01*
X95396666Y-139147200D02*
X95444285Y-139099580D01*
X95444285Y-139099580D02*
X95491904Y-139004342D01*
X95491904Y-139004342D02*
X95491904Y-138813866D01*
X95491904Y-138813866D02*
X95444285Y-138718628D01*
X95444285Y-138718628D02*
X95396666Y-138671009D01*
X95396666Y-138671009D02*
X95301428Y-138623390D01*
X55311905Y-101094819D02*
X55311905Y-100094819D01*
X55311905Y-100094819D02*
X55550000Y-100094819D01*
X55550000Y-100094819D02*
X55692857Y-100142438D01*
X55692857Y-100142438D02*
X55788095Y-100237676D01*
X55788095Y-100237676D02*
X55835714Y-100332914D01*
X55835714Y-100332914D02*
X55883333Y-100523390D01*
X55883333Y-100523390D02*
X55883333Y-100666247D01*
X55883333Y-100666247D02*
X55835714Y-100856723D01*
X55835714Y-100856723D02*
X55788095Y-100951961D01*
X55788095Y-100951961D02*
X55692857Y-101047200D01*
X55692857Y-101047200D02*
X55550000Y-101094819D01*
X55550000Y-101094819D02*
X55311905Y-101094819D01*
X56740476Y-100094819D02*
X56550000Y-100094819D01*
X56550000Y-100094819D02*
X56454762Y-100142438D01*
X56454762Y-100142438D02*
X56407143Y-100190057D01*
X56407143Y-100190057D02*
X56311905Y-100332914D01*
X56311905Y-100332914D02*
X56264286Y-100523390D01*
X56264286Y-100523390D02*
X56264286Y-100904342D01*
X56264286Y-100904342D02*
X56311905Y-100999580D01*
X56311905Y-100999580D02*
X56359524Y-101047200D01*
X56359524Y-101047200D02*
X56454762Y-101094819D01*
X56454762Y-101094819D02*
X56645238Y-101094819D01*
X56645238Y-101094819D02*
X56740476Y-101047200D01*
X56740476Y-101047200D02*
X56788095Y-100999580D01*
X56788095Y-100999580D02*
X56835714Y-100904342D01*
X56835714Y-100904342D02*
X56835714Y-100666247D01*
X56835714Y-100666247D02*
X56788095Y-100571009D01*
X56788095Y-100571009D02*
X56740476Y-100523390D01*
X56740476Y-100523390D02*
X56645238Y-100475771D01*
X56645238Y-100475771D02*
X56454762Y-100475771D01*
X56454762Y-100475771D02*
X56359524Y-100523390D01*
X56359524Y-100523390D02*
X56311905Y-100571009D01*
X56311905Y-100571009D02*
X56264286Y-100666247D01*
X81415714Y-101504819D02*
X81415714Y-100504819D01*
X81415714Y-100504819D02*
X81653809Y-100504819D01*
X81653809Y-100504819D02*
X81796666Y-100552438D01*
X81796666Y-100552438D02*
X81891904Y-100647676D01*
X81891904Y-100647676D02*
X81939523Y-100742914D01*
X81939523Y-100742914D02*
X81987142Y-100933390D01*
X81987142Y-100933390D02*
X81987142Y-101076247D01*
X81987142Y-101076247D02*
X81939523Y-101266723D01*
X81939523Y-101266723D02*
X81891904Y-101361961D01*
X81891904Y-101361961D02*
X81796666Y-101457200D01*
X81796666Y-101457200D02*
X81653809Y-101504819D01*
X81653809Y-101504819D02*
X81415714Y-101504819D01*
X82368095Y-100600057D02*
X82415714Y-100552438D01*
X82415714Y-100552438D02*
X82510952Y-100504819D01*
X82510952Y-100504819D02*
X82749047Y-100504819D01*
X82749047Y-100504819D02*
X82844285Y-100552438D01*
X82844285Y-100552438D02*
X82891904Y-100600057D01*
X82891904Y-100600057D02*
X82939523Y-100695295D01*
X82939523Y-100695295D02*
X82939523Y-100790533D01*
X82939523Y-100790533D02*
X82891904Y-100933390D01*
X82891904Y-100933390D02*
X82320476Y-101504819D01*
X82320476Y-101504819D02*
X82939523Y-101504819D01*
X83320476Y-100600057D02*
X83368095Y-100552438D01*
X83368095Y-100552438D02*
X83463333Y-100504819D01*
X83463333Y-100504819D02*
X83701428Y-100504819D01*
X83701428Y-100504819D02*
X83796666Y-100552438D01*
X83796666Y-100552438D02*
X83844285Y-100600057D01*
X83844285Y-100600057D02*
X83891904Y-100695295D01*
X83891904Y-100695295D02*
X83891904Y-100790533D01*
X83891904Y-100790533D02*
X83844285Y-100933390D01*
X83844285Y-100933390D02*
X83272857Y-101504819D01*
X83272857Y-101504819D02*
X83891904Y-101504819D01*
X131065714Y-101094819D02*
X131065714Y-100094819D01*
X131065714Y-100094819D02*
X131303809Y-100094819D01*
X131303809Y-100094819D02*
X131446666Y-100142438D01*
X131446666Y-100142438D02*
X131541904Y-100237676D01*
X131541904Y-100237676D02*
X131589523Y-100332914D01*
X131589523Y-100332914D02*
X131637142Y-100523390D01*
X131637142Y-100523390D02*
X131637142Y-100666247D01*
X131637142Y-100666247D02*
X131589523Y-100856723D01*
X131589523Y-100856723D02*
X131541904Y-100951961D01*
X131541904Y-100951961D02*
X131446666Y-101047200D01*
X131446666Y-101047200D02*
X131303809Y-101094819D01*
X131303809Y-101094819D02*
X131065714Y-101094819D01*
X132589523Y-101094819D02*
X132018095Y-101094819D01*
X132303809Y-101094819D02*
X132303809Y-100094819D01*
X132303809Y-100094819D02*
X132208571Y-100237676D01*
X132208571Y-100237676D02*
X132113333Y-100332914D01*
X132113333Y-100332914D02*
X132018095Y-100380533D01*
X133208571Y-100094819D02*
X133303809Y-100094819D01*
X133303809Y-100094819D02*
X133399047Y-100142438D01*
X133399047Y-100142438D02*
X133446666Y-100190057D01*
X133446666Y-100190057D02*
X133494285Y-100285295D01*
X133494285Y-100285295D02*
X133541904Y-100475771D01*
X133541904Y-100475771D02*
X133541904Y-100713866D01*
X133541904Y-100713866D02*
X133494285Y-100904342D01*
X133494285Y-100904342D02*
X133446666Y-100999580D01*
X133446666Y-100999580D02*
X133399047Y-101047200D01*
X133399047Y-101047200D02*
X133303809Y-101094819D01*
X133303809Y-101094819D02*
X133208571Y-101094819D01*
X133208571Y-101094819D02*
X133113333Y-101047200D01*
X133113333Y-101047200D02*
X133065714Y-100999580D01*
X133065714Y-100999580D02*
X133018095Y-100904342D01*
X133018095Y-100904342D02*
X132970476Y-100713866D01*
X132970476Y-100713866D02*
X132970476Y-100475771D01*
X132970476Y-100475771D02*
X133018095Y-100285295D01*
X133018095Y-100285295D02*
X133065714Y-100190057D01*
X133065714Y-100190057D02*
X133113333Y-100142438D01*
X133113333Y-100142438D02*
X133208571Y-100094819D01*
X62335714Y-158474819D02*
X62335714Y-157474819D01*
X62335714Y-157474819D02*
X62573809Y-157474819D01*
X62573809Y-157474819D02*
X62716666Y-157522438D01*
X62716666Y-157522438D02*
X62811904Y-157617676D01*
X62811904Y-157617676D02*
X62859523Y-157712914D01*
X62859523Y-157712914D02*
X62907142Y-157903390D01*
X62907142Y-157903390D02*
X62907142Y-158046247D01*
X62907142Y-158046247D02*
X62859523Y-158236723D01*
X62859523Y-158236723D02*
X62811904Y-158331961D01*
X62811904Y-158331961D02*
X62716666Y-158427200D01*
X62716666Y-158427200D02*
X62573809Y-158474819D01*
X62573809Y-158474819D02*
X62335714Y-158474819D01*
X63240476Y-157474819D02*
X63859523Y-157474819D01*
X63859523Y-157474819D02*
X63526190Y-157855771D01*
X63526190Y-157855771D02*
X63669047Y-157855771D01*
X63669047Y-157855771D02*
X63764285Y-157903390D01*
X63764285Y-157903390D02*
X63811904Y-157951009D01*
X63811904Y-157951009D02*
X63859523Y-158046247D01*
X63859523Y-158046247D02*
X63859523Y-158284342D01*
X63859523Y-158284342D02*
X63811904Y-158379580D01*
X63811904Y-158379580D02*
X63764285Y-158427200D01*
X63764285Y-158427200D02*
X63669047Y-158474819D01*
X63669047Y-158474819D02*
X63383333Y-158474819D01*
X63383333Y-158474819D02*
X63288095Y-158427200D01*
X63288095Y-158427200D02*
X63240476Y-158379580D01*
X64716666Y-157474819D02*
X64526190Y-157474819D01*
X64526190Y-157474819D02*
X64430952Y-157522438D01*
X64430952Y-157522438D02*
X64383333Y-157570057D01*
X64383333Y-157570057D02*
X64288095Y-157712914D01*
X64288095Y-157712914D02*
X64240476Y-157903390D01*
X64240476Y-157903390D02*
X64240476Y-158284342D01*
X64240476Y-158284342D02*
X64288095Y-158379580D01*
X64288095Y-158379580D02*
X64335714Y-158427200D01*
X64335714Y-158427200D02*
X64430952Y-158474819D01*
X64430952Y-158474819D02*
X64621428Y-158474819D01*
X64621428Y-158474819D02*
X64716666Y-158427200D01*
X64716666Y-158427200D02*
X64764285Y-158379580D01*
X64764285Y-158379580D02*
X64811904Y-158284342D01*
X64811904Y-158284342D02*
X64811904Y-158046247D01*
X64811904Y-158046247D02*
X64764285Y-157951009D01*
X64764285Y-157951009D02*
X64716666Y-157903390D01*
X64716666Y-157903390D02*
X64621428Y-157855771D01*
X64621428Y-157855771D02*
X64430952Y-157855771D01*
X64430952Y-157855771D02*
X64335714Y-157903390D01*
X64335714Y-157903390D02*
X64288095Y-157951009D01*
X64288095Y-157951009D02*
X64240476Y-158046247D01*
X138545714Y-120274819D02*
X138545714Y-119274819D01*
X138545714Y-119274819D02*
X138783809Y-119274819D01*
X138783809Y-119274819D02*
X138926666Y-119322438D01*
X138926666Y-119322438D02*
X139021904Y-119417676D01*
X139021904Y-119417676D02*
X139069523Y-119512914D01*
X139069523Y-119512914D02*
X139117142Y-119703390D01*
X139117142Y-119703390D02*
X139117142Y-119846247D01*
X139117142Y-119846247D02*
X139069523Y-120036723D01*
X139069523Y-120036723D02*
X139021904Y-120131961D01*
X139021904Y-120131961D02*
X138926666Y-120227200D01*
X138926666Y-120227200D02*
X138783809Y-120274819D01*
X138783809Y-120274819D02*
X138545714Y-120274819D01*
X139450476Y-119274819D02*
X140069523Y-119274819D01*
X140069523Y-119274819D02*
X139736190Y-119655771D01*
X139736190Y-119655771D02*
X139879047Y-119655771D01*
X139879047Y-119655771D02*
X139974285Y-119703390D01*
X139974285Y-119703390D02*
X140021904Y-119751009D01*
X140021904Y-119751009D02*
X140069523Y-119846247D01*
X140069523Y-119846247D02*
X140069523Y-120084342D01*
X140069523Y-120084342D02*
X140021904Y-120179580D01*
X140021904Y-120179580D02*
X139974285Y-120227200D01*
X139974285Y-120227200D02*
X139879047Y-120274819D01*
X139879047Y-120274819D02*
X139593333Y-120274819D01*
X139593333Y-120274819D02*
X139498095Y-120227200D01*
X139498095Y-120227200D02*
X139450476Y-120179580D01*
X140688571Y-119274819D02*
X140783809Y-119274819D01*
X140783809Y-119274819D02*
X140879047Y-119322438D01*
X140879047Y-119322438D02*
X140926666Y-119370057D01*
X140926666Y-119370057D02*
X140974285Y-119465295D01*
X140974285Y-119465295D02*
X141021904Y-119655771D01*
X141021904Y-119655771D02*
X141021904Y-119893866D01*
X141021904Y-119893866D02*
X140974285Y-120084342D01*
X140974285Y-120084342D02*
X140926666Y-120179580D01*
X140926666Y-120179580D02*
X140879047Y-120227200D01*
X140879047Y-120227200D02*
X140783809Y-120274819D01*
X140783809Y-120274819D02*
X140688571Y-120274819D01*
X140688571Y-120274819D02*
X140593333Y-120227200D01*
X140593333Y-120227200D02*
X140545714Y-120179580D01*
X140545714Y-120179580D02*
X140498095Y-120084342D01*
X140498095Y-120084342D02*
X140450476Y-119893866D01*
X140450476Y-119893866D02*
X140450476Y-119655771D01*
X140450476Y-119655771D02*
X140498095Y-119465295D01*
X140498095Y-119465295D02*
X140545714Y-119370057D01*
X140545714Y-119370057D02*
X140593333Y-119322438D01*
X140593333Y-119322438D02*
X140688571Y-119274819D01*
X81395714Y-120274819D02*
X81395714Y-119274819D01*
X81395714Y-119274819D02*
X81633809Y-119274819D01*
X81633809Y-119274819D02*
X81776666Y-119322438D01*
X81776666Y-119322438D02*
X81871904Y-119417676D01*
X81871904Y-119417676D02*
X81919523Y-119512914D01*
X81919523Y-119512914D02*
X81967142Y-119703390D01*
X81967142Y-119703390D02*
X81967142Y-119846247D01*
X81967142Y-119846247D02*
X81919523Y-120036723D01*
X81919523Y-120036723D02*
X81871904Y-120131961D01*
X81871904Y-120131961D02*
X81776666Y-120227200D01*
X81776666Y-120227200D02*
X81633809Y-120274819D01*
X81633809Y-120274819D02*
X81395714Y-120274819D01*
X82348095Y-119370057D02*
X82395714Y-119322438D01*
X82395714Y-119322438D02*
X82490952Y-119274819D01*
X82490952Y-119274819D02*
X82729047Y-119274819D01*
X82729047Y-119274819D02*
X82824285Y-119322438D01*
X82824285Y-119322438D02*
X82871904Y-119370057D01*
X82871904Y-119370057D02*
X82919523Y-119465295D01*
X82919523Y-119465295D02*
X82919523Y-119560533D01*
X82919523Y-119560533D02*
X82871904Y-119703390D01*
X82871904Y-119703390D02*
X82300476Y-120274819D01*
X82300476Y-120274819D02*
X82919523Y-120274819D01*
X83252857Y-119274819D02*
X83919523Y-119274819D01*
X83919523Y-119274819D02*
X83490952Y-120274819D01*
X69003333Y-96359580D02*
X68955714Y-96407200D01*
X68955714Y-96407200D02*
X68812857Y-96454819D01*
X68812857Y-96454819D02*
X68717619Y-96454819D01*
X68717619Y-96454819D02*
X68574762Y-96407200D01*
X68574762Y-96407200D02*
X68479524Y-96311961D01*
X68479524Y-96311961D02*
X68431905Y-96216723D01*
X68431905Y-96216723D02*
X68384286Y-96026247D01*
X68384286Y-96026247D02*
X68384286Y-95883390D01*
X68384286Y-95883390D02*
X68431905Y-95692914D01*
X68431905Y-95692914D02*
X68479524Y-95597676D01*
X68479524Y-95597676D02*
X68574762Y-95502438D01*
X68574762Y-95502438D02*
X68717619Y-95454819D01*
X68717619Y-95454819D02*
X68812857Y-95454819D01*
X68812857Y-95454819D02*
X68955714Y-95502438D01*
X68955714Y-95502438D02*
X69003333Y-95550057D01*
X69384286Y-95550057D02*
X69431905Y-95502438D01*
X69431905Y-95502438D02*
X69527143Y-95454819D01*
X69527143Y-95454819D02*
X69765238Y-95454819D01*
X69765238Y-95454819D02*
X69860476Y-95502438D01*
X69860476Y-95502438D02*
X69908095Y-95550057D01*
X69908095Y-95550057D02*
X69955714Y-95645295D01*
X69955714Y-95645295D02*
X69955714Y-95740533D01*
X69955714Y-95740533D02*
X69908095Y-95883390D01*
X69908095Y-95883390D02*
X69336667Y-96454819D01*
X69336667Y-96454819D02*
X69955714Y-96454819D01*
X65003333Y-75524819D02*
X64670000Y-75048628D01*
X64431905Y-75524819D02*
X64431905Y-74524819D01*
X64431905Y-74524819D02*
X64812857Y-74524819D01*
X64812857Y-74524819D02*
X64908095Y-74572438D01*
X64908095Y-74572438D02*
X64955714Y-74620057D01*
X64955714Y-74620057D02*
X65003333Y-74715295D01*
X65003333Y-74715295D02*
X65003333Y-74858152D01*
X65003333Y-74858152D02*
X64955714Y-74953390D01*
X64955714Y-74953390D02*
X64908095Y-75001009D01*
X64908095Y-75001009D02*
X64812857Y-75048628D01*
X64812857Y-75048628D02*
X64431905Y-75048628D01*
X65955714Y-75524819D02*
X65384286Y-75524819D01*
X65670000Y-75524819D02*
X65670000Y-74524819D01*
X65670000Y-74524819D02*
X65574762Y-74667676D01*
X65574762Y-74667676D02*
X65479524Y-74762914D01*
X65479524Y-74762914D02*
X65384286Y-74810533D01*
X62345714Y-101494819D02*
X62345714Y-100494819D01*
X62345714Y-100494819D02*
X62583809Y-100494819D01*
X62583809Y-100494819D02*
X62726666Y-100542438D01*
X62726666Y-100542438D02*
X62821904Y-100637676D01*
X62821904Y-100637676D02*
X62869523Y-100732914D01*
X62869523Y-100732914D02*
X62917142Y-100923390D01*
X62917142Y-100923390D02*
X62917142Y-101066247D01*
X62917142Y-101066247D02*
X62869523Y-101256723D01*
X62869523Y-101256723D02*
X62821904Y-101351961D01*
X62821904Y-101351961D02*
X62726666Y-101447200D01*
X62726666Y-101447200D02*
X62583809Y-101494819D01*
X62583809Y-101494819D02*
X62345714Y-101494819D01*
X63298095Y-100590057D02*
X63345714Y-100542438D01*
X63345714Y-100542438D02*
X63440952Y-100494819D01*
X63440952Y-100494819D02*
X63679047Y-100494819D01*
X63679047Y-100494819D02*
X63774285Y-100542438D01*
X63774285Y-100542438D02*
X63821904Y-100590057D01*
X63821904Y-100590057D02*
X63869523Y-100685295D01*
X63869523Y-100685295D02*
X63869523Y-100780533D01*
X63869523Y-100780533D02*
X63821904Y-100923390D01*
X63821904Y-100923390D02*
X63250476Y-101494819D01*
X63250476Y-101494819D02*
X63869523Y-101494819D01*
X64821904Y-101494819D02*
X64250476Y-101494819D01*
X64536190Y-101494819D02*
X64536190Y-100494819D01*
X64536190Y-100494819D02*
X64440952Y-100637676D01*
X64440952Y-100637676D02*
X64345714Y-100732914D01*
X64345714Y-100732914D02*
X64250476Y-100780533D01*
X114417142Y-154899580D02*
X114369523Y-154947200D01*
X114369523Y-154947200D02*
X114226666Y-154994819D01*
X114226666Y-154994819D02*
X114131428Y-154994819D01*
X114131428Y-154994819D02*
X113988571Y-154947200D01*
X113988571Y-154947200D02*
X113893333Y-154851961D01*
X113893333Y-154851961D02*
X113845714Y-154756723D01*
X113845714Y-154756723D02*
X113798095Y-154566247D01*
X113798095Y-154566247D02*
X113798095Y-154423390D01*
X113798095Y-154423390D02*
X113845714Y-154232914D01*
X113845714Y-154232914D02*
X113893333Y-154137676D01*
X113893333Y-154137676D02*
X113988571Y-154042438D01*
X113988571Y-154042438D02*
X114131428Y-153994819D01*
X114131428Y-153994819D02*
X114226666Y-153994819D01*
X114226666Y-153994819D02*
X114369523Y-154042438D01*
X114369523Y-154042438D02*
X114417142Y-154090057D01*
X114798095Y-154090057D02*
X114845714Y-154042438D01*
X114845714Y-154042438D02*
X114940952Y-153994819D01*
X114940952Y-153994819D02*
X115179047Y-153994819D01*
X115179047Y-153994819D02*
X115274285Y-154042438D01*
X115274285Y-154042438D02*
X115321904Y-154090057D01*
X115321904Y-154090057D02*
X115369523Y-154185295D01*
X115369523Y-154185295D02*
X115369523Y-154280533D01*
X115369523Y-154280533D02*
X115321904Y-154423390D01*
X115321904Y-154423390D02*
X114750476Y-154994819D01*
X114750476Y-154994819D02*
X115369523Y-154994819D01*
X115988571Y-153994819D02*
X116083809Y-153994819D01*
X116083809Y-153994819D02*
X116179047Y-154042438D01*
X116179047Y-154042438D02*
X116226666Y-154090057D01*
X116226666Y-154090057D02*
X116274285Y-154185295D01*
X116274285Y-154185295D02*
X116321904Y-154375771D01*
X116321904Y-154375771D02*
X116321904Y-154613866D01*
X116321904Y-154613866D02*
X116274285Y-154804342D01*
X116274285Y-154804342D02*
X116226666Y-154899580D01*
X116226666Y-154899580D02*
X116179047Y-154947200D01*
X116179047Y-154947200D02*
X116083809Y-154994819D01*
X116083809Y-154994819D02*
X115988571Y-154994819D01*
X115988571Y-154994819D02*
X115893333Y-154947200D01*
X115893333Y-154947200D02*
X115845714Y-154899580D01*
X115845714Y-154899580D02*
X115798095Y-154804342D01*
X115798095Y-154804342D02*
X115750476Y-154613866D01*
X115750476Y-154613866D02*
X115750476Y-154375771D01*
X115750476Y-154375771D02*
X115798095Y-154185295D01*
X115798095Y-154185295D02*
X115845714Y-154090057D01*
X115845714Y-154090057D02*
X115893333Y-154042438D01*
X115893333Y-154042438D02*
X115988571Y-153994819D01*
X81385714Y-158444819D02*
X81385714Y-157444819D01*
X81385714Y-157444819D02*
X81623809Y-157444819D01*
X81623809Y-157444819D02*
X81766666Y-157492438D01*
X81766666Y-157492438D02*
X81861904Y-157587676D01*
X81861904Y-157587676D02*
X81909523Y-157682914D01*
X81909523Y-157682914D02*
X81957142Y-157873390D01*
X81957142Y-157873390D02*
X81957142Y-158016247D01*
X81957142Y-158016247D02*
X81909523Y-158206723D01*
X81909523Y-158206723D02*
X81861904Y-158301961D01*
X81861904Y-158301961D02*
X81766666Y-158397200D01*
X81766666Y-158397200D02*
X81623809Y-158444819D01*
X81623809Y-158444819D02*
X81385714Y-158444819D01*
X82290476Y-157444819D02*
X82909523Y-157444819D01*
X82909523Y-157444819D02*
X82576190Y-157825771D01*
X82576190Y-157825771D02*
X82719047Y-157825771D01*
X82719047Y-157825771D02*
X82814285Y-157873390D01*
X82814285Y-157873390D02*
X82861904Y-157921009D01*
X82861904Y-157921009D02*
X82909523Y-158016247D01*
X82909523Y-158016247D02*
X82909523Y-158254342D01*
X82909523Y-158254342D02*
X82861904Y-158349580D01*
X82861904Y-158349580D02*
X82814285Y-158397200D01*
X82814285Y-158397200D02*
X82719047Y-158444819D01*
X82719047Y-158444819D02*
X82433333Y-158444819D01*
X82433333Y-158444819D02*
X82338095Y-158397200D01*
X82338095Y-158397200D02*
X82290476Y-158349580D01*
X83242857Y-157444819D02*
X83909523Y-157444819D01*
X83909523Y-157444819D02*
X83480952Y-158444819D01*
X100445714Y-120274819D02*
X100445714Y-119274819D01*
X100445714Y-119274819D02*
X100683809Y-119274819D01*
X100683809Y-119274819D02*
X100826666Y-119322438D01*
X100826666Y-119322438D02*
X100921904Y-119417676D01*
X100921904Y-119417676D02*
X100969523Y-119512914D01*
X100969523Y-119512914D02*
X101017142Y-119703390D01*
X101017142Y-119703390D02*
X101017142Y-119846247D01*
X101017142Y-119846247D02*
X100969523Y-120036723D01*
X100969523Y-120036723D02*
X100921904Y-120131961D01*
X100921904Y-120131961D02*
X100826666Y-120227200D01*
X100826666Y-120227200D02*
X100683809Y-120274819D01*
X100683809Y-120274819D02*
X100445714Y-120274819D01*
X101398095Y-119370057D02*
X101445714Y-119322438D01*
X101445714Y-119322438D02*
X101540952Y-119274819D01*
X101540952Y-119274819D02*
X101779047Y-119274819D01*
X101779047Y-119274819D02*
X101874285Y-119322438D01*
X101874285Y-119322438D02*
X101921904Y-119370057D01*
X101921904Y-119370057D02*
X101969523Y-119465295D01*
X101969523Y-119465295D02*
X101969523Y-119560533D01*
X101969523Y-119560533D02*
X101921904Y-119703390D01*
X101921904Y-119703390D02*
X101350476Y-120274819D01*
X101350476Y-120274819D02*
X101969523Y-120274819D01*
X102540952Y-119703390D02*
X102445714Y-119655771D01*
X102445714Y-119655771D02*
X102398095Y-119608152D01*
X102398095Y-119608152D02*
X102350476Y-119512914D01*
X102350476Y-119512914D02*
X102350476Y-119465295D01*
X102350476Y-119465295D02*
X102398095Y-119370057D01*
X102398095Y-119370057D02*
X102445714Y-119322438D01*
X102445714Y-119322438D02*
X102540952Y-119274819D01*
X102540952Y-119274819D02*
X102731428Y-119274819D01*
X102731428Y-119274819D02*
X102826666Y-119322438D01*
X102826666Y-119322438D02*
X102874285Y-119370057D01*
X102874285Y-119370057D02*
X102921904Y-119465295D01*
X102921904Y-119465295D02*
X102921904Y-119512914D01*
X102921904Y-119512914D02*
X102874285Y-119608152D01*
X102874285Y-119608152D02*
X102826666Y-119655771D01*
X102826666Y-119655771D02*
X102731428Y-119703390D01*
X102731428Y-119703390D02*
X102540952Y-119703390D01*
X102540952Y-119703390D02*
X102445714Y-119751009D01*
X102445714Y-119751009D02*
X102398095Y-119798628D01*
X102398095Y-119798628D02*
X102350476Y-119893866D01*
X102350476Y-119893866D02*
X102350476Y-120084342D01*
X102350476Y-120084342D02*
X102398095Y-120179580D01*
X102398095Y-120179580D02*
X102445714Y-120227200D01*
X102445714Y-120227200D02*
X102540952Y-120274819D01*
X102540952Y-120274819D02*
X102731428Y-120274819D01*
X102731428Y-120274819D02*
X102826666Y-120227200D01*
X102826666Y-120227200D02*
X102874285Y-120179580D01*
X102874285Y-120179580D02*
X102921904Y-120084342D01*
X102921904Y-120084342D02*
X102921904Y-119893866D01*
X102921904Y-119893866D02*
X102874285Y-119798628D01*
X102874285Y-119798628D02*
X102826666Y-119751009D01*
X102826666Y-119751009D02*
X102731428Y-119703390D01*
X138575714Y-101494819D02*
X138575714Y-100494819D01*
X138575714Y-100494819D02*
X138813809Y-100494819D01*
X138813809Y-100494819D02*
X138956666Y-100542438D01*
X138956666Y-100542438D02*
X139051904Y-100637676D01*
X139051904Y-100637676D02*
X139099523Y-100732914D01*
X139099523Y-100732914D02*
X139147142Y-100923390D01*
X139147142Y-100923390D02*
X139147142Y-101066247D01*
X139147142Y-101066247D02*
X139099523Y-101256723D01*
X139099523Y-101256723D02*
X139051904Y-101351961D01*
X139051904Y-101351961D02*
X138956666Y-101447200D01*
X138956666Y-101447200D02*
X138813809Y-101494819D01*
X138813809Y-101494819D02*
X138575714Y-101494819D01*
X139528095Y-100590057D02*
X139575714Y-100542438D01*
X139575714Y-100542438D02*
X139670952Y-100494819D01*
X139670952Y-100494819D02*
X139909047Y-100494819D01*
X139909047Y-100494819D02*
X140004285Y-100542438D01*
X140004285Y-100542438D02*
X140051904Y-100590057D01*
X140051904Y-100590057D02*
X140099523Y-100685295D01*
X140099523Y-100685295D02*
X140099523Y-100780533D01*
X140099523Y-100780533D02*
X140051904Y-100923390D01*
X140051904Y-100923390D02*
X139480476Y-101494819D01*
X139480476Y-101494819D02*
X140099523Y-101494819D01*
X141004285Y-100494819D02*
X140528095Y-100494819D01*
X140528095Y-100494819D02*
X140480476Y-100971009D01*
X140480476Y-100971009D02*
X140528095Y-100923390D01*
X140528095Y-100923390D02*
X140623333Y-100875771D01*
X140623333Y-100875771D02*
X140861428Y-100875771D01*
X140861428Y-100875771D02*
X140956666Y-100923390D01*
X140956666Y-100923390D02*
X141004285Y-100971009D01*
X141004285Y-100971009D02*
X141051904Y-101066247D01*
X141051904Y-101066247D02*
X141051904Y-101304342D01*
X141051904Y-101304342D02*
X141004285Y-101399580D01*
X141004285Y-101399580D02*
X140956666Y-101447200D01*
X140956666Y-101447200D02*
X140861428Y-101494819D01*
X140861428Y-101494819D02*
X140623333Y-101494819D01*
X140623333Y-101494819D02*
X140528095Y-101447200D01*
X140528095Y-101447200D02*
X140480476Y-101399580D01*
X62355714Y-120364819D02*
X62355714Y-119364819D01*
X62355714Y-119364819D02*
X62593809Y-119364819D01*
X62593809Y-119364819D02*
X62736666Y-119412438D01*
X62736666Y-119412438D02*
X62831904Y-119507676D01*
X62831904Y-119507676D02*
X62879523Y-119602914D01*
X62879523Y-119602914D02*
X62927142Y-119793390D01*
X62927142Y-119793390D02*
X62927142Y-119936247D01*
X62927142Y-119936247D02*
X62879523Y-120126723D01*
X62879523Y-120126723D02*
X62831904Y-120221961D01*
X62831904Y-120221961D02*
X62736666Y-120317200D01*
X62736666Y-120317200D02*
X62593809Y-120364819D01*
X62593809Y-120364819D02*
X62355714Y-120364819D01*
X63308095Y-119460057D02*
X63355714Y-119412438D01*
X63355714Y-119412438D02*
X63450952Y-119364819D01*
X63450952Y-119364819D02*
X63689047Y-119364819D01*
X63689047Y-119364819D02*
X63784285Y-119412438D01*
X63784285Y-119412438D02*
X63831904Y-119460057D01*
X63831904Y-119460057D02*
X63879523Y-119555295D01*
X63879523Y-119555295D02*
X63879523Y-119650533D01*
X63879523Y-119650533D02*
X63831904Y-119793390D01*
X63831904Y-119793390D02*
X63260476Y-120364819D01*
X63260476Y-120364819D02*
X63879523Y-120364819D01*
X64736666Y-119364819D02*
X64546190Y-119364819D01*
X64546190Y-119364819D02*
X64450952Y-119412438D01*
X64450952Y-119412438D02*
X64403333Y-119460057D01*
X64403333Y-119460057D02*
X64308095Y-119602914D01*
X64308095Y-119602914D02*
X64260476Y-119793390D01*
X64260476Y-119793390D02*
X64260476Y-120174342D01*
X64260476Y-120174342D02*
X64308095Y-120269580D01*
X64308095Y-120269580D02*
X64355714Y-120317200D01*
X64355714Y-120317200D02*
X64450952Y-120364819D01*
X64450952Y-120364819D02*
X64641428Y-120364819D01*
X64641428Y-120364819D02*
X64736666Y-120317200D01*
X64736666Y-120317200D02*
X64784285Y-120269580D01*
X64784285Y-120269580D02*
X64831904Y-120174342D01*
X64831904Y-120174342D02*
X64831904Y-119936247D01*
X64831904Y-119936247D02*
X64784285Y-119841009D01*
X64784285Y-119841009D02*
X64736666Y-119793390D01*
X64736666Y-119793390D02*
X64641428Y-119745771D01*
X64641428Y-119745771D02*
X64450952Y-119745771D01*
X64450952Y-119745771D02*
X64355714Y-119793390D01*
X64355714Y-119793390D02*
X64308095Y-119841009D01*
X64308095Y-119841009D02*
X64260476Y-119936247D01*
X106632142Y-134399580D02*
X106584523Y-134447200D01*
X106584523Y-134447200D02*
X106441666Y-134494819D01*
X106441666Y-134494819D02*
X106346428Y-134494819D01*
X106346428Y-134494819D02*
X106203571Y-134447200D01*
X106203571Y-134447200D02*
X106108333Y-134351961D01*
X106108333Y-134351961D02*
X106060714Y-134256723D01*
X106060714Y-134256723D02*
X106013095Y-134066247D01*
X106013095Y-134066247D02*
X106013095Y-133923390D01*
X106013095Y-133923390D02*
X106060714Y-133732914D01*
X106060714Y-133732914D02*
X106108333Y-133637676D01*
X106108333Y-133637676D02*
X106203571Y-133542438D01*
X106203571Y-133542438D02*
X106346428Y-133494819D01*
X106346428Y-133494819D02*
X106441666Y-133494819D01*
X106441666Y-133494819D02*
X106584523Y-133542438D01*
X106584523Y-133542438D02*
X106632142Y-133590057D01*
X107584523Y-134494819D02*
X107013095Y-134494819D01*
X107298809Y-134494819D02*
X107298809Y-133494819D01*
X107298809Y-133494819D02*
X107203571Y-133637676D01*
X107203571Y-133637676D02*
X107108333Y-133732914D01*
X107108333Y-133732914D02*
X107013095Y-133780533D01*
X108441666Y-133828152D02*
X108441666Y-134494819D01*
X108203571Y-133447200D02*
X107965476Y-134161485D01*
X107965476Y-134161485D02*
X108584523Y-134161485D01*
X133457142Y-154899580D02*
X133409523Y-154947200D01*
X133409523Y-154947200D02*
X133266666Y-154994819D01*
X133266666Y-154994819D02*
X133171428Y-154994819D01*
X133171428Y-154994819D02*
X133028571Y-154947200D01*
X133028571Y-154947200D02*
X132933333Y-154851961D01*
X132933333Y-154851961D02*
X132885714Y-154756723D01*
X132885714Y-154756723D02*
X132838095Y-154566247D01*
X132838095Y-154566247D02*
X132838095Y-154423390D01*
X132838095Y-154423390D02*
X132885714Y-154232914D01*
X132885714Y-154232914D02*
X132933333Y-154137676D01*
X132933333Y-154137676D02*
X133028571Y-154042438D01*
X133028571Y-154042438D02*
X133171428Y-153994819D01*
X133171428Y-153994819D02*
X133266666Y-153994819D01*
X133266666Y-153994819D02*
X133409523Y-154042438D01*
X133409523Y-154042438D02*
X133457142Y-154090057D01*
X133838095Y-154090057D02*
X133885714Y-154042438D01*
X133885714Y-154042438D02*
X133980952Y-153994819D01*
X133980952Y-153994819D02*
X134219047Y-153994819D01*
X134219047Y-153994819D02*
X134314285Y-154042438D01*
X134314285Y-154042438D02*
X134361904Y-154090057D01*
X134361904Y-154090057D02*
X134409523Y-154185295D01*
X134409523Y-154185295D02*
X134409523Y-154280533D01*
X134409523Y-154280533D02*
X134361904Y-154423390D01*
X134361904Y-154423390D02*
X133790476Y-154994819D01*
X133790476Y-154994819D02*
X134409523Y-154994819D01*
X135361904Y-154994819D02*
X134790476Y-154994819D01*
X135076190Y-154994819D02*
X135076190Y-153994819D01*
X135076190Y-153994819D02*
X134980952Y-154137676D01*
X134980952Y-154137676D02*
X134885714Y-154232914D01*
X134885714Y-154232914D02*
X134790476Y-154280533D01*
X76377142Y-154899580D02*
X76329523Y-154947200D01*
X76329523Y-154947200D02*
X76186666Y-154994819D01*
X76186666Y-154994819D02*
X76091428Y-154994819D01*
X76091428Y-154994819D02*
X75948571Y-154947200D01*
X75948571Y-154947200D02*
X75853333Y-154851961D01*
X75853333Y-154851961D02*
X75805714Y-154756723D01*
X75805714Y-154756723D02*
X75758095Y-154566247D01*
X75758095Y-154566247D02*
X75758095Y-154423390D01*
X75758095Y-154423390D02*
X75805714Y-154232914D01*
X75805714Y-154232914D02*
X75853333Y-154137676D01*
X75853333Y-154137676D02*
X75948571Y-154042438D01*
X75948571Y-154042438D02*
X76091428Y-153994819D01*
X76091428Y-153994819D02*
X76186666Y-153994819D01*
X76186666Y-153994819D02*
X76329523Y-154042438D01*
X76329523Y-154042438D02*
X76377142Y-154090057D01*
X77329523Y-154994819D02*
X76758095Y-154994819D01*
X77043809Y-154994819D02*
X77043809Y-153994819D01*
X77043809Y-153994819D02*
X76948571Y-154137676D01*
X76948571Y-154137676D02*
X76853333Y-154232914D01*
X76853333Y-154232914D02*
X76758095Y-154280533D01*
X77900952Y-154423390D02*
X77805714Y-154375771D01*
X77805714Y-154375771D02*
X77758095Y-154328152D01*
X77758095Y-154328152D02*
X77710476Y-154232914D01*
X77710476Y-154232914D02*
X77710476Y-154185295D01*
X77710476Y-154185295D02*
X77758095Y-154090057D01*
X77758095Y-154090057D02*
X77805714Y-154042438D01*
X77805714Y-154042438D02*
X77900952Y-153994819D01*
X77900952Y-153994819D02*
X78091428Y-153994819D01*
X78091428Y-153994819D02*
X78186666Y-154042438D01*
X78186666Y-154042438D02*
X78234285Y-154090057D01*
X78234285Y-154090057D02*
X78281904Y-154185295D01*
X78281904Y-154185295D02*
X78281904Y-154232914D01*
X78281904Y-154232914D02*
X78234285Y-154328152D01*
X78234285Y-154328152D02*
X78186666Y-154375771D01*
X78186666Y-154375771D02*
X78091428Y-154423390D01*
X78091428Y-154423390D02*
X77900952Y-154423390D01*
X77900952Y-154423390D02*
X77805714Y-154471009D01*
X77805714Y-154471009D02*
X77758095Y-154518628D01*
X77758095Y-154518628D02*
X77710476Y-154613866D01*
X77710476Y-154613866D02*
X77710476Y-154804342D01*
X77710476Y-154804342D02*
X77758095Y-154899580D01*
X77758095Y-154899580D02*
X77805714Y-154947200D01*
X77805714Y-154947200D02*
X77900952Y-154994819D01*
X77900952Y-154994819D02*
X78091428Y-154994819D01*
X78091428Y-154994819D02*
X78186666Y-154947200D01*
X78186666Y-154947200D02*
X78234285Y-154899580D01*
X78234285Y-154899580D02*
X78281904Y-154804342D01*
X78281904Y-154804342D02*
X78281904Y-154613866D01*
X78281904Y-154613866D02*
X78234285Y-154518628D01*
X78234285Y-154518628D02*
X78186666Y-154471009D01*
X78186666Y-154471009D02*
X78091428Y-154423390D01*
X73895714Y-120104819D02*
X73895714Y-119104819D01*
X73895714Y-119104819D02*
X74133809Y-119104819D01*
X74133809Y-119104819D02*
X74276666Y-119152438D01*
X74276666Y-119152438D02*
X74371904Y-119247676D01*
X74371904Y-119247676D02*
X74419523Y-119342914D01*
X74419523Y-119342914D02*
X74467142Y-119533390D01*
X74467142Y-119533390D02*
X74467142Y-119676247D01*
X74467142Y-119676247D02*
X74419523Y-119866723D01*
X74419523Y-119866723D02*
X74371904Y-119961961D01*
X74371904Y-119961961D02*
X74276666Y-120057200D01*
X74276666Y-120057200D02*
X74133809Y-120104819D01*
X74133809Y-120104819D02*
X73895714Y-120104819D01*
X75419523Y-120104819D02*
X74848095Y-120104819D01*
X75133809Y-120104819D02*
X75133809Y-119104819D01*
X75133809Y-119104819D02*
X75038571Y-119247676D01*
X75038571Y-119247676D02*
X74943333Y-119342914D01*
X74943333Y-119342914D02*
X74848095Y-119390533D01*
X75800476Y-119200057D02*
X75848095Y-119152438D01*
X75848095Y-119152438D02*
X75943333Y-119104819D01*
X75943333Y-119104819D02*
X76181428Y-119104819D01*
X76181428Y-119104819D02*
X76276666Y-119152438D01*
X76276666Y-119152438D02*
X76324285Y-119200057D01*
X76324285Y-119200057D02*
X76371904Y-119295295D01*
X76371904Y-119295295D02*
X76371904Y-119390533D01*
X76371904Y-119390533D02*
X76324285Y-119533390D01*
X76324285Y-119533390D02*
X75752857Y-120104819D01*
X75752857Y-120104819D02*
X76371904Y-120104819D01*
X131055714Y-120104819D02*
X131055714Y-119104819D01*
X131055714Y-119104819D02*
X131293809Y-119104819D01*
X131293809Y-119104819D02*
X131436666Y-119152438D01*
X131436666Y-119152438D02*
X131531904Y-119247676D01*
X131531904Y-119247676D02*
X131579523Y-119342914D01*
X131579523Y-119342914D02*
X131627142Y-119533390D01*
X131627142Y-119533390D02*
X131627142Y-119676247D01*
X131627142Y-119676247D02*
X131579523Y-119866723D01*
X131579523Y-119866723D02*
X131531904Y-119961961D01*
X131531904Y-119961961D02*
X131436666Y-120057200D01*
X131436666Y-120057200D02*
X131293809Y-120104819D01*
X131293809Y-120104819D02*
X131055714Y-120104819D01*
X132579523Y-120104819D02*
X132008095Y-120104819D01*
X132293809Y-120104819D02*
X132293809Y-119104819D01*
X132293809Y-119104819D02*
X132198571Y-119247676D01*
X132198571Y-119247676D02*
X132103333Y-119342914D01*
X132103333Y-119342914D02*
X132008095Y-119390533D01*
X133484285Y-119104819D02*
X133008095Y-119104819D01*
X133008095Y-119104819D02*
X132960476Y-119581009D01*
X132960476Y-119581009D02*
X133008095Y-119533390D01*
X133008095Y-119533390D02*
X133103333Y-119485771D01*
X133103333Y-119485771D02*
X133341428Y-119485771D01*
X133341428Y-119485771D02*
X133436666Y-119533390D01*
X133436666Y-119533390D02*
X133484285Y-119581009D01*
X133484285Y-119581009D02*
X133531904Y-119676247D01*
X133531904Y-119676247D02*
X133531904Y-119914342D01*
X133531904Y-119914342D02*
X133484285Y-120009580D01*
X133484285Y-120009580D02*
X133436666Y-120057200D01*
X133436666Y-120057200D02*
X133341428Y-120104819D01*
X133341428Y-120104819D02*
X133103333Y-120104819D01*
X133103333Y-120104819D02*
X133008095Y-120057200D01*
X133008095Y-120057200D02*
X132960476Y-120009580D01*
X74421905Y-101094819D02*
X74421905Y-100094819D01*
X74421905Y-100094819D02*
X74660000Y-100094819D01*
X74660000Y-100094819D02*
X74802857Y-100142438D01*
X74802857Y-100142438D02*
X74898095Y-100237676D01*
X74898095Y-100237676D02*
X74945714Y-100332914D01*
X74945714Y-100332914D02*
X74993333Y-100523390D01*
X74993333Y-100523390D02*
X74993333Y-100666247D01*
X74993333Y-100666247D02*
X74945714Y-100856723D01*
X74945714Y-100856723D02*
X74898095Y-100951961D01*
X74898095Y-100951961D02*
X74802857Y-101047200D01*
X74802857Y-101047200D02*
X74660000Y-101094819D01*
X74660000Y-101094819D02*
X74421905Y-101094819D01*
X75326667Y-100094819D02*
X75993333Y-100094819D01*
X75993333Y-100094819D02*
X75564762Y-101094819D01*
X119475714Y-139754819D02*
X119475714Y-138754819D01*
X119475714Y-138754819D02*
X119713809Y-138754819D01*
X119713809Y-138754819D02*
X119856666Y-138802438D01*
X119856666Y-138802438D02*
X119951904Y-138897676D01*
X119951904Y-138897676D02*
X119999523Y-138992914D01*
X119999523Y-138992914D02*
X120047142Y-139183390D01*
X120047142Y-139183390D02*
X120047142Y-139326247D01*
X120047142Y-139326247D02*
X119999523Y-139516723D01*
X119999523Y-139516723D02*
X119951904Y-139611961D01*
X119951904Y-139611961D02*
X119856666Y-139707200D01*
X119856666Y-139707200D02*
X119713809Y-139754819D01*
X119713809Y-139754819D02*
X119475714Y-139754819D01*
X120380476Y-138754819D02*
X120999523Y-138754819D01*
X120999523Y-138754819D02*
X120666190Y-139135771D01*
X120666190Y-139135771D02*
X120809047Y-139135771D01*
X120809047Y-139135771D02*
X120904285Y-139183390D01*
X120904285Y-139183390D02*
X120951904Y-139231009D01*
X120951904Y-139231009D02*
X120999523Y-139326247D01*
X120999523Y-139326247D02*
X120999523Y-139564342D01*
X120999523Y-139564342D02*
X120951904Y-139659580D01*
X120951904Y-139659580D02*
X120904285Y-139707200D01*
X120904285Y-139707200D02*
X120809047Y-139754819D01*
X120809047Y-139754819D02*
X120523333Y-139754819D01*
X120523333Y-139754819D02*
X120428095Y-139707200D01*
X120428095Y-139707200D02*
X120380476Y-139659580D01*
X121856666Y-139088152D02*
X121856666Y-139754819D01*
X121618571Y-138707200D02*
X121380476Y-139421485D01*
X121380476Y-139421485D02*
X121999523Y-139421485D01*
X68799580Y-83406666D02*
X68847200Y-83454285D01*
X68847200Y-83454285D02*
X68894819Y-83597142D01*
X68894819Y-83597142D02*
X68894819Y-83692380D01*
X68894819Y-83692380D02*
X68847200Y-83835237D01*
X68847200Y-83835237D02*
X68751961Y-83930475D01*
X68751961Y-83930475D02*
X68656723Y-83978094D01*
X68656723Y-83978094D02*
X68466247Y-84025713D01*
X68466247Y-84025713D02*
X68323390Y-84025713D01*
X68323390Y-84025713D02*
X68132914Y-83978094D01*
X68132914Y-83978094D02*
X68037676Y-83930475D01*
X68037676Y-83930475D02*
X67942438Y-83835237D01*
X67942438Y-83835237D02*
X67894819Y-83692380D01*
X67894819Y-83692380D02*
X67894819Y-83597142D01*
X67894819Y-83597142D02*
X67942438Y-83454285D01*
X67942438Y-83454285D02*
X67990057Y-83406666D01*
X68894819Y-82454285D02*
X68894819Y-83025713D01*
X68894819Y-82739999D02*
X67894819Y-82739999D01*
X67894819Y-82739999D02*
X68037676Y-82835237D01*
X68037676Y-82835237D02*
X68132914Y-82930475D01*
X68132914Y-82930475D02*
X68180533Y-83025713D01*
X125692142Y-134379580D02*
X125644523Y-134427200D01*
X125644523Y-134427200D02*
X125501666Y-134474819D01*
X125501666Y-134474819D02*
X125406428Y-134474819D01*
X125406428Y-134474819D02*
X125263571Y-134427200D01*
X125263571Y-134427200D02*
X125168333Y-134331961D01*
X125168333Y-134331961D02*
X125120714Y-134236723D01*
X125120714Y-134236723D02*
X125073095Y-134046247D01*
X125073095Y-134046247D02*
X125073095Y-133903390D01*
X125073095Y-133903390D02*
X125120714Y-133712914D01*
X125120714Y-133712914D02*
X125168333Y-133617676D01*
X125168333Y-133617676D02*
X125263571Y-133522438D01*
X125263571Y-133522438D02*
X125406428Y-133474819D01*
X125406428Y-133474819D02*
X125501666Y-133474819D01*
X125501666Y-133474819D02*
X125644523Y-133522438D01*
X125644523Y-133522438D02*
X125692142Y-133570057D01*
X126644523Y-134474819D02*
X126073095Y-134474819D01*
X126358809Y-134474819D02*
X126358809Y-133474819D01*
X126358809Y-133474819D02*
X126263571Y-133617676D01*
X126263571Y-133617676D02*
X126168333Y-133712914D01*
X126168333Y-133712914D02*
X126073095Y-133760533D01*
X127549285Y-133474819D02*
X127073095Y-133474819D01*
X127073095Y-133474819D02*
X127025476Y-133951009D01*
X127025476Y-133951009D02*
X127073095Y-133903390D01*
X127073095Y-133903390D02*
X127168333Y-133855771D01*
X127168333Y-133855771D02*
X127406428Y-133855771D01*
X127406428Y-133855771D02*
X127501666Y-133903390D01*
X127501666Y-133903390D02*
X127549285Y-133951009D01*
X127549285Y-133951009D02*
X127596904Y-134046247D01*
X127596904Y-134046247D02*
X127596904Y-134284342D01*
X127596904Y-134284342D02*
X127549285Y-134379580D01*
X127549285Y-134379580D02*
X127501666Y-134427200D01*
X127501666Y-134427200D02*
X127406428Y-134474819D01*
X127406428Y-134474819D02*
X127168333Y-134474819D01*
X127168333Y-134474819D02*
X127073095Y-134427200D01*
X127073095Y-134427200D02*
X127025476Y-134379580D01*
X54865714Y-120114819D02*
X54865714Y-119114819D01*
X54865714Y-119114819D02*
X55103809Y-119114819D01*
X55103809Y-119114819D02*
X55246666Y-119162438D01*
X55246666Y-119162438D02*
X55341904Y-119257676D01*
X55341904Y-119257676D02*
X55389523Y-119352914D01*
X55389523Y-119352914D02*
X55437142Y-119543390D01*
X55437142Y-119543390D02*
X55437142Y-119686247D01*
X55437142Y-119686247D02*
X55389523Y-119876723D01*
X55389523Y-119876723D02*
X55341904Y-119971961D01*
X55341904Y-119971961D02*
X55246666Y-120067200D01*
X55246666Y-120067200D02*
X55103809Y-120114819D01*
X55103809Y-120114819D02*
X54865714Y-120114819D01*
X56389523Y-120114819D02*
X55818095Y-120114819D01*
X56103809Y-120114819D02*
X56103809Y-119114819D01*
X56103809Y-119114819D02*
X56008571Y-119257676D01*
X56008571Y-119257676D02*
X55913333Y-119352914D01*
X55913333Y-119352914D02*
X55818095Y-119400533D01*
X57341904Y-120114819D02*
X56770476Y-120114819D01*
X57056190Y-120114819D02*
X57056190Y-119114819D01*
X57056190Y-119114819D02*
X56960952Y-119257676D01*
X56960952Y-119257676D02*
X56865714Y-119352914D01*
X56865714Y-119352914D02*
X56770476Y-119400533D01*
X138525714Y-158584819D02*
X138525714Y-157584819D01*
X138525714Y-157584819D02*
X138763809Y-157584819D01*
X138763809Y-157584819D02*
X138906666Y-157632438D01*
X138906666Y-157632438D02*
X139001904Y-157727676D01*
X139001904Y-157727676D02*
X139049523Y-157822914D01*
X139049523Y-157822914D02*
X139097142Y-158013390D01*
X139097142Y-158013390D02*
X139097142Y-158156247D01*
X139097142Y-158156247D02*
X139049523Y-158346723D01*
X139049523Y-158346723D02*
X139001904Y-158441961D01*
X139001904Y-158441961D02*
X138906666Y-158537200D01*
X138906666Y-158537200D02*
X138763809Y-158584819D01*
X138763809Y-158584819D02*
X138525714Y-158584819D01*
X139954285Y-157918152D02*
X139954285Y-158584819D01*
X139716190Y-157537200D02*
X139478095Y-158251485D01*
X139478095Y-158251485D02*
X140097142Y-158251485D01*
X140668571Y-157584819D02*
X140763809Y-157584819D01*
X140763809Y-157584819D02*
X140859047Y-157632438D01*
X140859047Y-157632438D02*
X140906666Y-157680057D01*
X140906666Y-157680057D02*
X140954285Y-157775295D01*
X140954285Y-157775295D02*
X141001904Y-157965771D01*
X141001904Y-157965771D02*
X141001904Y-158203866D01*
X141001904Y-158203866D02*
X140954285Y-158394342D01*
X140954285Y-158394342D02*
X140906666Y-158489580D01*
X140906666Y-158489580D02*
X140859047Y-158537200D01*
X140859047Y-158537200D02*
X140763809Y-158584819D01*
X140763809Y-158584819D02*
X140668571Y-158584819D01*
X140668571Y-158584819D02*
X140573333Y-158537200D01*
X140573333Y-158537200D02*
X140525714Y-158489580D01*
X140525714Y-158489580D02*
X140478095Y-158394342D01*
X140478095Y-158394342D02*
X140430476Y-158203866D01*
X140430476Y-158203866D02*
X140430476Y-157965771D01*
X140430476Y-157965771D02*
X140478095Y-157775295D01*
X140478095Y-157775295D02*
X140525714Y-157680057D01*
X140525714Y-157680057D02*
X140573333Y-157632438D01*
X140573333Y-157632438D02*
X140668571Y-157584819D01*
X107118333Y-96349580D02*
X107070714Y-96397200D01*
X107070714Y-96397200D02*
X106927857Y-96444819D01*
X106927857Y-96444819D02*
X106832619Y-96444819D01*
X106832619Y-96444819D02*
X106689762Y-96397200D01*
X106689762Y-96397200D02*
X106594524Y-96301961D01*
X106594524Y-96301961D02*
X106546905Y-96206723D01*
X106546905Y-96206723D02*
X106499286Y-96016247D01*
X106499286Y-96016247D02*
X106499286Y-95873390D01*
X106499286Y-95873390D02*
X106546905Y-95682914D01*
X106546905Y-95682914D02*
X106594524Y-95587676D01*
X106594524Y-95587676D02*
X106689762Y-95492438D01*
X106689762Y-95492438D02*
X106832619Y-95444819D01*
X106832619Y-95444819D02*
X106927857Y-95444819D01*
X106927857Y-95444819D02*
X107070714Y-95492438D01*
X107070714Y-95492438D02*
X107118333Y-95540057D01*
X107975476Y-95778152D02*
X107975476Y-96444819D01*
X107737381Y-95397200D02*
X107499286Y-96111485D01*
X107499286Y-96111485D02*
X108118333Y-96111485D01*
X62345714Y-139564819D02*
X62345714Y-138564819D01*
X62345714Y-138564819D02*
X62583809Y-138564819D01*
X62583809Y-138564819D02*
X62726666Y-138612438D01*
X62726666Y-138612438D02*
X62821904Y-138707676D01*
X62821904Y-138707676D02*
X62869523Y-138802914D01*
X62869523Y-138802914D02*
X62917142Y-138993390D01*
X62917142Y-138993390D02*
X62917142Y-139136247D01*
X62917142Y-139136247D02*
X62869523Y-139326723D01*
X62869523Y-139326723D02*
X62821904Y-139421961D01*
X62821904Y-139421961D02*
X62726666Y-139517200D01*
X62726666Y-139517200D02*
X62583809Y-139564819D01*
X62583809Y-139564819D02*
X62345714Y-139564819D01*
X63250476Y-138564819D02*
X63869523Y-138564819D01*
X63869523Y-138564819D02*
X63536190Y-138945771D01*
X63536190Y-138945771D02*
X63679047Y-138945771D01*
X63679047Y-138945771D02*
X63774285Y-138993390D01*
X63774285Y-138993390D02*
X63821904Y-139041009D01*
X63821904Y-139041009D02*
X63869523Y-139136247D01*
X63869523Y-139136247D02*
X63869523Y-139374342D01*
X63869523Y-139374342D02*
X63821904Y-139469580D01*
X63821904Y-139469580D02*
X63774285Y-139517200D01*
X63774285Y-139517200D02*
X63679047Y-139564819D01*
X63679047Y-139564819D02*
X63393333Y-139564819D01*
X63393333Y-139564819D02*
X63298095Y-139517200D01*
X63298095Y-139517200D02*
X63250476Y-139469580D01*
X64821904Y-139564819D02*
X64250476Y-139564819D01*
X64536190Y-139564819D02*
X64536190Y-138564819D01*
X64536190Y-138564819D02*
X64440952Y-138707676D01*
X64440952Y-138707676D02*
X64345714Y-138802914D01*
X64345714Y-138802914D02*
X64250476Y-138850533D01*
X68542142Y-134389580D02*
X68494523Y-134437200D01*
X68494523Y-134437200D02*
X68351666Y-134484819D01*
X68351666Y-134484819D02*
X68256428Y-134484819D01*
X68256428Y-134484819D02*
X68113571Y-134437200D01*
X68113571Y-134437200D02*
X68018333Y-134341961D01*
X68018333Y-134341961D02*
X67970714Y-134246723D01*
X67970714Y-134246723D02*
X67923095Y-134056247D01*
X67923095Y-134056247D02*
X67923095Y-133913390D01*
X67923095Y-133913390D02*
X67970714Y-133722914D01*
X67970714Y-133722914D02*
X68018333Y-133627676D01*
X68018333Y-133627676D02*
X68113571Y-133532438D01*
X68113571Y-133532438D02*
X68256428Y-133484819D01*
X68256428Y-133484819D02*
X68351666Y-133484819D01*
X68351666Y-133484819D02*
X68494523Y-133532438D01*
X68494523Y-133532438D02*
X68542142Y-133580057D01*
X69494523Y-134484819D02*
X68923095Y-134484819D01*
X69208809Y-134484819D02*
X69208809Y-133484819D01*
X69208809Y-133484819D02*
X69113571Y-133627676D01*
X69113571Y-133627676D02*
X69018333Y-133722914D01*
X69018333Y-133722914D02*
X68923095Y-133770533D01*
X69875476Y-133580057D02*
X69923095Y-133532438D01*
X69923095Y-133532438D02*
X70018333Y-133484819D01*
X70018333Y-133484819D02*
X70256428Y-133484819D01*
X70256428Y-133484819D02*
X70351666Y-133532438D01*
X70351666Y-133532438D02*
X70399285Y-133580057D01*
X70399285Y-133580057D02*
X70446904Y-133675295D01*
X70446904Y-133675295D02*
X70446904Y-133770533D01*
X70446904Y-133770533D02*
X70399285Y-133913390D01*
X70399285Y-133913390D02*
X69827857Y-134484819D01*
X69827857Y-134484819D02*
X70446904Y-134484819D01*
X57733333Y-116829580D02*
X57685714Y-116877200D01*
X57685714Y-116877200D02*
X57542857Y-116924819D01*
X57542857Y-116924819D02*
X57447619Y-116924819D01*
X57447619Y-116924819D02*
X57304762Y-116877200D01*
X57304762Y-116877200D02*
X57209524Y-116781961D01*
X57209524Y-116781961D02*
X57161905Y-116686723D01*
X57161905Y-116686723D02*
X57114286Y-116496247D01*
X57114286Y-116496247D02*
X57114286Y-116353390D01*
X57114286Y-116353390D02*
X57161905Y-116162914D01*
X57161905Y-116162914D02*
X57209524Y-116067676D01*
X57209524Y-116067676D02*
X57304762Y-115972438D01*
X57304762Y-115972438D02*
X57447619Y-115924819D01*
X57447619Y-115924819D02*
X57542857Y-115924819D01*
X57542857Y-115924819D02*
X57685714Y-115972438D01*
X57685714Y-115972438D02*
X57733333Y-116020057D01*
X58066667Y-115924819D02*
X58733333Y-115924819D01*
X58733333Y-115924819D02*
X58304762Y-116924819D01*
X63658095Y-82744819D02*
X63658095Y-83554342D01*
X63658095Y-83554342D02*
X63705714Y-83649580D01*
X63705714Y-83649580D02*
X63753333Y-83697200D01*
X63753333Y-83697200D02*
X63848571Y-83744819D01*
X63848571Y-83744819D02*
X64039047Y-83744819D01*
X64039047Y-83744819D02*
X64134285Y-83697200D01*
X64134285Y-83697200D02*
X64181904Y-83649580D01*
X64181904Y-83649580D02*
X64229523Y-83554342D01*
X64229523Y-83554342D02*
X64229523Y-82744819D01*
X64658095Y-82840057D02*
X64705714Y-82792438D01*
X64705714Y-82792438D02*
X64800952Y-82744819D01*
X64800952Y-82744819D02*
X65039047Y-82744819D01*
X65039047Y-82744819D02*
X65134285Y-82792438D01*
X65134285Y-82792438D02*
X65181904Y-82840057D01*
X65181904Y-82840057D02*
X65229523Y-82935295D01*
X65229523Y-82935295D02*
X65229523Y-83030533D01*
X65229523Y-83030533D02*
X65181904Y-83173390D01*
X65181904Y-83173390D02*
X64610476Y-83744819D01*
X64610476Y-83744819D02*
X65229523Y-83744819D01*
X144742142Y-134379580D02*
X144694523Y-134427200D01*
X144694523Y-134427200D02*
X144551666Y-134474819D01*
X144551666Y-134474819D02*
X144456428Y-134474819D01*
X144456428Y-134474819D02*
X144313571Y-134427200D01*
X144313571Y-134427200D02*
X144218333Y-134331961D01*
X144218333Y-134331961D02*
X144170714Y-134236723D01*
X144170714Y-134236723D02*
X144123095Y-134046247D01*
X144123095Y-134046247D02*
X144123095Y-133903390D01*
X144123095Y-133903390D02*
X144170714Y-133712914D01*
X144170714Y-133712914D02*
X144218333Y-133617676D01*
X144218333Y-133617676D02*
X144313571Y-133522438D01*
X144313571Y-133522438D02*
X144456428Y-133474819D01*
X144456428Y-133474819D02*
X144551666Y-133474819D01*
X144551666Y-133474819D02*
X144694523Y-133522438D01*
X144694523Y-133522438D02*
X144742142Y-133570057D01*
X145694523Y-134474819D02*
X145123095Y-134474819D01*
X145408809Y-134474819D02*
X145408809Y-133474819D01*
X145408809Y-133474819D02*
X145313571Y-133617676D01*
X145313571Y-133617676D02*
X145218333Y-133712914D01*
X145218333Y-133712914D02*
X145123095Y-133760533D01*
X146551666Y-133474819D02*
X146361190Y-133474819D01*
X146361190Y-133474819D02*
X146265952Y-133522438D01*
X146265952Y-133522438D02*
X146218333Y-133570057D01*
X146218333Y-133570057D02*
X146123095Y-133712914D01*
X146123095Y-133712914D02*
X146075476Y-133903390D01*
X146075476Y-133903390D02*
X146075476Y-134284342D01*
X146075476Y-134284342D02*
X146123095Y-134379580D01*
X146123095Y-134379580D02*
X146170714Y-134427200D01*
X146170714Y-134427200D02*
X146265952Y-134474819D01*
X146265952Y-134474819D02*
X146456428Y-134474819D01*
X146456428Y-134474819D02*
X146551666Y-134427200D01*
X146551666Y-134427200D02*
X146599285Y-134379580D01*
X146599285Y-134379580D02*
X146646904Y-134284342D01*
X146646904Y-134284342D02*
X146646904Y-134046247D01*
X146646904Y-134046247D02*
X146599285Y-133951009D01*
X146599285Y-133951009D02*
X146551666Y-133903390D01*
X146551666Y-133903390D02*
X146456428Y-133855771D01*
X146456428Y-133855771D02*
X146265952Y-133855771D01*
X146265952Y-133855771D02*
X146170714Y-133903390D01*
X146170714Y-133903390D02*
X146123095Y-133951009D01*
X146123095Y-133951009D02*
X146075476Y-134046247D01*
X131521905Y-82034819D02*
X131521905Y-81034819D01*
X131521905Y-81034819D02*
X131760000Y-81034819D01*
X131760000Y-81034819D02*
X131902857Y-81082438D01*
X131902857Y-81082438D02*
X131998095Y-81177676D01*
X131998095Y-81177676D02*
X132045714Y-81272914D01*
X132045714Y-81272914D02*
X132093333Y-81463390D01*
X132093333Y-81463390D02*
X132093333Y-81606247D01*
X132093333Y-81606247D02*
X132045714Y-81796723D01*
X132045714Y-81796723D02*
X131998095Y-81891961D01*
X131998095Y-81891961D02*
X131902857Y-81987200D01*
X131902857Y-81987200D02*
X131760000Y-82034819D01*
X131760000Y-82034819D02*
X131521905Y-82034819D01*
X132998095Y-81034819D02*
X132521905Y-81034819D01*
X132521905Y-81034819D02*
X132474286Y-81511009D01*
X132474286Y-81511009D02*
X132521905Y-81463390D01*
X132521905Y-81463390D02*
X132617143Y-81415771D01*
X132617143Y-81415771D02*
X132855238Y-81415771D01*
X132855238Y-81415771D02*
X132950476Y-81463390D01*
X132950476Y-81463390D02*
X132998095Y-81511009D01*
X132998095Y-81511009D02*
X133045714Y-81606247D01*
X133045714Y-81606247D02*
X133045714Y-81844342D01*
X133045714Y-81844342D02*
X132998095Y-81939580D01*
X132998095Y-81939580D02*
X132950476Y-81987200D01*
X132950476Y-81987200D02*
X132855238Y-82034819D01*
X132855238Y-82034819D02*
X132617143Y-82034819D01*
X132617143Y-82034819D02*
X132521905Y-81987200D01*
X132521905Y-81987200D02*
X132474286Y-81939580D01*
X111995714Y-120104819D02*
X111995714Y-119104819D01*
X111995714Y-119104819D02*
X112233809Y-119104819D01*
X112233809Y-119104819D02*
X112376666Y-119152438D01*
X112376666Y-119152438D02*
X112471904Y-119247676D01*
X112471904Y-119247676D02*
X112519523Y-119342914D01*
X112519523Y-119342914D02*
X112567142Y-119533390D01*
X112567142Y-119533390D02*
X112567142Y-119676247D01*
X112567142Y-119676247D02*
X112519523Y-119866723D01*
X112519523Y-119866723D02*
X112471904Y-119961961D01*
X112471904Y-119961961D02*
X112376666Y-120057200D01*
X112376666Y-120057200D02*
X112233809Y-120104819D01*
X112233809Y-120104819D02*
X111995714Y-120104819D01*
X113519523Y-120104819D02*
X112948095Y-120104819D01*
X113233809Y-120104819D02*
X113233809Y-119104819D01*
X113233809Y-119104819D02*
X113138571Y-119247676D01*
X113138571Y-119247676D02*
X113043333Y-119342914D01*
X113043333Y-119342914D02*
X112948095Y-119390533D01*
X114376666Y-119438152D02*
X114376666Y-120104819D01*
X114138571Y-119057200D02*
X113900476Y-119771485D01*
X113900476Y-119771485D02*
X114519523Y-119771485D01*
X145218333Y-96349580D02*
X145170714Y-96397200D01*
X145170714Y-96397200D02*
X145027857Y-96444819D01*
X145027857Y-96444819D02*
X144932619Y-96444819D01*
X144932619Y-96444819D02*
X144789762Y-96397200D01*
X144789762Y-96397200D02*
X144694524Y-96301961D01*
X144694524Y-96301961D02*
X144646905Y-96206723D01*
X144646905Y-96206723D02*
X144599286Y-96016247D01*
X144599286Y-96016247D02*
X144599286Y-95873390D01*
X144599286Y-95873390D02*
X144646905Y-95682914D01*
X144646905Y-95682914D02*
X144694524Y-95587676D01*
X144694524Y-95587676D02*
X144789762Y-95492438D01*
X144789762Y-95492438D02*
X144932619Y-95444819D01*
X144932619Y-95444819D02*
X145027857Y-95444819D01*
X145027857Y-95444819D02*
X145170714Y-95492438D01*
X145170714Y-95492438D02*
X145218333Y-95540057D01*
X146075476Y-95444819D02*
X145885000Y-95444819D01*
X145885000Y-95444819D02*
X145789762Y-95492438D01*
X145789762Y-95492438D02*
X145742143Y-95540057D01*
X145742143Y-95540057D02*
X145646905Y-95682914D01*
X145646905Y-95682914D02*
X145599286Y-95873390D01*
X145599286Y-95873390D02*
X145599286Y-96254342D01*
X145599286Y-96254342D02*
X145646905Y-96349580D01*
X145646905Y-96349580D02*
X145694524Y-96397200D01*
X145694524Y-96397200D02*
X145789762Y-96444819D01*
X145789762Y-96444819D02*
X145980238Y-96444819D01*
X145980238Y-96444819D02*
X146075476Y-96397200D01*
X146075476Y-96397200D02*
X146123095Y-96349580D01*
X146123095Y-96349580D02*
X146170714Y-96254342D01*
X146170714Y-96254342D02*
X146170714Y-96016247D01*
X146170714Y-96016247D02*
X146123095Y-95921009D01*
X146123095Y-95921009D02*
X146075476Y-95873390D01*
X146075476Y-95873390D02*
X145980238Y-95825771D01*
X145980238Y-95825771D02*
X145789762Y-95825771D01*
X145789762Y-95825771D02*
X145694524Y-95873390D01*
X145694524Y-95873390D02*
X145646905Y-95921009D01*
X145646905Y-95921009D02*
X145599286Y-96016247D01*
X95397142Y-154859580D02*
X95349523Y-154907200D01*
X95349523Y-154907200D02*
X95206666Y-154954819D01*
X95206666Y-154954819D02*
X95111428Y-154954819D01*
X95111428Y-154954819D02*
X94968571Y-154907200D01*
X94968571Y-154907200D02*
X94873333Y-154811961D01*
X94873333Y-154811961D02*
X94825714Y-154716723D01*
X94825714Y-154716723D02*
X94778095Y-154526247D01*
X94778095Y-154526247D02*
X94778095Y-154383390D01*
X94778095Y-154383390D02*
X94825714Y-154192914D01*
X94825714Y-154192914D02*
X94873333Y-154097676D01*
X94873333Y-154097676D02*
X94968571Y-154002438D01*
X94968571Y-154002438D02*
X95111428Y-153954819D01*
X95111428Y-153954819D02*
X95206666Y-153954819D01*
X95206666Y-153954819D02*
X95349523Y-154002438D01*
X95349523Y-154002438D02*
X95397142Y-154050057D01*
X96349523Y-154954819D02*
X95778095Y-154954819D01*
X96063809Y-154954819D02*
X96063809Y-153954819D01*
X96063809Y-153954819D02*
X95968571Y-154097676D01*
X95968571Y-154097676D02*
X95873333Y-154192914D01*
X95873333Y-154192914D02*
X95778095Y-154240533D01*
X96825714Y-154954819D02*
X97016190Y-154954819D01*
X97016190Y-154954819D02*
X97111428Y-154907200D01*
X97111428Y-154907200D02*
X97159047Y-154859580D01*
X97159047Y-154859580D02*
X97254285Y-154716723D01*
X97254285Y-154716723D02*
X97301904Y-154526247D01*
X97301904Y-154526247D02*
X97301904Y-154145295D01*
X97301904Y-154145295D02*
X97254285Y-154050057D01*
X97254285Y-154050057D02*
X97206666Y-154002438D01*
X97206666Y-154002438D02*
X97111428Y-153954819D01*
X97111428Y-153954819D02*
X96920952Y-153954819D01*
X96920952Y-153954819D02*
X96825714Y-154002438D01*
X96825714Y-154002438D02*
X96778095Y-154050057D01*
X96778095Y-154050057D02*
X96730476Y-154145295D01*
X96730476Y-154145295D02*
X96730476Y-154383390D01*
X96730476Y-154383390D02*
X96778095Y-154478628D01*
X96778095Y-154478628D02*
X96825714Y-154526247D01*
X96825714Y-154526247D02*
X96920952Y-154573866D01*
X96920952Y-154573866D02*
X97111428Y-154573866D01*
X97111428Y-154573866D02*
X97206666Y-154526247D01*
X97206666Y-154526247D02*
X97254285Y-154478628D01*
X97254285Y-154478628D02*
X97301904Y-154383390D01*
X112531905Y-82004819D02*
X112531905Y-81004819D01*
X112531905Y-81004819D02*
X112770000Y-81004819D01*
X112770000Y-81004819D02*
X112912857Y-81052438D01*
X112912857Y-81052438D02*
X113008095Y-81147676D01*
X113008095Y-81147676D02*
X113055714Y-81242914D01*
X113055714Y-81242914D02*
X113103333Y-81433390D01*
X113103333Y-81433390D02*
X113103333Y-81576247D01*
X113103333Y-81576247D02*
X113055714Y-81766723D01*
X113055714Y-81766723D02*
X113008095Y-81861961D01*
X113008095Y-81861961D02*
X112912857Y-81957200D01*
X112912857Y-81957200D02*
X112770000Y-82004819D01*
X112770000Y-82004819D02*
X112531905Y-82004819D01*
X113960476Y-81338152D02*
X113960476Y-82004819D01*
X113722381Y-80957200D02*
X113484286Y-81671485D01*
X113484286Y-81671485D02*
X114103333Y-81671485D01*
X95903333Y-116799580D02*
X95855714Y-116847200D01*
X95855714Y-116847200D02*
X95712857Y-116894819D01*
X95712857Y-116894819D02*
X95617619Y-116894819D01*
X95617619Y-116894819D02*
X95474762Y-116847200D01*
X95474762Y-116847200D02*
X95379524Y-116751961D01*
X95379524Y-116751961D02*
X95331905Y-116656723D01*
X95331905Y-116656723D02*
X95284286Y-116466247D01*
X95284286Y-116466247D02*
X95284286Y-116323390D01*
X95284286Y-116323390D02*
X95331905Y-116132914D01*
X95331905Y-116132914D02*
X95379524Y-116037676D01*
X95379524Y-116037676D02*
X95474762Y-115942438D01*
X95474762Y-115942438D02*
X95617619Y-115894819D01*
X95617619Y-115894819D02*
X95712857Y-115894819D01*
X95712857Y-115894819D02*
X95855714Y-115942438D01*
X95855714Y-115942438D02*
X95903333Y-115990057D01*
X96379524Y-116894819D02*
X96570000Y-116894819D01*
X96570000Y-116894819D02*
X96665238Y-116847200D01*
X96665238Y-116847200D02*
X96712857Y-116799580D01*
X96712857Y-116799580D02*
X96808095Y-116656723D01*
X96808095Y-116656723D02*
X96855714Y-116466247D01*
X96855714Y-116466247D02*
X96855714Y-116085295D01*
X96855714Y-116085295D02*
X96808095Y-115990057D01*
X96808095Y-115990057D02*
X96760476Y-115942438D01*
X96760476Y-115942438D02*
X96665238Y-115894819D01*
X96665238Y-115894819D02*
X96474762Y-115894819D01*
X96474762Y-115894819D02*
X96379524Y-115942438D01*
X96379524Y-115942438D02*
X96331905Y-115990057D01*
X96331905Y-115990057D02*
X96284286Y-116085295D01*
X96284286Y-116085295D02*
X96284286Y-116323390D01*
X96284286Y-116323390D02*
X96331905Y-116418628D01*
X96331905Y-116418628D02*
X96379524Y-116466247D01*
X96379524Y-116466247D02*
X96474762Y-116513866D01*
X96474762Y-116513866D02*
X96665238Y-116513866D01*
X96665238Y-116513866D02*
X96760476Y-116466247D01*
X96760476Y-116466247D02*
X96808095Y-116418628D01*
X96808095Y-116418628D02*
X96855714Y-116323390D01*
X119465714Y-158464819D02*
X119465714Y-157464819D01*
X119465714Y-157464819D02*
X119703809Y-157464819D01*
X119703809Y-157464819D02*
X119846666Y-157512438D01*
X119846666Y-157512438D02*
X119941904Y-157607676D01*
X119941904Y-157607676D02*
X119989523Y-157702914D01*
X119989523Y-157702914D02*
X120037142Y-157893390D01*
X120037142Y-157893390D02*
X120037142Y-158036247D01*
X120037142Y-158036247D02*
X119989523Y-158226723D01*
X119989523Y-158226723D02*
X119941904Y-158321961D01*
X119941904Y-158321961D02*
X119846666Y-158417200D01*
X119846666Y-158417200D02*
X119703809Y-158464819D01*
X119703809Y-158464819D02*
X119465714Y-158464819D01*
X120370476Y-157464819D02*
X120989523Y-157464819D01*
X120989523Y-157464819D02*
X120656190Y-157845771D01*
X120656190Y-157845771D02*
X120799047Y-157845771D01*
X120799047Y-157845771D02*
X120894285Y-157893390D01*
X120894285Y-157893390D02*
X120941904Y-157941009D01*
X120941904Y-157941009D02*
X120989523Y-158036247D01*
X120989523Y-158036247D02*
X120989523Y-158274342D01*
X120989523Y-158274342D02*
X120941904Y-158369580D01*
X120941904Y-158369580D02*
X120894285Y-158417200D01*
X120894285Y-158417200D02*
X120799047Y-158464819D01*
X120799047Y-158464819D02*
X120513333Y-158464819D01*
X120513333Y-158464819D02*
X120418095Y-158417200D01*
X120418095Y-158417200D02*
X120370476Y-158369580D01*
X121465714Y-158464819D02*
X121656190Y-158464819D01*
X121656190Y-158464819D02*
X121751428Y-158417200D01*
X121751428Y-158417200D02*
X121799047Y-158369580D01*
X121799047Y-158369580D02*
X121894285Y-158226723D01*
X121894285Y-158226723D02*
X121941904Y-158036247D01*
X121941904Y-158036247D02*
X121941904Y-157655295D01*
X121941904Y-157655295D02*
X121894285Y-157560057D01*
X121894285Y-157560057D02*
X121846666Y-157512438D01*
X121846666Y-157512438D02*
X121751428Y-157464819D01*
X121751428Y-157464819D02*
X121560952Y-157464819D01*
X121560952Y-157464819D02*
X121465714Y-157512438D01*
X121465714Y-157512438D02*
X121418095Y-157560057D01*
X121418095Y-157560057D02*
X121370476Y-157655295D01*
X121370476Y-157655295D02*
X121370476Y-157893390D01*
X121370476Y-157893390D02*
X121418095Y-157988628D01*
X121418095Y-157988628D02*
X121465714Y-158036247D01*
X121465714Y-158036247D02*
X121560952Y-158083866D01*
X121560952Y-158083866D02*
X121751428Y-158083866D01*
X121751428Y-158083866D02*
X121846666Y-158036247D01*
X121846666Y-158036247D02*
X121894285Y-157988628D01*
X121894285Y-157988628D02*
X121941904Y-157893390D01*
X133492142Y-116619580D02*
X133444523Y-116667200D01*
X133444523Y-116667200D02*
X133301666Y-116714819D01*
X133301666Y-116714819D02*
X133206428Y-116714819D01*
X133206428Y-116714819D02*
X133063571Y-116667200D01*
X133063571Y-116667200D02*
X132968333Y-116571961D01*
X132968333Y-116571961D02*
X132920714Y-116476723D01*
X132920714Y-116476723D02*
X132873095Y-116286247D01*
X132873095Y-116286247D02*
X132873095Y-116143390D01*
X132873095Y-116143390D02*
X132920714Y-115952914D01*
X132920714Y-115952914D02*
X132968333Y-115857676D01*
X132968333Y-115857676D02*
X133063571Y-115762438D01*
X133063571Y-115762438D02*
X133206428Y-115714819D01*
X133206428Y-115714819D02*
X133301666Y-115714819D01*
X133301666Y-115714819D02*
X133444523Y-115762438D01*
X133444523Y-115762438D02*
X133492142Y-115810057D01*
X134444523Y-116714819D02*
X133873095Y-116714819D01*
X134158809Y-116714819D02*
X134158809Y-115714819D01*
X134158809Y-115714819D02*
X134063571Y-115857676D01*
X134063571Y-115857676D02*
X133968333Y-115952914D01*
X133968333Y-115952914D02*
X133873095Y-116000533D01*
X135396904Y-116714819D02*
X134825476Y-116714819D01*
X135111190Y-116714819D02*
X135111190Y-115714819D01*
X135111190Y-115714819D02*
X135015952Y-115857676D01*
X135015952Y-115857676D02*
X134920714Y-115952914D01*
X134920714Y-115952914D02*
X134825476Y-116000533D01*
X88053333Y-96349580D02*
X88005714Y-96397200D01*
X88005714Y-96397200D02*
X87862857Y-96444819D01*
X87862857Y-96444819D02*
X87767619Y-96444819D01*
X87767619Y-96444819D02*
X87624762Y-96397200D01*
X87624762Y-96397200D02*
X87529524Y-96301961D01*
X87529524Y-96301961D02*
X87481905Y-96206723D01*
X87481905Y-96206723D02*
X87434286Y-96016247D01*
X87434286Y-96016247D02*
X87434286Y-95873390D01*
X87434286Y-95873390D02*
X87481905Y-95682914D01*
X87481905Y-95682914D02*
X87529524Y-95587676D01*
X87529524Y-95587676D02*
X87624762Y-95492438D01*
X87624762Y-95492438D02*
X87767619Y-95444819D01*
X87767619Y-95444819D02*
X87862857Y-95444819D01*
X87862857Y-95444819D02*
X88005714Y-95492438D01*
X88005714Y-95492438D02*
X88053333Y-95540057D01*
X88386667Y-95444819D02*
X89005714Y-95444819D01*
X89005714Y-95444819D02*
X88672381Y-95825771D01*
X88672381Y-95825771D02*
X88815238Y-95825771D01*
X88815238Y-95825771D02*
X88910476Y-95873390D01*
X88910476Y-95873390D02*
X88958095Y-95921009D01*
X88958095Y-95921009D02*
X89005714Y-96016247D01*
X89005714Y-96016247D02*
X89005714Y-96254342D01*
X89005714Y-96254342D02*
X88958095Y-96349580D01*
X88958095Y-96349580D02*
X88910476Y-96397200D01*
X88910476Y-96397200D02*
X88815238Y-96444819D01*
X88815238Y-96444819D02*
X88529524Y-96444819D01*
X88529524Y-96444819D02*
X88434286Y-96397200D01*
X88434286Y-96397200D02*
X88386667Y-96349580D01*
X73945714Y-139164819D02*
X73945714Y-138164819D01*
X73945714Y-138164819D02*
X74183809Y-138164819D01*
X74183809Y-138164819D02*
X74326666Y-138212438D01*
X74326666Y-138212438D02*
X74421904Y-138307676D01*
X74421904Y-138307676D02*
X74469523Y-138402914D01*
X74469523Y-138402914D02*
X74517142Y-138593390D01*
X74517142Y-138593390D02*
X74517142Y-138736247D01*
X74517142Y-138736247D02*
X74469523Y-138926723D01*
X74469523Y-138926723D02*
X74421904Y-139021961D01*
X74421904Y-139021961D02*
X74326666Y-139117200D01*
X74326666Y-139117200D02*
X74183809Y-139164819D01*
X74183809Y-139164819D02*
X73945714Y-139164819D01*
X75469523Y-139164819D02*
X74898095Y-139164819D01*
X75183809Y-139164819D02*
X75183809Y-138164819D01*
X75183809Y-138164819D02*
X75088571Y-138307676D01*
X75088571Y-138307676D02*
X74993333Y-138402914D01*
X74993333Y-138402914D02*
X74898095Y-138450533D01*
X75802857Y-138164819D02*
X76469523Y-138164819D01*
X76469523Y-138164819D02*
X76040952Y-139164819D01*
X87582142Y-134389580D02*
X87534523Y-134437200D01*
X87534523Y-134437200D02*
X87391666Y-134484819D01*
X87391666Y-134484819D02*
X87296428Y-134484819D01*
X87296428Y-134484819D02*
X87153571Y-134437200D01*
X87153571Y-134437200D02*
X87058333Y-134341961D01*
X87058333Y-134341961D02*
X87010714Y-134246723D01*
X87010714Y-134246723D02*
X86963095Y-134056247D01*
X86963095Y-134056247D02*
X86963095Y-133913390D01*
X86963095Y-133913390D02*
X87010714Y-133722914D01*
X87010714Y-133722914D02*
X87058333Y-133627676D01*
X87058333Y-133627676D02*
X87153571Y-133532438D01*
X87153571Y-133532438D02*
X87296428Y-133484819D01*
X87296428Y-133484819D02*
X87391666Y-133484819D01*
X87391666Y-133484819D02*
X87534523Y-133532438D01*
X87534523Y-133532438D02*
X87582142Y-133580057D01*
X88534523Y-134484819D02*
X87963095Y-134484819D01*
X88248809Y-134484819D02*
X88248809Y-133484819D01*
X88248809Y-133484819D02*
X88153571Y-133627676D01*
X88153571Y-133627676D02*
X88058333Y-133722914D01*
X88058333Y-133722914D02*
X87963095Y-133770533D01*
X88867857Y-133484819D02*
X89486904Y-133484819D01*
X89486904Y-133484819D02*
X89153571Y-133865771D01*
X89153571Y-133865771D02*
X89296428Y-133865771D01*
X89296428Y-133865771D02*
X89391666Y-133913390D01*
X89391666Y-133913390D02*
X89439285Y-133961009D01*
X89439285Y-133961009D02*
X89486904Y-134056247D01*
X89486904Y-134056247D02*
X89486904Y-134294342D01*
X89486904Y-134294342D02*
X89439285Y-134389580D01*
X89439285Y-134389580D02*
X89391666Y-134437200D01*
X89391666Y-134437200D02*
X89296428Y-134484819D01*
X89296428Y-134484819D02*
X89010714Y-134484819D01*
X89010714Y-134484819D02*
X88915476Y-134437200D01*
X88915476Y-134437200D02*
X88867857Y-134389580D01*
X100435714Y-158454819D02*
X100435714Y-157454819D01*
X100435714Y-157454819D02*
X100673809Y-157454819D01*
X100673809Y-157454819D02*
X100816666Y-157502438D01*
X100816666Y-157502438D02*
X100911904Y-157597676D01*
X100911904Y-157597676D02*
X100959523Y-157692914D01*
X100959523Y-157692914D02*
X101007142Y-157883390D01*
X101007142Y-157883390D02*
X101007142Y-158026247D01*
X101007142Y-158026247D02*
X100959523Y-158216723D01*
X100959523Y-158216723D02*
X100911904Y-158311961D01*
X100911904Y-158311961D02*
X100816666Y-158407200D01*
X100816666Y-158407200D02*
X100673809Y-158454819D01*
X100673809Y-158454819D02*
X100435714Y-158454819D01*
X101340476Y-157454819D02*
X101959523Y-157454819D01*
X101959523Y-157454819D02*
X101626190Y-157835771D01*
X101626190Y-157835771D02*
X101769047Y-157835771D01*
X101769047Y-157835771D02*
X101864285Y-157883390D01*
X101864285Y-157883390D02*
X101911904Y-157931009D01*
X101911904Y-157931009D02*
X101959523Y-158026247D01*
X101959523Y-158026247D02*
X101959523Y-158264342D01*
X101959523Y-158264342D02*
X101911904Y-158359580D01*
X101911904Y-158359580D02*
X101864285Y-158407200D01*
X101864285Y-158407200D02*
X101769047Y-158454819D01*
X101769047Y-158454819D02*
X101483333Y-158454819D01*
X101483333Y-158454819D02*
X101388095Y-158407200D01*
X101388095Y-158407200D02*
X101340476Y-158359580D01*
X102530952Y-157883390D02*
X102435714Y-157835771D01*
X102435714Y-157835771D02*
X102388095Y-157788152D01*
X102388095Y-157788152D02*
X102340476Y-157692914D01*
X102340476Y-157692914D02*
X102340476Y-157645295D01*
X102340476Y-157645295D02*
X102388095Y-157550057D01*
X102388095Y-157550057D02*
X102435714Y-157502438D01*
X102435714Y-157502438D02*
X102530952Y-157454819D01*
X102530952Y-157454819D02*
X102721428Y-157454819D01*
X102721428Y-157454819D02*
X102816666Y-157502438D01*
X102816666Y-157502438D02*
X102864285Y-157550057D01*
X102864285Y-157550057D02*
X102911904Y-157645295D01*
X102911904Y-157645295D02*
X102911904Y-157692914D01*
X102911904Y-157692914D02*
X102864285Y-157788152D01*
X102864285Y-157788152D02*
X102816666Y-157835771D01*
X102816666Y-157835771D02*
X102721428Y-157883390D01*
X102721428Y-157883390D02*
X102530952Y-157883390D01*
X102530952Y-157883390D02*
X102435714Y-157931009D01*
X102435714Y-157931009D02*
X102388095Y-157978628D01*
X102388095Y-157978628D02*
X102340476Y-158073866D01*
X102340476Y-158073866D02*
X102340476Y-158264342D01*
X102340476Y-158264342D02*
X102388095Y-158359580D01*
X102388095Y-158359580D02*
X102435714Y-158407200D01*
X102435714Y-158407200D02*
X102530952Y-158454819D01*
X102530952Y-158454819D02*
X102721428Y-158454819D01*
X102721428Y-158454819D02*
X102816666Y-158407200D01*
X102816666Y-158407200D02*
X102864285Y-158359580D01*
X102864285Y-158359580D02*
X102911904Y-158264342D01*
X102911904Y-158264342D02*
X102911904Y-158073866D01*
X102911904Y-158073866D02*
X102864285Y-157978628D01*
X102864285Y-157978628D02*
X102816666Y-157931009D01*
X102816666Y-157931009D02*
X102721428Y-157883390D01*
X119495714Y-120274819D02*
X119495714Y-119274819D01*
X119495714Y-119274819D02*
X119733809Y-119274819D01*
X119733809Y-119274819D02*
X119876666Y-119322438D01*
X119876666Y-119322438D02*
X119971904Y-119417676D01*
X119971904Y-119417676D02*
X120019523Y-119512914D01*
X120019523Y-119512914D02*
X120067142Y-119703390D01*
X120067142Y-119703390D02*
X120067142Y-119846247D01*
X120067142Y-119846247D02*
X120019523Y-120036723D01*
X120019523Y-120036723D02*
X119971904Y-120131961D01*
X119971904Y-120131961D02*
X119876666Y-120227200D01*
X119876666Y-120227200D02*
X119733809Y-120274819D01*
X119733809Y-120274819D02*
X119495714Y-120274819D01*
X120448095Y-119370057D02*
X120495714Y-119322438D01*
X120495714Y-119322438D02*
X120590952Y-119274819D01*
X120590952Y-119274819D02*
X120829047Y-119274819D01*
X120829047Y-119274819D02*
X120924285Y-119322438D01*
X120924285Y-119322438D02*
X120971904Y-119370057D01*
X120971904Y-119370057D02*
X121019523Y-119465295D01*
X121019523Y-119465295D02*
X121019523Y-119560533D01*
X121019523Y-119560533D02*
X120971904Y-119703390D01*
X120971904Y-119703390D02*
X120400476Y-120274819D01*
X120400476Y-120274819D02*
X121019523Y-120274819D01*
X121495714Y-120274819D02*
X121686190Y-120274819D01*
X121686190Y-120274819D02*
X121781428Y-120227200D01*
X121781428Y-120227200D02*
X121829047Y-120179580D01*
X121829047Y-120179580D02*
X121924285Y-120036723D01*
X121924285Y-120036723D02*
X121971904Y-119846247D01*
X121971904Y-119846247D02*
X121971904Y-119465295D01*
X121971904Y-119465295D02*
X121924285Y-119370057D01*
X121924285Y-119370057D02*
X121876666Y-119322438D01*
X121876666Y-119322438D02*
X121781428Y-119274819D01*
X121781428Y-119274819D02*
X121590952Y-119274819D01*
X121590952Y-119274819D02*
X121495714Y-119322438D01*
X121495714Y-119322438D02*
X121448095Y-119370057D01*
X121448095Y-119370057D02*
X121400476Y-119465295D01*
X121400476Y-119465295D02*
X121400476Y-119703390D01*
X121400476Y-119703390D02*
X121448095Y-119798628D01*
X121448095Y-119798628D02*
X121495714Y-119846247D01*
X121495714Y-119846247D02*
X121590952Y-119893866D01*
X121590952Y-119893866D02*
X121781428Y-119893866D01*
X121781428Y-119893866D02*
X121876666Y-119846247D01*
X121876666Y-119846247D02*
X121924285Y-119798628D01*
X121924285Y-119798628D02*
X121971904Y-119703390D01*
X119515714Y-101674819D02*
X119515714Y-100674819D01*
X119515714Y-100674819D02*
X119753809Y-100674819D01*
X119753809Y-100674819D02*
X119896666Y-100722438D01*
X119896666Y-100722438D02*
X119991904Y-100817676D01*
X119991904Y-100817676D02*
X120039523Y-100912914D01*
X120039523Y-100912914D02*
X120087142Y-101103390D01*
X120087142Y-101103390D02*
X120087142Y-101246247D01*
X120087142Y-101246247D02*
X120039523Y-101436723D01*
X120039523Y-101436723D02*
X119991904Y-101531961D01*
X119991904Y-101531961D02*
X119896666Y-101627200D01*
X119896666Y-101627200D02*
X119753809Y-101674819D01*
X119753809Y-101674819D02*
X119515714Y-101674819D01*
X120468095Y-100770057D02*
X120515714Y-100722438D01*
X120515714Y-100722438D02*
X120610952Y-100674819D01*
X120610952Y-100674819D02*
X120849047Y-100674819D01*
X120849047Y-100674819D02*
X120944285Y-100722438D01*
X120944285Y-100722438D02*
X120991904Y-100770057D01*
X120991904Y-100770057D02*
X121039523Y-100865295D01*
X121039523Y-100865295D02*
X121039523Y-100960533D01*
X121039523Y-100960533D02*
X120991904Y-101103390D01*
X120991904Y-101103390D02*
X120420476Y-101674819D01*
X120420476Y-101674819D02*
X121039523Y-101674819D01*
X121896666Y-101008152D02*
X121896666Y-101674819D01*
X121658571Y-100627200D02*
X121420476Y-101341485D01*
X121420476Y-101341485D02*
X122039523Y-101341485D01*
X81405714Y-139654819D02*
X81405714Y-138654819D01*
X81405714Y-138654819D02*
X81643809Y-138654819D01*
X81643809Y-138654819D02*
X81786666Y-138702438D01*
X81786666Y-138702438D02*
X81881904Y-138797676D01*
X81881904Y-138797676D02*
X81929523Y-138892914D01*
X81929523Y-138892914D02*
X81977142Y-139083390D01*
X81977142Y-139083390D02*
X81977142Y-139226247D01*
X81977142Y-139226247D02*
X81929523Y-139416723D01*
X81929523Y-139416723D02*
X81881904Y-139511961D01*
X81881904Y-139511961D02*
X81786666Y-139607200D01*
X81786666Y-139607200D02*
X81643809Y-139654819D01*
X81643809Y-139654819D02*
X81405714Y-139654819D01*
X82310476Y-138654819D02*
X82929523Y-138654819D01*
X82929523Y-138654819D02*
X82596190Y-139035771D01*
X82596190Y-139035771D02*
X82739047Y-139035771D01*
X82739047Y-139035771D02*
X82834285Y-139083390D01*
X82834285Y-139083390D02*
X82881904Y-139131009D01*
X82881904Y-139131009D02*
X82929523Y-139226247D01*
X82929523Y-139226247D02*
X82929523Y-139464342D01*
X82929523Y-139464342D02*
X82881904Y-139559580D01*
X82881904Y-139559580D02*
X82834285Y-139607200D01*
X82834285Y-139607200D02*
X82739047Y-139654819D01*
X82739047Y-139654819D02*
X82453333Y-139654819D01*
X82453333Y-139654819D02*
X82358095Y-139607200D01*
X82358095Y-139607200D02*
X82310476Y-139559580D01*
X83310476Y-138750057D02*
X83358095Y-138702438D01*
X83358095Y-138702438D02*
X83453333Y-138654819D01*
X83453333Y-138654819D02*
X83691428Y-138654819D01*
X83691428Y-138654819D02*
X83786666Y-138702438D01*
X83786666Y-138702438D02*
X83834285Y-138750057D01*
X83834285Y-138750057D02*
X83881904Y-138845295D01*
X83881904Y-138845295D02*
X83881904Y-138940533D01*
X83881904Y-138940533D02*
X83834285Y-139083390D01*
X83834285Y-139083390D02*
X83262857Y-139654819D01*
X83262857Y-139654819D02*
X83881904Y-139654819D01*
%TO.C,D2*%
D12*
X72750000Y-82550000D02*
X72750000Y-84550000D01*
X72750000Y-82550000D02*
X76760000Y-82550000D01*
X72750000Y-84550000D02*
X76760000Y-84550000D01*
%TO.C,C5*%
X126184420Y-97930000D02*
X126465580Y-97930000D01*
X126184420Y-96910000D02*
X126465580Y-96910000D01*
%TO.C,D3*%
X91820000Y-84610000D02*
X95830000Y-84610000D01*
X91820000Y-82610000D02*
X95830000Y-82610000D01*
X91820000Y-82610000D02*
X91820000Y-84610000D01*
%TO.C,C17*%
X58075580Y-156580000D02*
X57794420Y-156580000D01*
X58075580Y-155560000D02*
X57794420Y-155560000D01*
%TO.C,D8*%
X91810000Y-103610000D02*
X95820000Y-103610000D01*
X91810000Y-101610000D02*
X95820000Y-101610000D01*
X91810000Y-101610000D02*
X91810000Y-103610000D01*
%TO.C,D35*%
X136110000Y-134395000D02*
X143410000Y-134395000D01*
X136110000Y-137420000D02*
X136110000Y-134395000D01*
X136110000Y-137420000D02*
X136835000Y-138145000D01*
X143410000Y-134395000D02*
X143410000Y-138145000D01*
X143410000Y-138145000D02*
X136835000Y-138145000D01*
X137185000Y-137920000D02*
X136885000Y-137920000D01*
X137035000Y-137720000D01*
X137185000Y-137920000D01*
G36*
X137185000Y-137920000D02*
G01*
X136885000Y-137920000D01*
X137035000Y-137720000D01*
X137185000Y-137920000D01*
G37*
%TO.C,D23*%
X98010000Y-96295000D02*
X105310000Y-96295000D01*
X98010000Y-99320000D02*
X98010000Y-96295000D01*
X98010000Y-99320000D02*
X98735000Y-100045000D01*
X105310000Y-96295000D02*
X105310000Y-100045000D01*
X105310000Y-100045000D02*
X98735000Y-100045000D01*
X99085000Y-99820000D02*
X98785000Y-99820000D01*
X98935000Y-99620000D01*
X99085000Y-99820000D01*
G36*
X99085000Y-99820000D02*
G01*
X98785000Y-99820000D01*
X98935000Y-99620000D01*
X99085000Y-99820000D01*
G37*
%TO.C,C8*%
X77125580Y-118480000D02*
X76844420Y-118480000D01*
X77125580Y-117460000D02*
X76844420Y-117460000D01*
%TO.C,D33*%
X98010000Y-134395000D02*
X105310000Y-134395000D01*
X98010000Y-137420000D02*
X98010000Y-134395000D01*
X98010000Y-137420000D02*
X98735000Y-138145000D01*
X105310000Y-134395000D02*
X105310000Y-138145000D01*
X105310000Y-138145000D02*
X98735000Y-138145000D01*
X99085000Y-137920000D02*
X98785000Y-137920000D01*
X98935000Y-137720000D01*
X99085000Y-137920000D01*
G36*
X99085000Y-137920000D02*
G01*
X98785000Y-137920000D01*
X98935000Y-137720000D01*
X99085000Y-137920000D01*
G37*
%TO.C,D19*%
X110850000Y-141700000D02*
X114860000Y-141700000D01*
X110850000Y-139700000D02*
X114860000Y-139700000D01*
X110850000Y-139700000D02*
X110850000Y-141700000D01*
%TO.C,D20*%
X129910000Y-141720000D02*
X133920000Y-141720000D01*
X129910000Y-139720000D02*
X133920000Y-139720000D01*
X129910000Y-139720000D02*
X129910000Y-141720000D01*
%TO.C,D13*%
X91810000Y-122680000D02*
X95820000Y-122680000D01*
X91810000Y-120680000D02*
X95820000Y-120680000D01*
X91810000Y-120680000D02*
X91810000Y-122680000D01*
%TO.C,D16*%
X53760000Y-141740000D02*
X57770000Y-141740000D01*
X53760000Y-139740000D02*
X57770000Y-139740000D01*
X53760000Y-139740000D02*
X53760000Y-141740000D01*
%TO.C,D9*%
X110870000Y-103620000D02*
X114880000Y-103620000D01*
X110870000Y-101620000D02*
X114880000Y-101620000D01*
X110870000Y-101620000D02*
X110870000Y-103620000D01*
%TO.C,C10*%
X115235580Y-118480000D02*
X114954420Y-118480000D01*
X115235580Y-117460000D02*
X114954420Y-117460000D01*
%TO.C,D1*%
X53700000Y-84550000D02*
X57710000Y-84550000D01*
X53700000Y-82550000D02*
X57710000Y-82550000D01*
X53700000Y-82550000D02*
X53700000Y-84550000D01*
%TO.C,D18*%
X91870000Y-141740000D02*
X95880000Y-141740000D01*
X91870000Y-139740000D02*
X95880000Y-139740000D01*
X91870000Y-139740000D02*
X91870000Y-141740000D01*
%TO.C,D6*%
X53690000Y-103640000D02*
X57700000Y-103640000D01*
X53690000Y-101640000D02*
X57700000Y-101640000D01*
X53690000Y-101640000D02*
X53690000Y-103640000D01*
%TO.C,D22*%
X78960000Y-96295000D02*
X86260000Y-96295000D01*
X78960000Y-99320000D02*
X78960000Y-96295000D01*
X78960000Y-99320000D02*
X79685000Y-100045000D01*
X86260000Y-96295000D02*
X86260000Y-100045000D01*
X86260000Y-100045000D02*
X79685000Y-100045000D01*
X80035000Y-99820000D02*
X79735000Y-99820000D01*
X79885000Y-99620000D01*
X80035000Y-99820000D01*
G36*
X80035000Y-99820000D02*
G01*
X79735000Y-99820000D01*
X79885000Y-99620000D01*
X80035000Y-99820000D01*
G37*
%TO.C,D10*%
X129920000Y-103640000D02*
X133930000Y-103640000D01*
X129920000Y-101640000D02*
X133930000Y-101640000D01*
X129920000Y-101640000D02*
X129920000Y-103640000D01*
%TO.C,D36*%
X59910000Y-153445000D02*
X66485000Y-153445000D01*
X59910000Y-157195000D02*
X59910000Y-153445000D01*
X67210000Y-154170000D02*
X66485000Y-153445000D01*
X67210000Y-154170000D02*
X67210000Y-157195000D01*
X67210000Y-157195000D02*
X59910000Y-157195000D01*
X66285000Y-153870000D02*
X66135000Y-153670000D01*
X66435000Y-153670000D01*
X66285000Y-153870000D01*
G36*
X66285000Y-153870000D02*
G01*
X66135000Y-153670000D01*
X66435000Y-153670000D01*
X66285000Y-153870000D01*
G37*
%TO.C,D30*%
X136110000Y-115345000D02*
X142685000Y-115345000D01*
X136110000Y-119095000D02*
X136110000Y-115345000D01*
X143410000Y-116070000D02*
X142685000Y-115345000D01*
X143410000Y-116070000D02*
X143410000Y-119095000D01*
X143410000Y-119095000D02*
X136110000Y-119095000D01*
X142485000Y-115770000D02*
X142335000Y-115570000D01*
X142635000Y-115570000D01*
X142485000Y-115770000D01*
G36*
X142485000Y-115770000D02*
G01*
X142335000Y-115570000D01*
X142635000Y-115570000D01*
X142485000Y-115770000D01*
G37*
%TO.C,D27*%
X78960000Y-115345000D02*
X85535000Y-115345000D01*
X78960000Y-119095000D02*
X78960000Y-115345000D01*
X86260000Y-116070000D02*
X85535000Y-115345000D01*
X86260000Y-116070000D02*
X86260000Y-119095000D01*
X86260000Y-119095000D02*
X78960000Y-119095000D01*
X85335000Y-115770000D02*
X85185000Y-115570000D01*
X85485000Y-115570000D01*
X85335000Y-115770000D01*
G36*
X85335000Y-115770000D02*
G01*
X85185000Y-115570000D01*
X85485000Y-115570000D01*
X85335000Y-115770000D01*
G37*
%TO.C,C2*%
X69029420Y-97940000D02*
X69310580Y-97940000D01*
X69029420Y-96920000D02*
X69310580Y-96920000D01*
%TO.C,R1*%
X65427258Y-77062500D02*
X64952742Y-77062500D01*
X65427258Y-76017500D02*
X64952742Y-76017500D01*
%TO.C,D21*%
X59910000Y-96295000D02*
X67210000Y-96295000D01*
X59910000Y-99320000D02*
X59910000Y-96295000D01*
X59910000Y-99320000D02*
X60635000Y-100045000D01*
X67210000Y-96295000D02*
X67210000Y-100045000D01*
X67210000Y-100045000D02*
X60635000Y-100045000D01*
X60985000Y-99820000D02*
X60685000Y-99820000D01*
X60835000Y-99620000D01*
X60985000Y-99820000D01*
G36*
X60985000Y-99820000D02*
G01*
X60685000Y-99820000D01*
X60835000Y-99620000D01*
X60985000Y-99820000D01*
G37*
%TO.C,C20*%
X115225580Y-156580000D02*
X114944420Y-156580000D01*
X115225580Y-155560000D02*
X114944420Y-155560000D01*
%TO.C,D37*%
X78960000Y-153445000D02*
X85535000Y-153445000D01*
X78960000Y-157195000D02*
X78960000Y-153445000D01*
X86260000Y-154170000D02*
X85535000Y-153445000D01*
X86260000Y-154170000D02*
X86260000Y-157195000D01*
X86260000Y-157195000D02*
X78960000Y-157195000D01*
X85335000Y-153870000D02*
X85185000Y-153670000D01*
X85485000Y-153670000D01*
X85335000Y-153870000D01*
G36*
X85335000Y-153870000D02*
G01*
X85185000Y-153670000D01*
X85485000Y-153670000D01*
X85335000Y-153870000D01*
G37*
%TO.C,D28*%
X98010000Y-115345000D02*
X104585000Y-115345000D01*
X98010000Y-119095000D02*
X98010000Y-115345000D01*
X105310000Y-116070000D02*
X104585000Y-115345000D01*
X105310000Y-116070000D02*
X105310000Y-119095000D01*
X105310000Y-119095000D02*
X98010000Y-119095000D01*
X104385000Y-115770000D02*
X104235000Y-115570000D01*
X104535000Y-115570000D01*
X104385000Y-115770000D01*
G36*
X104385000Y-115770000D02*
G01*
X104235000Y-115570000D01*
X104535000Y-115570000D01*
X104385000Y-115770000D01*
G37*
%TO.C,D25*%
X136110000Y-96295000D02*
X143410000Y-96295000D01*
X136110000Y-99320000D02*
X136110000Y-96295000D01*
X136110000Y-99320000D02*
X136835000Y-100045000D01*
X143410000Y-96295000D02*
X143410000Y-100045000D01*
X143410000Y-100045000D02*
X136835000Y-100045000D01*
X137185000Y-99820000D02*
X136885000Y-99820000D01*
X137035000Y-99620000D01*
X137185000Y-99820000D01*
G36*
X137185000Y-99820000D02*
G01*
X136885000Y-99820000D01*
X137035000Y-99620000D01*
X137185000Y-99820000D01*
G37*
%TO.C,D26*%
X59910000Y-115345000D02*
X66485000Y-115345000D01*
X59910000Y-119095000D02*
X59910000Y-115345000D01*
X67210000Y-116070000D02*
X66485000Y-115345000D01*
X67210000Y-116070000D02*
X67210000Y-119095000D01*
X67210000Y-119095000D02*
X59910000Y-119095000D01*
X66285000Y-115770000D02*
X66135000Y-115570000D01*
X66435000Y-115570000D01*
X66285000Y-115770000D01*
G36*
X66285000Y-115770000D02*
G01*
X66135000Y-115570000D01*
X66435000Y-115570000D01*
X66285000Y-115770000D01*
G37*
%TO.C,C14*%
X107134420Y-135980000D02*
X107415580Y-135980000D01*
X107134420Y-134960000D02*
X107415580Y-134960000D01*
%TO.C,C21*%
X134285580Y-156580000D02*
X134004420Y-156580000D01*
X134285580Y-155560000D02*
X134004420Y-155560000D01*
%TO.C,C18*%
X77140580Y-156580000D02*
X76859420Y-156580000D01*
X77140580Y-155560000D02*
X76859420Y-155560000D01*
%TO.C,D12*%
X72750000Y-122650000D02*
X76760000Y-122650000D01*
X72750000Y-120650000D02*
X76760000Y-120650000D01*
X72750000Y-120650000D02*
X72750000Y-122650000D01*
%TO.C,D15*%
X129910000Y-122650000D02*
X133920000Y-122650000D01*
X129910000Y-120650000D02*
X133920000Y-120650000D01*
X129910000Y-120650000D02*
X129910000Y-122650000D01*
%TO.C,D7*%
X72800000Y-103640000D02*
X76810000Y-103640000D01*
X72800000Y-101640000D02*
X76810000Y-101640000D01*
X72800000Y-101640000D02*
X72800000Y-103640000D01*
%TO.C,D34*%
X117060000Y-134395000D02*
X124360000Y-134395000D01*
X117060000Y-137420000D02*
X117060000Y-134395000D01*
X117060000Y-137420000D02*
X117785000Y-138145000D01*
X124360000Y-134395000D02*
X124360000Y-138145000D01*
X124360000Y-138145000D02*
X117785000Y-138145000D01*
X118135000Y-137920000D02*
X117835000Y-137920000D01*
X117985000Y-137720000D01*
X118135000Y-137920000D01*
G36*
X118135000Y-137920000D02*
G01*
X117835000Y-137920000D01*
X117985000Y-137720000D01*
X118135000Y-137920000D01*
G37*
%TO.C,C1*%
X68583080Y-82140000D02*
X68301920Y-82140000D01*
X68583080Y-81120000D02*
X68301920Y-81120000D01*
%TO.C,C15*%
X126194420Y-135960000D02*
X126475580Y-135960000D01*
X126194420Y-134940000D02*
X126475580Y-134940000D01*
%TO.C,D11*%
X53720000Y-122660000D02*
X57730000Y-122660000D01*
X53720000Y-120660000D02*
X57730000Y-120660000D01*
X53720000Y-120660000D02*
X53720000Y-122660000D01*
%TO.C,D40*%
X136110000Y-153445000D02*
X142685000Y-153445000D01*
X136110000Y-157195000D02*
X136110000Y-153445000D01*
X143410000Y-154170000D02*
X142685000Y-153445000D01*
X143410000Y-154170000D02*
X143410000Y-157195000D01*
X143410000Y-157195000D02*
X136110000Y-157195000D01*
X142485000Y-153870000D02*
X142335000Y-153670000D01*
X142635000Y-153670000D01*
X142485000Y-153870000D01*
G36*
X142485000Y-153870000D02*
G01*
X142335000Y-153670000D01*
X142635000Y-153670000D01*
X142485000Y-153870000D01*
G37*
%TO.C,C4*%
X107144420Y-97930000D02*
X107425580Y-97930000D01*
X107144420Y-96910000D02*
X107425580Y-96910000D01*
%TO.C,D31*%
X59910000Y-134395000D02*
X67210000Y-134395000D01*
X59910000Y-137420000D02*
X59910000Y-134395000D01*
X59910000Y-137420000D02*
X60635000Y-138145000D01*
X67210000Y-134395000D02*
X67210000Y-138145000D01*
X67210000Y-138145000D02*
X60635000Y-138145000D01*
X60985000Y-137920000D02*
X60685000Y-137920000D01*
X60835000Y-137720000D01*
X60985000Y-137920000D01*
G36*
X60985000Y-137920000D02*
G01*
X60685000Y-137920000D01*
X60835000Y-137720000D01*
X60985000Y-137920000D01*
G37*
%TO.C,C12*%
X69044420Y-135970000D02*
X69325580Y-135970000D01*
X69044420Y-134950000D02*
X69325580Y-134950000D01*
%TO.C,C7*%
X58075580Y-118480000D02*
X57794420Y-118480000D01*
X58075580Y-117460000D02*
X57794420Y-117460000D01*
%TO.C,U2*%
X66202500Y-79280000D02*
X65872500Y-79040000D01*
X66202500Y-78800000D01*
X66202500Y-79280000D01*
G36*
X66202500Y-79280000D02*
G01*
X65872500Y-79040000D01*
X66202500Y-78800000D01*
X66202500Y-79280000D01*
G37*
X65922500Y-81400000D02*
X65872500Y-81400000D01*
X65922500Y-79580000D02*
X65922500Y-81400000D01*
X65872500Y-79580000D02*
X65922500Y-79580000D01*
X64752500Y-81400000D02*
X63972500Y-81400000D01*
X62852500Y-81400000D02*
X62802500Y-81400000D01*
X62802500Y-81400000D02*
X62802500Y-79580000D01*
X62802500Y-79580000D02*
X62852500Y-79580000D01*
%TO.C,C16*%
X145244420Y-135960000D02*
X145525580Y-135960000D01*
X145244420Y-134940000D02*
X145525580Y-134940000D01*
%TO.C,D5*%
X129900000Y-84580000D02*
X133910000Y-84580000D01*
X129900000Y-82580000D02*
X133910000Y-82580000D01*
X129900000Y-82580000D02*
X129900000Y-84580000D01*
%TO.C,D14*%
X110850000Y-122650000D02*
X114860000Y-122650000D01*
X110850000Y-120650000D02*
X114860000Y-120650000D01*
X110850000Y-120650000D02*
X110850000Y-122650000D01*
%TO.C,C6*%
X145244420Y-97930000D02*
X145525580Y-97930000D01*
X145244420Y-96910000D02*
X145525580Y-96910000D01*
%TO.C,C19*%
X96185580Y-156580000D02*
X95904420Y-156580000D01*
X96185580Y-155560000D02*
X95904420Y-155560000D01*
%TO.C,D4*%
X110910000Y-84550000D02*
X114920000Y-84550000D01*
X110910000Y-82550000D02*
X114920000Y-82550000D01*
X110910000Y-82550000D02*
X110910000Y-84550000D01*
%TO.C,C9*%
X96185580Y-118480000D02*
X95904420Y-118480000D01*
X96185580Y-117460000D02*
X95904420Y-117460000D01*
%TO.C,D39*%
X117060000Y-153445000D02*
X123635000Y-153445000D01*
X117060000Y-157195000D02*
X117060000Y-153445000D01*
X124360000Y-154170000D02*
X123635000Y-153445000D01*
X124360000Y-154170000D02*
X124360000Y-157195000D01*
X124360000Y-157195000D02*
X117060000Y-157195000D01*
X123435000Y-153870000D02*
X123285000Y-153670000D01*
X123585000Y-153670000D01*
X123435000Y-153870000D01*
G36*
X123435000Y-153870000D02*
G01*
X123285000Y-153670000D01*
X123585000Y-153670000D01*
X123435000Y-153870000D01*
G37*
%TO.C,C11*%
X134275580Y-118480000D02*
X133994420Y-118480000D01*
X134275580Y-117460000D02*
X133994420Y-117460000D01*
%TO.C,C3*%
X88079420Y-97930000D02*
X88360580Y-97930000D01*
X88079420Y-96910000D02*
X88360580Y-96910000D01*
%TO.C,D17*%
X72800000Y-141710000D02*
X76810000Y-141710000D01*
X72800000Y-139710000D02*
X76810000Y-139710000D01*
X72800000Y-139710000D02*
X72800000Y-141710000D01*
%TO.C,C13*%
X88084420Y-135970000D02*
X88365580Y-135970000D01*
X88084420Y-134950000D02*
X88365580Y-134950000D01*
%TO.C,D38*%
X98010000Y-153445000D02*
X104585000Y-153445000D01*
X98010000Y-157195000D02*
X98010000Y-153445000D01*
X105310000Y-154170000D02*
X104585000Y-153445000D01*
X105310000Y-154170000D02*
X105310000Y-157195000D01*
X105310000Y-157195000D02*
X98010000Y-157195000D01*
X104385000Y-153870000D02*
X104235000Y-153670000D01*
X104535000Y-153670000D01*
X104385000Y-153870000D01*
G36*
X104385000Y-153870000D02*
G01*
X104235000Y-153670000D01*
X104535000Y-153670000D01*
X104385000Y-153870000D01*
G37*
%TO.C,D29*%
X117060000Y-115345000D02*
X123635000Y-115345000D01*
X117060000Y-119095000D02*
X117060000Y-115345000D01*
X124360000Y-116070000D02*
X123635000Y-115345000D01*
X124360000Y-116070000D02*
X124360000Y-119095000D01*
X124360000Y-119095000D02*
X117060000Y-119095000D01*
X123435000Y-115770000D02*
X123285000Y-115570000D01*
X123585000Y-115570000D01*
X123435000Y-115770000D01*
G36*
X123435000Y-115770000D02*
G01*
X123285000Y-115570000D01*
X123585000Y-115570000D01*
X123435000Y-115770000D01*
G37*
%TO.C,SW20*%
X139960000Y-147540000D02*
X134860000Y-147540000D01*
X143860000Y-143340000D02*
X138760000Y-143340000D01*
X139960000Y-147540000D02*
G75*
G02*
X141960000Y-149540000I1J-1999999D01*
G01*
X143860000Y-143340000D02*
G75*
G02*
X145860000Y-145340000I1J-1999999D01*
G01*
%TO.C,SW17*%
X82810000Y-147540000D02*
X77710000Y-147540000D01*
X86710000Y-143340000D02*
X81610000Y-143340000D01*
X82810000Y-147540000D02*
G75*
G02*
X84810000Y-149540000I1J-1999999D01*
G01*
X86710000Y-143340000D02*
G75*
G02*
X88710000Y-145340000I1J-1999999D01*
G01*
%TO.C,SW8*%
X101860000Y-109440000D02*
X96760000Y-109440000D01*
X105760000Y-105240000D02*
X100660000Y-105240000D01*
X101860000Y-109440000D02*
G75*
G02*
X103860000Y-111440000I1J-1999999D01*
G01*
X105760000Y-105240000D02*
G75*
G02*
X107760000Y-107240000I1J-1999999D01*
G01*
%TO.C,SW3*%
X101860000Y-90390000D02*
X96760000Y-90390000D01*
X105760000Y-86190000D02*
X100660000Y-86190000D01*
X101860000Y-90390000D02*
G75*
G02*
X103860000Y-92390000I1J-1999999D01*
G01*
X105760000Y-86190000D02*
G75*
G02*
X107760000Y-88190000I1J-1999999D01*
G01*
%TO.C,SW18*%
X101860000Y-147540000D02*
X96760000Y-147540000D01*
X105760000Y-143340000D02*
X100660000Y-143340000D01*
X101860000Y-147540000D02*
G75*
G02*
X103860000Y-149540000I1J-1999999D01*
G01*
X105760000Y-143340000D02*
G75*
G02*
X107760000Y-145340000I1J-1999999D01*
G01*
%TO.C,SW7*%
X82810000Y-109440000D02*
X77710000Y-109440000D01*
X86710000Y-105240000D02*
X81610000Y-105240000D01*
X82810000Y-109440000D02*
G75*
G02*
X84810000Y-111440000I1J-1999999D01*
G01*
X86710000Y-105240000D02*
G75*
G02*
X88710000Y-107240000I1J-1999999D01*
G01*
%TO.C,SW6*%
X63760000Y-109440000D02*
X58660000Y-109440000D01*
X67660000Y-105240000D02*
X62560000Y-105240000D01*
X63760000Y-109440000D02*
G75*
G02*
X65760000Y-111440000I1J-1999999D01*
G01*
X67660000Y-105240000D02*
G75*
G02*
X69660000Y-107240000I1J-1999999D01*
G01*
%TO.C,SW9*%
X120910000Y-109440000D02*
X115810000Y-109440000D01*
X124810000Y-105240000D02*
X119710000Y-105240000D01*
X120910000Y-109440000D02*
G75*
G02*
X122910000Y-111440000I1J-1999999D01*
G01*
X124810000Y-105240000D02*
G75*
G02*
X126810000Y-107240000I1J-1999999D01*
G01*
%TO.C,SW2*%
X82810000Y-90390000D02*
X77710000Y-90390000D01*
X86710000Y-86190000D02*
X81610000Y-86190000D01*
X82810000Y-90390000D02*
G75*
G02*
X84810000Y-92390000I1J-1999999D01*
G01*
X86710000Y-86190000D02*
G75*
G02*
X88710000Y-88190000I1J-1999999D01*
G01*
%TO.C,SW5*%
X139960000Y-90390000D02*
X134860000Y-90390000D01*
X143860000Y-86190000D02*
X138760000Y-86190000D01*
X139960000Y-90390000D02*
G75*
G02*
X141960000Y-92390000I1J-1999999D01*
G01*
X143860000Y-86190000D02*
G75*
G02*
X145860000Y-88190000I1J-1999999D01*
G01*
%TO.C,SW4*%
X120910000Y-90390000D02*
X115810000Y-90390000D01*
X124810000Y-86190000D02*
X119710000Y-86190000D01*
X120910000Y-90390000D02*
G75*
G02*
X122910000Y-92390000I1J-1999999D01*
G01*
X124810000Y-86190000D02*
G75*
G02*
X126810000Y-88190000I1J-1999999D01*
G01*
%TO.C,SW14*%
X120910000Y-128490000D02*
X115810000Y-128490000D01*
X124810000Y-124290000D02*
X119710000Y-124290000D01*
X120910000Y-128490000D02*
G75*
G02*
X122910000Y-130490000I1J-1999999D01*
G01*
X124810000Y-124290000D02*
G75*
G02*
X126810000Y-126290000I1J-1999999D01*
G01*
%TO.C,SW11*%
X63760000Y-128490000D02*
X58660000Y-128490000D01*
X67660000Y-124290000D02*
X62560000Y-124290000D01*
X63760000Y-128490000D02*
G75*
G02*
X65760000Y-130490000I1J-1999999D01*
G01*
X67660000Y-124290000D02*
G75*
G02*
X69660000Y-126290000I1J-1999999D01*
G01*
%TO.C,SW1*%
X63760000Y-90390000D02*
X58660000Y-90390000D01*
X67660000Y-86190000D02*
X62560000Y-86190000D01*
X63760000Y-90390000D02*
G75*
G02*
X65760000Y-92390000I1J-1999999D01*
G01*
X67660000Y-86190000D02*
G75*
G02*
X69660000Y-88190000I1J-1999999D01*
G01*
%TO.C,SW12*%
X82810000Y-128490000D02*
X77710000Y-128490000D01*
X86710000Y-124290000D02*
X81610000Y-124290000D01*
X82810000Y-128490000D02*
G75*
G02*
X84810000Y-130490000I1J-1999999D01*
G01*
X86710000Y-124290000D02*
G75*
G02*
X88710000Y-126290000I1J-1999999D01*
G01*
%TO.C,SW13*%
X101860000Y-128490000D02*
X96760000Y-128490000D01*
X105760000Y-124290000D02*
X100660000Y-124290000D01*
X101860000Y-128490000D02*
G75*
G02*
X103860000Y-130490000I1J-1999999D01*
G01*
X105760000Y-124290000D02*
G75*
G02*
X107760000Y-126290000I1J-1999999D01*
G01*
%TO.C,SW16*%
X63760000Y-147540000D02*
X58660000Y-147540000D01*
X67660000Y-143340000D02*
X62560000Y-143340000D01*
X63760000Y-147540000D02*
G75*
G02*
X65760000Y-149540000I1J-1999999D01*
G01*
X67660000Y-143340000D02*
G75*
G02*
X69660000Y-145340000I1J-1999999D01*
G01*
%TO.C,SW15*%
X139960000Y-128490000D02*
X134860000Y-128490000D01*
X143860000Y-124290000D02*
X138760000Y-124290000D01*
X139960000Y-128490000D02*
G75*
G02*
X141960000Y-130490000I1J-1999999D01*
G01*
X143860000Y-124290000D02*
G75*
G02*
X145860000Y-126290000I1J-1999999D01*
G01*
%TO.C,SW10*%
X139960000Y-109440000D02*
X134860000Y-109440000D01*
X143860000Y-105240000D02*
X138760000Y-105240000D01*
X139960000Y-109440000D02*
G75*
G02*
X141960000Y-111440000I1J-1999999D01*
G01*
X143860000Y-105240000D02*
G75*
G02*
X145860000Y-107240000I1J-1999999D01*
G01*
%TO.C,D24*%
X117060000Y-96295000D02*
X124360000Y-96295000D01*
X117060000Y-99320000D02*
X117060000Y-96295000D01*
X117060000Y-99320000D02*
X117785000Y-100045000D01*
X124360000Y-96295000D02*
X124360000Y-100045000D01*
X124360000Y-100045000D02*
X117785000Y-100045000D01*
X118135000Y-99820000D02*
X117835000Y-99820000D01*
X117985000Y-99620000D01*
X118135000Y-99820000D01*
G36*
X118135000Y-99820000D02*
G01*
X117835000Y-99820000D01*
X117985000Y-99620000D01*
X118135000Y-99820000D01*
G37*
%TO.C,D32*%
X78960000Y-134395000D02*
X86260000Y-134395000D01*
X78960000Y-137420000D02*
X78960000Y-134395000D01*
X78960000Y-137420000D02*
X79685000Y-138145000D01*
X86260000Y-134395000D02*
X86260000Y-138145000D01*
X86260000Y-138145000D02*
X79685000Y-138145000D01*
X80035000Y-137920000D02*
X79735000Y-137920000D01*
X79885000Y-137720000D01*
X80035000Y-137920000D01*
G36*
X80035000Y-137920000D02*
G01*
X79735000Y-137920000D01*
X79885000Y-137720000D01*
X80035000Y-137920000D01*
G37*
%TO.C,SW19*%
X120910000Y-147540000D02*
X115810000Y-147540000D01*
X124810000Y-143340000D02*
X119710000Y-143340000D01*
X120910000Y-147540000D02*
G75*
G02*
X122910000Y-149540000I1J-1999999D01*
G01*
X124810000Y-143340000D02*
G75*
G02*
X126810000Y-145340000I1J-1999999D01*
G01*
%TD*%
M02*
