%TF.GenerationSoftware,KiCad,Pcbnew,10.0.1*%
%TF.CreationDate,2026-07-28T22:25:14+02:00*%
%TF.ProjectId,Makropad,4d616b72-6f70-4616-942e-6b696361645f,rev?*%
%TF.SameCoordinates,Original*%
%TF.FileFunction,Soldermask,Top*%
%TF.FilePolarity,Negative*%
%FSLAX46Y46*%
G04 Gerber Fmt 4.6, Leading zero omitted, Abs format (unit mm)*
G04 Created by KiCad (PCBNEW 10.0.1) date 2026-07-28 22:25:14*
%MOMM*%
%LPD*%
G01*
G04 APERTURE LIST*
G04 Aperture macros list*
%AMRoundRect*
0 Rectangle with rounded corners*
0 $1 Rounding radius*
0 $2 $3 $4 $5 $6 $7 $8 $9 X,Y pos of 4 corners*
0 Add a 4 corners polygon primitive as box body*
4,1,4,$2,$3,$4,$5,$6,$7,$8,$9,$2,$3,0*
0 Add four circle primitives for the rounded corners*
1,1,$1+$1,$2,$3*
1,1,$1+$1,$4,$5*
1,1,$1+$1,$6,$7*
1,1,$1+$1,$8,$9*
0 Add four rect primitives between the rounded corners*
20,1,$1+$1,$2,$3,$4,$5,0*
20,1,$1+$1,$4,$5,$6,$7,0*
20,1,$1+$1,$6,$7,$8,$9,0*
20,1,$1+$1,$8,$9,$2,$3,0*%
G04 Aperture macros list end*
%ADD10O,2.500000X1.500000*%
%ADD11RoundRect,0.225000X-0.225000X-0.375000X0.225000X-0.375000X0.225000X0.375000X-0.225000X0.375000X0*%
%ADD12O,1.500000X2.500000*%
%ADD13RoundRect,0.225000X-0.225000X-0.250000X0.225000X-0.250000X0.225000X0.250000X-0.225000X0.250000X0*%
%ADD14RoundRect,0.225000X0.225000X0.250000X-0.225000X0.250000X-0.225000X-0.250000X0.225000X-0.250000X0*%
%ADD15RoundRect,0.205000X-0.470000X-0.205000X0.470000X-0.205000X0.470000X0.205000X-0.470000X0.205000X0*%
%ADD16RoundRect,0.205000X0.470000X0.205000X-0.470000X0.205000X-0.470000X-0.205000X0.470000X-0.205000X0*%
%ADD17RoundRect,0.200000X0.200000X0.275000X-0.200000X0.275000X-0.200000X-0.275000X0.200000X-0.275000X0*%
%ADD18RoundRect,0.150000X-0.150000X0.512500X-0.150000X-0.512500X0.150000X-0.512500X0.150000X0.512500X0*%
%ADD19R,1.700000X1.700000*%
%ADD20C,1.700000*%
%ADD21C,1.750000*%
%ADD22C,3.050000*%
%ADD23C,4.000000*%
%ADD24RoundRect,0.250000X1.025000X1.000000X-1.025000X1.000000X-1.025000X-1.000000X1.025000X-1.000000X0*%
G04 APERTURE END LIST*
D10*
%TO.C,U3*%
X125010000Y-57760000D03*
X111510000Y-60080000D03*
X111510000Y-62620000D03*
X111510000Y-65160000D03*
%TD*%
D11*
%TO.C,D2*%
X73460000Y-83550000D03*
X76760000Y-83550000D03*
%TD*%
D10*
%TO.C,U1*%
X97470000Y-52090000D03*
X97470000Y-54630000D03*
X97470000Y-57170000D03*
X97470000Y-59710000D03*
X97470000Y-62250000D03*
X97470000Y-64790000D03*
X97470000Y-67330000D03*
X97470000Y-69870000D03*
X97470000Y-72410000D03*
D12*
X94430000Y-72910000D03*
X91890000Y-72910000D03*
X89350000Y-72910000D03*
X86810000Y-72910000D03*
X84270000Y-72910000D03*
D10*
X81230000Y-72410000D03*
X81230000Y-69870000D03*
X81230000Y-67330000D03*
X81230000Y-64790000D03*
X81230000Y-62250000D03*
X81230000Y-59710000D03*
X81230000Y-57170000D03*
X81230000Y-54630000D03*
X81230000Y-52090000D03*
%TD*%
D13*
%TO.C,C5*%
X127100000Y-97420000D03*
X125550000Y-97420000D03*
%TD*%
D11*
%TO.C,D3*%
X95830000Y-83610000D03*
X92530000Y-83610000D03*
%TD*%
D14*
%TO.C,C17*%
X57160000Y-156070000D03*
X58710000Y-156070000D03*
%TD*%
D11*
%TO.C,D8*%
X95820000Y-102610000D03*
X92520000Y-102610000D03*
%TD*%
D15*
%TO.C,D35*%
X137035000Y-137020000D03*
X137035000Y-135520000D03*
X142485000Y-135520000D03*
X142485000Y-137020000D03*
%TD*%
%TO.C,D23*%
X98935000Y-98920000D03*
X98935000Y-97420000D03*
X104385000Y-97420000D03*
X104385000Y-98920000D03*
%TD*%
D14*
%TO.C,C8*%
X76210000Y-117970000D03*
X77760000Y-117970000D03*
%TD*%
D15*
%TO.C,D33*%
X98935000Y-137020000D03*
X98935000Y-135520000D03*
X104385000Y-135520000D03*
X104385000Y-137020000D03*
%TD*%
D11*
%TO.C,D19*%
X114860000Y-140700000D03*
X111560000Y-140700000D03*
%TD*%
%TO.C,D20*%
X133920000Y-140720000D03*
X130620000Y-140720000D03*
%TD*%
%TO.C,D13*%
X95820000Y-121680000D03*
X92520000Y-121680000D03*
%TD*%
%TO.C,D16*%
X57770000Y-140740000D03*
X54470000Y-140740000D03*
%TD*%
%TO.C,D9*%
X114880000Y-102620000D03*
X111580000Y-102620000D03*
%TD*%
D14*
%TO.C,C10*%
X114320000Y-117970000D03*
X115870000Y-117970000D03*
%TD*%
D11*
%TO.C,D1*%
X57710000Y-83550000D03*
X54410000Y-83550000D03*
%TD*%
%TO.C,D18*%
X95880000Y-140740000D03*
X92580000Y-140740000D03*
%TD*%
%TO.C,D6*%
X57700000Y-102640000D03*
X54400000Y-102640000D03*
%TD*%
D15*
%TO.C,D22*%
X79885000Y-98920000D03*
X79885000Y-97420000D03*
X85335000Y-97420000D03*
X85335000Y-98920000D03*
%TD*%
D11*
%TO.C,D10*%
X133930000Y-102640000D03*
X130630000Y-102640000D03*
%TD*%
D16*
%TO.C,D36*%
X66285000Y-154570000D03*
X66285000Y-156070000D03*
X60835000Y-156070000D03*
X60835000Y-154570000D03*
%TD*%
%TO.C,D30*%
X142485000Y-116470000D03*
X142485000Y-117970000D03*
X137035000Y-117970000D03*
X137035000Y-116470000D03*
%TD*%
%TO.C,D27*%
X85335000Y-116470000D03*
X85335000Y-117970000D03*
X79885000Y-117970000D03*
X79885000Y-116470000D03*
%TD*%
D13*
%TO.C,C2*%
X69945000Y-97430000D03*
X68395000Y-97430000D03*
%TD*%
D17*
%TO.C,R1*%
X64365000Y-76540000D03*
X66015000Y-76540000D03*
%TD*%
D15*
%TO.C,D21*%
X60835000Y-98920000D03*
X60835000Y-97420000D03*
X66285000Y-97420000D03*
X66285000Y-98920000D03*
%TD*%
D14*
%TO.C,C20*%
X114310000Y-156070000D03*
X115860000Y-156070000D03*
%TD*%
D16*
%TO.C,D37*%
X85335000Y-154570000D03*
X85335000Y-156070000D03*
X79885000Y-156070000D03*
X79885000Y-154570000D03*
%TD*%
%TO.C,D28*%
X104385000Y-116470000D03*
X104385000Y-117970000D03*
X98935000Y-117970000D03*
X98935000Y-116470000D03*
%TD*%
D15*
%TO.C,D25*%
X137035000Y-98920000D03*
X137035000Y-97420000D03*
X142485000Y-97420000D03*
X142485000Y-98920000D03*
%TD*%
D16*
%TO.C,D26*%
X66285000Y-116470000D03*
X66285000Y-117970000D03*
X60835000Y-117970000D03*
X60835000Y-116470000D03*
%TD*%
D13*
%TO.C,C14*%
X108050000Y-135470000D03*
X106500000Y-135470000D03*
%TD*%
D14*
%TO.C,C21*%
X133370000Y-156070000D03*
X134920000Y-156070000D03*
%TD*%
%TO.C,C18*%
X76225000Y-156070000D03*
X77775000Y-156070000D03*
%TD*%
D11*
%TO.C,D12*%
X76760000Y-121650000D03*
X73460000Y-121650000D03*
%TD*%
%TO.C,D15*%
X133920000Y-121650000D03*
X130620000Y-121650000D03*
%TD*%
%TO.C,D7*%
X76810000Y-102640000D03*
X73510000Y-102640000D03*
%TD*%
D15*
%TO.C,D34*%
X117985000Y-137020000D03*
X117985000Y-135520000D03*
X123435000Y-135520000D03*
X123435000Y-137020000D03*
%TD*%
D14*
%TO.C,C1*%
X67667500Y-81630000D03*
X69217500Y-81630000D03*
%TD*%
D13*
%TO.C,C15*%
X127110000Y-135450000D03*
X125560000Y-135450000D03*
%TD*%
D11*
%TO.C,D11*%
X57730000Y-121660000D03*
X54430000Y-121660000D03*
%TD*%
D16*
%TO.C,D40*%
X142485000Y-154570000D03*
X142485000Y-156070000D03*
X137035000Y-156070000D03*
X137035000Y-154570000D03*
%TD*%
D13*
%TO.C,C4*%
X108060000Y-97420000D03*
X106510000Y-97420000D03*
%TD*%
D15*
%TO.C,D31*%
X60835000Y-137020000D03*
X60835000Y-135520000D03*
X66285000Y-135520000D03*
X66285000Y-137020000D03*
%TD*%
D13*
%TO.C,C12*%
X69960000Y-135460000D03*
X68410000Y-135460000D03*
%TD*%
D14*
%TO.C,C7*%
X57160000Y-117970000D03*
X58710000Y-117970000D03*
%TD*%
D18*
%TO.C,U2*%
X65312500Y-81627500D03*
X63412500Y-81627500D03*
X63412500Y-79352500D03*
X64362500Y-79352500D03*
X65312500Y-79352500D03*
%TD*%
D13*
%TO.C,C16*%
X146160000Y-135450000D03*
X144610000Y-135450000D03*
%TD*%
D11*
%TO.C,D5*%
X133910000Y-83580000D03*
X130610000Y-83580000D03*
%TD*%
%TO.C,D14*%
X114860000Y-121650000D03*
X111560000Y-121650000D03*
%TD*%
D13*
%TO.C,C6*%
X146160000Y-97420000D03*
X144610000Y-97420000D03*
%TD*%
D14*
%TO.C,C19*%
X95270000Y-156070000D03*
X96820000Y-156070000D03*
%TD*%
D11*
%TO.C,D4*%
X114920000Y-83550000D03*
X111620000Y-83550000D03*
%TD*%
D14*
%TO.C,C9*%
X95270000Y-117970000D03*
X96820000Y-117970000D03*
%TD*%
D16*
%TO.C,D39*%
X123435000Y-154570000D03*
X123435000Y-156070000D03*
X117985000Y-156070000D03*
X117985000Y-154570000D03*
%TD*%
D14*
%TO.C,C11*%
X133360000Y-117970000D03*
X134910000Y-117970000D03*
%TD*%
D13*
%TO.C,C3*%
X88995000Y-97420000D03*
X87445000Y-97420000D03*
%TD*%
D11*
%TO.C,D17*%
X76810000Y-140710000D03*
X73510000Y-140710000D03*
%TD*%
D13*
%TO.C,C13*%
X89000000Y-135460000D03*
X87450000Y-135460000D03*
%TD*%
D16*
%TO.C,D38*%
X104385000Y-154570000D03*
X104385000Y-156070000D03*
X98935000Y-156070000D03*
X98935000Y-154570000D03*
%TD*%
%TO.C,D29*%
X123435000Y-116470000D03*
X123435000Y-117970000D03*
X117985000Y-117970000D03*
X117985000Y-116470000D03*
%TD*%
D19*
%TO.C,J1*%
X74285000Y-59710000D03*
D20*
X74285000Y-62250000D03*
X74285000Y-64790000D03*
X74285000Y-67330000D03*
%TD*%
D21*
%TO.C,SW20*%
X144840000Y-150240000D03*
D22*
X143570000Y-147700000D03*
D23*
X139760000Y-150240000D03*
D22*
X137220000Y-145160000D03*
D21*
X134680000Y-150240000D03*
D24*
X146845000Y-147700000D03*
X133918000Y-145160000D03*
%TD*%
D21*
%TO.C,SW17*%
X87690000Y-150240000D03*
D22*
X86420000Y-147700000D03*
D23*
X82610000Y-150240000D03*
D22*
X80070000Y-145160000D03*
D21*
X77530000Y-150240000D03*
D24*
X89695000Y-147700000D03*
X76768000Y-145160000D03*
%TD*%
D21*
%TO.C,SW8*%
X106740000Y-112140000D03*
D22*
X105470000Y-109600000D03*
D23*
X101660000Y-112140000D03*
D22*
X99120000Y-107060000D03*
D21*
X96580000Y-112140000D03*
D24*
X108745000Y-109600000D03*
X95818000Y-107060000D03*
%TD*%
D21*
%TO.C,SW3*%
X106740000Y-93090000D03*
D22*
X105470000Y-90550000D03*
D23*
X101660000Y-93090000D03*
D22*
X99120000Y-88010000D03*
D21*
X96580000Y-93090000D03*
D24*
X108745000Y-90550000D03*
X95818000Y-88010000D03*
%TD*%
D21*
%TO.C,SW18*%
X106740000Y-150240000D03*
D22*
X105470000Y-147700000D03*
D23*
X101660000Y-150240000D03*
D22*
X99120000Y-145160000D03*
D21*
X96580000Y-150240000D03*
D24*
X108745000Y-147700000D03*
X95818000Y-145160000D03*
%TD*%
D21*
%TO.C,SW7*%
X87690000Y-112140000D03*
D22*
X86420000Y-109600000D03*
D23*
X82610000Y-112140000D03*
D22*
X80070000Y-107060000D03*
D21*
X77530000Y-112140000D03*
D24*
X89695000Y-109600000D03*
X76768000Y-107060000D03*
%TD*%
D21*
%TO.C,SW6*%
X68640000Y-112140000D03*
D22*
X67370000Y-109600000D03*
D23*
X63560000Y-112140000D03*
D22*
X61020000Y-107060000D03*
D21*
X58480000Y-112140000D03*
D24*
X70645000Y-109600000D03*
X57718000Y-107060000D03*
%TD*%
D21*
%TO.C,SW9*%
X125790000Y-112140000D03*
D22*
X124520000Y-109600000D03*
D23*
X120710000Y-112140000D03*
D22*
X118170000Y-107060000D03*
D21*
X115630000Y-112140000D03*
D24*
X127795000Y-109600000D03*
X114868000Y-107060000D03*
%TD*%
D21*
%TO.C,SW2*%
X87690000Y-93090000D03*
D22*
X86420000Y-90550000D03*
D23*
X82610000Y-93090000D03*
D22*
X80070000Y-88010000D03*
D21*
X77530000Y-93090000D03*
D24*
X89695000Y-90550000D03*
X76768000Y-88010000D03*
%TD*%
D21*
%TO.C,SW5*%
X144840000Y-93090000D03*
D22*
X143570000Y-90550000D03*
D23*
X139760000Y-93090000D03*
D22*
X137220000Y-88010000D03*
D21*
X134680000Y-93090000D03*
D24*
X146845000Y-90550000D03*
X133918000Y-88010000D03*
%TD*%
D21*
%TO.C,SW4*%
X125790000Y-93090000D03*
D22*
X124520000Y-90550000D03*
D23*
X120710000Y-93090000D03*
D22*
X118170000Y-88010000D03*
D21*
X115630000Y-93090000D03*
D24*
X127795000Y-90550000D03*
X114868000Y-88010000D03*
%TD*%
D21*
%TO.C,SW14*%
X125790000Y-131190000D03*
D22*
X124520000Y-128650000D03*
D23*
X120710000Y-131190000D03*
D22*
X118170000Y-126110000D03*
D21*
X115630000Y-131190000D03*
D24*
X127795000Y-128650000D03*
X114868000Y-126110000D03*
%TD*%
D21*
%TO.C,SW11*%
X68640000Y-131190000D03*
D22*
X67370000Y-128650000D03*
D23*
X63560000Y-131190000D03*
D22*
X61020000Y-126110000D03*
D21*
X58480000Y-131190000D03*
D24*
X70645000Y-128650000D03*
X57718000Y-126110000D03*
%TD*%
D21*
%TO.C,SW1*%
X68640000Y-93090000D03*
D22*
X67370000Y-90550000D03*
D23*
X63560000Y-93090000D03*
D22*
X61020000Y-88010000D03*
D21*
X58480000Y-93090000D03*
D24*
X70645000Y-90550000D03*
X57718000Y-88010000D03*
%TD*%
D21*
%TO.C,SW12*%
X87690000Y-131190000D03*
D22*
X86420000Y-128650000D03*
D23*
X82610000Y-131190000D03*
D22*
X80070000Y-126110000D03*
D21*
X77530000Y-131190000D03*
D24*
X89695000Y-128650000D03*
X76768000Y-126110000D03*
%TD*%
D21*
%TO.C,SW13*%
X106740000Y-131190000D03*
D22*
X105470000Y-128650000D03*
D23*
X101660000Y-131190000D03*
D22*
X99120000Y-126110000D03*
D21*
X96580000Y-131190000D03*
D24*
X108745000Y-128650000D03*
X95818000Y-126110000D03*
%TD*%
D21*
%TO.C,SW16*%
X68640000Y-150240000D03*
D22*
X67370000Y-147700000D03*
D23*
X63560000Y-150240000D03*
D22*
X61020000Y-145160000D03*
D21*
X58480000Y-150240000D03*
D24*
X70645000Y-147700000D03*
X57718000Y-145160000D03*
%TD*%
D21*
%TO.C,SW15*%
X144840000Y-131190000D03*
D22*
X143570000Y-128650000D03*
D23*
X139760000Y-131190000D03*
D22*
X137220000Y-126110000D03*
D21*
X134680000Y-131190000D03*
D24*
X146845000Y-128650000D03*
X133918000Y-126110000D03*
%TD*%
D21*
%TO.C,SW10*%
X144840000Y-112140000D03*
D22*
X143570000Y-109600000D03*
D23*
X139760000Y-112140000D03*
D22*
X137220000Y-107060000D03*
D21*
X134680000Y-112140000D03*
D24*
X146845000Y-109600000D03*
X133918000Y-107060000D03*
%TD*%
D15*
%TO.C,D24*%
X117985000Y-98920000D03*
X117985000Y-97420000D03*
X123435000Y-97420000D03*
X123435000Y-98920000D03*
%TD*%
%TO.C,D32*%
X79885000Y-137020000D03*
X79885000Y-135520000D03*
X85335000Y-135520000D03*
X85335000Y-137020000D03*
%TD*%
D21*
%TO.C,SW19*%
X125790000Y-150240000D03*
D22*
X124520000Y-147700000D03*
D23*
X120710000Y-150240000D03*
D22*
X118170000Y-145160000D03*
D21*
X115630000Y-150240000D03*
D24*
X127795000Y-147700000D03*
X114868000Y-145160000D03*
%TD*%
M02*
