%TF.GenerationSoftware,KiCad,Pcbnew,10.0.1*%
%TF.CreationDate,2026-07-28T22:25:14+02:00*%
%TF.ProjectId,Makropad,4d616b72-6f70-4616-942e-6b696361645f,rev?*%
%TF.SameCoordinates,Original*%
%TF.FileFunction,Legend,Bot*%
%TF.FilePolarity,Positive*%
%FSLAX46Y46*%
G04 Gerber Fmt 4.6, Leading zero omitted, Abs format (unit mm)*
G04 Created by KiCad (PCBNEW 10.0.1) date 2026-07-28 22:25:14*
%MOMM*%
%LPD*%
G01*
G04 APERTURE LIST*
%ADD10C,0.150000*%
%ADD11C,0.120000*%
G04 APERTURE END LIST*
D10*
X70233333Y-56894819D02*
X70233333Y-57609104D01*
X70233333Y-57609104D02*
X70280952Y-57751961D01*
X70280952Y-57751961D02*
X70376190Y-57847200D01*
X70376190Y-57847200D02*
X70519047Y-57894819D01*
X70519047Y-57894819D02*
X70614285Y-57894819D01*
X69233333Y-57894819D02*
X69804761Y-57894819D01*
X69519047Y-57894819D02*
X69519047Y-56894819D01*
X69519047Y-56894819D02*
X69614285Y-57037676D01*
X69614285Y-57037676D02*
X69709523Y-57132914D01*
X69709523Y-57132914D02*
X69804761Y-57180533D01*
X141569523Y-142647200D02*
X141426666Y-142694819D01*
X141426666Y-142694819D02*
X141188571Y-142694819D01*
X141188571Y-142694819D02*
X141093333Y-142647200D01*
X141093333Y-142647200D02*
X141045714Y-142599580D01*
X141045714Y-142599580D02*
X140998095Y-142504342D01*
X140998095Y-142504342D02*
X140998095Y-142409104D01*
X140998095Y-142409104D02*
X141045714Y-142313866D01*
X141045714Y-142313866D02*
X141093333Y-142266247D01*
X141093333Y-142266247D02*
X141188571Y-142218628D01*
X141188571Y-142218628D02*
X141379047Y-142171009D01*
X141379047Y-142171009D02*
X141474285Y-142123390D01*
X141474285Y-142123390D02*
X141521904Y-142075771D01*
X141521904Y-142075771D02*
X141569523Y-141980533D01*
X141569523Y-141980533D02*
X141569523Y-141885295D01*
X141569523Y-141885295D02*
X141521904Y-141790057D01*
X141521904Y-141790057D02*
X141474285Y-141742438D01*
X141474285Y-141742438D02*
X141379047Y-141694819D01*
X141379047Y-141694819D02*
X141140952Y-141694819D01*
X141140952Y-141694819D02*
X140998095Y-141742438D01*
X140664761Y-141694819D02*
X140426666Y-142694819D01*
X140426666Y-142694819D02*
X140236190Y-141980533D01*
X140236190Y-141980533D02*
X140045714Y-142694819D01*
X140045714Y-142694819D02*
X139807619Y-141694819D01*
X139474285Y-141790057D02*
X139426666Y-141742438D01*
X139426666Y-141742438D02*
X139331428Y-141694819D01*
X139331428Y-141694819D02*
X139093333Y-141694819D01*
X139093333Y-141694819D02*
X138998095Y-141742438D01*
X138998095Y-141742438D02*
X138950476Y-141790057D01*
X138950476Y-141790057D02*
X138902857Y-141885295D01*
X138902857Y-141885295D02*
X138902857Y-141980533D01*
X138902857Y-141980533D02*
X138950476Y-142123390D01*
X138950476Y-142123390D02*
X139521904Y-142694819D01*
X139521904Y-142694819D02*
X138902857Y-142694819D01*
X138283809Y-141694819D02*
X138188571Y-141694819D01*
X138188571Y-141694819D02*
X138093333Y-141742438D01*
X138093333Y-141742438D02*
X138045714Y-141790057D01*
X138045714Y-141790057D02*
X137998095Y-141885295D01*
X137998095Y-141885295D02*
X137950476Y-142075771D01*
X137950476Y-142075771D02*
X137950476Y-142313866D01*
X137950476Y-142313866D02*
X137998095Y-142504342D01*
X137998095Y-142504342D02*
X138045714Y-142599580D01*
X138045714Y-142599580D02*
X138093333Y-142647200D01*
X138093333Y-142647200D02*
X138188571Y-142694819D01*
X138188571Y-142694819D02*
X138283809Y-142694819D01*
X138283809Y-142694819D02*
X138379047Y-142647200D01*
X138379047Y-142647200D02*
X138426666Y-142599580D01*
X138426666Y-142599580D02*
X138474285Y-142504342D01*
X138474285Y-142504342D02*
X138521904Y-142313866D01*
X138521904Y-142313866D02*
X138521904Y-142075771D01*
X138521904Y-142075771D02*
X138474285Y-141885295D01*
X138474285Y-141885295D02*
X138426666Y-141790057D01*
X138426666Y-141790057D02*
X138379047Y-141742438D01*
X138379047Y-141742438D02*
X138283809Y-141694819D01*
X84419523Y-142647200D02*
X84276666Y-142694819D01*
X84276666Y-142694819D02*
X84038571Y-142694819D01*
X84038571Y-142694819D02*
X83943333Y-142647200D01*
X83943333Y-142647200D02*
X83895714Y-142599580D01*
X83895714Y-142599580D02*
X83848095Y-142504342D01*
X83848095Y-142504342D02*
X83848095Y-142409104D01*
X83848095Y-142409104D02*
X83895714Y-142313866D01*
X83895714Y-142313866D02*
X83943333Y-142266247D01*
X83943333Y-142266247D02*
X84038571Y-142218628D01*
X84038571Y-142218628D02*
X84229047Y-142171009D01*
X84229047Y-142171009D02*
X84324285Y-142123390D01*
X84324285Y-142123390D02*
X84371904Y-142075771D01*
X84371904Y-142075771D02*
X84419523Y-141980533D01*
X84419523Y-141980533D02*
X84419523Y-141885295D01*
X84419523Y-141885295D02*
X84371904Y-141790057D01*
X84371904Y-141790057D02*
X84324285Y-141742438D01*
X84324285Y-141742438D02*
X84229047Y-141694819D01*
X84229047Y-141694819D02*
X83990952Y-141694819D01*
X83990952Y-141694819D02*
X83848095Y-141742438D01*
X83514761Y-141694819D02*
X83276666Y-142694819D01*
X83276666Y-142694819D02*
X83086190Y-141980533D01*
X83086190Y-141980533D02*
X82895714Y-142694819D01*
X82895714Y-142694819D02*
X82657619Y-141694819D01*
X81752857Y-142694819D02*
X82324285Y-142694819D01*
X82038571Y-142694819D02*
X82038571Y-141694819D01*
X82038571Y-141694819D02*
X82133809Y-141837676D01*
X82133809Y-141837676D02*
X82229047Y-141932914D01*
X82229047Y-141932914D02*
X82324285Y-141980533D01*
X81419523Y-141694819D02*
X80752857Y-141694819D01*
X80752857Y-141694819D02*
X81181428Y-142694819D01*
X102993332Y-104547200D02*
X102850475Y-104594819D01*
X102850475Y-104594819D02*
X102612380Y-104594819D01*
X102612380Y-104594819D02*
X102517142Y-104547200D01*
X102517142Y-104547200D02*
X102469523Y-104499580D01*
X102469523Y-104499580D02*
X102421904Y-104404342D01*
X102421904Y-104404342D02*
X102421904Y-104309104D01*
X102421904Y-104309104D02*
X102469523Y-104213866D01*
X102469523Y-104213866D02*
X102517142Y-104166247D01*
X102517142Y-104166247D02*
X102612380Y-104118628D01*
X102612380Y-104118628D02*
X102802856Y-104071009D01*
X102802856Y-104071009D02*
X102898094Y-104023390D01*
X102898094Y-104023390D02*
X102945713Y-103975771D01*
X102945713Y-103975771D02*
X102993332Y-103880533D01*
X102993332Y-103880533D02*
X102993332Y-103785295D01*
X102993332Y-103785295D02*
X102945713Y-103690057D01*
X102945713Y-103690057D02*
X102898094Y-103642438D01*
X102898094Y-103642438D02*
X102802856Y-103594819D01*
X102802856Y-103594819D02*
X102564761Y-103594819D01*
X102564761Y-103594819D02*
X102421904Y-103642438D01*
X102088570Y-103594819D02*
X101850475Y-104594819D01*
X101850475Y-104594819D02*
X101659999Y-103880533D01*
X101659999Y-103880533D02*
X101469523Y-104594819D01*
X101469523Y-104594819D02*
X101231428Y-103594819D01*
X100707618Y-104023390D02*
X100802856Y-103975771D01*
X100802856Y-103975771D02*
X100850475Y-103928152D01*
X100850475Y-103928152D02*
X100898094Y-103832914D01*
X100898094Y-103832914D02*
X100898094Y-103785295D01*
X100898094Y-103785295D02*
X100850475Y-103690057D01*
X100850475Y-103690057D02*
X100802856Y-103642438D01*
X100802856Y-103642438D02*
X100707618Y-103594819D01*
X100707618Y-103594819D02*
X100517142Y-103594819D01*
X100517142Y-103594819D02*
X100421904Y-103642438D01*
X100421904Y-103642438D02*
X100374285Y-103690057D01*
X100374285Y-103690057D02*
X100326666Y-103785295D01*
X100326666Y-103785295D02*
X100326666Y-103832914D01*
X100326666Y-103832914D02*
X100374285Y-103928152D01*
X100374285Y-103928152D02*
X100421904Y-103975771D01*
X100421904Y-103975771D02*
X100517142Y-104023390D01*
X100517142Y-104023390D02*
X100707618Y-104023390D01*
X100707618Y-104023390D02*
X100802856Y-104071009D01*
X100802856Y-104071009D02*
X100850475Y-104118628D01*
X100850475Y-104118628D02*
X100898094Y-104213866D01*
X100898094Y-104213866D02*
X100898094Y-104404342D01*
X100898094Y-104404342D02*
X100850475Y-104499580D01*
X100850475Y-104499580D02*
X100802856Y-104547200D01*
X100802856Y-104547200D02*
X100707618Y-104594819D01*
X100707618Y-104594819D02*
X100517142Y-104594819D01*
X100517142Y-104594819D02*
X100421904Y-104547200D01*
X100421904Y-104547200D02*
X100374285Y-104499580D01*
X100374285Y-104499580D02*
X100326666Y-104404342D01*
X100326666Y-104404342D02*
X100326666Y-104213866D01*
X100326666Y-104213866D02*
X100374285Y-104118628D01*
X100374285Y-104118628D02*
X100421904Y-104071009D01*
X100421904Y-104071009D02*
X100517142Y-104023390D01*
X102993332Y-85497200D02*
X102850475Y-85544819D01*
X102850475Y-85544819D02*
X102612380Y-85544819D01*
X102612380Y-85544819D02*
X102517142Y-85497200D01*
X102517142Y-85497200D02*
X102469523Y-85449580D01*
X102469523Y-85449580D02*
X102421904Y-85354342D01*
X102421904Y-85354342D02*
X102421904Y-85259104D01*
X102421904Y-85259104D02*
X102469523Y-85163866D01*
X102469523Y-85163866D02*
X102517142Y-85116247D01*
X102517142Y-85116247D02*
X102612380Y-85068628D01*
X102612380Y-85068628D02*
X102802856Y-85021009D01*
X102802856Y-85021009D02*
X102898094Y-84973390D01*
X102898094Y-84973390D02*
X102945713Y-84925771D01*
X102945713Y-84925771D02*
X102993332Y-84830533D01*
X102993332Y-84830533D02*
X102993332Y-84735295D01*
X102993332Y-84735295D02*
X102945713Y-84640057D01*
X102945713Y-84640057D02*
X102898094Y-84592438D01*
X102898094Y-84592438D02*
X102802856Y-84544819D01*
X102802856Y-84544819D02*
X102564761Y-84544819D01*
X102564761Y-84544819D02*
X102421904Y-84592438D01*
X102088570Y-84544819D02*
X101850475Y-85544819D01*
X101850475Y-85544819D02*
X101659999Y-84830533D01*
X101659999Y-84830533D02*
X101469523Y-85544819D01*
X101469523Y-85544819D02*
X101231428Y-84544819D01*
X100945713Y-84544819D02*
X100326666Y-84544819D01*
X100326666Y-84544819D02*
X100659999Y-84925771D01*
X100659999Y-84925771D02*
X100517142Y-84925771D01*
X100517142Y-84925771D02*
X100421904Y-84973390D01*
X100421904Y-84973390D02*
X100374285Y-85021009D01*
X100374285Y-85021009D02*
X100326666Y-85116247D01*
X100326666Y-85116247D02*
X100326666Y-85354342D01*
X100326666Y-85354342D02*
X100374285Y-85449580D01*
X100374285Y-85449580D02*
X100421904Y-85497200D01*
X100421904Y-85497200D02*
X100517142Y-85544819D01*
X100517142Y-85544819D02*
X100802856Y-85544819D01*
X100802856Y-85544819D02*
X100898094Y-85497200D01*
X100898094Y-85497200D02*
X100945713Y-85449580D01*
X103469523Y-142647200D02*
X103326666Y-142694819D01*
X103326666Y-142694819D02*
X103088571Y-142694819D01*
X103088571Y-142694819D02*
X102993333Y-142647200D01*
X102993333Y-142647200D02*
X102945714Y-142599580D01*
X102945714Y-142599580D02*
X102898095Y-142504342D01*
X102898095Y-142504342D02*
X102898095Y-142409104D01*
X102898095Y-142409104D02*
X102945714Y-142313866D01*
X102945714Y-142313866D02*
X102993333Y-142266247D01*
X102993333Y-142266247D02*
X103088571Y-142218628D01*
X103088571Y-142218628D02*
X103279047Y-142171009D01*
X103279047Y-142171009D02*
X103374285Y-142123390D01*
X103374285Y-142123390D02*
X103421904Y-142075771D01*
X103421904Y-142075771D02*
X103469523Y-141980533D01*
X103469523Y-141980533D02*
X103469523Y-141885295D01*
X103469523Y-141885295D02*
X103421904Y-141790057D01*
X103421904Y-141790057D02*
X103374285Y-141742438D01*
X103374285Y-141742438D02*
X103279047Y-141694819D01*
X103279047Y-141694819D02*
X103040952Y-141694819D01*
X103040952Y-141694819D02*
X102898095Y-141742438D01*
X102564761Y-141694819D02*
X102326666Y-142694819D01*
X102326666Y-142694819D02*
X102136190Y-141980533D01*
X102136190Y-141980533D02*
X101945714Y-142694819D01*
X101945714Y-142694819D02*
X101707619Y-141694819D01*
X100802857Y-142694819D02*
X101374285Y-142694819D01*
X101088571Y-142694819D02*
X101088571Y-141694819D01*
X101088571Y-141694819D02*
X101183809Y-141837676D01*
X101183809Y-141837676D02*
X101279047Y-141932914D01*
X101279047Y-141932914D02*
X101374285Y-141980533D01*
X100231428Y-142123390D02*
X100326666Y-142075771D01*
X100326666Y-142075771D02*
X100374285Y-142028152D01*
X100374285Y-142028152D02*
X100421904Y-141932914D01*
X100421904Y-141932914D02*
X100421904Y-141885295D01*
X100421904Y-141885295D02*
X100374285Y-141790057D01*
X100374285Y-141790057D02*
X100326666Y-141742438D01*
X100326666Y-141742438D02*
X100231428Y-141694819D01*
X100231428Y-141694819D02*
X100040952Y-141694819D01*
X100040952Y-141694819D02*
X99945714Y-141742438D01*
X99945714Y-141742438D02*
X99898095Y-141790057D01*
X99898095Y-141790057D02*
X99850476Y-141885295D01*
X99850476Y-141885295D02*
X99850476Y-141932914D01*
X99850476Y-141932914D02*
X99898095Y-142028152D01*
X99898095Y-142028152D02*
X99945714Y-142075771D01*
X99945714Y-142075771D02*
X100040952Y-142123390D01*
X100040952Y-142123390D02*
X100231428Y-142123390D01*
X100231428Y-142123390D02*
X100326666Y-142171009D01*
X100326666Y-142171009D02*
X100374285Y-142218628D01*
X100374285Y-142218628D02*
X100421904Y-142313866D01*
X100421904Y-142313866D02*
X100421904Y-142504342D01*
X100421904Y-142504342D02*
X100374285Y-142599580D01*
X100374285Y-142599580D02*
X100326666Y-142647200D01*
X100326666Y-142647200D02*
X100231428Y-142694819D01*
X100231428Y-142694819D02*
X100040952Y-142694819D01*
X100040952Y-142694819D02*
X99945714Y-142647200D01*
X99945714Y-142647200D02*
X99898095Y-142599580D01*
X99898095Y-142599580D02*
X99850476Y-142504342D01*
X99850476Y-142504342D02*
X99850476Y-142313866D01*
X99850476Y-142313866D02*
X99898095Y-142218628D01*
X99898095Y-142218628D02*
X99945714Y-142171009D01*
X99945714Y-142171009D02*
X100040952Y-142123390D01*
X83943332Y-104547200D02*
X83800475Y-104594819D01*
X83800475Y-104594819D02*
X83562380Y-104594819D01*
X83562380Y-104594819D02*
X83467142Y-104547200D01*
X83467142Y-104547200D02*
X83419523Y-104499580D01*
X83419523Y-104499580D02*
X83371904Y-104404342D01*
X83371904Y-104404342D02*
X83371904Y-104309104D01*
X83371904Y-104309104D02*
X83419523Y-104213866D01*
X83419523Y-104213866D02*
X83467142Y-104166247D01*
X83467142Y-104166247D02*
X83562380Y-104118628D01*
X83562380Y-104118628D02*
X83752856Y-104071009D01*
X83752856Y-104071009D02*
X83848094Y-104023390D01*
X83848094Y-104023390D02*
X83895713Y-103975771D01*
X83895713Y-103975771D02*
X83943332Y-103880533D01*
X83943332Y-103880533D02*
X83943332Y-103785295D01*
X83943332Y-103785295D02*
X83895713Y-103690057D01*
X83895713Y-103690057D02*
X83848094Y-103642438D01*
X83848094Y-103642438D02*
X83752856Y-103594819D01*
X83752856Y-103594819D02*
X83514761Y-103594819D01*
X83514761Y-103594819D02*
X83371904Y-103642438D01*
X83038570Y-103594819D02*
X82800475Y-104594819D01*
X82800475Y-104594819D02*
X82609999Y-103880533D01*
X82609999Y-103880533D02*
X82419523Y-104594819D01*
X82419523Y-104594819D02*
X82181428Y-103594819D01*
X81895713Y-103594819D02*
X81229047Y-103594819D01*
X81229047Y-103594819D02*
X81657618Y-104594819D01*
X64893332Y-104547200D02*
X64750475Y-104594819D01*
X64750475Y-104594819D02*
X64512380Y-104594819D01*
X64512380Y-104594819D02*
X64417142Y-104547200D01*
X64417142Y-104547200D02*
X64369523Y-104499580D01*
X64369523Y-104499580D02*
X64321904Y-104404342D01*
X64321904Y-104404342D02*
X64321904Y-104309104D01*
X64321904Y-104309104D02*
X64369523Y-104213866D01*
X64369523Y-104213866D02*
X64417142Y-104166247D01*
X64417142Y-104166247D02*
X64512380Y-104118628D01*
X64512380Y-104118628D02*
X64702856Y-104071009D01*
X64702856Y-104071009D02*
X64798094Y-104023390D01*
X64798094Y-104023390D02*
X64845713Y-103975771D01*
X64845713Y-103975771D02*
X64893332Y-103880533D01*
X64893332Y-103880533D02*
X64893332Y-103785295D01*
X64893332Y-103785295D02*
X64845713Y-103690057D01*
X64845713Y-103690057D02*
X64798094Y-103642438D01*
X64798094Y-103642438D02*
X64702856Y-103594819D01*
X64702856Y-103594819D02*
X64464761Y-103594819D01*
X64464761Y-103594819D02*
X64321904Y-103642438D01*
X63988570Y-103594819D02*
X63750475Y-104594819D01*
X63750475Y-104594819D02*
X63559999Y-103880533D01*
X63559999Y-103880533D02*
X63369523Y-104594819D01*
X63369523Y-104594819D02*
X63131428Y-103594819D01*
X62321904Y-103594819D02*
X62512380Y-103594819D01*
X62512380Y-103594819D02*
X62607618Y-103642438D01*
X62607618Y-103642438D02*
X62655237Y-103690057D01*
X62655237Y-103690057D02*
X62750475Y-103832914D01*
X62750475Y-103832914D02*
X62798094Y-104023390D01*
X62798094Y-104023390D02*
X62798094Y-104404342D01*
X62798094Y-104404342D02*
X62750475Y-104499580D01*
X62750475Y-104499580D02*
X62702856Y-104547200D01*
X62702856Y-104547200D02*
X62607618Y-104594819D01*
X62607618Y-104594819D02*
X62417142Y-104594819D01*
X62417142Y-104594819D02*
X62321904Y-104547200D01*
X62321904Y-104547200D02*
X62274285Y-104499580D01*
X62274285Y-104499580D02*
X62226666Y-104404342D01*
X62226666Y-104404342D02*
X62226666Y-104166247D01*
X62226666Y-104166247D02*
X62274285Y-104071009D01*
X62274285Y-104071009D02*
X62321904Y-104023390D01*
X62321904Y-104023390D02*
X62417142Y-103975771D01*
X62417142Y-103975771D02*
X62607618Y-103975771D01*
X62607618Y-103975771D02*
X62702856Y-104023390D01*
X62702856Y-104023390D02*
X62750475Y-104071009D01*
X62750475Y-104071009D02*
X62798094Y-104166247D01*
X122043332Y-104547200D02*
X121900475Y-104594819D01*
X121900475Y-104594819D02*
X121662380Y-104594819D01*
X121662380Y-104594819D02*
X121567142Y-104547200D01*
X121567142Y-104547200D02*
X121519523Y-104499580D01*
X121519523Y-104499580D02*
X121471904Y-104404342D01*
X121471904Y-104404342D02*
X121471904Y-104309104D01*
X121471904Y-104309104D02*
X121519523Y-104213866D01*
X121519523Y-104213866D02*
X121567142Y-104166247D01*
X121567142Y-104166247D02*
X121662380Y-104118628D01*
X121662380Y-104118628D02*
X121852856Y-104071009D01*
X121852856Y-104071009D02*
X121948094Y-104023390D01*
X121948094Y-104023390D02*
X121995713Y-103975771D01*
X121995713Y-103975771D02*
X122043332Y-103880533D01*
X122043332Y-103880533D02*
X122043332Y-103785295D01*
X122043332Y-103785295D02*
X121995713Y-103690057D01*
X121995713Y-103690057D02*
X121948094Y-103642438D01*
X121948094Y-103642438D02*
X121852856Y-103594819D01*
X121852856Y-103594819D02*
X121614761Y-103594819D01*
X121614761Y-103594819D02*
X121471904Y-103642438D01*
X121138570Y-103594819D02*
X120900475Y-104594819D01*
X120900475Y-104594819D02*
X120709999Y-103880533D01*
X120709999Y-103880533D02*
X120519523Y-104594819D01*
X120519523Y-104594819D02*
X120281428Y-103594819D01*
X119852856Y-104594819D02*
X119662380Y-104594819D01*
X119662380Y-104594819D02*
X119567142Y-104547200D01*
X119567142Y-104547200D02*
X119519523Y-104499580D01*
X119519523Y-104499580D02*
X119424285Y-104356723D01*
X119424285Y-104356723D02*
X119376666Y-104166247D01*
X119376666Y-104166247D02*
X119376666Y-103785295D01*
X119376666Y-103785295D02*
X119424285Y-103690057D01*
X119424285Y-103690057D02*
X119471904Y-103642438D01*
X119471904Y-103642438D02*
X119567142Y-103594819D01*
X119567142Y-103594819D02*
X119757618Y-103594819D01*
X119757618Y-103594819D02*
X119852856Y-103642438D01*
X119852856Y-103642438D02*
X119900475Y-103690057D01*
X119900475Y-103690057D02*
X119948094Y-103785295D01*
X119948094Y-103785295D02*
X119948094Y-104023390D01*
X119948094Y-104023390D02*
X119900475Y-104118628D01*
X119900475Y-104118628D02*
X119852856Y-104166247D01*
X119852856Y-104166247D02*
X119757618Y-104213866D01*
X119757618Y-104213866D02*
X119567142Y-104213866D01*
X119567142Y-104213866D02*
X119471904Y-104166247D01*
X119471904Y-104166247D02*
X119424285Y-104118628D01*
X119424285Y-104118628D02*
X119376666Y-104023390D01*
X83943332Y-85497200D02*
X83800475Y-85544819D01*
X83800475Y-85544819D02*
X83562380Y-85544819D01*
X83562380Y-85544819D02*
X83467142Y-85497200D01*
X83467142Y-85497200D02*
X83419523Y-85449580D01*
X83419523Y-85449580D02*
X83371904Y-85354342D01*
X83371904Y-85354342D02*
X83371904Y-85259104D01*
X83371904Y-85259104D02*
X83419523Y-85163866D01*
X83419523Y-85163866D02*
X83467142Y-85116247D01*
X83467142Y-85116247D02*
X83562380Y-85068628D01*
X83562380Y-85068628D02*
X83752856Y-85021009D01*
X83752856Y-85021009D02*
X83848094Y-84973390D01*
X83848094Y-84973390D02*
X83895713Y-84925771D01*
X83895713Y-84925771D02*
X83943332Y-84830533D01*
X83943332Y-84830533D02*
X83943332Y-84735295D01*
X83943332Y-84735295D02*
X83895713Y-84640057D01*
X83895713Y-84640057D02*
X83848094Y-84592438D01*
X83848094Y-84592438D02*
X83752856Y-84544819D01*
X83752856Y-84544819D02*
X83514761Y-84544819D01*
X83514761Y-84544819D02*
X83371904Y-84592438D01*
X83038570Y-84544819D02*
X82800475Y-85544819D01*
X82800475Y-85544819D02*
X82609999Y-84830533D01*
X82609999Y-84830533D02*
X82419523Y-85544819D01*
X82419523Y-85544819D02*
X82181428Y-84544819D01*
X81848094Y-84640057D02*
X81800475Y-84592438D01*
X81800475Y-84592438D02*
X81705237Y-84544819D01*
X81705237Y-84544819D02*
X81467142Y-84544819D01*
X81467142Y-84544819D02*
X81371904Y-84592438D01*
X81371904Y-84592438D02*
X81324285Y-84640057D01*
X81324285Y-84640057D02*
X81276666Y-84735295D01*
X81276666Y-84735295D02*
X81276666Y-84830533D01*
X81276666Y-84830533D02*
X81324285Y-84973390D01*
X81324285Y-84973390D02*
X81895713Y-85544819D01*
X81895713Y-85544819D02*
X81276666Y-85544819D01*
X141093332Y-85497200D02*
X140950475Y-85544819D01*
X140950475Y-85544819D02*
X140712380Y-85544819D01*
X140712380Y-85544819D02*
X140617142Y-85497200D01*
X140617142Y-85497200D02*
X140569523Y-85449580D01*
X140569523Y-85449580D02*
X140521904Y-85354342D01*
X140521904Y-85354342D02*
X140521904Y-85259104D01*
X140521904Y-85259104D02*
X140569523Y-85163866D01*
X140569523Y-85163866D02*
X140617142Y-85116247D01*
X140617142Y-85116247D02*
X140712380Y-85068628D01*
X140712380Y-85068628D02*
X140902856Y-85021009D01*
X140902856Y-85021009D02*
X140998094Y-84973390D01*
X140998094Y-84973390D02*
X141045713Y-84925771D01*
X141045713Y-84925771D02*
X141093332Y-84830533D01*
X141093332Y-84830533D02*
X141093332Y-84735295D01*
X141093332Y-84735295D02*
X141045713Y-84640057D01*
X141045713Y-84640057D02*
X140998094Y-84592438D01*
X140998094Y-84592438D02*
X140902856Y-84544819D01*
X140902856Y-84544819D02*
X140664761Y-84544819D01*
X140664761Y-84544819D02*
X140521904Y-84592438D01*
X140188570Y-84544819D02*
X139950475Y-85544819D01*
X139950475Y-85544819D02*
X139759999Y-84830533D01*
X139759999Y-84830533D02*
X139569523Y-85544819D01*
X139569523Y-85544819D02*
X139331428Y-84544819D01*
X138474285Y-84544819D02*
X138950475Y-84544819D01*
X138950475Y-84544819D02*
X138998094Y-85021009D01*
X138998094Y-85021009D02*
X138950475Y-84973390D01*
X138950475Y-84973390D02*
X138855237Y-84925771D01*
X138855237Y-84925771D02*
X138617142Y-84925771D01*
X138617142Y-84925771D02*
X138521904Y-84973390D01*
X138521904Y-84973390D02*
X138474285Y-85021009D01*
X138474285Y-85021009D02*
X138426666Y-85116247D01*
X138426666Y-85116247D02*
X138426666Y-85354342D01*
X138426666Y-85354342D02*
X138474285Y-85449580D01*
X138474285Y-85449580D02*
X138521904Y-85497200D01*
X138521904Y-85497200D02*
X138617142Y-85544819D01*
X138617142Y-85544819D02*
X138855237Y-85544819D01*
X138855237Y-85544819D02*
X138950475Y-85497200D01*
X138950475Y-85497200D02*
X138998094Y-85449580D01*
X122043332Y-85497200D02*
X121900475Y-85544819D01*
X121900475Y-85544819D02*
X121662380Y-85544819D01*
X121662380Y-85544819D02*
X121567142Y-85497200D01*
X121567142Y-85497200D02*
X121519523Y-85449580D01*
X121519523Y-85449580D02*
X121471904Y-85354342D01*
X121471904Y-85354342D02*
X121471904Y-85259104D01*
X121471904Y-85259104D02*
X121519523Y-85163866D01*
X121519523Y-85163866D02*
X121567142Y-85116247D01*
X121567142Y-85116247D02*
X121662380Y-85068628D01*
X121662380Y-85068628D02*
X121852856Y-85021009D01*
X121852856Y-85021009D02*
X121948094Y-84973390D01*
X121948094Y-84973390D02*
X121995713Y-84925771D01*
X121995713Y-84925771D02*
X122043332Y-84830533D01*
X122043332Y-84830533D02*
X122043332Y-84735295D01*
X122043332Y-84735295D02*
X121995713Y-84640057D01*
X121995713Y-84640057D02*
X121948094Y-84592438D01*
X121948094Y-84592438D02*
X121852856Y-84544819D01*
X121852856Y-84544819D02*
X121614761Y-84544819D01*
X121614761Y-84544819D02*
X121471904Y-84592438D01*
X121138570Y-84544819D02*
X120900475Y-85544819D01*
X120900475Y-85544819D02*
X120709999Y-84830533D01*
X120709999Y-84830533D02*
X120519523Y-85544819D01*
X120519523Y-85544819D02*
X120281428Y-84544819D01*
X119471904Y-84878152D02*
X119471904Y-85544819D01*
X119709999Y-84497200D02*
X119948094Y-85211485D01*
X119948094Y-85211485D02*
X119329047Y-85211485D01*
X122519523Y-123597200D02*
X122376666Y-123644819D01*
X122376666Y-123644819D02*
X122138571Y-123644819D01*
X122138571Y-123644819D02*
X122043333Y-123597200D01*
X122043333Y-123597200D02*
X121995714Y-123549580D01*
X121995714Y-123549580D02*
X121948095Y-123454342D01*
X121948095Y-123454342D02*
X121948095Y-123359104D01*
X121948095Y-123359104D02*
X121995714Y-123263866D01*
X121995714Y-123263866D02*
X122043333Y-123216247D01*
X122043333Y-123216247D02*
X122138571Y-123168628D01*
X122138571Y-123168628D02*
X122329047Y-123121009D01*
X122329047Y-123121009D02*
X122424285Y-123073390D01*
X122424285Y-123073390D02*
X122471904Y-123025771D01*
X122471904Y-123025771D02*
X122519523Y-122930533D01*
X122519523Y-122930533D02*
X122519523Y-122835295D01*
X122519523Y-122835295D02*
X122471904Y-122740057D01*
X122471904Y-122740057D02*
X122424285Y-122692438D01*
X122424285Y-122692438D02*
X122329047Y-122644819D01*
X122329047Y-122644819D02*
X122090952Y-122644819D01*
X122090952Y-122644819D02*
X121948095Y-122692438D01*
X121614761Y-122644819D02*
X121376666Y-123644819D01*
X121376666Y-123644819D02*
X121186190Y-122930533D01*
X121186190Y-122930533D02*
X120995714Y-123644819D01*
X120995714Y-123644819D02*
X120757619Y-122644819D01*
X119852857Y-123644819D02*
X120424285Y-123644819D01*
X120138571Y-123644819D02*
X120138571Y-122644819D01*
X120138571Y-122644819D02*
X120233809Y-122787676D01*
X120233809Y-122787676D02*
X120329047Y-122882914D01*
X120329047Y-122882914D02*
X120424285Y-122930533D01*
X118995714Y-122978152D02*
X118995714Y-123644819D01*
X119233809Y-122597200D02*
X119471904Y-123311485D01*
X119471904Y-123311485D02*
X118852857Y-123311485D01*
X65369523Y-123597200D02*
X65226666Y-123644819D01*
X65226666Y-123644819D02*
X64988571Y-123644819D01*
X64988571Y-123644819D02*
X64893333Y-123597200D01*
X64893333Y-123597200D02*
X64845714Y-123549580D01*
X64845714Y-123549580D02*
X64798095Y-123454342D01*
X64798095Y-123454342D02*
X64798095Y-123359104D01*
X64798095Y-123359104D02*
X64845714Y-123263866D01*
X64845714Y-123263866D02*
X64893333Y-123216247D01*
X64893333Y-123216247D02*
X64988571Y-123168628D01*
X64988571Y-123168628D02*
X65179047Y-123121009D01*
X65179047Y-123121009D02*
X65274285Y-123073390D01*
X65274285Y-123073390D02*
X65321904Y-123025771D01*
X65321904Y-123025771D02*
X65369523Y-122930533D01*
X65369523Y-122930533D02*
X65369523Y-122835295D01*
X65369523Y-122835295D02*
X65321904Y-122740057D01*
X65321904Y-122740057D02*
X65274285Y-122692438D01*
X65274285Y-122692438D02*
X65179047Y-122644819D01*
X65179047Y-122644819D02*
X64940952Y-122644819D01*
X64940952Y-122644819D02*
X64798095Y-122692438D01*
X64464761Y-122644819D02*
X64226666Y-123644819D01*
X64226666Y-123644819D02*
X64036190Y-122930533D01*
X64036190Y-122930533D02*
X63845714Y-123644819D01*
X63845714Y-123644819D02*
X63607619Y-122644819D01*
X62702857Y-123644819D02*
X63274285Y-123644819D01*
X62988571Y-123644819D02*
X62988571Y-122644819D01*
X62988571Y-122644819D02*
X63083809Y-122787676D01*
X63083809Y-122787676D02*
X63179047Y-122882914D01*
X63179047Y-122882914D02*
X63274285Y-122930533D01*
X61750476Y-123644819D02*
X62321904Y-123644819D01*
X62036190Y-123644819D02*
X62036190Y-122644819D01*
X62036190Y-122644819D02*
X62131428Y-122787676D01*
X62131428Y-122787676D02*
X62226666Y-122882914D01*
X62226666Y-122882914D02*
X62321904Y-122930533D01*
X64893332Y-85497200D02*
X64750475Y-85544819D01*
X64750475Y-85544819D02*
X64512380Y-85544819D01*
X64512380Y-85544819D02*
X64417142Y-85497200D01*
X64417142Y-85497200D02*
X64369523Y-85449580D01*
X64369523Y-85449580D02*
X64321904Y-85354342D01*
X64321904Y-85354342D02*
X64321904Y-85259104D01*
X64321904Y-85259104D02*
X64369523Y-85163866D01*
X64369523Y-85163866D02*
X64417142Y-85116247D01*
X64417142Y-85116247D02*
X64512380Y-85068628D01*
X64512380Y-85068628D02*
X64702856Y-85021009D01*
X64702856Y-85021009D02*
X64798094Y-84973390D01*
X64798094Y-84973390D02*
X64845713Y-84925771D01*
X64845713Y-84925771D02*
X64893332Y-84830533D01*
X64893332Y-84830533D02*
X64893332Y-84735295D01*
X64893332Y-84735295D02*
X64845713Y-84640057D01*
X64845713Y-84640057D02*
X64798094Y-84592438D01*
X64798094Y-84592438D02*
X64702856Y-84544819D01*
X64702856Y-84544819D02*
X64464761Y-84544819D01*
X64464761Y-84544819D02*
X64321904Y-84592438D01*
X63988570Y-84544819D02*
X63750475Y-85544819D01*
X63750475Y-85544819D02*
X63559999Y-84830533D01*
X63559999Y-84830533D02*
X63369523Y-85544819D01*
X63369523Y-85544819D02*
X63131428Y-84544819D01*
X62226666Y-85544819D02*
X62798094Y-85544819D01*
X62512380Y-85544819D02*
X62512380Y-84544819D01*
X62512380Y-84544819D02*
X62607618Y-84687676D01*
X62607618Y-84687676D02*
X62702856Y-84782914D01*
X62702856Y-84782914D02*
X62798094Y-84830533D01*
X84419523Y-123597200D02*
X84276666Y-123644819D01*
X84276666Y-123644819D02*
X84038571Y-123644819D01*
X84038571Y-123644819D02*
X83943333Y-123597200D01*
X83943333Y-123597200D02*
X83895714Y-123549580D01*
X83895714Y-123549580D02*
X83848095Y-123454342D01*
X83848095Y-123454342D02*
X83848095Y-123359104D01*
X83848095Y-123359104D02*
X83895714Y-123263866D01*
X83895714Y-123263866D02*
X83943333Y-123216247D01*
X83943333Y-123216247D02*
X84038571Y-123168628D01*
X84038571Y-123168628D02*
X84229047Y-123121009D01*
X84229047Y-123121009D02*
X84324285Y-123073390D01*
X84324285Y-123073390D02*
X84371904Y-123025771D01*
X84371904Y-123025771D02*
X84419523Y-122930533D01*
X84419523Y-122930533D02*
X84419523Y-122835295D01*
X84419523Y-122835295D02*
X84371904Y-122740057D01*
X84371904Y-122740057D02*
X84324285Y-122692438D01*
X84324285Y-122692438D02*
X84229047Y-122644819D01*
X84229047Y-122644819D02*
X83990952Y-122644819D01*
X83990952Y-122644819D02*
X83848095Y-122692438D01*
X83514761Y-122644819D02*
X83276666Y-123644819D01*
X83276666Y-123644819D02*
X83086190Y-122930533D01*
X83086190Y-122930533D02*
X82895714Y-123644819D01*
X82895714Y-123644819D02*
X82657619Y-122644819D01*
X81752857Y-123644819D02*
X82324285Y-123644819D01*
X82038571Y-123644819D02*
X82038571Y-122644819D01*
X82038571Y-122644819D02*
X82133809Y-122787676D01*
X82133809Y-122787676D02*
X82229047Y-122882914D01*
X82229047Y-122882914D02*
X82324285Y-122930533D01*
X81371904Y-122740057D02*
X81324285Y-122692438D01*
X81324285Y-122692438D02*
X81229047Y-122644819D01*
X81229047Y-122644819D02*
X80990952Y-122644819D01*
X80990952Y-122644819D02*
X80895714Y-122692438D01*
X80895714Y-122692438D02*
X80848095Y-122740057D01*
X80848095Y-122740057D02*
X80800476Y-122835295D01*
X80800476Y-122835295D02*
X80800476Y-122930533D01*
X80800476Y-122930533D02*
X80848095Y-123073390D01*
X80848095Y-123073390D02*
X81419523Y-123644819D01*
X81419523Y-123644819D02*
X80800476Y-123644819D01*
X103469523Y-123597200D02*
X103326666Y-123644819D01*
X103326666Y-123644819D02*
X103088571Y-123644819D01*
X103088571Y-123644819D02*
X102993333Y-123597200D01*
X102993333Y-123597200D02*
X102945714Y-123549580D01*
X102945714Y-123549580D02*
X102898095Y-123454342D01*
X102898095Y-123454342D02*
X102898095Y-123359104D01*
X102898095Y-123359104D02*
X102945714Y-123263866D01*
X102945714Y-123263866D02*
X102993333Y-123216247D01*
X102993333Y-123216247D02*
X103088571Y-123168628D01*
X103088571Y-123168628D02*
X103279047Y-123121009D01*
X103279047Y-123121009D02*
X103374285Y-123073390D01*
X103374285Y-123073390D02*
X103421904Y-123025771D01*
X103421904Y-123025771D02*
X103469523Y-122930533D01*
X103469523Y-122930533D02*
X103469523Y-122835295D01*
X103469523Y-122835295D02*
X103421904Y-122740057D01*
X103421904Y-122740057D02*
X103374285Y-122692438D01*
X103374285Y-122692438D02*
X103279047Y-122644819D01*
X103279047Y-122644819D02*
X103040952Y-122644819D01*
X103040952Y-122644819D02*
X102898095Y-122692438D01*
X102564761Y-122644819D02*
X102326666Y-123644819D01*
X102326666Y-123644819D02*
X102136190Y-122930533D01*
X102136190Y-122930533D02*
X101945714Y-123644819D01*
X101945714Y-123644819D02*
X101707619Y-122644819D01*
X100802857Y-123644819D02*
X101374285Y-123644819D01*
X101088571Y-123644819D02*
X101088571Y-122644819D01*
X101088571Y-122644819D02*
X101183809Y-122787676D01*
X101183809Y-122787676D02*
X101279047Y-122882914D01*
X101279047Y-122882914D02*
X101374285Y-122930533D01*
X100469523Y-122644819D02*
X99850476Y-122644819D01*
X99850476Y-122644819D02*
X100183809Y-123025771D01*
X100183809Y-123025771D02*
X100040952Y-123025771D01*
X100040952Y-123025771D02*
X99945714Y-123073390D01*
X99945714Y-123073390D02*
X99898095Y-123121009D01*
X99898095Y-123121009D02*
X99850476Y-123216247D01*
X99850476Y-123216247D02*
X99850476Y-123454342D01*
X99850476Y-123454342D02*
X99898095Y-123549580D01*
X99898095Y-123549580D02*
X99945714Y-123597200D01*
X99945714Y-123597200D02*
X100040952Y-123644819D01*
X100040952Y-123644819D02*
X100326666Y-123644819D01*
X100326666Y-123644819D02*
X100421904Y-123597200D01*
X100421904Y-123597200D02*
X100469523Y-123549580D01*
X65369523Y-142647200D02*
X65226666Y-142694819D01*
X65226666Y-142694819D02*
X64988571Y-142694819D01*
X64988571Y-142694819D02*
X64893333Y-142647200D01*
X64893333Y-142647200D02*
X64845714Y-142599580D01*
X64845714Y-142599580D02*
X64798095Y-142504342D01*
X64798095Y-142504342D02*
X64798095Y-142409104D01*
X64798095Y-142409104D02*
X64845714Y-142313866D01*
X64845714Y-142313866D02*
X64893333Y-142266247D01*
X64893333Y-142266247D02*
X64988571Y-142218628D01*
X64988571Y-142218628D02*
X65179047Y-142171009D01*
X65179047Y-142171009D02*
X65274285Y-142123390D01*
X65274285Y-142123390D02*
X65321904Y-142075771D01*
X65321904Y-142075771D02*
X65369523Y-141980533D01*
X65369523Y-141980533D02*
X65369523Y-141885295D01*
X65369523Y-141885295D02*
X65321904Y-141790057D01*
X65321904Y-141790057D02*
X65274285Y-141742438D01*
X65274285Y-141742438D02*
X65179047Y-141694819D01*
X65179047Y-141694819D02*
X64940952Y-141694819D01*
X64940952Y-141694819D02*
X64798095Y-141742438D01*
X64464761Y-141694819D02*
X64226666Y-142694819D01*
X64226666Y-142694819D02*
X64036190Y-141980533D01*
X64036190Y-141980533D02*
X63845714Y-142694819D01*
X63845714Y-142694819D02*
X63607619Y-141694819D01*
X62702857Y-142694819D02*
X63274285Y-142694819D01*
X62988571Y-142694819D02*
X62988571Y-141694819D01*
X62988571Y-141694819D02*
X63083809Y-141837676D01*
X63083809Y-141837676D02*
X63179047Y-141932914D01*
X63179047Y-141932914D02*
X63274285Y-141980533D01*
X61845714Y-141694819D02*
X62036190Y-141694819D01*
X62036190Y-141694819D02*
X62131428Y-141742438D01*
X62131428Y-141742438D02*
X62179047Y-141790057D01*
X62179047Y-141790057D02*
X62274285Y-141932914D01*
X62274285Y-141932914D02*
X62321904Y-142123390D01*
X62321904Y-142123390D02*
X62321904Y-142504342D01*
X62321904Y-142504342D02*
X62274285Y-142599580D01*
X62274285Y-142599580D02*
X62226666Y-142647200D01*
X62226666Y-142647200D02*
X62131428Y-142694819D01*
X62131428Y-142694819D02*
X61940952Y-142694819D01*
X61940952Y-142694819D02*
X61845714Y-142647200D01*
X61845714Y-142647200D02*
X61798095Y-142599580D01*
X61798095Y-142599580D02*
X61750476Y-142504342D01*
X61750476Y-142504342D02*
X61750476Y-142266247D01*
X61750476Y-142266247D02*
X61798095Y-142171009D01*
X61798095Y-142171009D02*
X61845714Y-142123390D01*
X61845714Y-142123390D02*
X61940952Y-142075771D01*
X61940952Y-142075771D02*
X62131428Y-142075771D01*
X62131428Y-142075771D02*
X62226666Y-142123390D01*
X62226666Y-142123390D02*
X62274285Y-142171009D01*
X62274285Y-142171009D02*
X62321904Y-142266247D01*
X141569523Y-123597200D02*
X141426666Y-123644819D01*
X141426666Y-123644819D02*
X141188571Y-123644819D01*
X141188571Y-123644819D02*
X141093333Y-123597200D01*
X141093333Y-123597200D02*
X141045714Y-123549580D01*
X141045714Y-123549580D02*
X140998095Y-123454342D01*
X140998095Y-123454342D02*
X140998095Y-123359104D01*
X140998095Y-123359104D02*
X141045714Y-123263866D01*
X141045714Y-123263866D02*
X141093333Y-123216247D01*
X141093333Y-123216247D02*
X141188571Y-123168628D01*
X141188571Y-123168628D02*
X141379047Y-123121009D01*
X141379047Y-123121009D02*
X141474285Y-123073390D01*
X141474285Y-123073390D02*
X141521904Y-123025771D01*
X141521904Y-123025771D02*
X141569523Y-122930533D01*
X141569523Y-122930533D02*
X141569523Y-122835295D01*
X141569523Y-122835295D02*
X141521904Y-122740057D01*
X141521904Y-122740057D02*
X141474285Y-122692438D01*
X141474285Y-122692438D02*
X141379047Y-122644819D01*
X141379047Y-122644819D02*
X141140952Y-122644819D01*
X141140952Y-122644819D02*
X140998095Y-122692438D01*
X140664761Y-122644819D02*
X140426666Y-123644819D01*
X140426666Y-123644819D02*
X140236190Y-122930533D01*
X140236190Y-122930533D02*
X140045714Y-123644819D01*
X140045714Y-123644819D02*
X139807619Y-122644819D01*
X138902857Y-123644819D02*
X139474285Y-123644819D01*
X139188571Y-123644819D02*
X139188571Y-122644819D01*
X139188571Y-122644819D02*
X139283809Y-122787676D01*
X139283809Y-122787676D02*
X139379047Y-122882914D01*
X139379047Y-122882914D02*
X139474285Y-122930533D01*
X137998095Y-122644819D02*
X138474285Y-122644819D01*
X138474285Y-122644819D02*
X138521904Y-123121009D01*
X138521904Y-123121009D02*
X138474285Y-123073390D01*
X138474285Y-123073390D02*
X138379047Y-123025771D01*
X138379047Y-123025771D02*
X138140952Y-123025771D01*
X138140952Y-123025771D02*
X138045714Y-123073390D01*
X138045714Y-123073390D02*
X137998095Y-123121009D01*
X137998095Y-123121009D02*
X137950476Y-123216247D01*
X137950476Y-123216247D02*
X137950476Y-123454342D01*
X137950476Y-123454342D02*
X137998095Y-123549580D01*
X137998095Y-123549580D02*
X138045714Y-123597200D01*
X138045714Y-123597200D02*
X138140952Y-123644819D01*
X138140952Y-123644819D02*
X138379047Y-123644819D01*
X138379047Y-123644819D02*
X138474285Y-123597200D01*
X138474285Y-123597200D02*
X138521904Y-123549580D01*
X141569523Y-104547200D02*
X141426666Y-104594819D01*
X141426666Y-104594819D02*
X141188571Y-104594819D01*
X141188571Y-104594819D02*
X141093333Y-104547200D01*
X141093333Y-104547200D02*
X141045714Y-104499580D01*
X141045714Y-104499580D02*
X140998095Y-104404342D01*
X140998095Y-104404342D02*
X140998095Y-104309104D01*
X140998095Y-104309104D02*
X141045714Y-104213866D01*
X141045714Y-104213866D02*
X141093333Y-104166247D01*
X141093333Y-104166247D02*
X141188571Y-104118628D01*
X141188571Y-104118628D02*
X141379047Y-104071009D01*
X141379047Y-104071009D02*
X141474285Y-104023390D01*
X141474285Y-104023390D02*
X141521904Y-103975771D01*
X141521904Y-103975771D02*
X141569523Y-103880533D01*
X141569523Y-103880533D02*
X141569523Y-103785295D01*
X141569523Y-103785295D02*
X141521904Y-103690057D01*
X141521904Y-103690057D02*
X141474285Y-103642438D01*
X141474285Y-103642438D02*
X141379047Y-103594819D01*
X141379047Y-103594819D02*
X141140952Y-103594819D01*
X141140952Y-103594819D02*
X140998095Y-103642438D01*
X140664761Y-103594819D02*
X140426666Y-104594819D01*
X140426666Y-104594819D02*
X140236190Y-103880533D01*
X140236190Y-103880533D02*
X140045714Y-104594819D01*
X140045714Y-104594819D02*
X139807619Y-103594819D01*
X138902857Y-104594819D02*
X139474285Y-104594819D01*
X139188571Y-104594819D02*
X139188571Y-103594819D01*
X139188571Y-103594819D02*
X139283809Y-103737676D01*
X139283809Y-103737676D02*
X139379047Y-103832914D01*
X139379047Y-103832914D02*
X139474285Y-103880533D01*
X138283809Y-103594819D02*
X138188571Y-103594819D01*
X138188571Y-103594819D02*
X138093333Y-103642438D01*
X138093333Y-103642438D02*
X138045714Y-103690057D01*
X138045714Y-103690057D02*
X137998095Y-103785295D01*
X137998095Y-103785295D02*
X137950476Y-103975771D01*
X137950476Y-103975771D02*
X137950476Y-104213866D01*
X137950476Y-104213866D02*
X137998095Y-104404342D01*
X137998095Y-104404342D02*
X138045714Y-104499580D01*
X138045714Y-104499580D02*
X138093333Y-104547200D01*
X138093333Y-104547200D02*
X138188571Y-104594819D01*
X138188571Y-104594819D02*
X138283809Y-104594819D01*
X138283809Y-104594819D02*
X138379047Y-104547200D01*
X138379047Y-104547200D02*
X138426666Y-104499580D01*
X138426666Y-104499580D02*
X138474285Y-104404342D01*
X138474285Y-104404342D02*
X138521904Y-104213866D01*
X138521904Y-104213866D02*
X138521904Y-103975771D01*
X138521904Y-103975771D02*
X138474285Y-103785295D01*
X138474285Y-103785295D02*
X138426666Y-103690057D01*
X138426666Y-103690057D02*
X138379047Y-103642438D01*
X138379047Y-103642438D02*
X138283809Y-103594819D01*
X122519523Y-142647200D02*
X122376666Y-142694819D01*
X122376666Y-142694819D02*
X122138571Y-142694819D01*
X122138571Y-142694819D02*
X122043333Y-142647200D01*
X122043333Y-142647200D02*
X121995714Y-142599580D01*
X121995714Y-142599580D02*
X121948095Y-142504342D01*
X121948095Y-142504342D02*
X121948095Y-142409104D01*
X121948095Y-142409104D02*
X121995714Y-142313866D01*
X121995714Y-142313866D02*
X122043333Y-142266247D01*
X122043333Y-142266247D02*
X122138571Y-142218628D01*
X122138571Y-142218628D02*
X122329047Y-142171009D01*
X122329047Y-142171009D02*
X122424285Y-142123390D01*
X122424285Y-142123390D02*
X122471904Y-142075771D01*
X122471904Y-142075771D02*
X122519523Y-141980533D01*
X122519523Y-141980533D02*
X122519523Y-141885295D01*
X122519523Y-141885295D02*
X122471904Y-141790057D01*
X122471904Y-141790057D02*
X122424285Y-141742438D01*
X122424285Y-141742438D02*
X122329047Y-141694819D01*
X122329047Y-141694819D02*
X122090952Y-141694819D01*
X122090952Y-141694819D02*
X121948095Y-141742438D01*
X121614761Y-141694819D02*
X121376666Y-142694819D01*
X121376666Y-142694819D02*
X121186190Y-141980533D01*
X121186190Y-141980533D02*
X120995714Y-142694819D01*
X120995714Y-142694819D02*
X120757619Y-141694819D01*
X119852857Y-142694819D02*
X120424285Y-142694819D01*
X120138571Y-142694819D02*
X120138571Y-141694819D01*
X120138571Y-141694819D02*
X120233809Y-141837676D01*
X120233809Y-141837676D02*
X120329047Y-141932914D01*
X120329047Y-141932914D02*
X120424285Y-141980533D01*
X119376666Y-142694819D02*
X119186190Y-142694819D01*
X119186190Y-142694819D02*
X119090952Y-142647200D01*
X119090952Y-142647200D02*
X119043333Y-142599580D01*
X119043333Y-142599580D02*
X118948095Y-142456723D01*
X118948095Y-142456723D02*
X118900476Y-142266247D01*
X118900476Y-142266247D02*
X118900476Y-141885295D01*
X118900476Y-141885295D02*
X118948095Y-141790057D01*
X118948095Y-141790057D02*
X118995714Y-141742438D01*
X118995714Y-141742438D02*
X119090952Y-141694819D01*
X119090952Y-141694819D02*
X119281428Y-141694819D01*
X119281428Y-141694819D02*
X119376666Y-141742438D01*
X119376666Y-141742438D02*
X119424285Y-141790057D01*
X119424285Y-141790057D02*
X119471904Y-141885295D01*
X119471904Y-141885295D02*
X119471904Y-142123390D01*
X119471904Y-142123390D02*
X119424285Y-142218628D01*
X119424285Y-142218628D02*
X119376666Y-142266247D01*
X119376666Y-142266247D02*
X119281428Y-142313866D01*
X119281428Y-142313866D02*
X119090952Y-142313866D01*
X119090952Y-142313866D02*
X118995714Y-142266247D01*
X118995714Y-142266247D02*
X118948095Y-142218628D01*
X118948095Y-142218628D02*
X118900476Y-142123390D01*
%TO.C,J1*%
D11*
X75555000Y-58440000D02*
X74285000Y-58440000D01*
X75555000Y-59710000D02*
X75555000Y-58440000D01*
X73207642Y-61820000D02*
X72895000Y-61820000D01*
X73207642Y-62680000D02*
X72895000Y-62680000D01*
X73207642Y-64360000D02*
X72895000Y-64360000D01*
X73207642Y-65220000D02*
X72895000Y-65220000D01*
X73207642Y-66900000D02*
X72895000Y-66900000D01*
X73207642Y-67760000D02*
X72895000Y-67760000D01*
X73125000Y-59280000D02*
X72895000Y-59280000D01*
X73125000Y-60140000D02*
X72895000Y-60140000D01*
X72895000Y-60980000D02*
X70135000Y-60980000D01*
X72895000Y-63520000D02*
X70135000Y-63520000D01*
X72895000Y-66060000D02*
X70135000Y-66060000D01*
X70135000Y-61820000D02*
X64135000Y-61820000D01*
X70135000Y-64360000D02*
X64135000Y-64360000D01*
X70135000Y-66900000D02*
X64135000Y-66900000D01*
X64135000Y-61820000D02*
X64135000Y-62680000D01*
X64135000Y-62680000D02*
X70135000Y-62680000D01*
X64135000Y-64360000D02*
X64135000Y-65220000D01*
X64135000Y-65220000D02*
X70135000Y-65220000D01*
X64135000Y-66900000D02*
X64135000Y-67760000D01*
X64135000Y-67760000D02*
X70135000Y-67760000D01*
X70135000Y-58330000D02*
X72895000Y-58330000D01*
X72895000Y-68710000D01*
X70135000Y-68710000D01*
X70135000Y-58330000D01*
X64135000Y-59280000D02*
X70135000Y-59280000D01*
X70135000Y-60140000D01*
X64135000Y-60140000D01*
X64135000Y-59280000D01*
G36*
X64135000Y-59280000D02*
G01*
X70135000Y-59280000D01*
X70135000Y-60140000D01*
X64135000Y-60140000D01*
X64135000Y-59280000D01*
G37*
%TO.C,SW20*%
X132660000Y-143140000D02*
X146860000Y-143140000D01*
X132660000Y-157340000D02*
X132660000Y-143140000D01*
X146860000Y-143140000D02*
X146860000Y-157340000D01*
X146860000Y-157340000D02*
X132660000Y-157340000D01*
%TO.C,SW17*%
X75510000Y-143140000D02*
X89710000Y-143140000D01*
X75510000Y-157340000D02*
X75510000Y-143140000D01*
X89710000Y-143140000D02*
X89710000Y-157340000D01*
X89710000Y-157340000D02*
X75510000Y-157340000D01*
%TO.C,SW8*%
X94560000Y-105040000D02*
X108760000Y-105040000D01*
X94560000Y-119240000D02*
X94560000Y-105040000D01*
X108760000Y-105040000D02*
X108760000Y-119240000D01*
X108760000Y-119240000D02*
X94560000Y-119240000D01*
%TO.C,SW3*%
X94560000Y-85990000D02*
X108760000Y-85990000D01*
X94560000Y-100190000D02*
X94560000Y-85990000D01*
X108760000Y-85990000D02*
X108760000Y-100190000D01*
X108760000Y-100190000D02*
X94560000Y-100190000D01*
%TO.C,SW18*%
X94560000Y-143140000D02*
X108760000Y-143140000D01*
X94560000Y-157340000D02*
X94560000Y-143140000D01*
X108760000Y-143140000D02*
X108760000Y-157340000D01*
X108760000Y-157340000D02*
X94560000Y-157340000D01*
%TO.C,SW7*%
X75510000Y-105040000D02*
X89710000Y-105040000D01*
X75510000Y-119240000D02*
X75510000Y-105040000D01*
X89710000Y-105040000D02*
X89710000Y-119240000D01*
X89710000Y-119240000D02*
X75510000Y-119240000D01*
%TO.C,SW6*%
X56460000Y-105040000D02*
X70660000Y-105040000D01*
X56460000Y-119240000D02*
X56460000Y-105040000D01*
X70660000Y-105040000D02*
X70660000Y-119240000D01*
X70660000Y-119240000D02*
X56460000Y-119240000D01*
%TO.C,SW9*%
X113610000Y-105040000D02*
X127810000Y-105040000D01*
X113610000Y-119240000D02*
X113610000Y-105040000D01*
X127810000Y-105040000D02*
X127810000Y-119240000D01*
X127810000Y-119240000D02*
X113610000Y-119240000D01*
%TO.C,SW2*%
X75510000Y-85990000D02*
X89710000Y-85990000D01*
X75510000Y-100190000D02*
X75510000Y-85990000D01*
X89710000Y-85990000D02*
X89710000Y-100190000D01*
X89710000Y-100190000D02*
X75510000Y-100190000D01*
%TO.C,SW5*%
X132660000Y-85990000D02*
X146860000Y-85990000D01*
X132660000Y-100190000D02*
X132660000Y-85990000D01*
X146860000Y-85990000D02*
X146860000Y-100190000D01*
X146860000Y-100190000D02*
X132660000Y-100190000D01*
%TO.C,SW4*%
X113610000Y-85990000D02*
X127810000Y-85990000D01*
X113610000Y-100190000D02*
X113610000Y-85990000D01*
X127810000Y-85990000D02*
X127810000Y-100190000D01*
X127810000Y-100190000D02*
X113610000Y-100190000D01*
%TO.C,SW14*%
X113610000Y-124090000D02*
X127810000Y-124090000D01*
X113610000Y-138290000D02*
X113610000Y-124090000D01*
X127810000Y-124090000D02*
X127810000Y-138290000D01*
X127810000Y-138290000D02*
X113610000Y-138290000D01*
%TO.C,SW11*%
X56460000Y-124090000D02*
X70660000Y-124090000D01*
X56460000Y-138290000D02*
X56460000Y-124090000D01*
X70660000Y-124090000D02*
X70660000Y-138290000D01*
X70660000Y-138290000D02*
X56460000Y-138290000D01*
%TO.C,SW1*%
X56460000Y-85990000D02*
X70660000Y-85990000D01*
X56460000Y-100190000D02*
X56460000Y-85990000D01*
X70660000Y-85990000D02*
X70660000Y-100190000D01*
X70660000Y-100190000D02*
X56460000Y-100190000D01*
%TO.C,SW12*%
X75510000Y-124090000D02*
X89710000Y-124090000D01*
X75510000Y-138290000D02*
X75510000Y-124090000D01*
X89710000Y-124090000D02*
X89710000Y-138290000D01*
X89710000Y-138290000D02*
X75510000Y-138290000D01*
%TO.C,SW13*%
X94560000Y-124090000D02*
X108760000Y-124090000D01*
X94560000Y-138290000D02*
X94560000Y-124090000D01*
X108760000Y-124090000D02*
X108760000Y-138290000D01*
X108760000Y-138290000D02*
X94560000Y-138290000D01*
%TO.C,SW16*%
X56460000Y-143140000D02*
X70660000Y-143140000D01*
X56460000Y-157340000D02*
X56460000Y-143140000D01*
X70660000Y-143140000D02*
X70660000Y-157340000D01*
X70660000Y-157340000D02*
X56460000Y-157340000D01*
%TO.C,SW15*%
X132660000Y-124090000D02*
X146860000Y-124090000D01*
X132660000Y-138290000D02*
X132660000Y-124090000D01*
X146860000Y-124090000D02*
X146860000Y-138290000D01*
X146860000Y-138290000D02*
X132660000Y-138290000D01*
%TO.C,SW10*%
X132660000Y-105040000D02*
X146860000Y-105040000D01*
X132660000Y-119240000D02*
X132660000Y-105040000D01*
X146860000Y-105040000D02*
X146860000Y-119240000D01*
X146860000Y-119240000D02*
X132660000Y-119240000D01*
%TO.C,SW19*%
X113610000Y-143140000D02*
X127810000Y-143140000D01*
X113610000Y-157340000D02*
X113610000Y-143140000D01*
X127810000Y-143140000D02*
X127810000Y-157340000D01*
X127810000Y-157340000D02*
X113610000Y-157340000D01*
%TD*%
M02*
