ISO-10303-21;
HEADER;
FILE_DESCRIPTION((''),'2;1');
FILE_NAME('CASE_BOTTOM','2026-08-29T18:58:37',('Julian'),(''),
'CREO PARAMETRIC BY PTC INC, 2025102','CREO PARAMETRIC BY PTC INC, 2025102','');
FILE_SCHEMA(('CONFIG_CONTROL_DESIGN'));
ENDSEC;
DATA;
#1=CARTESIAN_POINT('',(5.135E1,0.E0,5.535E1));
#2=DIRECTION('',(0.E0,-1.E0,0.E0));
#3=DIRECTION('',(1.E0,0.E0,0.E0));
#4=AXIS2_PLACEMENT_3D('',#1,#2,#3);
#6=DIRECTION('',(0.E0,0.E0,-1.E0));
#7=VECTOR('',#6,1.107E2);
#8=CARTESIAN_POINT('',(5.335E1,0.E0,5.535E1));
#9=LINE('',#8,#7);
#10=CARTESIAN_POINT('',(5.135E1,0.E0,-5.535E1));
#11=DIRECTION('',(0.E0,-1.E0,0.E0));
#12=DIRECTION('',(0.E0,0.E0,-1.E0));
#13=AXIS2_PLACEMENT_3D('',#10,#11,#12);
#15=DIRECTION('',(-1.E0,0.E0,0.E0));
#16=VECTOR('',#15,1.027E2);
#17=CARTESIAN_POINT('',(5.135E1,0.E0,-5.735E1));
#18=LINE('',#17,#16);
#19=CARTESIAN_POINT('',(-5.135E1,0.E0,-5.535E1));
#20=DIRECTION('',(0.E0,-1.E0,0.E0));
#21=DIRECTION('',(-1.E0,0.E0,0.E0));
#22=AXIS2_PLACEMENT_3D('',#19,#20,#21);
#24=DIRECTION('',(0.E0,0.E0,1.E0));
#25=VECTOR('',#24,1.107E2);
#26=CARTESIAN_POINT('',(-5.335E1,0.E0,-5.535E1));
#27=LINE('',#26,#25);
#28=CARTESIAN_POINT('',(-5.135E1,0.E0,5.535E1));
#29=DIRECTION('',(0.E0,-1.E0,0.E0));
#30=DIRECTION('',(0.E0,0.E0,1.E0));
#31=AXIS2_PLACEMENT_3D('',#28,#29,#30);
#33=DIRECTION('',(1.E0,0.E0,0.E0));
#34=VECTOR('',#33,1.027E2);
#35=CARTESIAN_POINT('',(-5.135E1,0.E0,5.735E1));
#36=LINE('',#35,#34);
#37=DIRECTION('',(0.E0,-1.E0,0.E0));
#38=VECTOR('',#37,1.25E1);
#39=CARTESIAN_POINT('',(5.135E1,1.25E1,5.735E1));
#40=LINE('',#39,#38);
#41=DIRECTION('',(0.E0,-1.E0,0.E0));
#42=VECTOR('',#41,1.25E1);
#43=CARTESIAN_POINT('',(-5.135E1,1.25E1,5.735E1));
#44=LINE('',#43,#42);
#45=DIRECTION('',(0.E0,-1.E0,0.E0));
#46=VECTOR('',#45,1.25E1);
#47=CARTESIAN_POINT('',(-5.335E1,1.25E1,-5.535E1));
#48=LINE('',#47,#46);
#49=DIRECTION('',(0.E0,-1.E0,0.E0));
#50=VECTOR('',#49,1.25E1);
#51=CARTESIAN_POINT('',(-5.335E1,1.25E1,5.535E1));
#52=LINE('',#51,#50);
#53=DIRECTION('',(0.E0,-1.E0,0.E0));
#54=VECTOR('',#53,1.05E1);
#55=CARTESIAN_POINT('',(1.7E1,1.25E1,-5.735E1));
#56=LINE('',#55,#54);
#57=DIRECTION('',(1.E0,0.E0,0.E0));
#58=VECTOR('',#57,9.4E0);
#59=CARTESIAN_POINT('',(7.6E0,2.E0,-5.735E1));
#60=LINE('',#59,#58);
#61=DIRECTION('',(0.E0,-1.E0,0.E0));
#62=VECTOR('',#61,1.05E1);
#63=CARTESIAN_POINT('',(7.6E0,1.25E1,-5.735E1));
#64=LINE('',#63,#62);
#65=DIRECTION('',(0.E0,-1.E0,0.E0));
#66=VECTOR('',#65,1.25E1);
#67=CARTESIAN_POINT('',(-5.135E1,1.25E1,-5.735E1));
#68=LINE('',#67,#66);
#69=DIRECTION('',(0.E0,-1.E0,0.E0));
#70=VECTOR('',#69,1.25E1);
#71=CARTESIAN_POINT('',(5.135E1,1.25E1,-5.735E1));
#72=LINE('',#71,#70);
#73=DIRECTION('',(0.E0,0.E0,1.E0));
#74=VECTOR('',#73,2.E0);
#75=CARTESIAN_POINT('',(1.7E1,1.25E1,-5.735E1));
#76=LINE('',#75,#74);
#77=DIRECTION('',(-1.E0,0.E0,0.E0));
#78=VECTOR('',#77,3.435E1);
#79=CARTESIAN_POINT('',(5.135E1,1.25E1,-5.735E1));
#80=LINE('',#79,#78);
#81=CARTESIAN_POINT('',(5.135E1,1.25E1,-5.535E1));
#82=DIRECTION('',(0.E0,1.E0,0.E0));
#83=DIRECTION('',(1.E0,0.E0,0.E0));
#84=AXIS2_PLACEMENT_3D('',#81,#82,#83);
#86=DIRECTION('',(0.E0,0.E0,-1.E0));
#87=VECTOR('',#86,1.107E2);
#88=CARTESIAN_POINT('',(5.335E1,1.25E1,5.535E1));
#89=LINE('',#88,#87);
#90=CARTESIAN_POINT('',(5.135E1,1.25E1,5.535E1));
#91=DIRECTION('',(0.E0,1.E0,0.E0));
#92=DIRECTION('',(0.E0,0.E0,1.E0));
#93=AXIS2_PLACEMENT_3D('',#90,#91,#92);
#95=DIRECTION('',(1.E0,0.E0,0.E0));
#96=VECTOR('',#95,1.027E2);
#97=CARTESIAN_POINT('',(-5.135E1,1.25E1,5.735E1));
#98=LINE('',#97,#96);
#99=CARTESIAN_POINT('',(-5.135E1,1.25E1,5.535E1));
#100=DIRECTION('',(0.E0,1.E0,0.E0));
#101=DIRECTION('',(-1.E0,0.E0,0.E0));
#102=AXIS2_PLACEMENT_3D('',#99,#100,#101);
#104=DIRECTION('',(0.E0,0.E0,1.E0));
#105=VECTOR('',#104,1.107E2);
#106=CARTESIAN_POINT('',(-5.335E1,1.25E1,-5.535E1));
#107=LINE('',#106,#105);
#108=CARTESIAN_POINT('',(-5.135E1,1.25E1,-5.535E1));
#109=DIRECTION('',(0.E0,1.E0,0.E0));
#110=DIRECTION('',(0.E0,0.E0,-1.E0));
#111=AXIS2_PLACEMENT_3D('',#108,#109,#110);
#113=DIRECTION('',(-1.E0,0.E0,0.E0));
#114=VECTOR('',#113,5.895E1);
#115=CARTESIAN_POINT('',(7.6E0,1.25E1,-5.735E1));
#116=LINE('',#115,#114);
#117=DIRECTION('',(0.E0,0.E0,1.E0));
#118=VECTOR('',#117,2.E0);
#119=CARTESIAN_POINT('',(7.6E0,1.25E1,-5.735E1));
#120=LINE('',#119,#118);
#121=DIRECTION('',(-1.E0,0.E0,0.E0));
#122=VECTOR('',#121,5.895E1);
#123=CARTESIAN_POINT('',(7.6E0,1.25E1,-5.535E1));
#124=LINE('',#123,#122);
#125=DIRECTION('',(0.E0,0.E0,1.E0));
#126=VECTOR('',#125,1.107E2);
#127=CARTESIAN_POINT('',(-5.135E1,1.25E1,-5.535E1));
#128=LINE('',#127,#126);
#129=DIRECTION('',(1.E0,0.E0,0.E0));
#130=VECTOR('',#129,1.027E2);
#131=CARTESIAN_POINT('',(-5.135E1,1.25E1,5.535E1));
#132=LINE('',#131,#130);
#133=DIRECTION('',(0.E0,0.E0,-1.E0));
#134=VECTOR('',#133,1.107E2);
#135=CARTESIAN_POINT('',(5.135E1,1.25E1,5.535E1));
#136=LINE('',#135,#134);
#137=DIRECTION('',(-1.E0,0.E0,0.E0));
#138=VECTOR('',#137,3.435E1);
#139=CARTESIAN_POINT('',(5.135E1,1.25E1,-5.535E1));
#140=LINE('',#139,#138);
#141=DIRECTION('',(0.E0,-1.E0,0.E0));
#142=VECTOR('',#141,1.25E1);
#143=CARTESIAN_POINT('',(5.335E1,1.25E1,5.535E1));
#144=LINE('',#143,#142);
#145=DIRECTION('',(0.E0,-1.E0,0.E0));
#146=VECTOR('',#145,1.25E1);
#147=CARTESIAN_POINT('',(5.335E1,1.25E1,-5.535E1));
#148=LINE('',#147,#146);
#149=DIRECTION('',(-1.E0,0.E0,0.E0));
#150=VECTOR('',#149,5.095E1);
#151=CARTESIAN_POINT('',(7.6E0,2.E0,-5.535E1));
#152=LINE('',#151,#150);
#153=DIRECTION('',(0.E0,0.E0,1.E0));
#154=VECTOR('',#153,2.E0);
#155=CARTESIAN_POINT('',(7.6E0,2.E0,-5.735E1));
#156=LINE('',#155,#154);
#157=DIRECTION('',(0.E0,0.E0,-1.E0));
#158=VECTOR('',#157,2.E0);
#159=CARTESIAN_POINT('',(1.7E1,2.E0,-5.535E1));
#160=LINE('',#159,#158);
#161=DIRECTION('',(-1.E0,0.E0,0.E0));
#162=VECTOR('',#161,2.635E1);
#163=CARTESIAN_POINT('',(4.335E1,2.E0,-5.535E1));
#164=LINE('',#163,#162);
#165=DIRECTION('',(0.E0,0.E0,1.E0));
#166=VECTOR('',#165,3.E0);
#167=CARTESIAN_POINT('',(4.335E1,2.E0,-5.535E1));
#168=LINE('',#167,#166);
#169=DIRECTION('',(1.E0,0.E0,0.E0));
#170=VECTOR('',#169,5.E0);
#171=CARTESIAN_POINT('',(4.335E1,2.E0,-5.235E1));
#172=LINE('',#171,#170);
#173=DIRECTION('',(0.E0,0.E0,1.E0));
#174=VECTOR('',#173,5.E0);
#175=CARTESIAN_POINT('',(4.835E1,2.E0,-5.235E1));
#176=LINE('',#175,#174);
#177=DIRECTION('',(-1.E0,0.E0,0.E0));
#178=VECTOR('',#177,3.E0);
#179=CARTESIAN_POINT('',(5.135E1,2.E0,-4.735E1));
#180=LINE('',#179,#178);
#181=DIRECTION('',(0.E0,0.E0,-1.E0));
#182=VECTOR('',#181,9.47E1);
#183=CARTESIAN_POINT('',(5.135E1,2.E0,4.735E1));
#184=LINE('',#183,#182);
#185=DIRECTION('',(-1.E0,0.E0,0.E0));
#186=VECTOR('',#185,3.E0);
#187=CARTESIAN_POINT('',(5.135E1,2.E0,4.735E1));
#188=LINE('',#187,#186);
#189=DIRECTION('',(0.E0,0.E0,1.E0));
#190=VECTOR('',#189,5.E0);
#191=CARTESIAN_POINT('',(4.835E1,2.E0,4.735E1));
#192=LINE('',#191,#190);
#193=DIRECTION('',(-1.E0,0.E0,0.E0));
#194=VECTOR('',#193,5.E0);
#195=CARTESIAN_POINT('',(4.835E1,2.E0,5.235E1));
#196=LINE('',#195,#194);
#197=DIRECTION('',(0.E0,0.E0,-1.E0));
#198=VECTOR('',#197,3.E0);
#199=CARTESIAN_POINT('',(4.335E1,2.E0,5.535E1));
#200=LINE('',#199,#198);
#201=DIRECTION('',(1.E0,0.E0,0.E0));
#202=VECTOR('',#201,8.67E1);
#203=CARTESIAN_POINT('',(-4.335E1,2.E0,5.535E1));
#204=LINE('',#203,#202);
#205=DIRECTION('',(0.E0,0.E0,-1.E0));
#206=VECTOR('',#205,3.E0);
#207=CARTESIAN_POINT('',(-4.335E1,2.E0,5.535E1));
#208=LINE('',#207,#206);
#209=DIRECTION('',(-1.E0,0.E0,0.E0));
#210=VECTOR('',#209,5.E0);
#211=CARTESIAN_POINT('',(-4.335E1,2.E0,5.235E1));
#212=LINE('',#211,#210);
#213=DIRECTION('',(0.E0,0.E0,-1.E0));
#214=VECTOR('',#213,5.E0);
#215=CARTESIAN_POINT('',(-4.835E1,2.E0,5.235E1));
#216=LINE('',#215,#214);
#217=DIRECTION('',(1.E0,0.E0,0.E0));
#218=VECTOR('',#217,3.E0);
#219=CARTESIAN_POINT('',(-5.135E1,2.E0,4.735E1));
#220=LINE('',#219,#218);
#221=DIRECTION('',(0.E0,0.E0,1.E0));
#222=VECTOR('',#221,9.47E1);
#223=CARTESIAN_POINT('',(-5.135E1,2.E0,-4.735E1));
#224=LINE('',#223,#222);
#225=DIRECTION('',(1.E0,0.E0,0.E0));
#226=VECTOR('',#225,3.E0);
#227=CARTESIAN_POINT('',(-5.135E1,2.E0,-4.735E1));
#228=LINE('',#227,#226);
#229=DIRECTION('',(0.E0,0.E0,-1.E0));
#230=VECTOR('',#229,5.E0);
#231=CARTESIAN_POINT('',(-4.835E1,2.E0,-4.735E1));
#232=LINE('',#231,#230);
#233=DIRECTION('',(1.E0,0.E0,0.E0));
#234=VECTOR('',#233,5.E0);
#235=CARTESIAN_POINT('',(-4.835E1,2.E0,-5.235E1));
#236=LINE('',#235,#234);
#237=DIRECTION('',(0.E0,0.E0,1.E0));
#238=VECTOR('',#237,3.E0);
#239=CARTESIAN_POINT('',(-4.335E1,2.E0,-5.535E1));
#240=LINE('',#239,#238);
#241=DIRECTION('',(0.E0,1.E0,0.E0));
#242=VECTOR('',#241,1.05E1);
#243=CARTESIAN_POINT('',(1.7E1,2.E0,-5.535E1));
#244=LINE('',#243,#242);
#245=DIRECTION('',(0.E0,-1.E0,0.E0));
#246=VECTOR('',#245,4.5E0);
#247=CARTESIAN_POINT('',(5.135E1,1.25E1,-5.535E1));
#248=LINE('',#247,#246);
#249=DIRECTION('',(-1.E0,0.E0,0.E0));
#250=VECTOR('',#249,8.E0);
#251=CARTESIAN_POINT('',(5.135E1,8.E0,-5.535E1));
#252=LINE('',#251,#250);
#253=DIRECTION('',(0.E0,1.E0,0.E0));
#254=VECTOR('',#253,6.E0);
#255=CARTESIAN_POINT('',(4.335E1,2.E0,-5.535E1));
#256=LINE('',#255,#254);
#257=DIRECTION('',(0.E0,1.E0,0.E0));
#258=VECTOR('',#257,1.05E1);
#259=CARTESIAN_POINT('',(7.6E0,2.E0,-5.535E1));
#260=LINE('',#259,#258);
#261=DIRECTION('',(0.E0,1.E0,0.E0));
#262=VECTOR('',#261,6.E0);
#263=CARTESIAN_POINT('',(-4.335E1,2.E0,-5.535E1));
#264=LINE('',#263,#262);
#265=DIRECTION('',(-1.E0,0.E0,0.E0));
#266=VECTOR('',#265,8.E0);
#267=CARTESIAN_POINT('',(-4.335E1,8.E0,-5.535E1));
#268=LINE('',#267,#266);
#269=DIRECTION('',(0.E0,0.E0,1.E0));
#270=VECTOR('',#269,8.E0);
#271=CARTESIAN_POINT('',(5.135E1,8.E0,4.735E1));
#272=LINE('',#271,#270);
#273=DIRECTION('',(0.E0,1.E0,0.E0));
#274=VECTOR('',#273,6.E0);
#275=CARTESIAN_POINT('',(5.135E1,2.E0,4.735E1));
#276=LINE('',#275,#274);
#277=DIRECTION('',(0.E0,1.E0,0.E0));
#278=VECTOR('',#277,6.E0);
#279=CARTESIAN_POINT('',(5.135E1,2.E0,-4.735E1));
#280=LINE('',#279,#278);
#281=DIRECTION('',(0.E0,0.E0,-1.E0));
#282=VECTOR('',#281,8.E0);
#283=CARTESIAN_POINT('',(5.135E1,8.E0,-4.735E1));
#284=LINE('',#283,#282);
#285=DIRECTION('',(0.E0,-1.E0,0.E0));
#286=VECTOR('',#285,4.5E0);
#287=CARTESIAN_POINT('',(5.135E1,1.25E1,5.535E1));
#288=LINE('',#287,#286);
#289=DIRECTION('',(0.E0,0.E0,1.E0));
#290=VECTOR('',#289,3.E0);
#291=CARTESIAN_POINT('',(4.335E1,8.E0,5.235E1));
#292=LINE('',#291,#290);
#293=DIRECTION('',(-1.E0,0.E0,0.E0));
#294=VECTOR('',#293,5.E0);
#295=CARTESIAN_POINT('',(4.835E1,8.E0,5.235E1));
#296=LINE('',#295,#294);
#297=DIRECTION('',(0.E0,0.E0,1.E0));
#298=VECTOR('',#297,5.E0);
#299=CARTESIAN_POINT('',(4.835E1,8.E0,4.735E1));
#300=LINE('',#299,#298);
#301=DIRECTION('',(-1.E0,0.E0,0.E0));
#302=VECTOR('',#301,3.E0);
#303=CARTESIAN_POINT('',(5.135E1,8.E0,4.735E1));
#304=LINE('',#303,#302);
#305=DIRECTION('',(1.E0,0.E0,0.E0));
#306=VECTOR('',#305,3.E0);
#307=CARTESIAN_POINT('',(4.835E1,8.E0,-4.735E1));
#308=LINE('',#307,#306);
#309=DIRECTION('',(0.E0,0.E0,1.E0));
#310=VECTOR('',#309,5.E0);
#311=CARTESIAN_POINT('',(4.835E1,8.E0,-5.235E1));
#312=LINE('',#311,#310);
#313=DIRECTION('',(1.E0,0.E0,0.E0));
#314=VECTOR('',#313,5.E0);
#315=CARTESIAN_POINT('',(4.335E1,8.E0,-5.235E1));
#316=LINE('',#315,#314);
#317=DIRECTION('',(0.E0,0.E0,1.E0));
#318=VECTOR('',#317,3.E0);
#319=CARTESIAN_POINT('',(4.335E1,8.E0,-5.535E1));
#320=LINE('',#319,#318);
#321=DIRECTION('',(-1.E0,0.E0,0.E0));
#322=VECTOR('',#321,3.E0);
#323=CARTESIAN_POINT('',(-4.835E1,8.E0,4.735E1));
#324=LINE('',#323,#322);
#325=DIRECTION('',(0.E0,0.E0,-1.E0));
#326=VECTOR('',#325,5.E0);
#327=CARTESIAN_POINT('',(-4.835E1,8.E0,5.235E1));
#328=LINE('',#327,#326);
#329=DIRECTION('',(-1.E0,0.E0,0.E0));
#330=VECTOR('',#329,5.E0);
#331=CARTESIAN_POINT('',(-4.335E1,8.E0,5.235E1));
#332=LINE('',#331,#330);
#333=DIRECTION('',(0.E0,0.E0,-1.E0));
#334=VECTOR('',#333,3.E0);
#335=CARTESIAN_POINT('',(-4.335E1,8.E0,5.535E1));
#336=LINE('',#335,#334);
#337=DIRECTION('',(0.E0,0.E0,-1.E0));
#338=VECTOR('',#337,3.E0);
#339=CARTESIAN_POINT('',(-4.335E1,8.E0,-5.235E1));
#340=LINE('',#339,#338);
#341=DIRECTION('',(1.E0,0.E0,0.E0));
#342=VECTOR('',#341,5.E0);
#343=CARTESIAN_POINT('',(-4.835E1,8.E0,-5.235E1));
#344=LINE('',#343,#342);
#345=DIRECTION('',(0.E0,0.E0,-1.E0));
#346=VECTOR('',#345,5.E0);
#347=CARTESIAN_POINT('',(-4.835E1,8.E0,-4.735E1));
#348=LINE('',#347,#346);
#349=DIRECTION('',(1.E0,0.E0,0.E0));
#350=VECTOR('',#349,3.E0);
#351=CARTESIAN_POINT('',(-5.135E1,8.E0,-4.735E1));
#352=LINE('',#351,#350);
#353=DIRECTION('',(1.E0,0.E0,0.E0));
#354=VECTOR('',#353,8.E0);
#355=CARTESIAN_POINT('',(-5.135E1,8.E0,5.535E1));
#356=LINE('',#355,#354);
#357=DIRECTION('',(0.E0,1.E0,0.E0));
#358=VECTOR('',#357,6.E0);
#359=CARTESIAN_POINT('',(-4.335E1,2.E0,5.535E1));
#360=LINE('',#359,#358);
#361=DIRECTION('',(0.E0,1.E0,0.E0));
#362=VECTOR('',#361,6.E0);
#363=CARTESIAN_POINT('',(4.335E1,2.E0,5.535E1));
#364=LINE('',#363,#362);
#365=DIRECTION('',(1.E0,0.E0,0.E0));
#366=VECTOR('',#365,8.E0);
#367=CARTESIAN_POINT('',(4.335E1,8.E0,5.535E1));
#368=LINE('',#367,#366);
#369=DIRECTION('',(0.E0,-1.E0,0.E0));
#370=VECTOR('',#369,4.5E0);
#371=CARTESIAN_POINT('',(-5.135E1,1.25E1,5.535E1));
#372=LINE('',#371,#370);
#373=DIRECTION('',(0.E0,1.E0,0.E0));
#374=VECTOR('',#373,6.E0);
#375=CARTESIAN_POINT('',(-4.335E1,2.E0,5.235E1));
#376=LINE('',#375,#374);
#377=DIRECTION('',(0.E0,1.E0,0.E0));
#378=VECTOR('',#377,6.E0);
#379=CARTESIAN_POINT('',(-4.835E1,2.E0,5.235E1));
#380=LINE('',#379,#378);
#381=DIRECTION('',(0.E0,1.E0,0.E0));
#382=VECTOR('',#381,6.E0);
#383=CARTESIAN_POINT('',(-4.835E1,2.E0,4.735E1));
#384=LINE('',#383,#382);
#385=DIRECTION('',(0.E0,0.E0,1.E0));
#386=VECTOR('',#385,8.E0);
#387=CARTESIAN_POINT('',(-5.135E1,8.E0,-5.535E1));
#388=LINE('',#387,#386);
#389=DIRECTION('',(0.E0,1.E0,0.E0));
#390=VECTOR('',#389,6.E0);
#391=CARTESIAN_POINT('',(-5.135E1,2.E0,-4.735E1));
#392=LINE('',#391,#390);
#393=DIRECTION('',(0.E0,1.E0,0.E0));
#394=VECTOR('',#393,6.E0);
#395=CARTESIAN_POINT('',(-5.135E1,2.E0,4.735E1));
#396=LINE('',#395,#394);
#397=DIRECTION('',(0.E0,0.E0,1.E0));
#398=VECTOR('',#397,8.E0);
#399=CARTESIAN_POINT('',(-5.135E1,8.E0,4.735E1));
#400=LINE('',#399,#398);
#401=DIRECTION('',(0.E0,-1.E0,0.E0));
#402=VECTOR('',#401,4.5E0);
#403=CARTESIAN_POINT('',(-5.135E1,1.25E1,-5.535E1));
#404=LINE('',#403,#402);
#405=DIRECTION('',(0.E0,1.E0,0.E0));
#406=VECTOR('',#405,6.E0);
#407=CARTESIAN_POINT('',(-4.835E1,2.E0,-4.735E1));
#408=LINE('',#407,#406);
#409=DIRECTION('',(0.E0,1.E0,0.E0));
#410=VECTOR('',#409,6.E0);
#411=CARTESIAN_POINT('',(-4.835E1,2.E0,-5.235E1));
#412=LINE('',#411,#410);
#413=DIRECTION('',(0.E0,1.E0,0.E0));
#414=VECTOR('',#413,6.E0);
#415=CARTESIAN_POINT('',(-4.335E1,2.E0,-5.235E1));
#416=LINE('',#415,#414);
#417=DIRECTION('',(0.E0,1.E0,0.E0));
#418=VECTOR('',#417,6.E0);
#419=CARTESIAN_POINT('',(4.335E1,2.E0,5.235E1));
#420=LINE('',#419,#418);
#421=DIRECTION('',(0.E0,1.E0,0.E0));
#422=VECTOR('',#421,6.E0);
#423=CARTESIAN_POINT('',(4.835E1,2.E0,5.235E1));
#424=LINE('',#423,#422);
#425=DIRECTION('',(0.E0,1.E0,0.E0));
#426=VECTOR('',#425,6.E0);
#427=CARTESIAN_POINT('',(4.835E1,2.E0,4.735E1));
#428=LINE('',#427,#426);
#429=DIRECTION('',(0.E0,1.E0,0.E0));
#430=VECTOR('',#429,6.E0);
#431=CARTESIAN_POINT('',(4.835E1,2.E0,-4.735E1));
#432=LINE('',#431,#430);
#433=DIRECTION('',(0.E0,1.E0,0.E0));
#434=VECTOR('',#433,6.E0);
#435=CARTESIAN_POINT('',(4.835E1,2.E0,-5.235E1));
#436=LINE('',#435,#434);
#437=DIRECTION('',(0.E0,1.E0,0.E0));
#438=VECTOR('',#437,6.E0);
#439=CARTESIAN_POINT('',(4.335E1,2.E0,-5.235E1));
#440=LINE('',#439,#438);
#441=CARTESIAN_POINT('',(-5.135E1,1.25E1,5.535E1));
#442=CARTESIAN_POINT('',(5.135E1,1.25E1,5.535E1));
#443=VERTEX_POINT('',#441);
#444=VERTEX_POINT('',#442);
#445=CARTESIAN_POINT('',(5.135E1,1.25E1,-5.535E1));
#446=VERTEX_POINT('',#445);
#447=CARTESIAN_POINT('',(-5.135E1,1.25E1,-5.535E1));
#448=VERTEX_POINT('',#447);
#449=CARTESIAN_POINT('',(4.335E1,8.E0,-5.235E1));
#450=CARTESIAN_POINT('',(4.835E1,8.E0,-5.235E1));
#451=VERTEX_POINT('',#449);
#452=VERTEX_POINT('',#450);
#453=CARTESIAN_POINT('',(4.835E1,8.E0,-4.735E1));
#454=VERTEX_POINT('',#453);
#455=CARTESIAN_POINT('',(4.335E1,2.E0,-5.535E1));
#456=CARTESIAN_POINT('',(4.335E1,2.E0,-5.235E1));
#457=VERTEX_POINT('',#455);
#458=VERTEX_POINT('',#456);
#459=CARTESIAN_POINT('',(4.835E1,2.E0,-5.235E1));
#460=VERTEX_POINT('',#459);
#461=CARTESIAN_POINT('',(4.835E1,2.E0,-4.735E1));
#462=VERTEX_POINT('',#461);
#463=CARTESIAN_POINT('',(5.135E1,2.E0,-4.735E1));
#464=VERTEX_POINT('',#463);
#465=CARTESIAN_POINT('',(5.135E1,8.E0,4.735E1));
#466=CARTESIAN_POINT('',(5.135E1,8.E0,5.535E1));
#467=VERTEX_POINT('',#465);
#468=VERTEX_POINT('',#466);
#469=CARTESIAN_POINT('',(5.135E1,8.E0,-4.735E1));
#470=VERTEX_POINT('',#469);
#471=CARTESIAN_POINT('',(5.135E1,8.E0,-5.535E1));
#472=CARTESIAN_POINT('',(4.335E1,8.E0,-5.535E1));
#473=VERTEX_POINT('',#471);
#474=VERTEX_POINT('',#472);
#475=CARTESIAN_POINT('',(5.135E1,2.E0,4.735E1));
#476=VERTEX_POINT('',#475);
#477=CARTESIAN_POINT('',(4.835E1,8.E0,4.735E1));
#478=CARTESIAN_POINT('',(4.835E1,8.E0,5.235E1));
#479=VERTEX_POINT('',#477);
#480=VERTEX_POINT('',#478);
#481=CARTESIAN_POINT('',(4.335E1,8.E0,5.235E1));
#482=VERTEX_POINT('',#481);
#483=CARTESIAN_POINT('',(-4.835E1,8.E0,-4.735E1));
#484=CARTESIAN_POINT('',(-4.835E1,8.E0,-5.235E1));
#485=VERTEX_POINT('',#483);
#486=VERTEX_POINT('',#484);
#487=CARTESIAN_POINT('',(-4.335E1,8.E0,-5.235E1));
#488=VERTEX_POINT('',#487);
#489=CARTESIAN_POINT('',(-4.335E1,8.E0,5.235E1));
#490=CARTESIAN_POINT('',(-4.835E1,8.E0,5.235E1));
#491=VERTEX_POINT('',#489);
#492=VERTEX_POINT('',#490);
#493=CARTESIAN_POINT('',(-4.835E1,8.E0,4.735E1));
#494=VERTEX_POINT('',#493);
#495=CARTESIAN_POINT('',(4.835E1,2.E0,4.735E1));
#496=VERTEX_POINT('',#495);
#497=CARTESIAN_POINT('',(4.835E1,2.E0,5.235E1));
#498=VERTEX_POINT('',#497);
#499=CARTESIAN_POINT('',(4.335E1,2.E0,5.235E1));
#500=VERTEX_POINT('',#499);
#501=CARTESIAN_POINT('',(4.335E1,2.E0,5.535E1));
#502=VERTEX_POINT('',#501);
#503=CARTESIAN_POINT('',(-5.135E1,2.E0,-4.735E1));
#504=CARTESIAN_POINT('',(-4.835E1,2.E0,-4.735E1));
#505=VERTEX_POINT('',#503);
#506=VERTEX_POINT('',#504);
#507=CARTESIAN_POINT('',(-4.835E1,2.E0,-5.235E1));
#508=VERTEX_POINT('',#507);
#509=CARTESIAN_POINT('',(-4.335E1,2.E0,-5.235E1));
#510=VERTEX_POINT('',#509);
#511=CARTESIAN_POINT('',(-4.335E1,2.E0,-5.535E1));
#512=VERTEX_POINT('',#511);
#513=CARTESIAN_POINT('',(-4.335E1,2.E0,5.535E1));
#514=CARTESIAN_POINT('',(-4.335E1,2.E0,5.235E1));
#515=VERTEX_POINT('',#513);
#516=VERTEX_POINT('',#514);
#517=CARTESIAN_POINT('',(-4.835E1,2.E0,5.235E1));
#518=VERTEX_POINT('',#517);
#519=CARTESIAN_POINT('',(-4.835E1,2.E0,4.735E1));
#520=VERTEX_POINT('',#519);
#521=CARTESIAN_POINT('',(-5.135E1,2.E0,4.735E1));
#522=VERTEX_POINT('',#521);
#523=CARTESIAN_POINT('',(-5.135E1,8.E0,5.535E1));
#524=CARTESIAN_POINT('',(-4.335E1,8.E0,5.535E1));
#525=VERTEX_POINT('',#523);
#526=VERTEX_POINT('',#524);
#527=CARTESIAN_POINT('',(4.335E1,8.E0,5.535E1));
#528=VERTEX_POINT('',#527);
#529=CARTESIAN_POINT('',(-4.335E1,8.E0,-5.535E1));
#530=CARTESIAN_POINT('',(-5.135E1,8.E0,-5.535E1));
#531=VERTEX_POINT('',#529);
#532=VERTEX_POINT('',#530);
#533=CARTESIAN_POINT('',(-5.135E1,8.E0,-4.735E1));
#534=VERTEX_POINT('',#533);
#535=CARTESIAN_POINT('',(-5.135E1,8.E0,4.735E1));
#536=VERTEX_POINT('',#535);
#537=CARTESIAN_POINT('',(5.335E1,0.E0,5.535E1));
#538=CARTESIAN_POINT('',(5.135E1,0.E0,5.735E1));
#539=VERTEX_POINT('',#537);
#540=VERTEX_POINT('',#538);
#541=CARTESIAN_POINT('',(5.135E1,1.25E1,5.735E1));
#542=VERTEX_POINT('',#541);
#543=CARTESIAN_POINT('',(5.335E1,1.25E1,5.535E1));
#544=VERTEX_POINT('',#543);
#545=CARTESIAN_POINT('',(-5.335E1,0.E0,-5.535E1));
#546=CARTESIAN_POINT('',(-5.135E1,0.E0,-5.735E1));
#547=VERTEX_POINT('',#545);
#548=VERTEX_POINT('',#546);
#549=CARTESIAN_POINT('',(-5.135E1,1.25E1,-5.735E1));
#550=VERTEX_POINT('',#549);
#551=CARTESIAN_POINT('',(-5.335E1,1.25E1,-5.535E1));
#552=VERTEX_POINT('',#551);
#553=CARTESIAN_POINT('',(-5.135E1,0.E0,5.735E1));
#554=CARTESIAN_POINT('',(-5.335E1,0.E0,5.535E1));
#555=VERTEX_POINT('',#553);
#556=VERTEX_POINT('',#554);
#557=CARTESIAN_POINT('',(-5.335E1,1.25E1,5.535E1));
#558=VERTEX_POINT('',#557);
#559=CARTESIAN_POINT('',(-5.135E1,1.25E1,5.735E1));
#560=VERTEX_POINT('',#559);
#561=CARTESIAN_POINT('',(5.335E1,0.E0,-5.535E1));
#562=VERTEX_POINT('',#561);
#563=CARTESIAN_POINT('',(5.135E1,0.E0,-5.735E1));
#564=VERTEX_POINT('',#563);
#565=CARTESIAN_POINT('',(5.335E1,1.25E1,-5.535E1));
#566=VERTEX_POINT('',#565);
#567=CARTESIAN_POINT('',(5.135E1,1.25E1,-5.735E1));
#568=VERTEX_POINT('',#567);
#569=CARTESIAN_POINT('',(1.7E1,1.25E1,-5.735E1));
#570=CARTESIAN_POINT('',(1.7E1,1.25E1,-5.535E1));
#571=VERTEX_POINT('',#569);
#572=VERTEX_POINT('',#570);
#573=CARTESIAN_POINT('',(7.6E0,1.25E1,-5.735E1));
#574=CARTESIAN_POINT('',(7.6E0,1.25E1,-5.535E1));
#575=VERTEX_POINT('',#573);
#576=VERTEX_POINT('',#574);
#577=CARTESIAN_POINT('',(1.7E1,2.E0,-5.735E1));
#578=VERTEX_POINT('',#577);
#579=CARTESIAN_POINT('',(7.6E0,2.E0,-5.735E1));
#580=VERTEX_POINT('',#579);
#581=CARTESIAN_POINT('',(1.7E1,2.E0,-5.535E1));
#582=VERTEX_POINT('',#581);
#583=CARTESIAN_POINT('',(7.6E0,2.E0,-5.535E1));
#584=VERTEX_POINT('',#583);
#585=CARTESIAN_POINT('',(0.E0,0.E0,0.E0));
#586=DIRECTION('',(0.E0,1.E0,0.E0));
#587=DIRECTION('',(1.E0,0.E0,0.E0));
#588=AXIS2_PLACEMENT_3D('',#585,#586,#587);
#589=PLANE('',#588);
#591=ORIENTED_EDGE('',*,*,#590,.F.);
#593=ORIENTED_EDGE('',*,*,#592,.T.);
#595=ORIENTED_EDGE('',*,*,#594,.F.);
#597=ORIENTED_EDGE('',*,*,#596,.T.);
#599=ORIENTED_EDGE('',*,*,#598,.F.);
#601=ORIENTED_EDGE('',*,*,#600,.T.);
#603=ORIENTED_EDGE('',*,*,#602,.F.);
#605=ORIENTED_EDGE('',*,*,#604,.T.);
#606=EDGE_LOOP('',(#591,#593,#595,#597,#599,#601,#603,#605));
#607=FACE_OUTER_BOUND('',#606,.F.);
#608=ADVANCED_FACE('',(#607),#589,.F.);
#609=CARTESIAN_POINT('',(5.135E1,2.8795E1,5.535E1));
#610=DIRECTION('',(0.E0,-1.E0,0.E0));
#611=DIRECTION('',(1.E0,0.E0,0.E0));
#612=AXIS2_PLACEMENT_3D('',#609,#610,#611);
#613=CYLINDRICAL_SURFACE('',#612,2.E0);
#614=ORIENTED_EDGE('',*,*,#590,.T.);
#616=ORIENTED_EDGE('',*,*,#615,.F.);
#618=ORIENTED_EDGE('',*,*,#617,.T.);
#620=ORIENTED_EDGE('',*,*,#619,.T.);
#621=EDGE_LOOP('',(#614,#616,#618,#620));
#622=FACE_OUTER_BOUND('',#621,.F.);
#623=ADVANCED_FACE('',(#622),#613,.T.);
#624=CARTESIAN_POINT('',(-5.335E1,0.E0,5.735E1));
#625=DIRECTION('',(0.E0,0.E0,1.E0));
#626=DIRECTION('',(1.E0,0.E0,0.E0));
#627=AXIS2_PLACEMENT_3D('',#624,#625,#626);
#628=PLANE('',#627);
#629=ORIENTED_EDGE('',*,*,#615,.T.);
#630=ORIENTED_EDGE('',*,*,#604,.F.);
#632=ORIENTED_EDGE('',*,*,#631,.F.);
#634=ORIENTED_EDGE('',*,*,#633,.T.);
#635=EDGE_LOOP('',(#629,#630,#632,#634));
#636=FACE_OUTER_BOUND('',#635,.F.);
#637=ADVANCED_FACE('',(#636),#628,.T.);
#638=CARTESIAN_POINT('',(-5.135E1,2.8795E1,5.535E1));
#639=DIRECTION('',(0.E0,-1.E0,0.E0));
#640=DIRECTION('',(0.E0,0.E0,1.E0));
#641=AXIS2_PLACEMENT_3D('',#638,#639,#640);
#642=CYLINDRICAL_SURFACE('',#641,2.E0);
#643=ORIENTED_EDGE('',*,*,#602,.T.);
#645=ORIENTED_EDGE('',*,*,#644,.F.);
#647=ORIENTED_EDGE('',*,*,#646,.T.);
#648=ORIENTED_EDGE('',*,*,#631,.T.);
#649=EDGE_LOOP('',(#643,#645,#647,#648));
#650=FACE_OUTER_BOUND('',#649,.F.);
#651=ADVANCED_FACE('',(#650),#642,.T.);
#652=CARTESIAN_POINT('',(-5.335E1,0.E0,-5.735E1));
#653=DIRECTION('',(-1.E0,0.E0,0.E0));
#654=DIRECTION('',(0.E0,0.E0,1.E0));
#655=AXIS2_PLACEMENT_3D('',#652,#653,#654);
#656=PLANE('',#655);
#658=ORIENTED_EDGE('',*,*,#657,.F.);
#660=ORIENTED_EDGE('',*,*,#659,.T.);
#661=ORIENTED_EDGE('',*,*,#644,.T.);
#662=ORIENTED_EDGE('',*,*,#600,.F.);
#663=EDGE_LOOP('',(#658,#660,#661,#662));
#664=FACE_OUTER_BOUND('',#663,.F.);
#665=ADVANCED_FACE('',(#664),#656,.T.);
#666=CARTESIAN_POINT('',(-5.135E1,2.8795E1,-5.535E1));
#667=DIRECTION('',(0.E0,-1.E0,0.E0));
#668=DIRECTION('',(-1.E0,0.E0,0.E0));
#669=AXIS2_PLACEMENT_3D('',#666,#667,#668);
#670=CYLINDRICAL_SURFACE('',#669,2.E0);
#671=ORIENTED_EDGE('',*,*,#598,.T.);
#673=ORIENTED_EDGE('',*,*,#672,.F.);
#675=ORIENTED_EDGE('',*,*,#674,.T.);
#676=ORIENTED_EDGE('',*,*,#657,.T.);
#677=EDGE_LOOP('',(#671,#673,#675,#676));
#678=FACE_OUTER_BOUND('',#677,.F.);
#679=ADVANCED_FACE('',(#678),#670,.T.);
#680=CARTESIAN_POINT('',(5.335E1,0.E0,-5.735E1));
#681=DIRECTION('',(0.E0,0.E0,-1.E0));
#682=DIRECTION('',(-1.E0,0.E0,0.E0));
#683=AXIS2_PLACEMENT_3D('',#680,#681,#682);
#684=PLANE('',#683);
#686=ORIENTED_EDGE('',*,*,#685,.T.);
#688=ORIENTED_EDGE('',*,*,#687,.F.);
#690=ORIENTED_EDGE('',*,*,#689,.F.);
#692=ORIENTED_EDGE('',*,*,#691,.T.);
#693=ORIENTED_EDGE('',*,*,#672,.T.);
#694=ORIENTED_EDGE('',*,*,#596,.F.);
#696=ORIENTED_EDGE('',*,*,#695,.F.);
#698=ORIENTED_EDGE('',*,*,#697,.T.);
#699=EDGE_LOOP('',(#686,#688,#690,#692,#693,#694,#696,#698));
#700=FACE_OUTER_BOUND('',#699,.F.);
#701=ADVANCED_FACE('',(#700),#684,.T.);
#702=CARTESIAN_POINT('',(1.7E1,1.25E1,-5.535E1));
#703=DIRECTION('',(1.E0,0.E0,0.E0));
#704=DIRECTION('',(0.E0,0.E0,-1.E0));
#705=AXIS2_PLACEMENT_3D('',#702,#703,#704);
#706=PLANE('',#705);
#708=ORIENTED_EDGE('',*,*,#707,.T.);
#710=ORIENTED_EDGE('',*,*,#709,.F.);
#712=ORIENTED_EDGE('',*,*,#711,.T.);
#713=ORIENTED_EDGE('',*,*,#685,.F.);
#714=EDGE_LOOP('',(#708,#710,#712,#713));
#715=FACE_OUTER_BOUND('',#714,.F.);
#716=ADVANCED_FACE('',(#715),#706,.F.);
#717=CARTESIAN_POINT('',(0.E0,1.25E1,0.E0));
#718=DIRECTION('',(0.E0,1.E0,0.E0));
#719=DIRECTION('',(1.E0,0.E0,0.E0));
#720=AXIS2_PLACEMENT_3D('',#717,#718,#719);
#721=PLANE('',#720);
#722=ORIENTED_EDGE('',*,*,#707,.F.);
#723=ORIENTED_EDGE('',*,*,#697,.F.);
#725=ORIENTED_EDGE('',*,*,#724,.F.);
#727=ORIENTED_EDGE('',*,*,#726,.F.);
#728=ORIENTED_EDGE('',*,*,#617,.F.);
#729=ORIENTED_EDGE('',*,*,#633,.F.);
#730=ORIENTED_EDGE('',*,*,#646,.F.);
#731=ORIENTED_EDGE('',*,*,#659,.F.);
#732=ORIENTED_EDGE('',*,*,#674,.F.);
#733=ORIENTED_EDGE('',*,*,#691,.F.);
#735=ORIENTED_EDGE('',*,*,#734,.T.);
#737=ORIENTED_EDGE('',*,*,#736,.T.);
#739=ORIENTED_EDGE('',*,*,#738,.T.);
#741=ORIENTED_EDGE('',*,*,#740,.T.);
#743=ORIENTED_EDGE('',*,*,#742,.T.);
#745=ORIENTED_EDGE('',*,*,#744,.T.);
#746=EDGE_LOOP('',(#722,#723,#725,#727,#728,#729,#730,#731,#732,#733,#735,#737,
#739,#741,#743,#745));
#747=FACE_OUTER_BOUND('',#746,.F.);
#748=ADVANCED_FACE('',(#747),#721,.T.);
#749=CARTESIAN_POINT('',(5.135E1,2.8795E1,-5.535E1));
#750=DIRECTION('',(0.E0,-1.E0,0.E0));
#751=DIRECTION('',(0.E0,0.E0,-1.E0));
#752=AXIS2_PLACEMENT_3D('',#749,#750,#751);
#753=CYLINDRICAL_SURFACE('',#752,2.E0);
#754=ORIENTED_EDGE('',*,*,#594,.T.);
#756=ORIENTED_EDGE('',*,*,#755,.F.);
#757=ORIENTED_EDGE('',*,*,#724,.T.);
#758=ORIENTED_EDGE('',*,*,#695,.T.);
#759=EDGE_LOOP('',(#754,#756,#757,#758));
#760=FACE_OUTER_BOUND('',#759,.F.);
#761=ADVANCED_FACE('',(#760),#753,.T.);
#762=CARTESIAN_POINT('',(5.335E1,0.E0,5.735E1));
#763=DIRECTION('',(1.E0,0.E0,0.E0));
#764=DIRECTION('',(0.E0,0.E0,-1.E0));
#765=AXIS2_PLACEMENT_3D('',#762,#763,#764);
#766=PLANE('',#765);
#767=ORIENTED_EDGE('',*,*,#619,.F.);
#768=ORIENTED_EDGE('',*,*,#726,.T.);
#769=ORIENTED_EDGE('',*,*,#755,.T.);
#770=ORIENTED_EDGE('',*,*,#592,.F.);
#771=EDGE_LOOP('',(#767,#768,#769,#770));
#772=FACE_OUTER_BOUND('',#771,.F.);
#773=ADVANCED_FACE('',(#772),#766,.T.);
#774=CARTESIAN_POINT('',(7.6E0,1.25E1,-5.735E1));
#775=DIRECTION('',(-1.E0,0.E0,0.E0));
#776=DIRECTION('',(0.E0,0.E0,1.E0));
#777=AXIS2_PLACEMENT_3D('',#774,#775,#776);
#778=PLANE('',#777);
#779=ORIENTED_EDGE('',*,*,#734,.F.);
#780=ORIENTED_EDGE('',*,*,#689,.T.);
#782=ORIENTED_EDGE('',*,*,#781,.T.);
#784=ORIENTED_EDGE('',*,*,#783,.T.);
#785=EDGE_LOOP('',(#779,#780,#782,#784));
#786=FACE_OUTER_BOUND('',#785,.F.);
#787=ADVANCED_FACE('',(#786),#778,.F.);
#788=CARTESIAN_POINT('',(0.E0,2.E0,0.E0));
#789=DIRECTION('',(0.E0,1.E0,0.E0));
#790=DIRECTION('',(1.E0,0.E0,0.E0));
#791=AXIS2_PLACEMENT_3D('',#788,#789,#790);
#792=PLANE('',#791);
#794=ORIENTED_EDGE('',*,*,#793,.F.);
#795=ORIENTED_EDGE('',*,*,#781,.F.);
#796=ORIENTED_EDGE('',*,*,#687,.T.);
#797=ORIENTED_EDGE('',*,*,#711,.F.);
#799=ORIENTED_EDGE('',*,*,#798,.F.);
#801=ORIENTED_EDGE('',*,*,#800,.T.);
#803=ORIENTED_EDGE('',*,*,#802,.T.);
#805=ORIENTED_EDGE('',*,*,#804,.T.);
#807=ORIENTED_EDGE('',*,*,#806,.F.);
#809=ORIENTED_EDGE('',*,*,#808,.F.);
#811=ORIENTED_EDGE('',*,*,#810,.T.);
#813=ORIENTED_EDGE('',*,*,#812,.T.);
#815=ORIENTED_EDGE('',*,*,#814,.T.);
#817=ORIENTED_EDGE('',*,*,#816,.F.);
#819=ORIENTED_EDGE('',*,*,#818,.F.);
#821=ORIENTED_EDGE('',*,*,#820,.T.);
#823=ORIENTED_EDGE('',*,*,#822,.T.);
#825=ORIENTED_EDGE('',*,*,#824,.T.);
#827=ORIENTED_EDGE('',*,*,#826,.F.);
#829=ORIENTED_EDGE('',*,*,#828,.F.);
#831=ORIENTED_EDGE('',*,*,#830,.T.);
#833=ORIENTED_EDGE('',*,*,#832,.T.);
#835=ORIENTED_EDGE('',*,*,#834,.T.);
#837=ORIENTED_EDGE('',*,*,#836,.F.);
#838=EDGE_LOOP('',(#794,#795,#796,#797,#799,#801,#803,#805,#807,#809,#811,#813,
#815,#817,#819,#821,#823,#825,#827,#829,#831,#833,#835,#837));
#839=FACE_OUTER_BOUND('',#838,.F.);
#840=ADVANCED_FACE('',(#839),#792,.T.);
#841=CARTESIAN_POINT('',(5.135E1,1.25E1,-5.535E1));
#842=DIRECTION('',(0.E0,0.E0,-1.E0));
#843=DIRECTION('',(-1.E0,0.E0,0.E0));
#844=AXIS2_PLACEMENT_3D('',#841,#842,#843);
#845=PLANE('',#844);
#846=ORIENTED_EDGE('',*,*,#709,.T.);
#847=ORIENTED_EDGE('',*,*,#744,.F.);
#849=ORIENTED_EDGE('',*,*,#848,.T.);
#851=ORIENTED_EDGE('',*,*,#850,.T.);
#853=ORIENTED_EDGE('',*,*,#852,.F.);
#854=ORIENTED_EDGE('',*,*,#798,.T.);
#855=EDGE_LOOP('',(#846,#847,#849,#851,#853,#854));
#856=FACE_OUTER_BOUND('',#855,.F.);
#857=ADVANCED_FACE('',(#856),#845,.F.);
#858=CARTESIAN_POINT('',(5.135E1,1.25E1,-5.535E1));
#859=DIRECTION('',(0.E0,0.E0,-1.E0));
#860=DIRECTION('',(-1.E0,0.E0,0.E0));
#861=AXIS2_PLACEMENT_3D('',#858,#859,#860);
#862=PLANE('',#861);
#863=ORIENTED_EDGE('',*,*,#783,.F.);
#864=ORIENTED_EDGE('',*,*,#793,.T.);
#866=ORIENTED_EDGE('',*,*,#865,.T.);
#868=ORIENTED_EDGE('',*,*,#867,.T.);
#870=ORIENTED_EDGE('',*,*,#869,.F.);
#871=ORIENTED_EDGE('',*,*,#736,.F.);
#872=EDGE_LOOP('',(#863,#864,#866,#868,#870,#871));
#873=FACE_OUTER_BOUND('',#872,.F.);
#874=ADVANCED_FACE('',(#873),#862,.F.);
#875=CARTESIAN_POINT('',(5.135E1,1.25E1,5.535E1));
#876=DIRECTION('',(1.E0,0.E0,0.E0));
#877=DIRECTION('',(0.E0,0.E0,-1.E0));
#878=AXIS2_PLACEMENT_3D('',#875,#876,#877);
#879=PLANE('',#878);
#881=ORIENTED_EDGE('',*,*,#880,.F.);
#883=ORIENTED_EDGE('',*,*,#882,.F.);
#884=ORIENTED_EDGE('',*,*,#808,.T.);
#886=ORIENTED_EDGE('',*,*,#885,.T.);
#888=ORIENTED_EDGE('',*,*,#887,.T.);
#889=ORIENTED_EDGE('',*,*,#848,.F.);
#890=ORIENTED_EDGE('',*,*,#742,.F.);
#892=ORIENTED_EDGE('',*,*,#891,.T.);
#893=EDGE_LOOP('',(#881,#883,#884,#886,#888,#889,#890,#892));
#894=FACE_OUTER_BOUND('',#893,.F.);
#895=ADVANCED_FACE('',(#894),#879,.F.);
#896=CARTESIAN_POINT('',(0.E0,8.E0,0.E0));
#897=DIRECTION('',(0.E0,1.E0,0.E0));
#898=DIRECTION('',(0.E0,0.E0,1.E0));
#899=AXIS2_PLACEMENT_3D('',#896,#897,#898);
#900=PLANE('',#899);
#901=ORIENTED_EDGE('',*,*,#880,.T.);
#903=ORIENTED_EDGE('',*,*,#902,.F.);
#905=ORIENTED_EDGE('',*,*,#904,.F.);
#907=ORIENTED_EDGE('',*,*,#906,.F.);
#909=ORIENTED_EDGE('',*,*,#908,.F.);
#911=ORIENTED_EDGE('',*,*,#910,.F.);
#912=EDGE_LOOP('',(#901,#903,#905,#907,#909,#911));
#913=FACE_OUTER_BOUND('',#912,.F.);
#914=ADVANCED_FACE('',(#913),#900,.T.);
#915=CARTESIAN_POINT('',(0.E0,8.E0,0.E0));
#916=DIRECTION('',(0.E0,1.E0,0.E0));
#917=DIRECTION('',(0.E0,0.E0,1.E0));
#918=AXIS2_PLACEMENT_3D('',#915,#916,#917);
#919=PLANE('',#918);
#920=ORIENTED_EDGE('',*,*,#850,.F.);
#921=ORIENTED_EDGE('',*,*,#887,.F.);
#923=ORIENTED_EDGE('',*,*,#922,.F.);
#925=ORIENTED_EDGE('',*,*,#924,.F.);
#927=ORIENTED_EDGE('',*,*,#926,.F.);
#929=ORIENTED_EDGE('',*,*,#928,.F.);
#930=EDGE_LOOP('',(#920,#921,#923,#925,#927,#929));
#931=FACE_OUTER_BOUND('',#930,.F.);
#932=ADVANCED_FACE('',(#931),#919,.T.);
#933=CARTESIAN_POINT('',(0.E0,8.E0,0.E0));
#934=DIRECTION('',(0.E0,1.E0,0.E0));
#935=DIRECTION('',(0.E0,0.E0,1.E0));
#936=AXIS2_PLACEMENT_3D('',#933,#934,#935);
#937=PLANE('',#936);
#939=ORIENTED_EDGE('',*,*,#938,.F.);
#941=ORIENTED_EDGE('',*,*,#940,.F.);
#943=ORIENTED_EDGE('',*,*,#942,.F.);
#945=ORIENTED_EDGE('',*,*,#944,.F.);
#947=ORIENTED_EDGE('',*,*,#946,.F.);
#949=ORIENTED_EDGE('',*,*,#948,.F.);
#950=EDGE_LOOP('',(#939,#941,#943,#945,#947,#949));
#951=FACE_OUTER_BOUND('',#950,.F.);
#952=ADVANCED_FACE('',(#951),#937,.T.);
#953=CARTESIAN_POINT('',(0.E0,8.E0,0.E0));
#954=DIRECTION('',(0.E0,1.E0,0.E0));
#955=DIRECTION('',(0.E0,0.E0,1.E0));
#956=AXIS2_PLACEMENT_3D('',#953,#954,#955);
#957=PLANE('',#956);
#958=ORIENTED_EDGE('',*,*,#867,.F.);
#960=ORIENTED_EDGE('',*,*,#959,.F.);
#962=ORIENTED_EDGE('',*,*,#961,.F.);
#964=ORIENTED_EDGE('',*,*,#963,.F.);
#966=ORIENTED_EDGE('',*,*,#965,.F.);
#968=ORIENTED_EDGE('',*,*,#967,.F.);
#969=EDGE_LOOP('',(#958,#960,#962,#964,#966,#968));
#970=FACE_OUTER_BOUND('',#969,.F.);
#971=ADVANCED_FACE('',(#970),#957,.T.);
#972=CARTESIAN_POINT('',(-5.135E1,1.25E1,5.535E1));
#973=DIRECTION('',(0.E0,0.E0,1.E0));
#974=DIRECTION('',(1.E0,0.E0,0.E0));
#975=AXIS2_PLACEMENT_3D('',#972,#973,#974);
#976=PLANE('',#975);
#977=ORIENTED_EDGE('',*,*,#938,.T.);
#979=ORIENTED_EDGE('',*,*,#978,.F.);
#980=ORIENTED_EDGE('',*,*,#818,.T.);
#982=ORIENTED_EDGE('',*,*,#981,.T.);
#983=ORIENTED_EDGE('',*,*,#902,.T.);
#984=ORIENTED_EDGE('',*,*,#891,.F.);
#985=ORIENTED_EDGE('',*,*,#740,.F.);
#987=ORIENTED_EDGE('',*,*,#986,.T.);
#988=EDGE_LOOP('',(#977,#979,#980,#982,#983,#984,#985,#987));
#989=FACE_OUTER_BOUND('',#988,.F.);
#990=ADVANCED_FACE('',(#989),#976,.F.);
#991=CARTESIAN_POINT('',(-4.335E1,2.E0,5.535E1));
#992=DIRECTION('',(1.E0,0.E0,0.E0));
#993=DIRECTION('',(0.E0,0.E0,-1.E0));
#994=AXIS2_PLACEMENT_3D('',#991,#992,#993);
#995=PLANE('',#994);
#996=ORIENTED_EDGE('',*,*,#820,.F.);
#997=ORIENTED_EDGE('',*,*,#978,.T.);
#998=ORIENTED_EDGE('',*,*,#948,.T.);
#1000=ORIENTED_EDGE('',*,*,#999,.F.);
#1001=EDGE_LOOP('',(#996,#997,#998,#1000));
#1002=FACE_OUTER_BOUND('',#1001,.F.);
#1003=ADVANCED_FACE('',(#1002),#995,.T.);
#1004=CARTESIAN_POINT('',(-4.335E1,2.E0,5.235E1));
#1005=DIRECTION('',(0.E0,0.E0,-1.E0));
#1006=DIRECTION('',(-1.E0,0.E0,0.E0));
#1007=AXIS2_PLACEMENT_3D('',#1004,#1005,#1006);
#1008=PLANE('',#1007);
#1009=ORIENTED_EDGE('',*,*,#822,.F.);
#1010=ORIENTED_EDGE('',*,*,#999,.T.);
#1011=ORIENTED_EDGE('',*,*,#946,.T.);
#1013=ORIENTED_EDGE('',*,*,#1012,.F.);
#1014=EDGE_LOOP('',(#1009,#1010,#1011,#1013));
#1015=FACE_OUTER_BOUND('',#1014,.F.);
#1016=ADVANCED_FACE('',(#1015),#1008,.T.);
#1017=CARTESIAN_POINT('',(-4.835E1,2.E0,5.235E1));
#1018=DIRECTION('',(1.E0,0.E0,0.E0));
#1019=DIRECTION('',(0.E0,0.E0,-1.E0));
#1020=AXIS2_PLACEMENT_3D('',#1017,#1018,#1019);
#1021=PLANE('',#1020);
#1022=ORIENTED_EDGE('',*,*,#824,.F.);
#1023=ORIENTED_EDGE('',*,*,#1012,.T.);
#1024=ORIENTED_EDGE('',*,*,#944,.T.);
#1026=ORIENTED_EDGE('',*,*,#1025,.F.);
#1027=EDGE_LOOP('',(#1022,#1023,#1024,#1026));
#1028=FACE_OUTER_BOUND('',#1027,.F.);
#1029=ADVANCED_FACE('',(#1028),#1021,.T.);
#1030=CARTESIAN_POINT('',(-4.835E1,2.E0,4.735E1));
#1031=DIRECTION('',(0.E0,0.E0,-1.E0));
#1032=DIRECTION('',(-1.E0,0.E0,0.E0));
#1033=AXIS2_PLACEMENT_3D('',#1030,#1031,#1032);
#1034=PLANE('',#1033);
#1035=ORIENTED_EDGE('',*,*,#826,.T.);
#1036=ORIENTED_EDGE('',*,*,#1025,.T.);
#1037=ORIENTED_EDGE('',*,*,#942,.T.);
#1039=ORIENTED_EDGE('',*,*,#1038,.F.);
#1040=EDGE_LOOP('',(#1035,#1036,#1037,#1039));
#1041=FACE_OUTER_BOUND('',#1040,.F.);
#1042=ADVANCED_FACE('',(#1041),#1034,.T.);
#1043=CARTESIAN_POINT('',(-5.135E1,1.25E1,-5.535E1));
#1044=DIRECTION('',(-1.E0,0.E0,0.E0));
#1045=DIRECTION('',(0.E0,0.E0,1.E0));
#1046=AXIS2_PLACEMENT_3D('',#1043,#1044,#1045);
#1047=PLANE('',#1046);
#1048=ORIENTED_EDGE('',*,*,#967,.T.);
#1050=ORIENTED_EDGE('',*,*,#1049,.F.);
#1051=ORIENTED_EDGE('',*,*,#828,.T.);
#1052=ORIENTED_EDGE('',*,*,#1038,.T.);
#1053=ORIENTED_EDGE('',*,*,#940,.T.);
#1054=ORIENTED_EDGE('',*,*,#986,.F.);
#1055=ORIENTED_EDGE('',*,*,#738,.F.);
#1056=ORIENTED_EDGE('',*,*,#869,.T.);
#1057=EDGE_LOOP('',(#1048,#1050,#1051,#1052,#1053,#1054,#1055,#1056));
#1058=FACE_OUTER_BOUND('',#1057,.F.);
#1059=ADVANCED_FACE('',(#1058),#1047,.F.);
#1060=CARTESIAN_POINT('',(-5.135E1,2.E0,-4.735E1));
#1061=DIRECTION('',(0.E0,0.E0,1.E0));
#1062=DIRECTION('',(1.E0,0.E0,0.E0));
#1063=AXIS2_PLACEMENT_3D('',#1060,#1061,#1062);
#1064=PLANE('',#1063);
#1065=ORIENTED_EDGE('',*,*,#830,.F.);
#1066=ORIENTED_EDGE('',*,*,#1049,.T.);
#1067=ORIENTED_EDGE('',*,*,#965,.T.);
#1069=ORIENTED_EDGE('',*,*,#1068,.F.);
#1070=EDGE_LOOP('',(#1065,#1066,#1067,#1069));
#1071=FACE_OUTER_BOUND('',#1070,.F.);
#1072=ADVANCED_FACE('',(#1071),#1064,.T.);
#1073=CARTESIAN_POINT('',(-4.835E1,2.E0,-4.735E1));
#1074=DIRECTION('',(1.E0,0.E0,0.E0));
#1075=DIRECTION('',(0.E0,0.E0,-1.E0));
#1076=AXIS2_PLACEMENT_3D('',#1073,#1074,#1075);
#1077=PLANE('',#1076);
#1078=ORIENTED_EDGE('',*,*,#832,.F.);
#1079=ORIENTED_EDGE('',*,*,#1068,.T.);
#1080=ORIENTED_EDGE('',*,*,#963,.T.);
#1082=ORIENTED_EDGE('',*,*,#1081,.F.);
#1083=EDGE_LOOP('',(#1078,#1079,#1080,#1082));
#1084=FACE_OUTER_BOUND('',#1083,.F.);
#1085=ADVANCED_FACE('',(#1084),#1077,.T.);
#1086=CARTESIAN_POINT('',(-4.835E1,2.E0,-5.235E1));
#1087=DIRECTION('',(0.E0,0.E0,1.E0));
#1088=DIRECTION('',(1.E0,0.E0,0.E0));
#1089=AXIS2_PLACEMENT_3D('',#1086,#1087,#1088);
#1090=PLANE('',#1089);
#1091=ORIENTED_EDGE('',*,*,#834,.F.);
#1092=ORIENTED_EDGE('',*,*,#1081,.T.);
#1093=ORIENTED_EDGE('',*,*,#961,.T.);
#1095=ORIENTED_EDGE('',*,*,#1094,.F.);
#1096=EDGE_LOOP('',(#1091,#1092,#1093,#1095));
#1097=FACE_OUTER_BOUND('',#1096,.F.);
#1098=ADVANCED_FACE('',(#1097),#1090,.T.);
#1099=CARTESIAN_POINT('',(-4.335E1,2.E0,-5.235E1));
#1100=DIRECTION('',(1.E0,0.E0,0.E0));
#1101=DIRECTION('',(0.E0,0.E0,-1.E0));
#1102=AXIS2_PLACEMENT_3D('',#1099,#1100,#1101);
#1103=PLANE('',#1102);
#1104=ORIENTED_EDGE('',*,*,#836,.T.);
#1105=ORIENTED_EDGE('',*,*,#1094,.T.);
#1106=ORIENTED_EDGE('',*,*,#959,.T.);
#1107=ORIENTED_EDGE('',*,*,#865,.F.);
#1108=EDGE_LOOP('',(#1104,#1105,#1106,#1107));
#1109=FACE_OUTER_BOUND('',#1108,.F.);
#1110=ADVANCED_FACE('',(#1109),#1103,.T.);
#1111=CARTESIAN_POINT('',(4.335E1,2.E0,5.235E1));
#1112=DIRECTION('',(-1.E0,0.E0,0.E0));
#1113=DIRECTION('',(0.E0,0.E0,1.E0));
#1114=AXIS2_PLACEMENT_3D('',#1111,#1112,#1113);
#1115=PLANE('',#1114);
#1116=ORIENTED_EDGE('',*,*,#816,.T.);
#1118=ORIENTED_EDGE('',*,*,#1117,.T.);
#1119=ORIENTED_EDGE('',*,*,#904,.T.);
#1120=ORIENTED_EDGE('',*,*,#981,.F.);
#1121=EDGE_LOOP('',(#1116,#1118,#1119,#1120));
#1122=FACE_OUTER_BOUND('',#1121,.F.);
#1123=ADVANCED_FACE('',(#1122),#1115,.T.);
#1124=CARTESIAN_POINT('',(4.835E1,2.E0,5.235E1));
#1125=DIRECTION('',(0.E0,0.E0,-1.E0));
#1126=DIRECTION('',(-1.E0,0.E0,0.E0));
#1127=AXIS2_PLACEMENT_3D('',#1124,#1125,#1126);
#1128=PLANE('',#1127);
#1129=ORIENTED_EDGE('',*,*,#814,.F.);
#1131=ORIENTED_EDGE('',*,*,#1130,.T.);
#1132=ORIENTED_EDGE('',*,*,#906,.T.);
#1133=ORIENTED_EDGE('',*,*,#1117,.F.);
#1134=EDGE_LOOP('',(#1129,#1131,#1132,#1133));
#1135=FACE_OUTER_BOUND('',#1134,.F.);
#1136=ADVANCED_FACE('',(#1135),#1128,.T.);
#1137=CARTESIAN_POINT('',(4.835E1,2.E0,4.735E1));
#1138=DIRECTION('',(-1.E0,0.E0,0.E0));
#1139=DIRECTION('',(0.E0,0.E0,1.E0));
#1140=AXIS2_PLACEMENT_3D('',#1137,#1138,#1139);
#1141=PLANE('',#1140);
#1142=ORIENTED_EDGE('',*,*,#812,.F.);
#1144=ORIENTED_EDGE('',*,*,#1143,.T.);
#1145=ORIENTED_EDGE('',*,*,#908,.T.);
#1146=ORIENTED_EDGE('',*,*,#1130,.F.);
#1147=EDGE_LOOP('',(#1142,#1144,#1145,#1146));
#1148=FACE_OUTER_BOUND('',#1147,.F.);
#1149=ADVANCED_FACE('',(#1148),#1141,.T.);
#1150=CARTESIAN_POINT('',(5.135E1,2.E0,4.735E1));
#1151=DIRECTION('',(0.E0,0.E0,-1.E0));
#1152=DIRECTION('',(-1.E0,0.E0,0.E0));
#1153=AXIS2_PLACEMENT_3D('',#1150,#1151,#1152);
#1154=PLANE('',#1153);
#1155=ORIENTED_EDGE('',*,*,#810,.F.);
#1156=ORIENTED_EDGE('',*,*,#882,.T.);
#1157=ORIENTED_EDGE('',*,*,#910,.T.);
#1158=ORIENTED_EDGE('',*,*,#1143,.F.);
#1159=EDGE_LOOP('',(#1155,#1156,#1157,#1158));
#1160=FACE_OUTER_BOUND('',#1159,.F.);
#1161=ADVANCED_FACE('',(#1160),#1154,.T.);
#1162=CARTESIAN_POINT('',(4.835E1,2.E0,-4.735E1));
#1163=DIRECTION('',(0.E0,0.E0,1.E0));
#1164=DIRECTION('',(1.E0,0.E0,0.E0));
#1165=AXIS2_PLACEMENT_3D('',#1162,#1163,#1164);
#1166=PLANE('',#1165);
#1167=ORIENTED_EDGE('',*,*,#806,.T.);
#1169=ORIENTED_EDGE('',*,*,#1168,.T.);
#1170=ORIENTED_EDGE('',*,*,#922,.T.);
#1171=ORIENTED_EDGE('',*,*,#885,.F.);
#1172=EDGE_LOOP('',(#1167,#1169,#1170,#1171));
#1173=FACE_OUTER_BOUND('',#1172,.F.);
#1174=ADVANCED_FACE('',(#1173),#1166,.T.);
#1175=CARTESIAN_POINT('',(4.835E1,2.E0,-5.235E1));
#1176=DIRECTION('',(-1.E0,0.E0,0.E0));
#1177=DIRECTION('',(0.E0,0.E0,1.E0));
#1178=AXIS2_PLACEMENT_3D('',#1175,#1176,#1177);
#1179=PLANE('',#1178);
#1180=ORIENTED_EDGE('',*,*,#804,.F.);
#1182=ORIENTED_EDGE('',*,*,#1181,.T.);
#1183=ORIENTED_EDGE('',*,*,#924,.T.);
#1184=ORIENTED_EDGE('',*,*,#1168,.F.);
#1185=EDGE_LOOP('',(#1180,#1182,#1183,#1184));
#1186=FACE_OUTER_BOUND('',#1185,.F.);
#1187=ADVANCED_FACE('',(#1186),#1179,.T.);
#1188=CARTESIAN_POINT('',(4.335E1,2.E0,-5.235E1));
#1189=DIRECTION('',(0.E0,0.E0,1.E0));
#1190=DIRECTION('',(1.E0,0.E0,0.E0));
#1191=AXIS2_PLACEMENT_3D('',#1188,#1189,#1190);
#1192=PLANE('',#1191);
#1193=ORIENTED_EDGE('',*,*,#802,.F.);
#1195=ORIENTED_EDGE('',*,*,#1194,.T.);
#1196=ORIENTED_EDGE('',*,*,#926,.T.);
#1197=ORIENTED_EDGE('',*,*,#1181,.F.);
#1198=EDGE_LOOP('',(#1193,#1195,#1196,#1197));
#1199=FACE_OUTER_BOUND('',#1198,.F.);
#1200=ADVANCED_FACE('',(#1199),#1192,.T.);
#1201=CARTESIAN_POINT('',(4.335E1,2.E0,-5.535E1));
#1202=DIRECTION('',(-1.E0,0.E0,0.E0));
#1203=DIRECTION('',(0.E0,0.E0,1.E0));
#1204=AXIS2_PLACEMENT_3D('',#1201,#1202,#1203);
#1205=PLANE('',#1204);
#1206=ORIENTED_EDGE('',*,*,#800,.F.);
#1207=ORIENTED_EDGE('',*,*,#852,.T.);
#1208=ORIENTED_EDGE('',*,*,#928,.T.);
#1209=ORIENTED_EDGE('',*,*,#1194,.F.);
#1210=EDGE_LOOP('',(#1206,#1207,#1208,#1209));
#1211=FACE_OUTER_BOUND('',#1210,.F.);
#1212=ADVANCED_FACE('',(#1211),#1205,.T.);
#1216=DIMENSIONAL_EXPONENTS(0.E0,0.E0,0.E0,0.E0,0.E0,0.E0,0.E0);
#1218=PLANE_ANGLE_MEASURE_WITH_UNIT(PLANE_ANGLE_MEASURE(1.745329251994E-2),
#1217);
#1219=(CONVERSION_BASED_UNIT('DEGREE',#1218)NAMED_UNIT(*)PLANE_ANGLE_UNIT());
#1221=UNCERTAINTY_MEASURE_WITH_UNIT(LENGTH_MEASURE(1.E-3),#1215,'closure',
'Maximum model space distance between geometric entities at asserted connectivities');
#1222=(GEOMETRIC_REPRESENTATION_CONTEXT(3)GLOBAL_UNCERTAINTY_ASSIGNED_CONTEXT((
#1221))GLOBAL_UNIT_ASSIGNED_CONTEXT((#1215,#1219,#1220))REPRESENTATION_CONTEXT(
'ID1','3'));
#1224=APPLICATION_CONTEXT(
'CONFIGURATION CONTROLLED 3D DESIGNS OF MECHANICAL PARTS AND ASSEMBLIES');
#1225=APPLICATION_PROTOCOL_DEFINITION('international standard',
'config_control_design',1994,#1224);
#1226=DESIGN_CONTEXT('',#1224,'design');
#1227=MECHANICAL_CONTEXT('',#1224,'mechanical');
#1228=PRODUCT('CASE_BOTTOM','CASE_BOTTOM','NOT SPECIFIED',(#1227));
#1229=PRODUCT_DEFINITION_FORMATION_WITH_SPECIFIED_SOURCE('15','LAST_VERSION',
#1228,.MADE.);
#1233=PRODUCT_CATEGORY('part','');
#1234=PRODUCT_RELATED_PRODUCT_CATEGORY('detail','',(#1228));
#1235=PRODUCT_CATEGORY_RELATIONSHIP('','',#1233,#1234);
#1236=SECURITY_CLASSIFICATION_LEVEL('unclassified');
#1237=SECURITY_CLASSIFICATION('','',#1236);
#1238=CC_DESIGN_SECURITY_CLASSIFICATION(#1237,(#1229));
#1239=APPROVAL_STATUS('approved');
#1240=APPROVAL(#1239,'');
#1241=CC_DESIGN_APPROVAL(#1240,(#1237,#1229,#1230));
#1242=CALENDAR_DATE(126,29,8);
#1243=COORDINATED_UNIVERSAL_TIME_OFFSET(2,0,.AHEAD.);
#1244=LOCAL_TIME(18,58,3.7E1,#1243);
#1245=DATE_AND_TIME(#1242,#1244);
#1246=APPROVAL_DATE_TIME(#1245,#1240);
#1247=DATE_TIME_ROLE('creation_date');
#1248=CC_DESIGN_DATE_AND_TIME_ASSIGNMENT(#1245,#1247,(#1230));
#1249=DATE_TIME_ROLE('classification_date');
#1250=CC_DESIGN_DATE_AND_TIME_ASSIGNMENT(#1245,#1249,(#1237));
#1251=PERSON('UNSPECIFIED','UNSPECIFIED',$,$,$,$);
#1252=ORGANIZATION('UNSPECIFIED','UNSPECIFIED','UNSPECIFIED');
#1253=PERSON_AND_ORGANIZATION(#1251,#1252);
#1254=APPROVAL_ROLE('approver');
#1255=APPROVAL_PERSON_ORGANIZATION(#1253,#1240,#1254);
#1256=PERSON_AND_ORGANIZATION_ROLE('creator');
#1257=CC_DESIGN_PERSON_AND_ORGANIZATION_ASSIGNMENT(#1253,#1256,(#1229,#1230));
#1258=PERSON_AND_ORGANIZATION_ROLE('design_supplier');
#1259=CC_DESIGN_PERSON_AND_ORGANIZATION_ASSIGNMENT(#1253,#1258,(#1229));
#1260=PERSON_AND_ORGANIZATION_ROLE('classification_officer');
#1261=CC_DESIGN_PERSON_AND_ORGANIZATION_ASSIGNMENT(#1253,#1260,(#1237));
#1262=PERSON_AND_ORGANIZATION_ROLE('design_owner');
#1263=CC_DESIGN_PERSON_AND_ORGANIZATION_ASSIGNMENT(#1253,#1262,(#1228));
#5=CIRCLE('',#4,2.E0);
#14=CIRCLE('',#13,2.E0);
#23=CIRCLE('',#22,2.E0);
#32=CIRCLE('',#31,2.E0);
#85=CIRCLE('',#84,2.E0);
#94=CIRCLE('',#93,2.E0);
#103=CIRCLE('',#102,2.E0);
#112=CIRCLE('',#111,2.E0);
#590=EDGE_CURVE('',#539,#540,#5,.T.);
#592=EDGE_CURVE('',#539,#562,#9,.T.);
#594=EDGE_CURVE('',#564,#562,#14,.T.);
#596=EDGE_CURVE('',#564,#548,#18,.T.);
#598=EDGE_CURVE('',#547,#548,#23,.T.);
#600=EDGE_CURVE('',#547,#556,#27,.T.);
#602=EDGE_CURVE('',#555,#556,#32,.T.);
#604=EDGE_CURVE('',#555,#540,#36,.T.);
#615=EDGE_CURVE('',#542,#540,#40,.T.);
#617=EDGE_CURVE('',#542,#544,#94,.T.);
#619=EDGE_CURVE('',#544,#539,#144,.T.);
#631=EDGE_CURVE('',#560,#555,#44,.T.);
#633=EDGE_CURVE('',#560,#542,#98,.T.);
#644=EDGE_CURVE('',#558,#556,#52,.T.);
#646=EDGE_CURVE('',#558,#560,#103,.T.);
#657=EDGE_CURVE('',#552,#547,#48,.T.);
#659=EDGE_CURVE('',#552,#558,#107,.T.);
#672=EDGE_CURVE('',#550,#548,#68,.T.);
#674=EDGE_CURVE('',#550,#552,#112,.T.);
#685=EDGE_CURVE('',#571,#578,#56,.T.);
#687=EDGE_CURVE('',#580,#578,#60,.T.);
#689=EDGE_CURVE('',#575,#580,#64,.T.);
#691=EDGE_CURVE('',#575,#550,#116,.T.);
#695=EDGE_CURVE('',#568,#564,#72,.T.);
#697=EDGE_CURVE('',#568,#571,#80,.T.);
#707=EDGE_CURVE('',#571,#572,#76,.T.);
#709=EDGE_CURVE('',#582,#572,#244,.T.);
#711=EDGE_CURVE('',#582,#578,#160,.T.);
#724=EDGE_CURVE('',#566,#568,#85,.T.);
#726=EDGE_CURVE('',#544,#566,#89,.T.);
#734=EDGE_CURVE('',#575,#576,#120,.T.);
#736=EDGE_CURVE('',#576,#448,#124,.T.);
#738=EDGE_CURVE('',#448,#443,#128,.T.);
#740=EDGE_CURVE('',#443,#444,#132,.T.);
#742=EDGE_CURVE('',#444,#446,#136,.T.);
#744=EDGE_CURVE('',#446,#572,#140,.T.);
#755=EDGE_CURVE('',#566,#562,#148,.T.);
#781=EDGE_CURVE('',#580,#584,#156,.T.);
#783=EDGE_CURVE('',#584,#576,#260,.T.);
#793=EDGE_CURVE('',#584,#512,#152,.T.);
#798=EDGE_CURVE('',#457,#582,#164,.T.);
#800=EDGE_CURVE('',#457,#458,#168,.T.);
#802=EDGE_CURVE('',#458,#460,#172,.T.);
#804=EDGE_CURVE('',#460,#462,#176,.T.);
#806=EDGE_CURVE('',#464,#462,#180,.T.);
#808=EDGE_CURVE('',#476,#464,#184,.T.);
#810=EDGE_CURVE('',#476,#496,#188,.T.);
#812=EDGE_CURVE('',#496,#498,#192,.T.);
#814=EDGE_CURVE('',#498,#500,#196,.T.);
#816=EDGE_CURVE('',#502,#500,#200,.T.);
#818=EDGE_CURVE('',#515,#502,#204,.T.);
#820=EDGE_CURVE('',#515,#516,#208,.T.);
#822=EDGE_CURVE('',#516,#518,#212,.T.);
#824=EDGE_CURVE('',#518,#520,#216,.T.);
#826=EDGE_CURVE('',#522,#520,#220,.T.);
#828=EDGE_CURVE('',#505,#522,#224,.T.);
#830=EDGE_CURVE('',#505,#506,#228,.T.);
#832=EDGE_CURVE('',#506,#508,#232,.T.);
#834=EDGE_CURVE('',#508,#510,#236,.T.);
#836=EDGE_CURVE('',#512,#510,#240,.T.);
#848=EDGE_CURVE('',#446,#473,#248,.T.);
#850=EDGE_CURVE('',#473,#474,#252,.T.);
#852=EDGE_CURVE('',#457,#474,#256,.T.);
#865=EDGE_CURVE('',#512,#531,#264,.T.);
#867=EDGE_CURVE('',#531,#532,#268,.T.);
#869=EDGE_CURVE('',#448,#532,#404,.T.);
#880=EDGE_CURVE('',#467,#468,#272,.T.);
#882=EDGE_CURVE('',#476,#467,#276,.T.);
#885=EDGE_CURVE('',#464,#470,#280,.T.);
#887=EDGE_CURVE('',#470,#473,#284,.T.);
#891=EDGE_CURVE('',#444,#468,#288,.T.);
#902=EDGE_CURVE('',#528,#468,#368,.T.);
#904=EDGE_CURVE('',#482,#528,#292,.T.);
#906=EDGE_CURVE('',#480,#482,#296,.T.);
#908=EDGE_CURVE('',#479,#480,#300,.T.);
#910=EDGE_CURVE('',#467,#479,#304,.T.);
#922=EDGE_CURVE('',#454,#470,#308,.T.);
#924=EDGE_CURVE('',#452,#454,#312,.T.);
#926=EDGE_CURVE('',#451,#452,#316,.T.);
#928=EDGE_CURVE('',#474,#451,#320,.T.);
#938=EDGE_CURVE('',#525,#526,#356,.T.);
#940=EDGE_CURVE('',#536,#525,#400,.T.);
#942=EDGE_CURVE('',#494,#536,#324,.T.);
#944=EDGE_CURVE('',#492,#494,#328,.T.);
#946=EDGE_CURVE('',#491,#492,#332,.T.);
#948=EDGE_CURVE('',#526,#491,#336,.T.);
#959=EDGE_CURVE('',#488,#531,#340,.T.);
#961=EDGE_CURVE('',#486,#488,#344,.T.);
#963=EDGE_CURVE('',#485,#486,#348,.T.);
#965=EDGE_CURVE('',#534,#485,#352,.T.);
#967=EDGE_CURVE('',#532,#534,#388,.T.);
#978=EDGE_CURVE('',#515,#526,#360,.T.);
#981=EDGE_CURVE('',#502,#528,#364,.T.);
#986=EDGE_CURVE('',#443,#525,#372,.T.);
#999=EDGE_CURVE('',#516,#491,#376,.T.);
#1012=EDGE_CURVE('',#518,#492,#380,.T.);
#1025=EDGE_CURVE('',#520,#494,#384,.T.);
#1038=EDGE_CURVE('',#522,#536,#396,.T.);
#1049=EDGE_CURVE('',#505,#534,#392,.T.);
#1068=EDGE_CURVE('',#506,#485,#408,.T.);
#1081=EDGE_CURVE('',#508,#486,#412,.T.);
#1094=EDGE_CURVE('',#510,#488,#416,.T.);
#1117=EDGE_CURVE('',#500,#482,#420,.T.);
#1130=EDGE_CURVE('',#498,#480,#424,.T.);
#1143=EDGE_CURVE('',#496,#479,#428,.T.);
#1168=EDGE_CURVE('',#462,#454,#432,.T.);
#1181=EDGE_CURVE('',#460,#452,#436,.T.);
#1194=EDGE_CURVE('',#458,#451,#440,.T.);
#1213=CLOSED_SHELL('',(#608,#623,#637,#651,#665,#679,#701,#716,#748,#761,#773,
#787,#840,#857,#874,#895,#914,#932,#952,#971,#990,#1003,#1016,#1029,#1042,#1059,
#1072,#1085,#1098,#1110,#1123,#1136,#1149,#1161,#1174,#1187,#1200,#1212));
#1214=MANIFOLD_SOLID_BREP('',#1213);
#1215=(LENGTH_UNIT()NAMED_UNIT(*)SI_UNIT(.MILLI.,.METRE.));
#1217=(NAMED_UNIT(*)PLANE_ANGLE_UNIT()SI_UNIT($,.RADIAN.));
#1220=(NAMED_UNIT(*)SI_UNIT($,.STERADIAN.)SOLID_ANGLE_UNIT());
#1223=ADVANCED_BREP_SHAPE_REPRESENTATION('',(#1214),#1222);
#1230=PRODUCT_DEFINITION('design','',#1229,#1226);
#1231=PRODUCT_DEFINITION_SHAPE('','SHAPE FOR CASE_BOTTOM.',#1230);
#1232=SHAPE_DEFINITION_REPRESENTATION(#1231,#1223);
ENDSEC;
END-ISO-10303-21;
