ISO-10303-21;
HEADER;
FILE_DESCRIPTION((''),'2;1');
FILE_NAME('CASE_TOP','2026-08-30T02:04:03',('Julian'),(''),
'CREO PARAMETRIC BY PTC INC, 2025102','CREO PARAMETRIC BY PTC INC, 2025102','');
FILE_SCHEMA(('CONFIG_CONTROL_DESIGN'));
ENDSEC;
DATA;
#1=DIRECTION('',(1.E0,0.E0,0.E0));
#2=VECTOR('',#1,9.55E1);
#3=CARTESIAN_POINT('',(-4.765E1,0.E0,5.425E1));
#4=LINE('',#3,#2);
#5=DIRECTION('',(0.E0,0.E0,1.E0));
#6=VECTOR('',#5,7.67E1);
#7=CARTESIAN_POINT('',(-4.765E1,0.E0,-2.245E1));
#8=LINE('',#7,#6);
#9=DIRECTION('',(-1.E0,0.E0,0.E0));
#10=VECTOR('',#9,9.55E1);
#11=CARTESIAN_POINT('',(4.785E1,0.E0,-2.245E1));
#12=LINE('',#11,#10);
#13=DIRECTION('',(0.E0,0.E0,-1.E0));
#14=VECTOR('',#13,7.67E1);
#15=CARTESIAN_POINT('',(4.785E1,0.E0,5.425E1));
#16=LINE('',#15,#14);
#17=CARTESIAN_POINT('',(5.155E1,0.E0,-5.555E1));
#18=DIRECTION('',(0.E0,-1.E0,0.E0));
#19=DIRECTION('',(0.E0,0.E0,-1.E0));
#20=AXIS2_PLACEMENT_3D('',#17,#18,#19);
#22=DIRECTION('',(-1.E0,0.E0,0.E0));
#23=VECTOR('',#22,1.031E2);
#24=CARTESIAN_POINT('',(5.155E1,0.E0,-5.955E1));
#25=LINE('',#24,#23);
#26=CARTESIAN_POINT('',(-5.155E1,0.E0,-5.555E1));
#27=DIRECTION('',(0.E0,-1.E0,0.E0));
#28=DIRECTION('',(-1.E0,0.E0,0.E0));
#29=AXIS2_PLACEMENT_3D('',#26,#27,#28);
#31=DIRECTION('',(0.E0,0.E0,1.E0));
#32=VECTOR('',#31,1.111E2);
#33=CARTESIAN_POINT('',(-5.555E1,0.E0,-5.555E1));
#34=LINE('',#33,#32);
#35=CARTESIAN_POINT('',(-5.155E1,0.E0,5.555E1));
#36=DIRECTION('',(0.E0,-1.E0,0.E0));
#37=DIRECTION('',(0.E0,0.E0,1.E0));
#38=AXIS2_PLACEMENT_3D('',#35,#36,#37);
#40=DIRECTION('',(1.E0,0.E0,0.E0));
#41=VECTOR('',#40,1.031E2);
#42=CARTESIAN_POINT('',(-5.155E1,0.E0,5.955E1));
#43=LINE('',#42,#41);
#44=CARTESIAN_POINT('',(5.155E1,0.E0,5.555E1));
#45=DIRECTION('',(0.E0,-1.E0,0.E0));
#46=DIRECTION('',(1.E0,0.E0,0.E0));
#47=AXIS2_PLACEMENT_3D('',#44,#45,#46);
#49=DIRECTION('',(0.E0,0.E0,-1.E0));
#50=VECTOR('',#49,1.111E2);
#51=CARTESIAN_POINT('',(5.555E1,0.E0,5.555E1));
#52=LINE('',#51,#50);
#53=DIRECTION('',(0.E0,-1.E0,0.E0));
#54=VECTOR('',#53,3.E0);
#55=CARTESIAN_POINT('',(-4.765E1,3.E0,5.425E1));
#56=LINE('',#55,#54);
#57=DIRECTION('',(0.E0,-1.E0,0.E0));
#58=VECTOR('',#57,3.E0);
#59=CARTESIAN_POINT('',(4.785E1,3.E0,5.425E1));
#60=LINE('',#59,#58);
#61=DIRECTION('',(0.E0,-1.E0,0.E0));
#62=VECTOR('',#61,3.E0);
#63=CARTESIAN_POINT('',(4.785E1,3.E0,-2.245E1));
#64=LINE('',#63,#62);
#65=DIRECTION('',(0.E0,-1.E0,0.E0));
#66=VECTOR('',#65,3.E0);
#67=CARTESIAN_POINT('',(-4.765E1,3.E0,-2.245E1));
#68=LINE('',#67,#66);
#69=DIRECTION('',(1.E0,0.E0,0.E0));
#70=VECTOR('',#69,9.55E1);
#71=CARTESIAN_POINT('',(-4.765E1,3.E0,5.425E1));
#72=LINE('',#71,#70);
#73=DIRECTION('',(0.E0,0.E0,-1.E0));
#74=VECTOR('',#73,7.67E1);
#75=CARTESIAN_POINT('',(4.785E1,3.E0,5.425E1));
#76=LINE('',#75,#74);
#77=DIRECTION('',(-1.E0,0.E0,0.E0));
#78=VECTOR('',#77,9.55E1);
#79=CARTESIAN_POINT('',(4.785E1,3.E0,-2.245E1));
#80=LINE('',#79,#78);
#81=DIRECTION('',(0.E0,0.E0,1.E0));
#82=VECTOR('',#81,7.67E1);
#83=CARTESIAN_POINT('',(-4.765E1,3.E0,-2.245E1));
#84=LINE('',#83,#82);
#85=CARTESIAN_POINT('',(5.155E1,3.E0,5.555E1));
#86=DIRECTION('',(0.E0,1.E0,0.E0));
#87=DIRECTION('',(0.E0,0.E0,1.E0));
#88=AXIS2_PLACEMENT_3D('',#85,#86,#87);
#90=DIRECTION('',(1.E0,0.E0,0.E0));
#91=VECTOR('',#90,1.031E2);
#92=CARTESIAN_POINT('',(-5.155E1,3.E0,5.755E1));
#93=LINE('',#92,#91);
#94=CARTESIAN_POINT('',(-5.155E1,3.E0,5.555E1));
#95=DIRECTION('',(0.E0,1.E0,0.E0));
#96=DIRECTION('',(-1.E0,0.E0,0.E0));
#97=AXIS2_PLACEMENT_3D('',#94,#95,#96);
#99=DIRECTION('',(0.E0,0.E0,1.E0));
#100=VECTOR('',#99,1.111E2);
#101=CARTESIAN_POINT('',(-5.355E1,3.E0,-5.555E1));
#102=LINE('',#101,#100);
#103=CARTESIAN_POINT('',(-5.155E1,3.E0,-5.555E1));
#104=DIRECTION('',(0.E0,1.E0,0.E0));
#105=DIRECTION('',(0.E0,0.E0,-1.E0));
#106=AXIS2_PLACEMENT_3D('',#103,#104,#105);
#108=DIRECTION('',(-1.E0,0.E0,0.E0));
#109=VECTOR('',#108,1.031E2);
#110=CARTESIAN_POINT('',(5.155E1,3.E0,-5.755E1));
#111=LINE('',#110,#109);
#112=CARTESIAN_POINT('',(5.155E1,3.E0,-5.555E1));
#113=DIRECTION('',(0.E0,1.E0,0.E0));
#114=DIRECTION('',(1.E0,0.E0,0.E0));
#115=AXIS2_PLACEMENT_3D('',#112,#113,#114);
#117=DIRECTION('',(0.E0,0.E0,-1.E0));
#118=VECTOR('',#117,1.111E2);
#119=CARTESIAN_POINT('',(5.355E1,3.E0,5.555E1));
#120=LINE('',#119,#118);
#121=CARTESIAN_POINT('',(5.155E1,2.E1,5.555E1));
#122=DIRECTION('',(0.E0,-1.E0,0.E0));
#123=DIRECTION('',(1.E0,0.E0,0.E0));
#124=AXIS2_PLACEMENT_3D('',#121,#122,#123);
#126=DIRECTION('',(0.E0,-1.E0,0.E0));
#127=VECTOR('',#126,1.7E1);
#128=CARTESIAN_POINT('',(5.355E1,2.E1,5.555E1));
#129=LINE('',#128,#127);
#130=DIRECTION('',(0.E0,-1.E0,0.E0));
#131=VECTOR('',#130,1.7E1);
#132=CARTESIAN_POINT('',(5.355E1,2.E1,-5.555E1));
#133=LINE('',#132,#131);
#134=CARTESIAN_POINT('',(5.155E1,2.E1,-5.555E1));
#135=DIRECTION('',(0.E0,-1.E0,0.E0));
#136=DIRECTION('',(0.E0,0.E0,-1.E0));
#137=AXIS2_PLACEMENT_3D('',#134,#135,#136);
#139=DIRECTION('',(0.E0,-1.E0,0.E0));
#140=VECTOR('',#139,1.7E1);
#141=CARTESIAN_POINT('',(5.155E1,2.E1,-5.755E1));
#142=LINE('',#141,#140);
#143=DIRECTION('',(0.E0,-1.E0,0.E0));
#144=VECTOR('',#143,1.7E1);
#145=CARTESIAN_POINT('',(-5.155E1,2.E1,-5.755E1));
#146=LINE('',#145,#144);
#147=DIRECTION('',(1.E0,0.E0,0.E0));
#148=VECTOR('',#147,9.E0);
#149=CARTESIAN_POINT('',(-1.68E1,1.825E1,-5.755E1));
#150=LINE('',#149,#148);
#151=CARTESIAN_POINT('',(-1.68E1,1.575E1,-5.755E1));
#152=DIRECTION('',(0.E0,0.E0,-1.E0));
#153=DIRECTION('',(-1.E0,0.E0,0.E0));
#154=AXIS2_PLACEMENT_3D('',#151,#152,#153);
#156=DIRECTION('',(0.E0,1.E0,0.E0));
#157=VECTOR('',#156,2.E0);
#158=CARTESIAN_POINT('',(-1.93E1,1.375E1,-5.755E1));
#159=LINE('',#158,#157);
#160=CARTESIAN_POINT('',(-1.68E1,1.375E1,-5.755E1));
#161=DIRECTION('',(0.E0,0.E0,-1.E0));
#162=DIRECTION('',(0.E0,-1.E0,0.E0));
#163=AXIS2_PLACEMENT_3D('',#160,#161,#162);
#165=DIRECTION('',(-1.E0,0.E0,0.E0));
#166=VECTOR('',#165,9.E0);
#167=CARTESIAN_POINT('',(-7.8E0,1.125E1,-5.755E1));
#168=LINE('',#167,#166);
#169=CARTESIAN_POINT('',(-7.8E0,1.375E1,-5.755E1));
#170=DIRECTION('',(0.E0,0.E0,-1.E0));
#171=DIRECTION('',(1.E0,0.E0,0.E0));
#172=AXIS2_PLACEMENT_3D('',#169,#170,#171);
#174=DIRECTION('',(0.E0,-1.E0,0.E0));
#175=VECTOR('',#174,2.E0);
#176=CARTESIAN_POINT('',(-5.3E0,1.575E1,-5.755E1));
#177=LINE('',#176,#175);
#178=CARTESIAN_POINT('',(-7.8E0,1.575E1,-5.755E1));
#179=DIRECTION('',(0.E0,0.E0,-1.E0));
#180=DIRECTION('',(0.E0,1.E0,0.E0));
#181=AXIS2_PLACEMENT_3D('',#178,#179,#180);
#183=CARTESIAN_POINT('',(-5.155E1,2.E1,-5.555E1));
#184=DIRECTION('',(0.E0,-1.E0,0.E0));
#185=DIRECTION('',(-1.E0,0.E0,0.E0));
#186=AXIS2_PLACEMENT_3D('',#183,#184,#185);
#188=DIRECTION('',(0.E0,-1.E0,0.E0));
#189=VECTOR('',#188,1.7E1);
#190=CARTESIAN_POINT('',(-5.355E1,2.E1,5.555E1));
#191=LINE('',#190,#189);
#192=DIRECTION('',(0.E0,-1.E0,0.E0));
#193=VECTOR('',#192,1.7E1);
#194=CARTESIAN_POINT('',(-5.355E1,2.E1,-5.555E1));
#195=LINE('',#194,#193);
#196=CARTESIAN_POINT('',(-5.155E1,2.E1,5.555E1));
#197=DIRECTION('',(0.E0,-1.E0,0.E0));
#198=DIRECTION('',(0.E0,0.E0,1.E0));
#199=AXIS2_PLACEMENT_3D('',#196,#197,#198);
#201=DIRECTION('',(0.E0,-1.E0,0.E0));
#202=VECTOR('',#201,1.7E1);
#203=CARTESIAN_POINT('',(5.155E1,2.E1,5.755E1));
#204=LINE('',#203,#202);
#205=DIRECTION('',(0.E0,-1.E0,0.E0));
#206=VECTOR('',#205,1.7E1);
#207=CARTESIAN_POINT('',(-5.155E1,2.E1,5.755E1));
#208=LINE('',#207,#206);
#209=CARTESIAN_POINT('',(5.155E1,2.E1,-5.555E1));
#210=DIRECTION('',(0.E0,1.E0,0.E0));
#211=DIRECTION('',(1.E0,0.E0,0.E0));
#212=AXIS2_PLACEMENT_3D('',#209,#210,#211);
#214=DIRECTION('',(0.E0,0.E0,-1.E0));
#215=VECTOR('',#214,1.111E2);
#216=CARTESIAN_POINT('',(5.555E1,2.E1,5.555E1));
#217=LINE('',#216,#215);
#218=CARTESIAN_POINT('',(5.155E1,2.E1,5.555E1));
#219=DIRECTION('',(0.E0,1.E0,0.E0));
#220=DIRECTION('',(0.E0,0.E0,1.E0));
#221=AXIS2_PLACEMENT_3D('',#218,#219,#220);
#223=DIRECTION('',(1.E0,0.E0,0.E0));
#224=VECTOR('',#223,1.031E2);
#225=CARTESIAN_POINT('',(-5.155E1,2.E1,5.955E1));
#226=LINE('',#225,#224);
#227=CARTESIAN_POINT('',(-5.155E1,2.E1,5.555E1));
#228=DIRECTION('',(0.E0,1.E0,0.E0));
#229=DIRECTION('',(-1.E0,0.E0,0.E0));
#230=AXIS2_PLACEMENT_3D('',#227,#228,#229);
#232=DIRECTION('',(0.E0,0.E0,1.E0));
#233=VECTOR('',#232,1.111E2);
#234=CARTESIAN_POINT('',(-5.555E1,2.E1,-5.555E1));
#235=LINE('',#234,#233);
#236=CARTESIAN_POINT('',(-5.155E1,2.E1,-5.555E1));
#237=DIRECTION('',(0.E0,1.E0,0.E0));
#238=DIRECTION('',(0.E0,0.E0,-1.E0));
#239=AXIS2_PLACEMENT_3D('',#236,#237,#238);
#241=DIRECTION('',(-1.E0,0.E0,0.E0));
#242=VECTOR('',#241,1.031E2);
#243=CARTESIAN_POINT('',(5.155E1,2.E1,-5.955E1));
#244=LINE('',#243,#242);
#245=DIRECTION('',(0.E0,0.E0,-1.E0));
#246=VECTOR('',#245,1.111E2);
#247=CARTESIAN_POINT('',(5.355E1,2.E1,5.555E1));
#248=LINE('',#247,#246);
#249=DIRECTION('',(-1.E0,0.E0,0.E0));
#250=VECTOR('',#249,1.031E2);
#251=CARTESIAN_POINT('',(5.155E1,2.E1,-5.755E1));
#252=LINE('',#251,#250);
#253=DIRECTION('',(0.E0,0.E0,1.E0));
#254=VECTOR('',#253,1.111E2);
#255=CARTESIAN_POINT('',(-5.355E1,2.E1,-5.555E1));
#256=LINE('',#255,#254);
#257=DIRECTION('',(1.E0,0.E0,0.E0));
#258=VECTOR('',#257,1.031E2);
#259=CARTESIAN_POINT('',(-5.155E1,2.E1,5.755E1));
#260=LINE('',#259,#258);
#261=DIRECTION('',(0.E0,-1.E0,0.E0));
#262=VECTOR('',#261,2.E1);
#263=CARTESIAN_POINT('',(5.555E1,2.E1,-5.555E1));
#264=LINE('',#263,#262);
#265=DIRECTION('',(0.E0,-1.E0,0.E0));
#266=VECTOR('',#265,2.E1);
#267=CARTESIAN_POINT('',(5.555E1,2.E1,5.555E1));
#268=LINE('',#267,#266);
#269=DIRECTION('',(0.E0,-1.E0,0.E0));
#270=VECTOR('',#269,2.E1);
#271=CARTESIAN_POINT('',(-5.155E1,2.E1,5.955E1));
#272=LINE('',#271,#270);
#273=DIRECTION('',(0.E0,-1.E0,0.E0));
#274=VECTOR('',#273,2.E1);
#275=CARTESIAN_POINT('',(5.155E1,2.E1,5.955E1));
#276=LINE('',#275,#274);
#277=DIRECTION('',(0.E0,-1.E0,0.E0));
#278=VECTOR('',#277,2.E1);
#279=CARTESIAN_POINT('',(-5.555E1,2.E1,-5.555E1));
#280=LINE('',#279,#278);
#281=DIRECTION('',(0.E0,-1.E0,0.E0));
#282=VECTOR('',#281,2.E1);
#283=CARTESIAN_POINT('',(-5.555E1,2.E1,5.555E1));
#284=LINE('',#283,#282);
#285=DIRECTION('',(0.E0,-1.E0,0.E0));
#286=VECTOR('',#285,2.E1);
#287=CARTESIAN_POINT('',(5.155E1,2.E1,-5.955E1));
#288=LINE('',#287,#286);
#289=DIRECTION('',(0.E0,-1.E0,0.E0));
#290=VECTOR('',#289,2.E1);
#291=CARTESIAN_POINT('',(-5.155E1,2.E1,-5.955E1));
#292=LINE('',#291,#290);
#293=DIRECTION('',(1.E0,0.E0,0.E0));
#294=VECTOR('',#293,9.E0);
#295=CARTESIAN_POINT('',(-1.68E1,1.825E1,-5.955E1));
#296=LINE('',#295,#294);
#297=CARTESIAN_POINT('',(-7.8E0,1.575E1,-5.955E1));
#298=DIRECTION('',(0.E0,0.E0,-1.E0));
#299=DIRECTION('',(0.E0,1.E0,0.E0));
#300=AXIS2_PLACEMENT_3D('',#297,#298,#299);
#302=DIRECTION('',(0.E0,-1.E0,0.E0));
#303=VECTOR('',#302,2.E0);
#304=CARTESIAN_POINT('',(-5.3E0,1.575E1,-5.955E1));
#305=LINE('',#304,#303);
#306=CARTESIAN_POINT('',(-7.8E0,1.375E1,-5.955E1));
#307=DIRECTION('',(0.E0,0.E0,-1.E0));
#308=DIRECTION('',(1.E0,0.E0,0.E0));
#309=AXIS2_PLACEMENT_3D('',#306,#307,#308);
#311=DIRECTION('',(-1.E0,0.E0,0.E0));
#312=VECTOR('',#311,9.E0);
#313=CARTESIAN_POINT('',(-7.8E0,1.125E1,-5.955E1));
#314=LINE('',#313,#312);
#315=CARTESIAN_POINT('',(-1.68E1,1.375E1,-5.955E1));
#316=DIRECTION('',(0.E0,0.E0,-1.E0));
#317=DIRECTION('',(0.E0,-1.E0,0.E0));
#318=AXIS2_PLACEMENT_3D('',#315,#316,#317);
#320=DIRECTION('',(0.E0,1.E0,0.E0));
#321=VECTOR('',#320,2.E0);
#322=CARTESIAN_POINT('',(-1.93E1,1.375E1,-5.955E1));
#323=LINE('',#322,#321);
#324=CARTESIAN_POINT('',(-1.68E1,1.575E1,-5.955E1));
#325=DIRECTION('',(0.E0,0.E0,-1.E0));
#326=DIRECTION('',(-1.E0,0.E0,0.E0));
#327=AXIS2_PLACEMENT_3D('',#324,#325,#326);
#329=DIRECTION('',(0.E0,0.E0,1.E0));
#330=VECTOR('',#329,2.E0);
#331=CARTESIAN_POINT('',(-1.68E1,1.825E1,-5.955E1));
#332=LINE('',#331,#330);
#333=DIRECTION('',(0.E0,0.E0,1.E0));
#334=VECTOR('',#333,2.E0);
#335=CARTESIAN_POINT('',(-1.93E1,1.575E1,-5.955E1));
#336=LINE('',#335,#334);
#337=DIRECTION('',(0.E0,0.E0,1.E0));
#338=VECTOR('',#337,2.E0);
#339=CARTESIAN_POINT('',(-1.93E1,1.375E1,-5.955E1));
#340=LINE('',#339,#338);
#341=DIRECTION('',(0.E0,0.E0,1.E0));
#342=VECTOR('',#341,2.E0);
#343=CARTESIAN_POINT('',(-1.68E1,1.125E1,-5.955E1));
#344=LINE('',#343,#342);
#345=DIRECTION('',(0.E0,0.E0,1.E0));
#346=VECTOR('',#345,2.E0);
#347=CARTESIAN_POINT('',(-7.8E0,1.125E1,-5.955E1));
#348=LINE('',#347,#346);
#349=DIRECTION('',(0.E0,0.E0,1.E0));
#350=VECTOR('',#349,2.E0);
#351=CARTESIAN_POINT('',(-5.3E0,1.375E1,-5.955E1));
#352=LINE('',#351,#350);
#353=DIRECTION('',(0.E0,0.E0,1.E0));
#354=VECTOR('',#353,2.E0);
#355=CARTESIAN_POINT('',(-5.3E0,1.575E1,-5.955E1));
#356=LINE('',#355,#354);
#357=DIRECTION('',(0.E0,0.E0,1.E0));
#358=VECTOR('',#357,2.E0);
#359=CARTESIAN_POINT('',(-7.8E0,1.825E1,-5.955E1));
#360=LINE('',#359,#358);
#361=CARTESIAN_POINT('',(-4.765E1,0.E0,5.425E1));
#362=CARTESIAN_POINT('',(4.785E1,0.E0,5.425E1));
#363=VERTEX_POINT('',#361);
#364=VERTEX_POINT('',#362);
#365=CARTESIAN_POINT('',(4.785E1,0.E0,-2.245E1));
#366=VERTEX_POINT('',#365);
#367=CARTESIAN_POINT('',(-4.765E1,0.E0,-2.245E1));
#368=VERTEX_POINT('',#367);
#369=CARTESIAN_POINT('',(-4.765E1,3.E0,5.425E1));
#370=CARTESIAN_POINT('',(4.785E1,3.E0,5.425E1));
#371=VERTEX_POINT('',#369);
#372=VERTEX_POINT('',#370);
#373=CARTESIAN_POINT('',(4.785E1,3.E0,-2.245E1));
#374=VERTEX_POINT('',#373);
#375=CARTESIAN_POINT('',(-4.765E1,3.E0,-2.245E1));
#376=VERTEX_POINT('',#375);
#377=CARTESIAN_POINT('',(5.155E1,0.E0,-5.955E1));
#378=CARTESIAN_POINT('',(5.555E1,0.E0,-5.555E1));
#379=VERTEX_POINT('',#377);
#380=VERTEX_POINT('',#378);
#381=CARTESIAN_POINT('',(5.555E1,2.E1,-5.555E1));
#382=VERTEX_POINT('',#381);
#383=CARTESIAN_POINT('',(5.155E1,2.E1,-5.955E1));
#384=VERTEX_POINT('',#383);
#385=CARTESIAN_POINT('',(-5.555E1,0.E0,-5.555E1));
#386=CARTESIAN_POINT('',(-5.155E1,0.E0,-5.955E1));
#387=VERTEX_POINT('',#385);
#388=VERTEX_POINT('',#386);
#389=CARTESIAN_POINT('',(-5.155E1,2.E1,-5.955E1));
#390=VERTEX_POINT('',#389);
#391=CARTESIAN_POINT('',(-5.555E1,2.E1,-5.555E1));
#392=VERTEX_POINT('',#391);
#393=CARTESIAN_POINT('',(-5.155E1,0.E0,5.955E1));
#394=CARTESIAN_POINT('',(-5.555E1,0.E0,5.555E1));
#395=VERTEX_POINT('',#393);
#396=VERTEX_POINT('',#394);
#397=CARTESIAN_POINT('',(-5.555E1,2.E1,5.555E1));
#398=VERTEX_POINT('',#397);
#399=CARTESIAN_POINT('',(-5.155E1,2.E1,5.955E1));
#400=VERTEX_POINT('',#399);
#401=CARTESIAN_POINT('',(5.555E1,0.E0,5.555E1));
#402=CARTESIAN_POINT('',(5.155E1,0.E0,5.955E1));
#403=VERTEX_POINT('',#401);
#404=VERTEX_POINT('',#402);
#405=CARTESIAN_POINT('',(5.155E1,2.E1,5.955E1));
#406=VERTEX_POINT('',#405);
#407=CARTESIAN_POINT('',(5.555E1,2.E1,5.555E1));
#408=VERTEX_POINT('',#407);
#409=CARTESIAN_POINT('',(5.155E1,3.E0,5.755E1));
#410=CARTESIAN_POINT('',(5.355E1,3.E0,5.555E1));
#411=VERTEX_POINT('',#409);
#412=VERTEX_POINT('',#410);
#413=CARTESIAN_POINT('',(5.355E1,2.E1,5.555E1));
#414=VERTEX_POINT('',#413);
#415=CARTESIAN_POINT('',(5.155E1,2.E1,5.755E1));
#416=VERTEX_POINT('',#415);
#417=CARTESIAN_POINT('',(5.355E1,3.E0,-5.555E1));
#418=CARTESIAN_POINT('',(5.155E1,3.E0,-5.755E1));
#419=VERTEX_POINT('',#417);
#420=VERTEX_POINT('',#418);
#421=CARTESIAN_POINT('',(5.155E1,2.E1,-5.755E1));
#422=VERTEX_POINT('',#421);
#423=CARTESIAN_POINT('',(5.355E1,2.E1,-5.555E1));
#424=VERTEX_POINT('',#423);
#425=CARTESIAN_POINT('',(-5.355E1,3.E0,5.555E1));
#426=CARTESIAN_POINT('',(-5.155E1,3.E0,5.755E1));
#427=VERTEX_POINT('',#425);
#428=VERTEX_POINT('',#426);
#429=CARTESIAN_POINT('',(-5.155E1,2.E1,5.755E1));
#430=VERTEX_POINT('',#429);
#431=CARTESIAN_POINT('',(-5.355E1,2.E1,5.555E1));
#432=VERTEX_POINT('',#431);
#433=CARTESIAN_POINT('',(-5.155E1,3.E0,-5.755E1));
#434=CARTESIAN_POINT('',(-5.355E1,3.E0,-5.555E1));
#435=VERTEX_POINT('',#433);
#436=VERTEX_POINT('',#434);
#437=CARTESIAN_POINT('',(-5.355E1,2.E1,-5.555E1));
#438=VERTEX_POINT('',#437);
#439=CARTESIAN_POINT('',(-5.155E1,2.E1,-5.755E1));
#440=VERTEX_POINT('',#439);
#441=CARTESIAN_POINT('',(-1.68E1,1.825E1,-5.955E1));
#442=CARTESIAN_POINT('',(-7.8E0,1.825E1,-5.955E1));
#443=VERTEX_POINT('',#441);
#444=VERTEX_POINT('',#442);
#445=CARTESIAN_POINT('',(-5.3E0,1.575E1,-5.955E1));
#446=CARTESIAN_POINT('',(-5.3E0,1.375E1,-5.955E1));
#447=VERTEX_POINT('',#445);
#448=VERTEX_POINT('',#446);
#449=CARTESIAN_POINT('',(-7.8E0,1.125E1,-5.955E1));
#450=CARTESIAN_POINT('',(-1.68E1,1.125E1,-5.955E1));
#451=VERTEX_POINT('',#449);
#452=VERTEX_POINT('',#450);
#453=CARTESIAN_POINT('',(-1.93E1,1.375E1,-5.955E1));
#454=CARTESIAN_POINT('',(-1.93E1,1.575E1,-5.955E1));
#455=VERTEX_POINT('',#453);
#456=VERTEX_POINT('',#454);
#457=CARTESIAN_POINT('',(-1.68E1,1.825E1,-5.755E1));
#458=CARTESIAN_POINT('',(-7.8E0,1.825E1,-5.755E1));
#459=VERTEX_POINT('',#457);
#460=VERTEX_POINT('',#458);
#461=CARTESIAN_POINT('',(-5.3E0,1.575E1,-5.755E1));
#462=CARTESIAN_POINT('',(-5.3E0,1.375E1,-5.755E1));
#463=VERTEX_POINT('',#461);
#464=VERTEX_POINT('',#462);
#465=CARTESIAN_POINT('',(-7.8E0,1.125E1,-5.755E1));
#466=CARTESIAN_POINT('',(-1.68E1,1.125E1,-5.755E1));
#467=VERTEX_POINT('',#465);
#468=VERTEX_POINT('',#466);
#469=CARTESIAN_POINT('',(-1.93E1,1.375E1,-5.755E1));
#470=CARTESIAN_POINT('',(-1.93E1,1.575E1,-5.755E1));
#471=VERTEX_POINT('',#469);
#472=VERTEX_POINT('',#470);
#473=CARTESIAN_POINT('',(0.E0,0.E0,0.E0));
#474=DIRECTION('',(0.E0,1.E0,0.E0));
#475=DIRECTION('',(1.E0,0.E0,0.E0));
#476=AXIS2_PLACEMENT_3D('',#473,#474,#475);
#477=PLANE('',#476);
#479=ORIENTED_EDGE('',*,*,#478,.F.);
#481=ORIENTED_EDGE('',*,*,#480,.T.);
#483=ORIENTED_EDGE('',*,*,#482,.F.);
#485=ORIENTED_EDGE('',*,*,#484,.T.);
#487=ORIENTED_EDGE('',*,*,#486,.F.);
#489=ORIENTED_EDGE('',*,*,#488,.T.);
#491=ORIENTED_EDGE('',*,*,#490,.F.);
#493=ORIENTED_EDGE('',*,*,#492,.T.);
#494=EDGE_LOOP('',(#479,#481,#483,#485,#487,#489,#491,#493));
#495=FACE_OUTER_BOUND('',#494,.F.);
#497=ORIENTED_EDGE('',*,*,#496,.F.);
#499=ORIENTED_EDGE('',*,*,#498,.F.);
#501=ORIENTED_EDGE('',*,*,#500,.F.);
#503=ORIENTED_EDGE('',*,*,#502,.F.);
#504=EDGE_LOOP('',(#497,#499,#501,#503));
#505=FACE_BOUND('',#504,.F.);
#506=ADVANCED_FACE('',(#495,#505),#477,.F.);
#507=CARTESIAN_POINT('',(-4.765E1,3.E0,5.425E1));
#508=DIRECTION('',(0.E0,0.E0,1.E0));
#509=DIRECTION('',(1.E0,0.E0,0.E0));
#510=AXIS2_PLACEMENT_3D('',#507,#508,#509);
#511=PLANE('',#510);
#512=ORIENTED_EDGE('',*,*,#496,.T.);
#514=ORIENTED_EDGE('',*,*,#513,.F.);
#516=ORIENTED_EDGE('',*,*,#515,.F.);
#518=ORIENTED_EDGE('',*,*,#517,.T.);
#519=EDGE_LOOP('',(#512,#514,#516,#518));
#520=FACE_OUTER_BOUND('',#519,.F.);
#521=ADVANCED_FACE('',(#520),#511,.F.);
#522=CARTESIAN_POINT('',(4.785E1,3.E0,5.425E1));
#523=DIRECTION('',(1.E0,0.E0,0.E0));
#524=DIRECTION('',(0.E0,0.E0,-1.E0));
#525=AXIS2_PLACEMENT_3D('',#522,#523,#524);
#526=PLANE('',#525);
#527=ORIENTED_EDGE('',*,*,#502,.T.);
#529=ORIENTED_EDGE('',*,*,#528,.F.);
#531=ORIENTED_EDGE('',*,*,#530,.F.);
#532=ORIENTED_EDGE('',*,*,#513,.T.);
#533=EDGE_LOOP('',(#527,#529,#531,#532));
#534=FACE_OUTER_BOUND('',#533,.F.);
#535=ADVANCED_FACE('',(#534),#526,.F.);
#536=CARTESIAN_POINT('',(4.785E1,3.E0,-2.245E1));
#537=DIRECTION('',(0.E0,0.E0,-1.E0));
#538=DIRECTION('',(-1.E0,0.E0,0.E0));
#539=AXIS2_PLACEMENT_3D('',#536,#537,#538);
#540=PLANE('',#539);
#541=ORIENTED_EDGE('',*,*,#500,.T.);
#543=ORIENTED_EDGE('',*,*,#542,.F.);
#545=ORIENTED_EDGE('',*,*,#544,.F.);
#546=ORIENTED_EDGE('',*,*,#528,.T.);
#547=EDGE_LOOP('',(#541,#543,#545,#546));
#548=FACE_OUTER_BOUND('',#547,.F.);
#549=ADVANCED_FACE('',(#548),#540,.F.);
#550=CARTESIAN_POINT('',(-4.765E1,3.E0,-2.245E1));
#551=DIRECTION('',(-1.E0,0.E0,0.E0));
#552=DIRECTION('',(0.E0,0.E0,1.E0));
#553=AXIS2_PLACEMENT_3D('',#550,#551,#552);
#554=PLANE('',#553);
#555=ORIENTED_EDGE('',*,*,#498,.T.);
#556=ORIENTED_EDGE('',*,*,#517,.F.);
#558=ORIENTED_EDGE('',*,*,#557,.F.);
#559=ORIENTED_EDGE('',*,*,#542,.T.);
#560=EDGE_LOOP('',(#555,#556,#558,#559));
#561=FACE_OUTER_BOUND('',#560,.F.);
#562=ADVANCED_FACE('',(#561),#554,.F.);
#563=CARTESIAN_POINT('',(0.E0,3.E0,0.E0));
#564=DIRECTION('',(0.E0,1.E0,0.E0));
#565=DIRECTION('',(1.E0,0.E0,0.E0));
#566=AXIS2_PLACEMENT_3D('',#563,#564,#565);
#567=PLANE('',#566);
#569=ORIENTED_EDGE('',*,*,#568,.F.);
#571=ORIENTED_EDGE('',*,*,#570,.F.);
#573=ORIENTED_EDGE('',*,*,#572,.F.);
#575=ORIENTED_EDGE('',*,*,#574,.F.);
#577=ORIENTED_EDGE('',*,*,#576,.F.);
#579=ORIENTED_EDGE('',*,*,#578,.F.);
#581=ORIENTED_EDGE('',*,*,#580,.F.);
#583=ORIENTED_EDGE('',*,*,#582,.F.);
#584=EDGE_LOOP('',(#569,#571,#573,#575,#577,#579,#581,#583));
#585=FACE_OUTER_BOUND('',#584,.F.);
#586=ORIENTED_EDGE('',*,*,#515,.T.);
#587=ORIENTED_EDGE('',*,*,#530,.T.);
#588=ORIENTED_EDGE('',*,*,#544,.T.);
#589=ORIENTED_EDGE('',*,*,#557,.T.);
#590=EDGE_LOOP('',(#586,#587,#588,#589));
#591=FACE_BOUND('',#590,.F.);
#592=ADVANCED_FACE('',(#585,#591),#567,.T.);
#593=CARTESIAN_POINT('',(5.155E1,4.6072E1,5.555E1));
#594=DIRECTION('',(0.E0,-1.E0,0.E0));
#595=DIRECTION('',(1.E0,0.E0,0.E0));
#596=AXIS2_PLACEMENT_3D('',#593,#594,#595);
#597=CYLINDRICAL_SURFACE('',#596,2.E0);
#598=ORIENTED_EDGE('',*,*,#568,.T.);
#600=ORIENTED_EDGE('',*,*,#599,.F.);
#602=ORIENTED_EDGE('',*,*,#601,.T.);
#604=ORIENTED_EDGE('',*,*,#603,.T.);
#605=EDGE_LOOP('',(#598,#600,#602,#604));
#606=FACE_OUTER_BOUND('',#605,.F.);
#607=ADVANCED_FACE('',(#606),#597,.F.);
#608=CARTESIAN_POINT('',(5.355E1,2.E1,5.755E1));
#609=DIRECTION('',(1.E0,0.E0,0.E0));
#610=DIRECTION('',(0.E0,0.E0,-1.E0));
#611=AXIS2_PLACEMENT_3D('',#608,#609,#610);
#612=PLANE('',#611);
#613=ORIENTED_EDGE('',*,*,#599,.T.);
#614=ORIENTED_EDGE('',*,*,#582,.T.);
#616=ORIENTED_EDGE('',*,*,#615,.F.);
#618=ORIENTED_EDGE('',*,*,#617,.F.);
#619=EDGE_LOOP('',(#613,#614,#616,#618));
#620=FACE_OUTER_BOUND('',#619,.F.);
#621=ADVANCED_FACE('',(#620),#612,.F.);
#622=CARTESIAN_POINT('',(5.155E1,4.6072E1,-5.555E1));
#623=DIRECTION('',(0.E0,-1.E0,0.E0));
#624=DIRECTION('',(0.E0,0.E0,-1.E0));
#625=AXIS2_PLACEMENT_3D('',#622,#623,#624);
#626=CYLINDRICAL_SURFACE('',#625,2.E0);
#627=ORIENTED_EDGE('',*,*,#580,.T.);
#629=ORIENTED_EDGE('',*,*,#628,.F.);
#631=ORIENTED_EDGE('',*,*,#630,.T.);
#632=ORIENTED_EDGE('',*,*,#615,.T.);
#633=EDGE_LOOP('',(#627,#629,#631,#632));
#634=FACE_OUTER_BOUND('',#633,.F.);
#635=ADVANCED_FACE('',(#634),#626,.F.);
#636=CARTESIAN_POINT('',(5.355E1,2.E1,-5.755E1));
#637=DIRECTION('',(0.E0,0.E0,-1.E0));
#638=DIRECTION('',(-1.E0,0.E0,0.E0));
#639=AXIS2_PLACEMENT_3D('',#636,#637,#638);
#640=PLANE('',#639);
#641=ORIENTED_EDGE('',*,*,#628,.T.);
#642=ORIENTED_EDGE('',*,*,#578,.T.);
#644=ORIENTED_EDGE('',*,*,#643,.F.);
#646=ORIENTED_EDGE('',*,*,#645,.F.);
#647=EDGE_LOOP('',(#641,#642,#644,#646));
#648=FACE_OUTER_BOUND('',#647,.F.);
#650=ORIENTED_EDGE('',*,*,#649,.F.);
#652=ORIENTED_EDGE('',*,*,#651,.F.);
#654=ORIENTED_EDGE('',*,*,#653,.F.);
#656=ORIENTED_EDGE('',*,*,#655,.F.);
#658=ORIENTED_EDGE('',*,*,#657,.F.);
#660=ORIENTED_EDGE('',*,*,#659,.F.);
#662=ORIENTED_EDGE('',*,*,#661,.F.);
#664=ORIENTED_EDGE('',*,*,#663,.F.);
#665=EDGE_LOOP('',(#650,#652,#654,#656,#658,#660,#662,#664));
#666=FACE_BOUND('',#665,.F.);
#667=ADVANCED_FACE('',(#648,#666),#640,.F.);
#668=CARTESIAN_POINT('',(-5.155E1,4.6072E1,-5.555E1));
#669=DIRECTION('',(0.E0,-1.E0,0.E0));
#670=DIRECTION('',(-1.E0,0.E0,0.E0));
#671=AXIS2_PLACEMENT_3D('',#668,#669,#670);
#672=CYLINDRICAL_SURFACE('',#671,2.E0);
#673=ORIENTED_EDGE('',*,*,#576,.T.);
#675=ORIENTED_EDGE('',*,*,#674,.F.);
#677=ORIENTED_EDGE('',*,*,#676,.T.);
#678=ORIENTED_EDGE('',*,*,#643,.T.);
#679=EDGE_LOOP('',(#673,#675,#677,#678));
#680=FACE_OUTER_BOUND('',#679,.F.);
#681=ADVANCED_FACE('',(#680),#672,.F.);
#682=CARTESIAN_POINT('',(-5.355E1,2.E1,-5.755E1));
#683=DIRECTION('',(-1.E0,0.E0,0.E0));
#684=DIRECTION('',(0.E0,0.E0,1.E0));
#685=AXIS2_PLACEMENT_3D('',#682,#683,#684);
#686=PLANE('',#685);
#688=ORIENTED_EDGE('',*,*,#687,.F.);
#690=ORIENTED_EDGE('',*,*,#689,.F.);
#691=ORIENTED_EDGE('',*,*,#674,.T.);
#692=ORIENTED_EDGE('',*,*,#574,.T.);
#693=EDGE_LOOP('',(#688,#690,#691,#692));
#694=FACE_OUTER_BOUND('',#693,.F.);
#695=ADVANCED_FACE('',(#694),#686,.F.);
#696=CARTESIAN_POINT('',(-5.155E1,4.6072E1,5.555E1));
#697=DIRECTION('',(0.E0,-1.E0,0.E0));
#698=DIRECTION('',(0.E0,0.E0,1.E0));
#699=AXIS2_PLACEMENT_3D('',#696,#697,#698);
#700=CYLINDRICAL_SURFACE('',#699,2.E0);
#701=ORIENTED_EDGE('',*,*,#572,.T.);
#703=ORIENTED_EDGE('',*,*,#702,.F.);
#705=ORIENTED_EDGE('',*,*,#704,.T.);
#706=ORIENTED_EDGE('',*,*,#687,.T.);
#707=EDGE_LOOP('',(#701,#703,#705,#706));
#708=FACE_OUTER_BOUND('',#707,.F.);
#709=ADVANCED_FACE('',(#708),#700,.F.);
#710=CARTESIAN_POINT('',(-5.355E1,2.E1,5.755E1));
#711=DIRECTION('',(0.E0,0.E0,1.E0));
#712=DIRECTION('',(1.E0,0.E0,0.E0));
#713=AXIS2_PLACEMENT_3D('',#710,#711,#712);
#714=PLANE('',#713);
#715=ORIENTED_EDGE('',*,*,#603,.F.);
#717=ORIENTED_EDGE('',*,*,#716,.F.);
#718=ORIENTED_EDGE('',*,*,#702,.T.);
#719=ORIENTED_EDGE('',*,*,#570,.T.);
#720=EDGE_LOOP('',(#715,#717,#718,#719));
#721=FACE_OUTER_BOUND('',#720,.F.);
#722=ADVANCED_FACE('',(#721),#714,.F.);
#723=CARTESIAN_POINT('',(0.E0,2.E1,0.E0));
#724=DIRECTION('',(0.E0,1.E0,0.E0));
#725=DIRECTION('',(1.E0,0.E0,0.E0));
#726=AXIS2_PLACEMENT_3D('',#723,#724,#725);
#727=PLANE('',#726);
#729=ORIENTED_EDGE('',*,*,#728,.F.);
#731=ORIENTED_EDGE('',*,*,#730,.F.);
#733=ORIENTED_EDGE('',*,*,#732,.F.);
#735=ORIENTED_EDGE('',*,*,#734,.F.);
#737=ORIENTED_EDGE('',*,*,#736,.F.);
#739=ORIENTED_EDGE('',*,*,#738,.F.);
#741=ORIENTED_EDGE('',*,*,#740,.F.);
#743=ORIENTED_EDGE('',*,*,#742,.F.);
#744=EDGE_LOOP('',(#729,#731,#733,#735,#737,#739,#741,#743));
#745=FACE_OUTER_BOUND('',#744,.F.);
#746=ORIENTED_EDGE('',*,*,#617,.T.);
#747=ORIENTED_EDGE('',*,*,#630,.F.);
#748=ORIENTED_EDGE('',*,*,#645,.T.);
#749=ORIENTED_EDGE('',*,*,#676,.F.);
#750=ORIENTED_EDGE('',*,*,#689,.T.);
#751=ORIENTED_EDGE('',*,*,#704,.F.);
#752=ORIENTED_EDGE('',*,*,#716,.T.);
#753=ORIENTED_EDGE('',*,*,#601,.F.);
#754=EDGE_LOOP('',(#746,#747,#748,#749,#750,#751,#752,#753));
#755=FACE_BOUND('',#754,.F.);
#756=ADVANCED_FACE('',(#745,#755),#727,.T.);
#757=CARTESIAN_POINT('',(5.155E1,4.6072E1,-5.555E1));
#758=DIRECTION('',(0.E0,-1.E0,0.E0));
#759=DIRECTION('',(0.E0,0.E0,-1.E0));
#760=AXIS2_PLACEMENT_3D('',#757,#758,#759);
#761=CYLINDRICAL_SURFACE('',#760,4.E0);
#762=ORIENTED_EDGE('',*,*,#478,.T.);
#764=ORIENTED_EDGE('',*,*,#763,.F.);
#765=ORIENTED_EDGE('',*,*,#728,.T.);
#767=ORIENTED_EDGE('',*,*,#766,.T.);
#768=EDGE_LOOP('',(#762,#764,#765,#767));
#769=FACE_OUTER_BOUND('',#768,.F.);
#770=ADVANCED_FACE('',(#769),#761,.T.);
#771=CARTESIAN_POINT('',(5.555E1,0.E0,5.955E1));
#772=DIRECTION('',(1.E0,0.E0,0.E0));
#773=DIRECTION('',(0.E0,0.E0,-1.E0));
#774=AXIS2_PLACEMENT_3D('',#771,#772,#773);
#775=PLANE('',#774);
#776=ORIENTED_EDGE('',*,*,#763,.T.);
#777=ORIENTED_EDGE('',*,*,#492,.F.);
#779=ORIENTED_EDGE('',*,*,#778,.F.);
#780=ORIENTED_EDGE('',*,*,#730,.T.);
#781=EDGE_LOOP('',(#776,#777,#779,#780));
#782=FACE_OUTER_BOUND('',#781,.F.);
#783=ADVANCED_FACE('',(#782),#775,.T.);
#784=CARTESIAN_POINT('',(5.155E1,4.6072E1,5.555E1));
#785=DIRECTION('',(0.E0,-1.E0,0.E0));
#786=DIRECTION('',(1.E0,0.E0,0.E0));
#787=AXIS2_PLACEMENT_3D('',#784,#785,#786);
#788=CYLINDRICAL_SURFACE('',#787,4.E0);
#789=ORIENTED_EDGE('',*,*,#490,.T.);
#791=ORIENTED_EDGE('',*,*,#790,.F.);
#792=ORIENTED_EDGE('',*,*,#732,.T.);
#793=ORIENTED_EDGE('',*,*,#778,.T.);
#794=EDGE_LOOP('',(#789,#791,#792,#793));
#795=FACE_OUTER_BOUND('',#794,.F.);
#796=ADVANCED_FACE('',(#795),#788,.T.);
#797=CARTESIAN_POINT('',(-5.555E1,0.E0,5.955E1));
#798=DIRECTION('',(0.E0,0.E0,1.E0));
#799=DIRECTION('',(1.E0,0.E0,0.E0));
#800=AXIS2_PLACEMENT_3D('',#797,#798,#799);
#801=PLANE('',#800);
#803=ORIENTED_EDGE('',*,*,#802,.F.);
#804=ORIENTED_EDGE('',*,*,#734,.T.);
#805=ORIENTED_EDGE('',*,*,#790,.T.);
#806=ORIENTED_EDGE('',*,*,#488,.F.);
#807=EDGE_LOOP('',(#803,#804,#805,#806));
#808=FACE_OUTER_BOUND('',#807,.F.);
#809=ADVANCED_FACE('',(#808),#801,.T.);
#810=CARTESIAN_POINT('',(-5.155E1,4.6072E1,5.555E1));
#811=DIRECTION('',(0.E0,-1.E0,0.E0));
#812=DIRECTION('',(0.E0,0.E0,1.E0));
#813=AXIS2_PLACEMENT_3D('',#810,#811,#812);
#814=CYLINDRICAL_SURFACE('',#813,4.E0);
#815=ORIENTED_EDGE('',*,*,#486,.T.);
#817=ORIENTED_EDGE('',*,*,#816,.F.);
#818=ORIENTED_EDGE('',*,*,#736,.T.);
#819=ORIENTED_EDGE('',*,*,#802,.T.);
#820=EDGE_LOOP('',(#815,#817,#818,#819));
#821=FACE_OUTER_BOUND('',#820,.F.);
#822=ADVANCED_FACE('',(#821),#814,.T.);
#823=CARTESIAN_POINT('',(-5.555E1,0.E0,-5.955E1));
#824=DIRECTION('',(-1.E0,0.E0,0.E0));
#825=DIRECTION('',(0.E0,0.E0,1.E0));
#826=AXIS2_PLACEMENT_3D('',#823,#824,#825);
#827=PLANE('',#826);
#829=ORIENTED_EDGE('',*,*,#828,.F.);
#830=ORIENTED_EDGE('',*,*,#738,.T.);
#831=ORIENTED_EDGE('',*,*,#816,.T.);
#832=ORIENTED_EDGE('',*,*,#484,.F.);
#833=EDGE_LOOP('',(#829,#830,#831,#832));
#834=FACE_OUTER_BOUND('',#833,.F.);
#835=ADVANCED_FACE('',(#834),#827,.T.);
#836=CARTESIAN_POINT('',(-5.155E1,4.6072E1,-5.555E1));
#837=DIRECTION('',(0.E0,-1.E0,0.E0));
#838=DIRECTION('',(-1.E0,0.E0,0.E0));
#839=AXIS2_PLACEMENT_3D('',#836,#837,#838);
#840=CYLINDRICAL_SURFACE('',#839,4.E0);
#841=ORIENTED_EDGE('',*,*,#482,.T.);
#843=ORIENTED_EDGE('',*,*,#842,.F.);
#844=ORIENTED_EDGE('',*,*,#740,.T.);
#845=ORIENTED_EDGE('',*,*,#828,.T.);
#846=EDGE_LOOP('',(#841,#843,#844,#845));
#847=FACE_OUTER_BOUND('',#846,.F.);
#848=ADVANCED_FACE('',(#847),#840,.T.);
#849=CARTESIAN_POINT('',(5.555E1,0.E0,-5.955E1));
#850=DIRECTION('',(0.E0,0.E0,-1.E0));
#851=DIRECTION('',(-1.E0,0.E0,0.E0));
#852=AXIS2_PLACEMENT_3D('',#849,#850,#851);
#853=PLANE('',#852);
#854=ORIENTED_EDGE('',*,*,#766,.F.);
#855=ORIENTED_EDGE('',*,*,#742,.T.);
#856=ORIENTED_EDGE('',*,*,#842,.T.);
#857=ORIENTED_EDGE('',*,*,#480,.F.);
#858=EDGE_LOOP('',(#854,#855,#856,#857));
#859=FACE_OUTER_BOUND('',#858,.F.);
#861=ORIENTED_EDGE('',*,*,#860,.T.);
#863=ORIENTED_EDGE('',*,*,#862,.T.);
#865=ORIENTED_EDGE('',*,*,#864,.T.);
#867=ORIENTED_EDGE('',*,*,#866,.T.);
#869=ORIENTED_EDGE('',*,*,#868,.T.);
#871=ORIENTED_EDGE('',*,*,#870,.T.);
#873=ORIENTED_EDGE('',*,*,#872,.T.);
#875=ORIENTED_EDGE('',*,*,#874,.T.);
#876=EDGE_LOOP('',(#861,#863,#865,#867,#869,#871,#873,#875));
#877=FACE_BOUND('',#876,.F.);
#878=ADVANCED_FACE('',(#859,#877),#853,.T.);
#879=CARTESIAN_POINT('',(-1.68E1,1.825E1,-5.955E1));
#880=DIRECTION('',(0.E0,1.E0,0.E0));
#881=DIRECTION('',(1.E0,0.E0,0.E0));
#882=AXIS2_PLACEMENT_3D('',#879,#880,#881);
#883=PLANE('',#882);
#884=ORIENTED_EDGE('',*,*,#860,.F.);
#886=ORIENTED_EDGE('',*,*,#885,.T.);
#887=ORIENTED_EDGE('',*,*,#649,.T.);
#889=ORIENTED_EDGE('',*,*,#888,.F.);
#890=EDGE_LOOP('',(#884,#886,#887,#889));
#891=FACE_OUTER_BOUND('',#890,.F.);
#892=ADVANCED_FACE('',(#891),#883,.F.);
#893=CARTESIAN_POINT('',(-1.68E1,1.575E1,-5.955E1));
#894=DIRECTION('',(0.E0,0.E0,-1.E0));
#895=DIRECTION('',(1.E0,0.E0,0.E0));
#896=AXIS2_PLACEMENT_3D('',#893,#894,#895);
#897=CYLINDRICAL_SURFACE('',#896,2.5E0);
#898=ORIENTED_EDGE('',*,*,#874,.F.);
#900=ORIENTED_EDGE('',*,*,#899,.T.);
#901=ORIENTED_EDGE('',*,*,#651,.T.);
#902=ORIENTED_EDGE('',*,*,#885,.F.);
#903=EDGE_LOOP('',(#898,#900,#901,#902));
#904=FACE_OUTER_BOUND('',#903,.F.);
#905=ADVANCED_FACE('',(#904),#897,.F.);
#906=CARTESIAN_POINT('',(-1.93E1,1.375E1,-5.955E1));
#907=DIRECTION('',(-1.E0,0.E0,0.E0));
#908=DIRECTION('',(0.E0,1.E0,0.E0));
#909=AXIS2_PLACEMENT_3D('',#906,#907,#908);
#910=PLANE('',#909);
#911=ORIENTED_EDGE('',*,*,#872,.F.);
#913=ORIENTED_EDGE('',*,*,#912,.T.);
#914=ORIENTED_EDGE('',*,*,#653,.T.);
#915=ORIENTED_EDGE('',*,*,#899,.F.);
#916=EDGE_LOOP('',(#911,#913,#914,#915));
#917=FACE_OUTER_BOUND('',#916,.F.);
#918=ADVANCED_FACE('',(#917),#910,.F.);
#919=CARTESIAN_POINT('',(-1.68E1,1.375E1,-5.955E1));
#920=DIRECTION('',(0.E0,0.E0,-1.E0));
#921=DIRECTION('',(1.E0,0.E0,0.E0));
#922=AXIS2_PLACEMENT_3D('',#919,#920,#921);
#923=CYLINDRICAL_SURFACE('',#922,2.5E0);
#924=ORIENTED_EDGE('',*,*,#870,.F.);
#926=ORIENTED_EDGE('',*,*,#925,.T.);
#927=ORIENTED_EDGE('',*,*,#655,.T.);
#928=ORIENTED_EDGE('',*,*,#912,.F.);
#929=EDGE_LOOP('',(#924,#926,#927,#928));
#930=FACE_OUTER_BOUND('',#929,.F.);
#931=ADVANCED_FACE('',(#930),#923,.F.);
#932=CARTESIAN_POINT('',(-7.8E0,1.125E1,-5.955E1));
#933=DIRECTION('',(0.E0,-1.E0,0.E0));
#934=DIRECTION('',(-1.E0,0.E0,0.E0));
#935=AXIS2_PLACEMENT_3D('',#932,#933,#934);
#936=PLANE('',#935);
#937=ORIENTED_EDGE('',*,*,#868,.F.);
#939=ORIENTED_EDGE('',*,*,#938,.T.);
#940=ORIENTED_EDGE('',*,*,#657,.T.);
#941=ORIENTED_EDGE('',*,*,#925,.F.);
#942=EDGE_LOOP('',(#937,#939,#940,#941));
#943=FACE_OUTER_BOUND('',#942,.F.);
#944=ADVANCED_FACE('',(#943),#936,.F.);
#945=CARTESIAN_POINT('',(-7.8E0,1.375E1,-5.955E1));
#946=DIRECTION('',(0.E0,0.E0,-1.E0));
#947=DIRECTION('',(1.E0,0.E0,0.E0));
#948=AXIS2_PLACEMENT_3D('',#945,#946,#947);
#949=CYLINDRICAL_SURFACE('',#948,2.5E0);
#950=ORIENTED_EDGE('',*,*,#866,.F.);
#952=ORIENTED_EDGE('',*,*,#951,.T.);
#953=ORIENTED_EDGE('',*,*,#659,.T.);
#954=ORIENTED_EDGE('',*,*,#938,.F.);
#955=EDGE_LOOP('',(#950,#952,#953,#954));
#956=FACE_OUTER_BOUND('',#955,.F.);
#957=ADVANCED_FACE('',(#956),#949,.F.);
#958=CARTESIAN_POINT('',(-5.3E0,1.575E1,-5.955E1));
#959=DIRECTION('',(1.E0,0.E0,0.E0));
#960=DIRECTION('',(0.E0,-1.E0,0.E0));
#961=AXIS2_PLACEMENT_3D('',#958,#959,#960);
#962=PLANE('',#961);
#963=ORIENTED_EDGE('',*,*,#864,.F.);
#965=ORIENTED_EDGE('',*,*,#964,.T.);
#966=ORIENTED_EDGE('',*,*,#661,.T.);
#967=ORIENTED_EDGE('',*,*,#951,.F.);
#968=EDGE_LOOP('',(#963,#965,#966,#967));
#969=FACE_OUTER_BOUND('',#968,.F.);
#970=ADVANCED_FACE('',(#969),#962,.F.);
#971=CARTESIAN_POINT('',(-7.8E0,1.575E1,-5.955E1));
#972=DIRECTION('',(0.E0,0.E0,-1.E0));
#973=DIRECTION('',(1.E0,0.E0,0.E0));
#974=AXIS2_PLACEMENT_3D('',#971,#972,#973);
#975=CYLINDRICAL_SURFACE('',#974,2.5E0);
#976=ORIENTED_EDGE('',*,*,#862,.F.);
#977=ORIENTED_EDGE('',*,*,#888,.T.);
#978=ORIENTED_EDGE('',*,*,#663,.T.);
#979=ORIENTED_EDGE('',*,*,#964,.F.);
#980=EDGE_LOOP('',(#976,#977,#978,#979));
#981=FACE_OUTER_BOUND('',#980,.F.);
#982=ADVANCED_FACE('',(#981),#975,.F.);
#986=DIMENSIONAL_EXPONENTS(0.E0,0.E0,0.E0,0.E0,0.E0,0.E0,0.E0);
#988=PLANE_ANGLE_MEASURE_WITH_UNIT(PLANE_ANGLE_MEASURE(1.745329251994E-2),#987);
#989=(CONVERSION_BASED_UNIT('DEGREE',#988)NAMED_UNIT(*)PLANE_ANGLE_UNIT());
#991=UNCERTAINTY_MEASURE_WITH_UNIT(LENGTH_MEASURE(1.E-3),#985,'closure',
'Maximum model space distance between geometric entities at asserted connectivities');
#992=(GEOMETRIC_REPRESENTATION_CONTEXT(3)GLOBAL_UNCERTAINTY_ASSIGNED_CONTEXT((
#991))GLOBAL_UNIT_ASSIGNED_CONTEXT((#985,#989,#990))REPRESENTATION_CONTEXT
('ID1','3'));
#994=APPLICATION_CONTEXT(
'CONFIGURATION CONTROLLED 3D DESIGNS OF MECHANICAL PARTS AND ASSEMBLIES');
#995=APPLICATION_PROTOCOL_DEFINITION('international standard',
'config_control_design',1994,#994);
#996=DESIGN_CONTEXT('',#994,'design');
#997=MECHANICAL_CONTEXT('',#994,'mechanical');
#998=PRODUCT('CASE_TOP','CASE_TOP','NOT SPECIFIED',(#997));
#999=PRODUCT_DEFINITION_FORMATION_WITH_SPECIFIED_SOURCE('5','LAST_VERSION',#998,
.MADE.);
#1003=PRODUCT_CATEGORY('part','');
#1004=PRODUCT_RELATED_PRODUCT_CATEGORY('detail','',(#998));
#1005=PRODUCT_CATEGORY_RELATIONSHIP('','',#1003,#1004);
#1006=SECURITY_CLASSIFICATION_LEVEL('unclassified');
#1007=SECURITY_CLASSIFICATION('','',#1006);
#1008=CC_DESIGN_SECURITY_CLASSIFICATION(#1007,(#999));
#1009=APPROVAL_STATUS('approved');
#1010=APPROVAL(#1009,'');
#1011=CC_DESIGN_APPROVAL(#1010,(#1007,#999,#1000));
#1012=CALENDAR_DATE(126,30,8);
#1013=COORDINATED_UNIVERSAL_TIME_OFFSET(2,0,.AHEAD.);
#1014=LOCAL_TIME(2,4,3.E0,#1013);
#1015=DATE_AND_TIME(#1012,#1014);
#1016=APPROVAL_DATE_TIME(#1015,#1010);
#1017=DATE_TIME_ROLE('creation_date');
#1018=CC_DESIGN_DATE_AND_TIME_ASSIGNMENT(#1015,#1017,(#1000));
#1019=DATE_TIME_ROLE('classification_date');
#1020=CC_DESIGN_DATE_AND_TIME_ASSIGNMENT(#1015,#1019,(#1007));
#1021=PERSON('UNSPECIFIED','UNSPECIFIED',$,$,$,$);
#1022=ORGANIZATION('UNSPECIFIED','UNSPECIFIED','UNSPECIFIED');
#1023=PERSON_AND_ORGANIZATION(#1021,#1022);
#1024=APPROVAL_ROLE('approver');
#1025=APPROVAL_PERSON_ORGANIZATION(#1023,#1010,#1024);
#1026=PERSON_AND_ORGANIZATION_ROLE('creator');
#1027=CC_DESIGN_PERSON_AND_ORGANIZATION_ASSIGNMENT(#1023,#1026,(#999,#1000));
#1028=PERSON_AND_ORGANIZATION_ROLE('design_supplier');
#1029=CC_DESIGN_PERSON_AND_ORGANIZATION_ASSIGNMENT(#1023,#1028,(#999));
#1030=PERSON_AND_ORGANIZATION_ROLE('classification_officer');
#1031=CC_DESIGN_PERSON_AND_ORGANIZATION_ASSIGNMENT(#1023,#1030,(#1007));
#1032=PERSON_AND_ORGANIZATION_ROLE('design_owner');
#1033=CC_DESIGN_PERSON_AND_ORGANIZATION_ASSIGNMENT(#1023,#1032,(#998));
#21=CIRCLE('',#20,4.E0);
#30=CIRCLE('',#29,4.E0);
#39=CIRCLE('',#38,4.E0);
#48=CIRCLE('',#47,4.E0);
#89=CIRCLE('',#88,2.E0);
#98=CIRCLE('',#97,2.E0);
#107=CIRCLE('',#106,2.E0);
#116=CIRCLE('',#115,2.E0);
#125=CIRCLE('',#124,2.E0);
#138=CIRCLE('',#137,2.E0);
#155=CIRCLE('',#154,2.5E0);
#164=CIRCLE('',#163,2.5E0);
#173=CIRCLE('',#172,2.5E0);
#182=CIRCLE('',#181,2.5E0);
#187=CIRCLE('',#186,2.E0);
#200=CIRCLE('',#199,2.E0);
#213=CIRCLE('',#212,4.E0);
#222=CIRCLE('',#221,4.E0);
#231=CIRCLE('',#230,4.E0);
#240=CIRCLE('',#239,4.E0);
#301=CIRCLE('',#300,2.5E0);
#310=CIRCLE('',#309,2.5E0);
#319=CIRCLE('',#318,2.5E0);
#328=CIRCLE('',#327,2.5E0);
#478=EDGE_CURVE('',#379,#380,#21,.T.);
#480=EDGE_CURVE('',#379,#388,#25,.T.);
#482=EDGE_CURVE('',#387,#388,#30,.T.);
#484=EDGE_CURVE('',#387,#396,#34,.T.);
#486=EDGE_CURVE('',#395,#396,#39,.T.);
#488=EDGE_CURVE('',#395,#404,#43,.T.);
#490=EDGE_CURVE('',#403,#404,#48,.T.);
#492=EDGE_CURVE('',#403,#380,#52,.T.);
#496=EDGE_CURVE('',#363,#364,#4,.T.);
#498=EDGE_CURVE('',#368,#363,#8,.T.);
#500=EDGE_CURVE('',#366,#368,#12,.T.);
#502=EDGE_CURVE('',#364,#366,#16,.T.);
#513=EDGE_CURVE('',#372,#364,#60,.T.);
#515=EDGE_CURVE('',#371,#372,#72,.T.);
#517=EDGE_CURVE('',#371,#363,#56,.T.);
#528=EDGE_CURVE('',#374,#366,#64,.T.);
#530=EDGE_CURVE('',#372,#374,#76,.T.);
#542=EDGE_CURVE('',#376,#368,#68,.T.);
#544=EDGE_CURVE('',#374,#376,#80,.T.);
#557=EDGE_CURVE('',#376,#371,#84,.T.);
#568=EDGE_CURVE('',#411,#412,#89,.T.);
#570=EDGE_CURVE('',#428,#411,#93,.T.);
#572=EDGE_CURVE('',#427,#428,#98,.T.);
#574=EDGE_CURVE('',#436,#427,#102,.T.);
#576=EDGE_CURVE('',#435,#436,#107,.T.);
#578=EDGE_CURVE('',#420,#435,#111,.T.);
#580=EDGE_CURVE('',#419,#420,#116,.T.);
#582=EDGE_CURVE('',#412,#419,#120,.T.);
#599=EDGE_CURVE('',#414,#412,#129,.T.);
#601=EDGE_CURVE('',#414,#416,#125,.T.);
#603=EDGE_CURVE('',#416,#411,#204,.T.);
#615=EDGE_CURVE('',#424,#419,#133,.T.);
#617=EDGE_CURVE('',#414,#424,#248,.T.);
#628=EDGE_CURVE('',#422,#420,#142,.T.);
#630=EDGE_CURVE('',#422,#424,#138,.T.);
#643=EDGE_CURVE('',#440,#435,#146,.T.);
#645=EDGE_CURVE('',#422,#440,#252,.T.);
#649=EDGE_CURVE('',#459,#460,#150,.T.);
#651=EDGE_CURVE('',#472,#459,#155,.T.);
#653=EDGE_CURVE('',#471,#472,#159,.T.);
#655=EDGE_CURVE('',#468,#471,#164,.T.);
#657=EDGE_CURVE('',#467,#468,#168,.T.);
#659=EDGE_CURVE('',#464,#467,#173,.T.);
#661=EDGE_CURVE('',#463,#464,#177,.T.);
#663=EDGE_CURVE('',#460,#463,#182,.T.);
#674=EDGE_CURVE('',#438,#436,#195,.T.);
#676=EDGE_CURVE('',#438,#440,#187,.T.);
#687=EDGE_CURVE('',#432,#427,#191,.T.);
#689=EDGE_CURVE('',#438,#432,#256,.T.);
#702=EDGE_CURVE('',#430,#428,#208,.T.);
#704=EDGE_CURVE('',#430,#432,#200,.T.);
#716=EDGE_CURVE('',#430,#416,#260,.T.);
#728=EDGE_CURVE('',#382,#384,#213,.T.);
#730=EDGE_CURVE('',#408,#382,#217,.T.);
#732=EDGE_CURVE('',#406,#408,#222,.T.);
#734=EDGE_CURVE('',#400,#406,#226,.T.);
#736=EDGE_CURVE('',#398,#400,#231,.T.);
#738=EDGE_CURVE('',#392,#398,#235,.T.);
#740=EDGE_CURVE('',#390,#392,#240,.T.);
#742=EDGE_CURVE('',#384,#390,#244,.T.);
#763=EDGE_CURVE('',#382,#380,#264,.T.);
#766=EDGE_CURVE('',#384,#379,#288,.T.);
#778=EDGE_CURVE('',#408,#403,#268,.T.);
#790=EDGE_CURVE('',#406,#404,#276,.T.);
#802=EDGE_CURVE('',#400,#395,#272,.T.);
#816=EDGE_CURVE('',#398,#396,#284,.T.);
#828=EDGE_CURVE('',#392,#387,#280,.T.);
#842=EDGE_CURVE('',#390,#388,#292,.T.);
#860=EDGE_CURVE('',#443,#444,#296,.T.);
#862=EDGE_CURVE('',#444,#447,#301,.T.);
#864=EDGE_CURVE('',#447,#448,#305,.T.);
#866=EDGE_CURVE('',#448,#451,#310,.T.);
#868=EDGE_CURVE('',#451,#452,#314,.T.);
#870=EDGE_CURVE('',#452,#455,#319,.T.);
#872=EDGE_CURVE('',#455,#456,#323,.T.);
#874=EDGE_CURVE('',#456,#443,#328,.T.);
#885=EDGE_CURVE('',#443,#459,#332,.T.);
#888=EDGE_CURVE('',#444,#460,#360,.T.);
#899=EDGE_CURVE('',#456,#472,#336,.T.);
#912=EDGE_CURVE('',#455,#471,#340,.T.);
#925=EDGE_CURVE('',#452,#468,#344,.T.);
#938=EDGE_CURVE('',#451,#467,#348,.T.);
#951=EDGE_CURVE('',#448,#464,#352,.T.);
#964=EDGE_CURVE('',#447,#463,#356,.T.);
#983=CLOSED_SHELL('',(#506,#521,#535,#549,#562,#592,#607,#621,#635,#667,#681,
#695,#709,#722,#756,#770,#783,#796,#809,#822,#835,#848,#878,#892,#905,#918,#931,
#944,#957,#970,#982));
#984=MANIFOLD_SOLID_BREP('',#983);
#985=(LENGTH_UNIT()NAMED_UNIT(*)SI_UNIT(.MILLI.,.METRE.));
#987=(NAMED_UNIT(*)PLANE_ANGLE_UNIT()SI_UNIT($,.RADIAN.));
#990=(NAMED_UNIT(*)SI_UNIT($,.STERADIAN.)SOLID_ANGLE_UNIT());
#993=ADVANCED_BREP_SHAPE_REPRESENTATION('',(#984),#992);
#1000=PRODUCT_DEFINITION('design','',#999,#996);
#1001=PRODUCT_DEFINITION_SHAPE('','SHAPE FOR CASE_TOP.',#1000);
#1002=SHAPE_DEFINITION_REPRESENTATION(#1001,#993);
ENDSEC;
END-ISO-10303-21;
