%TF.GenerationSoftware,KiCad,Pcbnew,10.0.1*%
%TF.CreationDate,2026-07-30T15:07:11+02:00*%
%TF.ProjectId,Makropad,4d616b72-6f70-4616-942e-6b696361645f,rev?*%
%TF.SameCoordinates,Original*%
%TF.FileFunction,Soldermask,Bot*%
%TF.FilePolarity,Negative*%
%FSLAX46Y46*%
G04 Gerber Fmt 4.6, Leading zero omitted, Abs format (unit mm)*
G04 Created by KiCad (PCBNEW 10.0.1) date 2026-07-30 15:07:11*
%MOMM*%
%LPD*%
G01*
G04 APERTURE LIST*
%ADD10C,1.750000*%
%ADD11C,3.050000*%
%ADD12C,4.000000*%
%ADD13R,1.700000X1.700000*%
%ADD14C,1.700000*%
G04 APERTURE END LIST*
D10*
%TO.C,SW19*%
X125790000Y-150240000D03*
D11*
X124520000Y-147700000D03*
D12*
X120710000Y-150240000D03*
D11*
X118170000Y-145160000D03*
D10*
X115630000Y-150240000D03*
%TD*%
%TO.C,SW15*%
X144840000Y-131190000D03*
D11*
X143570000Y-128650000D03*
D12*
X139760000Y-131190000D03*
D11*
X137220000Y-126110000D03*
D10*
X134680000Y-131190000D03*
%TD*%
%TO.C,SW16*%
X68640000Y-150240000D03*
D11*
X67370000Y-147700000D03*
D12*
X63560000Y-150240000D03*
D11*
X61020000Y-145160000D03*
D10*
X58480000Y-150240000D03*
%TD*%
%TO.C,SW11*%
X68640000Y-131190000D03*
D11*
X67370000Y-128650000D03*
D12*
X63560000Y-131190000D03*
D11*
X61020000Y-126110000D03*
D10*
X58480000Y-131190000D03*
%TD*%
%TO.C,SW12*%
X87690000Y-131190000D03*
D11*
X86420000Y-128650000D03*
D12*
X82610000Y-131190000D03*
D11*
X80070000Y-126110000D03*
D10*
X77530000Y-131190000D03*
%TD*%
%TO.C,SW1*%
X68640000Y-93090000D03*
D11*
X67370000Y-90550000D03*
D12*
X63560000Y-93090000D03*
D11*
X61020000Y-88010000D03*
D10*
X58480000Y-93090000D03*
%TD*%
%TO.C,SW10*%
X144840000Y-112140000D03*
D11*
X143570000Y-109600000D03*
D12*
X139760000Y-112140000D03*
D11*
X137220000Y-107060000D03*
D10*
X134680000Y-112140000D03*
%TD*%
%TO.C,SW5*%
X144840000Y-93090000D03*
D11*
X143570000Y-90550000D03*
D12*
X139760000Y-93090000D03*
D11*
X137220000Y-88010000D03*
D10*
X134680000Y-93090000D03*
%TD*%
%TO.C,SW7*%
X87690000Y-112140000D03*
D11*
X86420000Y-109600000D03*
D12*
X82610000Y-112140000D03*
D11*
X80070000Y-107060000D03*
D10*
X77530000Y-112140000D03*
%TD*%
%TO.C,SW13*%
X106740000Y-131190000D03*
D11*
X105470000Y-128650000D03*
D12*
X101660000Y-131190000D03*
D11*
X99120000Y-126110000D03*
D10*
X96580000Y-131190000D03*
%TD*%
%TO.C,SW2*%
X87690000Y-93090000D03*
D11*
X86420000Y-90550000D03*
D12*
X82610000Y-93090000D03*
D11*
X80070000Y-88010000D03*
D10*
X77530000Y-93090000D03*
%TD*%
%TO.C,SW9*%
X125790000Y-112140000D03*
D11*
X124520000Y-109600000D03*
D12*
X120710000Y-112140000D03*
D11*
X118170000Y-107060000D03*
D10*
X115630000Y-112140000D03*
%TD*%
%TO.C,SW18*%
X106740000Y-150240000D03*
D11*
X105470000Y-147700000D03*
D12*
X101660000Y-150240000D03*
D11*
X99120000Y-145160000D03*
D10*
X96580000Y-150240000D03*
%TD*%
%TO.C,SW6*%
X68640000Y-112140000D03*
D11*
X67370000Y-109600000D03*
D12*
X63560000Y-112140000D03*
D11*
X61020000Y-107060000D03*
D10*
X58480000Y-112140000D03*
%TD*%
%TO.C,SW8*%
X106740000Y-112140000D03*
D11*
X105470000Y-109600000D03*
D12*
X101660000Y-112140000D03*
D11*
X99120000Y-107060000D03*
D10*
X96580000Y-112140000D03*
%TD*%
%TO.C,SW3*%
X106740000Y-93090000D03*
D11*
X105470000Y-90550000D03*
D12*
X101660000Y-93090000D03*
D11*
X99120000Y-88010000D03*
D10*
X96580000Y-93090000D03*
%TD*%
%TO.C,SW17*%
X87690000Y-150240000D03*
D11*
X86420000Y-147700000D03*
D12*
X82610000Y-150240000D03*
D11*
X80070000Y-145160000D03*
D10*
X77530000Y-150240000D03*
%TD*%
%TO.C,SW14*%
X125790000Y-131190000D03*
D11*
X124520000Y-128650000D03*
D12*
X120710000Y-131190000D03*
D11*
X118170000Y-126110000D03*
D10*
X115630000Y-131190000D03*
%TD*%
%TO.C,SW20*%
X144840000Y-150240000D03*
D11*
X143570000Y-147700000D03*
D12*
X139760000Y-150240000D03*
D11*
X137220000Y-145160000D03*
D10*
X134680000Y-150240000D03*
%TD*%
%TO.C,SW4*%
X125790000Y-93090000D03*
D11*
X124520000Y-90550000D03*
D12*
X120710000Y-93090000D03*
D11*
X118170000Y-88010000D03*
D10*
X115630000Y-93090000D03*
%TD*%
D13*
%TO.C,J1*%
X74285000Y-59710000D03*
D14*
X74285000Y-62250000D03*
X74285000Y-64790000D03*
X74285000Y-67330000D03*
%TD*%
M02*
