M48
; DRILL file KiCad 10.0.1 date 2026-07-30T15:07:12
; FORMAT={-:-/ absolute / metric / decimal}
; #@! TF.CreationDate,2026-07-30T15:07:12+02:00
; #@! TF.GenerationSoftware,Kicad,Pcbnew,10.0.1
; #@! TF.FileFunction,MixedPlating,1,2
FMAT,2
METRIC
; #@! TA.AperFunction,Plated,PTH,ViaDrill
T1C0.300
; #@! TA.AperFunction,Plated,PTH,ComponentDrill
T2C1.000
; #@! TA.AperFunction,NonPlated,NPTH,ComponentDrill
T3C1.750
; #@! TA.AperFunction,NonPlated,NPTH,ComponentDrill
T4C3.050
; #@! TA.AperFunction,NonPlated,NPTH,ComponentDrill
T5C4.000
%
G90
G05
T1
X52.62Y-76.55
X52.62Y-119.71
X52.62Y-120.91
X52.628Y-74.09
X52.63Y-100.483
X52.63Y-101.682
X52.69Y-138.623
X52.7Y-139.822
X53.32Y-94.2
X53.32Y-102.64
X53.35Y-119.03
X53.37Y-121.68
X53.41Y-133.095
X53.41Y-140.74
X55.41Y-119.03
X55.41Y-120.91
X55.811Y-77.821
X56.148Y-156.08
X56.17Y-117.97
X56.669Y-78.659
X56.96Y-133.095
X56.96Y-134.495
X58.1Y-65.24
X58.12Y-59.71
X58.31Y-71.05
X59.38Y-80.03
X59.56Y-95.05
X59.56Y-97.42
X59.57Y-98.91
X59.57Y-137.01
X63.72Y-82.74
X65.01Y-82.74
X67.09Y-55.32
X67.56Y-116.48
X67.57Y-154.57
X69.96Y-71.15
X70.94Y-97.42
X70.98Y-135.46
X72.45Y-95.05
X72.45Y-102.62
X72.49Y-83.55
X72.5Y-81.38
X72.5Y-117.37
X72.5Y-121.66
X72.54Y-133.03
X72.54Y-140.72
X74.29Y-58.1
X75.207Y-117.97
X75.207Y-156.07
X75.89Y-59.69
X77.09Y-64.19
X77.11Y-67.93
X77.14Y-74.65
X77.14Y-78.26
X78.62Y-98.91
X78.62Y-137.01
X79.49Y-54.63
X86.6Y-116.49
X86.61Y-154.58
X89.99Y-97.44
X90.02Y-135.47
X90.9Y-79.35
X91.46Y-95.05
X91.46Y-102.61
X91.5Y-81.38
X91.5Y-83.54
X91.51Y-117.37
X91.51Y-121.65
X91.55Y-133.095
X91.55Y-140.71
X92.1Y-79.33
X94.248Y-117.98
X94.248Y-156.08
X97.67Y-98.93
X97.67Y-137.03
X104.59Y-62.69
X105.65Y-116.48
X105.66Y-154.57
X106.19Y-62.67
X109.07Y-135.47
X109.08Y-97.41
X109.7Y-65.16
X110.52Y-95.05
X110.52Y-102.61
X110.56Y-81.38
X110.56Y-83.54
X110.57Y-117.37
X110.57Y-121.65
X110.61Y-133.09
X110.61Y-140.71
X113.297Y-156.08
X113.307Y-117.98
X116.72Y-98.92
X116.72Y-137.02
X124.7Y-116.5
X124.71Y-154.59
X128.11Y-97.44
X128.11Y-135.49
X129.57Y-102.61
X129.58Y-95.05
X129.61Y-83.54
X129.62Y-81.38
X129.62Y-121.65
X129.63Y-117.37
X129.66Y-140.71
X129.67Y-133.095
X132.347Y-117.99
X132.357Y-156.07
X135.76Y-98.93
X135.76Y-137.03
X143.75Y-116.5
X143.76Y-154.59
X147.16Y-135.47
X147.18Y-97.42
T2
X74.285Y-59.71
X74.285Y-62.25
X74.285Y-64.79
X74.285Y-67.33
T3
X58.48Y-93.09
X58.48Y-112.14
X58.48Y-131.19
X58.48Y-150.24
X68.64Y-93.09
X68.64Y-112.14
X68.64Y-131.19
X68.64Y-150.24
X77.53Y-93.09
X77.53Y-112.14
X77.53Y-131.19
X77.53Y-150.24
X87.69Y-93.09
X87.69Y-112.14
X87.69Y-131.19
X87.69Y-150.24
X96.58Y-93.09
X96.58Y-112.14
X96.58Y-131.19
X96.58Y-150.24
X106.74Y-93.09
X106.74Y-112.14
X106.74Y-131.19
X106.74Y-150.24
X115.63Y-93.09
X115.63Y-112.14
X115.63Y-131.19
X115.63Y-150.24
X125.79Y-93.09
X125.79Y-112.14
X125.79Y-131.19
X125.79Y-150.24
X134.68Y-93.09
X134.68Y-112.14
X134.68Y-131.19
X134.68Y-150.24
X144.84Y-93.09
X144.84Y-112.14
X144.84Y-131.19
X144.84Y-150.24
T4
X61.02Y-88.01
X61.02Y-107.06
X61.02Y-126.11
X61.02Y-145.16
X67.37Y-90.55
X67.37Y-109.6
X67.37Y-128.65
X67.37Y-147.7
X80.07Y-88.01
X80.07Y-107.06
X80.07Y-126.11
X80.07Y-145.16
X86.42Y-90.55
X86.42Y-109.6
X86.42Y-128.65
X86.42Y-147.7
X99.12Y-88.01
X99.12Y-107.06
X99.12Y-126.11
X99.12Y-145.16
X105.47Y-90.55
X105.47Y-109.6
X105.47Y-128.65
X105.47Y-147.7
X118.17Y-88.01
X118.17Y-107.06
X118.17Y-126.11
X118.17Y-145.16
X124.52Y-90.55
X124.52Y-109.6
X124.52Y-128.65
X124.52Y-147.7
X137.22Y-88.01
X137.22Y-107.06
X137.22Y-126.11
X137.22Y-145.16
X143.57Y-90.55
X143.57Y-109.6
X143.57Y-128.65
X143.57Y-147.7
T5
X63.56Y-93.09
X63.56Y-112.14
X63.56Y-131.19
X63.56Y-150.24
X82.61Y-93.09
X82.61Y-112.14
X82.61Y-131.19
X82.61Y-150.24
X101.66Y-93.09
X101.66Y-112.14
X101.66Y-131.19
X101.66Y-150.24
X120.71Y-93.09
X120.71Y-112.14
X120.71Y-131.19
X120.71Y-150.24
X139.76Y-93.09
X139.76Y-112.14
X139.76Y-131.19
X139.76Y-150.24
M30
