%TF.GenerationSoftware,KiCad,Pcbnew,10.0.1*%
%TF.CreationDate,2026-07-30T15:07:11+02:00*%
%TF.ProjectId,Makropad,4d616b72-6f70-4616-942e-6b696361645f,rev?*%
%TF.SameCoordinates,Original*%
%TF.FileFunction,Paste,Top*%
%TF.FilePolarity,Positive*%
%FSLAX46Y46*%
G04 Gerber Fmt 4.6, Leading zero omitted, Abs format (unit mm)*
G04 Created by KiCad (PCBNEW 10.0.1) date 2026-07-30 15:07:11*
%MOMM*%
%LPD*%
G01*
G04 APERTURE LIST*
G04 Aperture macros list*
%AMRoundRect*
0 Rectangle with rounded corners*
0 $1 Rounding radius*
0 $2 $3 $4 $5 $6 $7 $8 $9 X,Y pos of 4 corners*
0 Add a 4 corners polygon primitive as box body*
4,1,4,$2,$3,$4,$5,$6,$7,$8,$9,$2,$3,0*
0 Add four circle primitives for the rounded corners*
1,1,$1+$1,$2,$3*
1,1,$1+$1,$4,$5*
1,1,$1+$1,$6,$7*
1,1,$1+$1,$8,$9*
0 Add four rect primitives between the rounded corners*
20,1,$1+$1,$2,$3,$4,$5,0*
20,1,$1+$1,$4,$5,$6,$7,0*
20,1,$1+$1,$6,$7,$8,$9,0*
20,1,$1+$1,$8,$9,$2,$3,0*%
G04 Aperture macros list end*
%ADD10RoundRect,0.087500X0.087500X-0.425000X0.087500X0.425000X-0.087500X0.425000X-0.087500X-0.425000X0*%
%ADD11RoundRect,0.225000X-0.225000X-0.250000X0.225000X-0.250000X0.225000X0.250000X-0.225000X0.250000X0*%
%ADD12RoundRect,0.225000X0.225000X0.250000X-0.225000X0.250000X-0.225000X-0.250000X0.225000X-0.250000X0*%
%ADD13RoundRect,0.205000X-0.470000X-0.205000X0.470000X-0.205000X0.470000X0.205000X-0.470000X0.205000X0*%
%ADD14RoundRect,0.205000X0.470000X0.205000X-0.470000X0.205000X-0.470000X-0.205000X0.470000X-0.205000X0*%
%ADD15RoundRect,0.225000X-0.225000X-0.375000X0.225000X-0.375000X0.225000X0.375000X-0.225000X0.375000X0*%
%ADD16O,2.500000X1.500000*%
%ADD17O,1.500000X2.500000*%
%ADD18RoundRect,0.200000X0.200000X0.275000X-0.200000X0.275000X-0.200000X-0.275000X0.200000X-0.275000X0*%
%ADD19RoundRect,0.250000X1.025000X1.000000X-1.025000X1.000000X-1.025000X-1.000000X1.025000X-1.000000X0*%
G04 APERTURE END LIST*
D10*
%TO.C,U2*%
X63720000Y-81697500D03*
X64370000Y-81697500D03*
X65020000Y-81697500D03*
X65020000Y-80022500D03*
X63720000Y-80022500D03*
%TD*%
D11*
%TO.C,C6*%
X144610000Y-97420000D03*
X146160000Y-97420000D03*
%TD*%
D12*
%TO.C,C19*%
X96820000Y-156070000D03*
X95270000Y-156070000D03*
%TD*%
D11*
%TO.C,C15*%
X125560000Y-135450000D03*
X127110000Y-135450000D03*
%TD*%
D13*
%TO.C,D31*%
X60835000Y-137020000D03*
X60835000Y-135520000D03*
X66285000Y-135520000D03*
X66285000Y-137020000D03*
%TD*%
D11*
%TO.C,C16*%
X144610000Y-135450000D03*
X146160000Y-135450000D03*
%TD*%
D14*
%TO.C,D40*%
X142485000Y-154570000D03*
X142485000Y-156070000D03*
X137035000Y-156070000D03*
X137035000Y-154570000D03*
%TD*%
D12*
%TO.C,C7*%
X58710000Y-117970000D03*
X57160000Y-117970000D03*
%TD*%
D11*
%TO.C,C4*%
X106510000Y-97420000D03*
X108060000Y-97420000D03*
%TD*%
D15*
%TO.C,D5*%
X130610000Y-83580000D03*
X133910000Y-83580000D03*
%TD*%
D11*
%TO.C,C12*%
X68410000Y-135460000D03*
X69960000Y-135460000D03*
%TD*%
D15*
%TO.C,D11*%
X54430000Y-121660000D03*
X57730000Y-121660000D03*
%TD*%
%TO.C,D14*%
X111560000Y-121650000D03*
X114860000Y-121650000D03*
%TD*%
%TO.C,D12*%
X73460000Y-121650000D03*
X76760000Y-121650000D03*
%TD*%
D12*
%TO.C,C18*%
X77775000Y-156070000D03*
X76225000Y-156070000D03*
%TD*%
D11*
%TO.C,C1*%
X60335000Y-80030000D03*
X61885000Y-80030000D03*
%TD*%
D15*
%TO.C,D7*%
X73510000Y-102640000D03*
X76810000Y-102640000D03*
%TD*%
%TO.C,D15*%
X130620000Y-121650000D03*
X133920000Y-121650000D03*
%TD*%
D12*
%TO.C,C21*%
X134920000Y-156070000D03*
X133370000Y-156070000D03*
%TD*%
D16*
%TO.C,U1*%
X97470000Y-52090000D03*
X97470000Y-54630000D03*
X97470000Y-57170000D03*
X97470000Y-59710000D03*
X97470000Y-62250000D03*
X97470000Y-64790000D03*
X97470000Y-67330000D03*
X97470000Y-69870000D03*
X97470000Y-72410000D03*
D17*
X94430000Y-72910000D03*
X91890000Y-72910000D03*
X89350000Y-72910000D03*
X86810000Y-72910000D03*
X84270000Y-72910000D03*
D16*
X81230000Y-72410000D03*
X81230000Y-69870000D03*
X81230000Y-67330000D03*
X81230000Y-64790000D03*
X81230000Y-62250000D03*
X81230000Y-59710000D03*
X81230000Y-57170000D03*
X81230000Y-54630000D03*
X81230000Y-52090000D03*
%TD*%
D13*
%TO.C,D34*%
X117985000Y-137020000D03*
X117985000Y-135520000D03*
X123435000Y-135520000D03*
X123435000Y-137020000D03*
%TD*%
D11*
%TO.C,C14*%
X106500000Y-135470000D03*
X108050000Y-135470000D03*
%TD*%
D14*
%TO.C,D26*%
X66285000Y-116470000D03*
X66285000Y-117970000D03*
X60835000Y-117970000D03*
X60835000Y-116470000D03*
%TD*%
D13*
%TO.C,D25*%
X137035000Y-98920000D03*
X137035000Y-97420000D03*
X142485000Y-97420000D03*
X142485000Y-98920000D03*
%TD*%
D14*
%TO.C,D37*%
X85335000Y-154570000D03*
X85335000Y-156070000D03*
X79885000Y-156070000D03*
X79885000Y-154570000D03*
%TD*%
%TO.C,D27*%
X85335000Y-116470000D03*
X85335000Y-117970000D03*
X79885000Y-117970000D03*
X79885000Y-116470000D03*
%TD*%
%TO.C,D36*%
X66285000Y-154570000D03*
X66285000Y-156070000D03*
X60835000Y-156070000D03*
X60835000Y-154570000D03*
%TD*%
D13*
%TO.C,D21*%
X60835000Y-98920000D03*
X60835000Y-97420000D03*
X66285000Y-97420000D03*
X66285000Y-98920000D03*
%TD*%
D15*
%TO.C,D10*%
X130630000Y-102640000D03*
X133930000Y-102640000D03*
%TD*%
D16*
%TO.C,U3*%
X125010000Y-57760000D03*
X111510000Y-60080000D03*
X111510000Y-62620000D03*
X111510000Y-65160000D03*
%TD*%
D12*
%TO.C,C20*%
X115860000Y-156070000D03*
X114310000Y-156070000D03*
%TD*%
D18*
%TO.C,R1*%
X66015000Y-76850000D03*
X64365000Y-76850000D03*
%TD*%
D14*
%TO.C,D28*%
X104385000Y-116470000D03*
X104385000Y-117970000D03*
X98935000Y-117970000D03*
X98935000Y-116470000D03*
%TD*%
D15*
%TO.C,D18*%
X92580000Y-140740000D03*
X95880000Y-140740000D03*
%TD*%
%TO.C,D1*%
X54410000Y-83550000D03*
X57710000Y-83550000D03*
%TD*%
D13*
%TO.C,D22*%
X79885000Y-98920000D03*
X79885000Y-97420000D03*
X85335000Y-97420000D03*
X85335000Y-98920000D03*
%TD*%
D15*
%TO.C,D6*%
X54400000Y-102640000D03*
X57700000Y-102640000D03*
%TD*%
D12*
%TO.C,C10*%
X115870000Y-117970000D03*
X114320000Y-117970000D03*
%TD*%
D11*
%TO.C,C2*%
X68395000Y-97430000D03*
X69945000Y-97430000D03*
%TD*%
D15*
%TO.C,D9*%
X111580000Y-102620000D03*
X114880000Y-102620000D03*
%TD*%
%TO.C,D16*%
X54470000Y-140740000D03*
X57770000Y-140740000D03*
%TD*%
D14*
%TO.C,D30*%
X142485000Y-116470000D03*
X142485000Y-117970000D03*
X137035000Y-117970000D03*
X137035000Y-116470000D03*
%TD*%
D15*
%TO.C,D13*%
X92520000Y-121680000D03*
X95820000Y-121680000D03*
%TD*%
D13*
%TO.C,D33*%
X98935000Y-137020000D03*
X98935000Y-135520000D03*
X104385000Y-135520000D03*
X104385000Y-137020000D03*
%TD*%
D15*
%TO.C,D20*%
X130620000Y-140720000D03*
X133920000Y-140720000D03*
%TD*%
D13*
%TO.C,D23*%
X98935000Y-98920000D03*
X98935000Y-97420000D03*
X104385000Y-97420000D03*
X104385000Y-98920000D03*
%TD*%
%TO.C,D35*%
X137035000Y-137020000D03*
X137035000Y-135520000D03*
X142485000Y-135520000D03*
X142485000Y-137020000D03*
%TD*%
D15*
%TO.C,D2*%
X73460000Y-83550000D03*
X76760000Y-83550000D03*
%TD*%
%TO.C,D19*%
X111560000Y-140700000D03*
X114860000Y-140700000D03*
%TD*%
%TO.C,D8*%
X92520000Y-102610000D03*
X95820000Y-102610000D03*
%TD*%
D12*
%TO.C,C8*%
X77760000Y-117970000D03*
X76210000Y-117970000D03*
%TD*%
%TO.C,C17*%
X58710000Y-156070000D03*
X57160000Y-156070000D03*
%TD*%
D15*
%TO.C,D3*%
X92530000Y-83610000D03*
X95830000Y-83610000D03*
%TD*%
D11*
%TO.C,C5*%
X125550000Y-97420000D03*
X127100000Y-97420000D03*
%TD*%
D14*
%TO.C,D39*%
X123435000Y-154570000D03*
X123435000Y-156070000D03*
X117985000Y-156070000D03*
X117985000Y-154570000D03*
%TD*%
D15*
%TO.C,D17*%
X73510000Y-140710000D03*
X76810000Y-140710000D03*
%TD*%
D12*
%TO.C,C9*%
X96820000Y-117970000D03*
X95270000Y-117970000D03*
%TD*%
D11*
%TO.C,C3*%
X87445000Y-97420000D03*
X88995000Y-97420000D03*
%TD*%
D12*
%TO.C,C11*%
X134910000Y-117970000D03*
X133360000Y-117970000D03*
%TD*%
D14*
%TO.C,D38*%
X104385000Y-154570000D03*
X104385000Y-156070000D03*
X98935000Y-156070000D03*
X98935000Y-154570000D03*
%TD*%
D15*
%TO.C,D4*%
X111620000Y-83550000D03*
X114920000Y-83550000D03*
%TD*%
D14*
%TO.C,D29*%
X123435000Y-116470000D03*
X123435000Y-117970000D03*
X117985000Y-117970000D03*
X117985000Y-116470000D03*
%TD*%
D11*
%TO.C,C13*%
X87450000Y-135460000D03*
X89000000Y-135460000D03*
%TD*%
D13*
%TO.C,D24*%
X117985000Y-98920000D03*
X117985000Y-97420000D03*
X123435000Y-97420000D03*
X123435000Y-98920000D03*
%TD*%
%TO.C,D32*%
X79885000Y-137020000D03*
X79885000Y-135520000D03*
X85335000Y-135520000D03*
X85335000Y-137020000D03*
%TD*%
D19*
%TO.C,SW19*%
X127795000Y-147700000D03*
X114868000Y-145160000D03*
%TD*%
%TO.C,SW15*%
X146845000Y-128650000D03*
X133918000Y-126110000D03*
%TD*%
%TO.C,SW16*%
X70645000Y-147700000D03*
X57718000Y-145160000D03*
%TD*%
%TO.C,SW11*%
X70645000Y-128650000D03*
X57718000Y-126110000D03*
%TD*%
%TO.C,SW12*%
X89695000Y-128650000D03*
X76768000Y-126110000D03*
%TD*%
%TO.C,SW1*%
X70645000Y-90550000D03*
X57718000Y-88010000D03*
%TD*%
%TO.C,SW10*%
X146845000Y-109600000D03*
X133918000Y-107060000D03*
%TD*%
%TO.C,SW5*%
X146845000Y-90550000D03*
X133918000Y-88010000D03*
%TD*%
%TO.C,SW7*%
X89695000Y-109600000D03*
X76768000Y-107060000D03*
%TD*%
%TO.C,SW13*%
X108745000Y-128650000D03*
X95818000Y-126110000D03*
%TD*%
%TO.C,SW2*%
X89695000Y-90550000D03*
X76768000Y-88010000D03*
%TD*%
%TO.C,SW9*%
X127795000Y-109600000D03*
X114868000Y-107060000D03*
%TD*%
%TO.C,SW18*%
X108745000Y-147700000D03*
X95818000Y-145160000D03*
%TD*%
%TO.C,SW6*%
X70645000Y-109600000D03*
X57718000Y-107060000D03*
%TD*%
%TO.C,SW8*%
X108745000Y-109600000D03*
X95818000Y-107060000D03*
%TD*%
%TO.C,SW3*%
X108745000Y-90550000D03*
X95818000Y-88010000D03*
%TD*%
%TO.C,SW17*%
X89695000Y-147700000D03*
X76768000Y-145160000D03*
%TD*%
%TO.C,SW14*%
X127795000Y-128650000D03*
X114868000Y-126110000D03*
%TD*%
%TO.C,SW20*%
X146845000Y-147700000D03*
X133918000Y-145160000D03*
%TD*%
%TO.C,SW4*%
X127795000Y-90550000D03*
X114868000Y-88010000D03*
%TD*%
M02*
